<svg id="Layer_1" data-name="Layer 1" xmlns="http://www.w3.org/2000/svg" width="64" height="64" viewBox="0 0 64 64"><defs><style>.cls-1{fill:#1d1d1b;}</style></defs><title>alien-ship-2</title><g id="alien-ship-2"><path class="cls-1" d="M43.87,24.2a1.41,1.41,0,0,0,.15-.62A43.37,43.37,0,0,0,39.62,20a1.69,1.69,0,0,0-.22.86C39.43,21,43.87,24.2,43.87,24.2Zm-.09-3.64a19,19,0,0,0-3.11-2.62c-.15,0-.52.65-.52.65s3.51,2.56,3.61,2.62S43.81,20.81,43.78,20.56Zm-.92-3.27c.12,0,0-.37-.06-.62a7.65,7.65,0,0,0-1.91-1.14s-.18.49-.12.65A9.78,9.78,0,0,0,42.86,17.3ZM23.35,14.8a8.5,8.5,0,0,1,2.84-2.56c.15-.06,0-.43-.22-.55s-1.63.55-3.11,2.07a8.8,8.8,0,0,0-2,3.3A3.58,3.58,0,0,0,22,17.6C22.2,17.57,22.33,16.34,23.35,14.8Zm-.22,4.93a13.86,13.86,0,0,0-2.07,5.52c-.06,1.11.49,1.66,2.25,2.16a10.73,10.73,0,0,0,4.28.4c.34-.18.37-2.1-.4-5a14.08,14.08,0,0,1-.31-5.7c.06-.55-.26-1-.55-.89A12.38,12.38,0,0,0,23.13,19.73Zm2.8,3.42c.46,1.94.71,3.27.43,3.45a12.26,12.26,0,0,1-3.21-.43c-.68-.15-1-.31-1-.77a16.94,16.94,0,0,1,1.08-3.82c.55-1.2,1.73-2.68,2.1-2.71C25.53,18.86,25.47,21.21,25.93,23.15ZM10.83,20.1a5.87,5.87,0,0,0-3.51,3,5.62,5.62,0,0,0-.09,3.48c.15.15,1.51.52,1.63.31s-.71-2.13-.4-3.67,2.68-2.43,2.8-2.53S11.17,20.13,10.83,20.1Zm45,4.53a.4.4,0,0,0,.25-.43,32.59,32.59,0,0,0-3.64-2.47,2.78,2.78,0,0,0-.18.86A21.43,21.43,0,0,0,55.83,24.63Zm.06,3.95c.15,0,.28-.22.25-.46a36.34,36.34,0,0,0-4.53-3.61,1.87,1.87,0,0,0-.28,1C51.42,25.65,55.74,28.58,55.89,28.58ZM55.4,31c.09.06.31-.37.34-.55a36.41,36.41,0,0,0-5.12-3.33,4.69,4.69,0,0,0-.65,1C49.91,28.24,55.31,30.92,55.4,31Zm-2.16,1.48c.18.06.28-.22.37-.43s-4.78-2.78-5-2.74-.43.59-.52.71S53.06,32.4,53.24,32.46ZM51,34.06a37.43,37.43,0,0,0-3.88-2.4,1.75,1.75,0,0,0-.49.71,29.75,29.75,0,0,0,4,1.94C50.75,34.28,50.81,34.19,51,34.06Zm-2.77,2.1c.15,0,.37-.18.52-.28a19.15,19.15,0,0,0-3.42-2.07,1.89,1.89,0,0,0-.59.52A26.43,26.43,0,0,0,48.19,36.16Zm-3,.89a19.5,19.5,0,0,0-2.5-1.6c-.15.06-.43.34-.43.43a23,23,0,0,0,2.43,1.42C44.86,37.33,45.23,37.05,45.23,37.05ZM54,49.78l-2.68-7.92a34.62,34.62,0,0,0,4.32-3c1.79-1.51,5.61-5.76,5.73-9.25s-2.07-7.24-6.47-10.85-10.6-4.72-10.6-4.72a19.19,19.19,0,0,0-5.3-4.93A17.43,17.43,0,0,0,26,8.17a14.13,14.13,0,0,0-8.14,6.41A42.56,42.56,0,0,0,10,17.08c-3.61,1.63-7.12,5.18-7.3,6.84S3.53,31,7.32,35.57A24.9,24.9,0,0,0,15.21,42l-4,8.91a3.51,3.51,0,0,0-1.45.71c-.65.55-2,2.8-.34,4.19s4.87,1,5.24-1A2.54,2.54,0,0,0,13.73,52l6.41-7.61s1.79.49,5.27,1.29a32.09,32.09,0,0,0,5.67.86l.71,2.65a2.24,2.24,0,0,0-1.33,1c-.46.77-1,2.53.4,3.58s4.68.77,4.93-1.26a2.47,2.47,0,0,0-1.17-2.68l.28-3.27a60.52,60.52,0,0,0,6.29-.83c4.07-.71,5-1.6,5.12-1.63s5.55,6.35,5.55,6.35a8.2,8.2,0,0,0-.74,1.94c-.18.92-.18,2,1.54,3.05s4.78-.15,4.28-2.62A4,4,0,0,0,54,49.78ZM18.32,17.88q2.82-5.87,8-7.77a14.54,14.54,0,0,1,11,.25,12.07,12.07,0,0,1,6.66,7.4,39.12,39.12,0,0,1,1,8.81,2.07,2.07,0,0,1-.22.89s-5.12-4.56-5.33-4.56-.83.49-.65.71S44,27.68,43.87,27.9a6,6,0,0,1-1.42.71s-3.85-3.42-4.13-3.42-.74.49-.62.59,4.07,3.14,3.91,3.3a4.67,4.67,0,0,1-1.57.59c-.15-.06-2.74-2.71-3-2.68s-.65.31-.52.49S39.28,29.9,39.09,30s-1.76.46-1.76.46-1.94-1.79-2.07-1.79-.71.18-.65.4,1.63,1.66,1.51,1.73a22.2,22.2,0,0,1-11.8-.46c-6.47-2-7.21-4.1-7.21-4.1A15.63,15.63,0,0,1,18.32,17.88ZM4.85,26.2C4.08,22.78,7.5,20.13,9.57,19a56.58,56.58,0,0,1,6.9-2.71c.12.06.18.31.18.31a27.68,27.68,0,0,0-1.54,5.7,14.75,14.75,0,0,0,.22,4.65c.12.15,3,4.22,10.76,5.42A33.83,33.83,0,0,0,42.67,30.7,10.19,10.19,0,0,0,46.34,28,4.43,4.43,0,0,0,47,25.62a19,19,0,0,0-.31-4.75,41.4,41.4,0,0,0-1-4.16,18.81,18.81,0,0,1,6.16,2.43c2.28,1.66,6.56,4.84,6.38,9.12s-5.39,7.12-7.83,8.14S39.71,41,30.25,40.2s-13.44-2.13-18.8-5.86S5.29,28.13,4.85,26.2Zm5.67,29c-1-.43-1.14-2.9.52-3.05.83-.08,2.65.68,2.59,2S11.48,55.64,10.52,55.21Zm2.56-3.88c-.18,0-.65,0-.65-.12s3.58-8.48,3.76-8.63A9.85,9.85,0,0,1,19,44.2C18.94,44.3,13.27,51.29,13.08,51.32ZM31.94,53c-.83-.62-1-2.19,0-2.53a1.9,1.9,0,0,1,2.62,1.11C35.09,53,32.78,53.57,31.94,53Zm.22-6.32a15.87,15.87,0,0,1,1.76.06,21.45,21.45,0,0,1-.37,2.62c-.09,0-.77,0-.8-.06S32.16,46.64,32.16,46.64Zm1.57-2c-7.8,0-13.38-1.17-17.72-3.73S8.4,34.68,8.67,34.4s4.81,3.48,9.62,5.27S26.43,41.74,33,42a37,37,0,0,0,16.4-3.21c4-1.79,6.29-3.42,6.47-3.21s-2.28,3.11-6,4.84S41.53,44.63,33.73,44.67ZM52.1,49.38c-.22-.31-4.56-5.52-4.53-5.61a13.66,13.66,0,0,1,2.74-1.14c0,.09,2.31,6.66,2.13,6.72S52.32,49.69,52.1,49.38Zm1.39,5.15c-1.57-.86-1.29-3.08-.46-3.3a2.81,2.81,0,0,1,2.77,1.42A1.55,1.55,0,0,1,53.49,54.53Z"/></g></svg>