<svg id="Layer_1" data-name="Layer 1" xmlns="http://www.w3.org/2000/svg" width="64" height="64" viewBox="0 0 64 64"><defs><style>.cls-1{fill:#1d1d1b;}</style></defs><title>alien-3</title><g id="alien-3"><path class="cls-1" d="M58.68,8.49A3.36,3.36,0,0,0,52.8,7a2.7,2.7,0,0,0-.12,3.83s-3,3.46-3.12,3.58-3.29-2.08-4-1.87-3,5-3,5-7-7.92-11.21-7.29-6,6.37-6,6.37-1.79-.5-2.21-.54-.25-1.54-1.25-2.54-3.12-.75-3.12-.75-2.25-2.54-3.33-2.62-2.75,2.58-2.83,2.71-1.17-.67-1.17-.67,1-3.17-1.67-3.5-5.67,2.17-4,4.58A3.35,3.35,0,0,0,9.6,14.83,42.59,42.59,0,0,0,13.89,18c.38,0,2-2.67,2.17-3s2.13,2,2.79,2.83a38,38,0,0,0,4.25,3.46s-4.46,11-4.67,16.67,2.79,8,6.5,9.42S34,48.2,34,48.2l-.21,2a7.29,7.29,0,0,0-.83.46,11.38,11.38,0,0,0-1.71,2.08S30,52,29.39,53.12s.75,2.58,1.92,2.29.67-2,.67-2a10.6,10.6,0,0,1,.54-1,1.27,1.27,0,0,1,1.08-.75s.08,1,.08,1.63.92,1.21.92,1.21,0,.92,0,1-2.33.29-2.71.46.13,1.71.54,2.13,2.79-.79,3-1a14.07,14.07,0,0,0-.12-2.71l.67,0s.21,2.38.29,2.58a5.55,5.55,0,0,0,2,.71c.46,0,1.29-1,1.29-1.67s-2.62-.83-2.62-.83l-.08-1,.13-.37a18.53,18.53,0,0,0,0-2.71l2.79,0s.33.29.63.5A1.51,1.51,0,0,0,42,51.53c.58-.5.79-2.58-.75-2.67a1.86,1.86,0,0,0-1.92,1.33l-3.17-.46L35.8,48s1.58-.12,2.54-.25a25.38,25.38,0,0,0,7.75-2.54c4.17-2,4.67-6,4.17-12.58a21.29,21.29,0,0,0-4.62-11.29S47,17.58,47.1,17.41s2.83,1.13,3.33,1,4.71-6.21,4.71-6.21S59.47,11.41,58.68,8.49ZM31,54.45c-.33.25-1.29-.58-.5-1.17C30.77,53.06,31.3,54.2,31,54.45Zm9.83-4.87c.62,0,1,.17,1,.71s-.75.75-1,.54S40.47,49.58,40.8,49.58Zm-32.46-36c-1.46.17-1.83-1.37-1.75-1.83s.54-1.54,1.58-1.58,2.12-.08,2.29,1.21S9.8,13.45,8.35,13.62Zm11.42,3.67c-1.58-2.37-2.5-3.29-3.17-3.58s-.92-.42-1.17-.17-1.25,2.58-1.83,2.67-2.87-1.75-2.87-2,.46-.54.71-.58,1.21,1,1.54.71,2.67-3.08,2.83-3,2.58,3,3,2.88,1.21-.62,1.71-.37,1.17.63,1.25,1.08.13,2.33.75,2.46,2.21.21,2.17.42-1.12,2.42-1.12,2.42A7.28,7.28,0,0,1,19.76,17.28ZM36.1,53.12a1.56,1.56,0,0,1-1.5.21,18.29,18.29,0,0,1,.33-4.21C35.14,48.8,36.39,52.74,36.1,53.12ZM48.35,35.45c-.17,0-1.83-1.21-2-1.17s-.37.54-.25.67,2.13,1.21,2.17,1.5-.08,1.13-.08,1.42a1.92,1.92,0,0,1-.08.54A17.54,17.54,0,0,0,45.47,37c-.12.13-.54.75-.33.83a15.09,15.09,0,0,1,2.79,1.71,4.69,4.69,0,0,1-.5,1.17l-.17.21-2.83-2s-.87.42-.5.75,3,2,2.83,2.29S45.85,43,45.85,43A20,20,0,0,0,43,41c-.29,0-.67.38-.5.54s2.67,2.08,2.5,2.21-1.08.63-1.08.63-2.08-1.54-2.25-1.58-.54.21-.54.38,2.13,1.58,2,1.67a7.39,7.39,0,0,1-2,.63C41,45.28,39.8,44,39.35,44s-.67.25-.5.42,1.54,1.17,1.38,1.29-7.33,1.42-11.37.71S22.26,44.7,21,41.16s.71-11.08,2.88-16.54S28.22,13,31.35,11.91c1.89-.63,6.79,2.63,11.71,9S48.51,35.49,48.35,35.45Zm5.5-23.58c-.12.17-3.67,5.37-3.83,5.33S47,15.7,46.76,16s-1.83,4.42-2,4.17-1.46-2-1.46-2,2.08-4.75,2.63-4.46,3,2.17,3.42,2,3.92-4.29,4.13-4.17S54,11.7,53.85,11.87Zm3.58-2.21a2.28,2.28,0,0,1-3.83.42c-1.25-1.54.6-2.86,1.13-3C57.1,6.45,57.93,8.45,57.43,9.66ZM23.64,39.87a3,3,0,0,0-1,1.58.46.46,0,0,0,.38.54c.21,0,.29-.12.42-.62s.63-.79.88-1S23.88,39.7,23.64,39.87Zm4.21,3.21c-1.37-.29-1.83-1.62-2.17-1.62-.83,0-.58,1.25.42,2.13a9.55,9.55,0,0,0,4.08,1.63A1,1,0,0,0,31.05,44C30.89,43.53,29.22,43.37,27.85,43.08Zm1.71-24c.21-.17.13-.33.54-1.58a3.6,3.6,0,0,1,1.75-1.83c.17-.17.08-.42-.17-.67s-1.42.13-2.08,1.75-.81,2.18-.75,2.29S29.35,19.28,29.55,19.12Zm-1.67,6c.21,0,1.38-.92,3.67-1.92a8.77,8.77,0,0,1,4.79-.46,4.11,4.11,0,0,0,.13-1.08c0-.42-2.12-.58-4.87.29s-4.3,2.2-4.25,2.46S27.68,25.12,27.89,25.12ZM33.14,25c-6.12,1.58-7.54,5.88-6.87,9.83s3.88,6.33,10,5.54,7.58-6,6.88-9.67S37.39,23.85,33.14,25ZM36,39c-5,.65-7.67-1.31-8.22-4.58s.62-6.81,5.68-8.12c3.51-.91,7.64,1.65,8.22,4.71S41,38.33,36,39ZM33.83,28.37c-3.39.88-4.17,3.25-3.8,5.44s2.14,3.51,5.51,3.07a4.32,4.32,0,0,0,3.8-5.35C38.95,29.47,36.18,27.76,33.83,28.37Zm3.18,3c-.29.46-2.25.58-2.46.38s-.25-1.67.33-2S37.3,30.91,37,31.37Z"/></g></svg>