<svg id="Layer_1" data-name="Layer 1" xmlns="http://www.w3.org/2000/svg" width="64" height="64" viewBox="0 0 64 64"><defs><style>.cls-1{fill:#1d1d1b;}</style></defs><title>alien-1</title><g id="alien-1"><path class="cls-1" d="M26.57,19.9a6.6,6.6,0,0,1-2.42,3.29,4.71,4.71,0,0,1-4.29.21c-.17,0-.42,1-.21,1.21s.46.25,1.79.33a5.15,5.15,0,0,0,3.92-1.21c1.58-1.17,2.17-3.29,2-3.58A.65.65,0,0,0,26.57,19.9Zm-7.5,9.29c0-.33-.59-.66-.79-.37A4.84,4.84,0,0,0,18,32a8.49,8.49,0,0,0,1.25,3.38c.29.17.83-.12,1-.42s-.21-.33-.92-2.21A6.15,6.15,0,0,1,19.07,29.19Zm14-2.37c.17-.21-.08-.58-.29-.71s-1-.08-2.33,1a3.85,3.85,0,0,0-1.5,2.29c.21.13.5.54.71.5S29.86,29,30.73,28,32.9,27,33.07,26.81Zm7.54-2.62a8,8,0,0,1,2.46.83,3.69,3.69,0,0,1,1.38,2.29,1.93,1.93,0,0,0,.71-.37c.17-.21,0-1.29-1.5-2.54a4.45,4.45,0,0,0-3-1.12C40.4,23.44,40.44,24.15,40.61,24.19ZM36.32,36.9c1.21,0,1.63-1.21,1.42-3S36,31.13,34.9,31.6a2.17,2.17,0,0,0-1.21,2.71C33.9,35.31,35.11,36.94,36.32,36.9Zm-1-4.09c.61-.26,1.41.27,1.52,1.23s-.11,1.59-.76,1.61-1.3-.85-1.41-1.39A1.16,1.16,0,0,1,35.27,32.8Zm5.5,4a4.79,4.79,0,0,0,2.75-4.25c0-2.58-1.11-3.5-2.29-2.71S39,34.06,39,35.44A1.29,1.29,0,0,0,40.78,36.81ZM40.69,33c.42-1.33.75-2.08,1.17-2.21s1.17,1.46.38,3.13-1.62,1.83-1.83,1.71S40.28,34.31,40.69,33ZM35.94,42.9c-1.37-.12-1.37-.75-2.21-1.62s-1.33-1.57-2.08-1.42c-2.58.54-2.08,2.75,1,3.92s4.88.13,5.17-.08.21-.37.13-.67S37.32,43,35.94,42.9ZM47.86,35.6a3.94,3.94,0,0,0,1.71.88c.25,0,.21-.08.33-.42s-1.23-1.3-1.46-1.17S47.73,35.31,47.86,35.6Zm-1.62,1.67a2.32,2.32,0,0,0-.54.92,11.86,11.86,0,0,0,2.67,1c.21,0,.42-.42.42-.79S46.37,37.17,46.23,37.27Zm-.92,2.58a.81.81,0,0,0-.58.71c0,.33,3,1.58,3.25,1.58s.21-.21.29-.46S45.69,39.79,45.32,39.85Zm-1.46,2.33c-.12.13-.42.5-.33.75a17.12,17.12,0,0,0,3.38,1.71c.21,0,.33-.21.33-.46S44.13,41.92,43.86,42.19Zm-1.29,2.08a2,2,0,0,0-.58,1,31.19,31.19,0,0,0,4,1.92.74.74,0,0,0,.29-.5C46.28,46.4,42.81,44.19,42.57,44.27ZM41.19,47c-.25,0-.54.88-.42,1.21s3.58,1.46,3.88,1.46.25-.17.33-.37S41.19,47,41.19,47Zm-1,2.33a2,2,0,0,0-.62.79,14.08,14.08,0,0,0,2.38,1c.21.08.17,0,.29-.33S40.52,49.22,40.23,49.31ZM55.78,13.85c2.21-.5,3-3.08,1.25-5.67A5.1,5.1,0,0,0,49.94,6.6c-2.37,1.42-.87,4-.87,4l-2.83,2.54s-1.08-.62-2.29-1.17-10.08-3.75-16-1.71A25.22,25.22,0,0,0,18.57,16L13.4,12.4s1.67-1.37.83-3-3.58-1.87-6-.83-3,4-1.38,5.54a2.53,2.53,0,0,0,3.29.25l5.42,4.58c-2.62,4-3.37,11-1,18.17s6.67,13.13,6.5,13.17a20.5,20.5,0,0,0-4-.17,8.36,8.36,0,0,0-5,3.21c-1.37,1.71-1.37,4.29-.79,4.63s2.46.25,3.67.17,3.79-.71,5.71-.87,2.13.79,4.58,1,4.63-1.58,5-1.62a13.42,13.42,0,0,0,4.29,1c2.75.13,5.42-1.46,6.71-1.62s2.08,0,4.5,1,4.71-.17,5.38-.42a6.5,6.5,0,0,1,2.79.25,3.07,3.07,0,0,0,2.83-1.29c.5-1,0-1-.58-1.17s-1-1.71-2.79-3.75S48,49.31,48,49.31s1.75-3.46,3.33-7.08a37.57,37.57,0,0,0,2.29-16.79c-.58-6.58-4.29-9.67-4.29-9.67L51.9,13.1A5,5,0,0,0,55.78,13.85Zm-45.29-.71c-.37,0-1.54,1-2.75.13s-.42-3.42,2-4c1.17-.29,2.79-.12,3.29,1s-.87,1.75-.92,2,7,5.56,9.6,7.41l-1.53,1.6C18.26,19.55,10.81,13.18,10.48,13.15ZM52,27.23a45.43,45.43,0,0,1-2.21,14.13c-1.12,3-2.79,6.46-3,7a9.57,9.57,0,0,0-.42,1.25,12.69,12.69,0,0,0-2.12,2c-.46.71-.58.67-.42.92s.92,1,1.17.79,2.21-2.67,4.54-2.33,4.21,3.67,4,3.92-2,0-2.79.21-1.79.92-2.54.71-2.25-1.75-5-1.67-4.54,1.42-6.62,1.5A13.15,13.15,0,0,1,31.86,55c-.17-.17.08-1.29.63-1.42s4.33,1.17,6,.79,2.63-1.75,2.38-2a.78.78,0,0,0-.67-.21,7.36,7.36,0,0,1-3.54,0c-1.58-.5-2.29-.87-3.83-.42s-2.71,2.58-3.58,3a6.18,6.18,0,0,1-4.29,1.38c-2.67-.08-3.71-.87-4.83-.83s-3,1.17-4.42,1.29-2.87.25-2.87-.17,1.25-4.21,3.88-4.54,3.88.42,5.92-.21a31.1,31.1,0,0,0,3.88-1.5c.29-.12,0-.79,0-.79a1.82,1.82,0,0,0-1.5-.33,22.44,22.44,0,0,0-2.62.75s-4.29-7.5-5.87-13.12-1.62-10-1-12.62A9.6,9.6,0,0,1,17,20.35s2.77,2.57,3,2.64c.5.16,3.75-3.51,3.31-3.84l-3-2.33s1.71-3.12,8.5-4.5,11.21,0,16.38,2.54S51.94,22.31,52,27.23ZM48.73,14.77a9.34,9.34,0,0,1-1.29-1.25c.13-.08,2.92-2.71,2.92-2.71s-1.58-2,.42-3.33,4.63-.08,5.67,1.79-.29,3.62-1.5,3.5-2.58-1.08-3.08-.87S48.94,14.81,48.73,14.77Z"/></g></svg>