<svg id="Layer_1" data-name="Layer 1" xmlns="http://www.w3.org/2000/svg" width="64" height="64" viewBox="0 0 64 64"><defs><style>.cls-1{fill:#1d1d1b;}</style></defs><title>alien-obduction</title><g id="alien-obduction"><path class="cls-1" d="M16.75,28.74c-.62-.12-1.28-.22-2.66-3s.28-4.34.72-5.31-.47-1-1-.94a6,6,0,0,0-3.69,1.81C8.56,22.87,7.28,26,10.65,29a6.58,6.58,0,0,0,7.63.78c.28-.28.13-.47,0-.78S17.37,28.87,16.75,28.74Zm-2,.44a3.93,3.93,0,0,1-4.12-1.94c-1.53-2.41-.78-5.25,2.25-6.41.41-.16.31.34.22.53a4.52,4.52,0,0,0,0,4.91C14.65,29.09,14.75,29.06,14.71,29.18Zm7.78-8.84A2.14,2.14,0,0,0,21.37,24c1.16,1,2.5.75,3.13-1S24.07,20,22.5,20.34Zm1.21,2.39c-.35,1-1.1,1.13-1.75.56a1.2,1.2,0,0,1,.63-2C23.47,21.08,24.05,21.75,23.71,22.73Zm29.24-6.15a1.7,1.7,0,0,0-.9,2.89c.92.82,2,.6,2.49-.8S54.2,16.32,52.94,16.58Zm1,1.9c-.28.78-.88.9-1.39.44a1,1,0,0,1,.5-1.61C53.72,17.17,54.19,17.7,53.91,18.48ZM12.06,35.68a2.41,2.41,0,0,0-1,3.44c.53.91,2.75.78,3.28-1.5S13.08,35.19,12.06,35.68Zm1.51,1.91c-.3,1.28-1.55,1.35-1.84.84a1.35,1.35,0,0,1,.56-1.93C12.86,36.22,13.86,36.31,13.57,37.59Zm3.84-24.5s.25-.59.31-.78-.25-.22-.47-.19-.44.84-.44.84l-.31,0A7.24,7.24,0,0,0,16,11.53a1.48,1.48,0,0,0-.66.22c-.16.09.34,1,.34,1a8.58,8.58,0,0,1-1-.37c-.12-.09-.47.59-.47.75s.66.31.66.31-.62.19-.75.25,0,.53,0,.63a6.07,6.07,0,0,0,1.31-.06s-.84.94-1,1,.38.5.63.56,1.16-1,1.16-1l.34,1.41a1.32,1.32,0,0,0,.59-.22c.25-.19-.22-1.28-.22-1.28a.94.94,0,0,0,.34-.31.62.62,0,0,0,.06-.56l1.09-.12c.28,0,.06-.47,0-.66S17.4,13.09,17.4,13.09Zm10-2.87a5.32,5.32,0,0,0-1.22-.28L27,9.24a1,1,0,0,0-.25-.41c-.16-.12-1,.53-1,.53S25.68,8.21,25.71,8s-.41-.06-.62.06.06,1.38.06,1.47-.56.09-.91.13-.19.59-.19.59l.59.25-.56.41c-.12.09.38.53.44.56s.66-.59.66-.59.13.22.22.41.41,1,.47,1.09.69-.12.84-.25-.06-.28-.25-.56a4.62,4.62,0,0,1-.37-.84h1.06C27.56,10.74,27.34,10.31,27.37,10.21ZM44.9,8.59c-.78.59-.84,1.06-.25,2s2.81.72,2.69-.81A1.56,1.56,0,0,0,44.9,8.59Zm.43,1.47c-.24-.37-.22-.56.1-.81a.64.64,0,0,1,1,.47C46.48,10.35,45.57,10.43,45.33,10.06Zm8.6,14.22c-.19-.09-1.28,1-1.37,1A4.16,4.16,0,0,1,52.71,24c.06-.22-.28-.19-.62-.19s-.37,1.53-.41,1.66-1.25,0-1.37,0l-.06.66,1.13.19s-.72.66-.87.75.19.56.41.72,1-1,1-1a12.18,12.18,0,0,0,.19,1.56c.09.22.63,0,.75,0a11.6,11.6,0,0,0-.12-2.09s1.56-1.41,1.66-1.56S54.12,24.37,53.93,24.28ZM42.75,31.56a1.24,1.24,0,0,0-1.87-1.41,1.59,1.59,0,0,0-.53,2A1.33,1.33,0,0,0,42.75,31.56Zm-1.53-.73a.53.53,0,0,1,.79.59.56.56,0,0,1-1,.24A.67.67,0,0,1,41.22,30.83Zm-.29,14.86a1.59,1.59,0,0,0-.53,2,1.33,1.33,0,0,0,2.41-.56A1.24,1.24,0,0,0,40.93,45.68ZM42.07,47a.56.56,0,0,1-1,.24.67.67,0,0,1,.22-.83A.53.53,0,0,1,42.07,47Zm11.17-4.52A1.24,1.24,0,0,0,51.37,41a1.59,1.59,0,0,0-.53,2A1.33,1.33,0,0,0,53.25,42.43Zm-1.53-.73a.53.53,0,0,1,.79.59.56.56,0,0,1-1,.24A.67.67,0,0,1,51.72,41.7Zm-.22,9.45a1.59,1.59,0,0,0-.53,2,1.33,1.33,0,0,0,2.41-.56A1.24,1.24,0,0,0,51.5,51.15Zm1.14,1.27a.56.56,0,0,1-1,.24.67.67,0,0,1,.22-.83A.53.53,0,0,1,52.64,52.42ZM46.5,36.37a5.08,5.08,0,0,0,.41-.75c0-.16-.44-.16-.59-.16s-.53.75-.53.75-.37-1.09-.44-1.25-.34,0-.53.16.19,1.06.19,1.06a5.36,5.36,0,0,1-.75-.12c-.37-.09-.25.34-.31.5s.72.53.72.53-.59.06-.72.09-.16.47-.12.69.69.19.81.28-.53.78-.62.91.41.31.56.41,1-1.47,1.06-1.47a14,14,0,0,1,.5,1.5c.06.09.5-.06.66-.19s-.56-1.91-.56-1.91l1.22-.12a3.06,3.06,0,0,0,.16-.59C47.59,36.53,46.5,36.37,46.5,36.37ZM41,52.87s.22-1.19.28-1.31-.16-.09-.34-.16-.44.63-.44.63a5.91,5.91,0,0,0-.72-1.09c-.16-.06-.44.25-.44.25,0,.22.53,1.38.56,1.5s-1,.06-1.22.09-.09.94,0,1.19.5.28.5.28l-.06.69.78.13c.16,0,.56-1.25.56-1.25l.81.94.25-.09c.16-.06,0-.66,0-.66s.72.13.84.13.09-.25.09-.53S41,52.87,41,52.87ZM29.93,45.06c-.16-.31-1.78.16-2.06.31s-.16,3.25-.16,3.25a12.4,12.4,0,0,0-2.28-.75,3.42,3.42,0,0,0-2.16.28,3.59,3.59,0,0,0,0-.53,1.21,1.21,0,0,0-.25-.66,3.51,3.51,0,0,0,.56-.47,1.81,1.81,0,0,0,.47-1.19c0-.19-.09-.25-.31-.25s-.53.69-.72.81a1.58,1.58,0,0,1-1.16.44,4.33,4.33,0,0,1-1.47-.06s-.28-1.09-.37-1.37-.47-.12-.69,0,.34,1.84.34,1.84a1.93,1.93,0,0,0-.37,2.16,2.26,2.26,0,0,0,1.38,1.31,2.49,2.49,0,0,0,.16,1.19,1.31,1.31,0,0,0,1,1A14.6,14.6,0,0,0,22,54.87c.16.28.56.16.72.13a12.67,12.67,0,0,0,0-2.44l.41.06s.16,1.81.22,2.09.5.25.69.16-.06-2.12-.06-2.12a5,5,0,0,0,1.16,0c.5-.09,1-.22,1-.22s.06,2.22.09,2.38.59.13.81,0a10.15,10.15,0,0,0,.06-2.56L27.5,52s.09,1.94.13,2.13.44,0,.59-.19a11.29,11.29,0,0,0,0-2.28l.25-.44a10.8,10.8,0,0,0,.16-2.53c.06-.62.16-2.16.22-2.28A8,8,0,0,1,30,45.84C30.18,45.74,30.09,45.37,29.93,45.06Zm-9.66,3.81c-.16-.19-.84-1.37.44-1.59.44-.08,1.47-.28,1.69.16a.91.91,0,0,1-.25,1.31A2.13,2.13,0,0,1,20.28,48.87Zm6.56,2.53a5.13,5.13,0,0,1-3.66.25c-1.69-.37-1.75-1.31-1.22-1.84a5.15,5.15,0,0,1,3.22-1.12c1.53.13,2.06.63,2.22,1.13A1.24,1.24,0,0,1,26.84,51.4ZM60.78,35.68c0-6.31.16-21.22-.16-25.94s-3.19-5.06-4.78-5.13-9.41-.31-17.16-.44S19,3.4,13.93,3.65,7,4.78,5,6.31s-1.87,5.41-1.94,7.41c0,0-.06,8.81-.06,16.47s.38,23,.38,25.94.94,3.22,1.25,3.31a45.13,45.13,0,0,0,4.59.16c.31-.06,4.12-6.31,7.44-11.69s12.63-19.34,13.94-21,3.72-4.69,4.75-4.56.63,1.53.63,2.13S34.59,35.65,33.46,41s-4.31,17.31-4.25,18.41,1,1,2.16,1,5.84,0,10.53-.09,8.44-.19,12-.5,6.53-1.41,6.94-2.87S60.78,42,60.78,35.68ZM35.09,20.15a6.32,6.32,0,0,0-3.25,1.75c-.06-.12-2.59-2.72-2.41-4.62s.59-4,4.63-3,6.75,2.72,8.5,5.22,1.91,4.5,1.72,5.16a4.94,4.94,0,0,1-.34.94s-2.19-3.87-2.34-3.87-.78.41-.62.56,2.78,4.06,2.56,4.16l-.69.28s-2.19-3.87-2.37-3.94-.75.19-.62.31,2.34,3.72,2.25,3.75a7,7,0,0,1-.81,0l-1.91-3.12s-.5.16-.44.28,1.69,2.91,1.56,2.91-1.56-.56-1.78-.66l-1.16-.5s.75-3.22.09-4.12S36.87,19.93,35.09,20.15Zm4.56-6.87c2.06.41,3,1.09,3.56,2.47a4,4,0,0,1,.06,2.63,18.14,18.14,0,0,0-3.16-2.84A15.9,15.9,0,0,0,37,13.59C37.06,13.46,37.59,12.87,39.65,13.28ZM36.9,9.37c-.47-.34-.81-1.31.41-1.56.88-.18,1.31.41,1.28.84S37.37,9.71,36.9,9.37ZM59.06,52.21c0,2.88,0,3.66-1.22,4.56s-6.25,1.59-11.19,1.69-10.62.16-12.5.16-2.78.09-2.84-.06,2.72-11.22,3.84-18,2.31-13.5,2.31-13.5a13.65,13.65,0,0,0,3.19,1c1.59.25,3.69-.25,4.44-1.91s.16-4.37-.09-5a7.49,7.49,0,0,0-.81-1.37,8.76,8.76,0,0,0,.41-1.91,6.53,6.53,0,0,0-.22-1.69,1.73,1.73,0,0,1,.81-.37,6.06,6.06,0,0,1,1.56,0A3.84,3.84,0,0,0,47.81,17c.53.28,2-.12,2.5-2a1.77,1.77,0,0,0-1.53-2.47A3,3,0,0,0,47,13.71a4.31,4.31,0,0,0-.44,1,9.13,9.13,0,0,0-1.47.06,9.24,9.24,0,0,0-1.19.41,4.33,4.33,0,0,0-1.69-2.28A4.5,4.5,0,0,0,39.43,12l-.87-1.87a1.55,1.55,0,0,0,.75-1.88C38.84,7,38,6.56,36.5,7.15A1.61,1.61,0,0,0,36.09,10a3.07,3.07,0,0,0,1.63.44l.44,1.5a2.16,2.16,0,0,0-1.5.41,3.61,3.61,0,0,0-.94.91A8.49,8.49,0,0,0,31.59,13a4,4,0,0,0-3.53,4.25,8.4,8.4,0,0,0,2,4.59,9.93,9.93,0,0,0,1,1.16,77.85,77.85,0,0,0-5.62,8.06c-3,4.84-8.78,14.12-10.78,17.34s-6,9.44-6.22,9.5a6.75,6.75,0,0,1-2.81-.12c-.47-.34-.47-5.72-.41-8.78s-.37-21.44-.44-27.72S3.9,9.68,7,7.24c1.31-1,3.69-1.72,7-2s16.38.47,22.56.72,16.31.41,18.34.47,3.94.94,4.09,3.75.16,13.84.16,19.75S59.09,49.34,59.06,52.21ZM48.56,13.59c.75-.33,1.06.81.84,1.56a1.09,1.09,0,0,1-1.59.66C47.31,15.46,47.21,14.18,48.56,13.59ZM31.62,15.81A1.59,1.59,0,0,0,30.56,17c.09.09.19.59.56.59s.09-.19.53-.66,1-.16,1.38-.22.25-.37.13-.69S32.56,15.49,31.62,15.81Z"/></g></svg>