<svg id="Layer_1" data-name="Layer 1" xmlns="http://www.w3.org/2000/svg" width="64" height="64" viewBox="0 0 64 64"><defs><style>.cls-1{fill:#1d1d1b;}</style></defs><title>alien-ship-beam</title><g id="alien-ship-beam"><path class="cls-1" d="M23.95,21.78c.28-.15.06-1.95,1.11-4A6.19,6.19,0,0,1,28,15s-.34-.8-.56-.87-1.67.71-3.21,3A6.47,6.47,0,0,0,23,21.44C23.14,21.69,23.67,21.94,23.95,21.78Zm20.95.77c.09-.31-4.52-3.11-4.76-2.87a1.62,1.62,0,0,0-.34.8c0,.12,4.45,2.5,4.6,2.53S44.8,22.87,44.89,22.56Zm-.12-1.48c.19,0,.25-.28.22-.56A26.6,26.6,0,0,0,40.85,18c-.25-.06-.44.43-.37.53A41.76,41.76,0,0,0,44.77,21.07ZM43.38,17.8c.15,0,.06-.22,0-.53s-2-1.11-2.13-1.11-.15.53-.09.65A12.83,12.83,0,0,0,43.38,17.8Zm-20,9.33a1.54,1.54,0,0,0-.46,2.69c.9.59,3.4.22,3.06-1.36A1.8,1.8,0,0,0,23.39,27.13Zm1.51,1.95A1.09,1.09,0,0,1,23.36,29a.77.77,0,0,1,.74-1.05C24.53,27.93,25.37,28.58,24.9,29.08Zm7.82-.93c-1.54.62-1.88,2.38-.59,3s3.43.15,3.31-1.33S33.39,27.88,32.72,28.15Zm.12,2.29c-.74-.28-.53-1.24.37-1.45.4-.1,1.11.37,1.08.87S33.59,30.71,32.84,30.44Zm7.91-1.14c.34.53,1,.93,2.5.8s1.82-1.33,1.27-2.44-2.79-.79-3.46-.4A1.39,1.39,0,0,0,40.75,29.29Zm1-1.48c.43-.35,2-.06,2,.46s-.25,1.17-1.54.83S41.46,28.06,41.77,27.81Zm7.79,4.11c0,.12,5.28,1.88,5.56,1.95s.43-.25.43-.37a50,50,0,0,0-5.44-2.19C50,31.33,49.53,31.8,49.56,31.92Zm2.13-2.38c-.15,0-.68.65-.68.65s5.93,2.44,6.15,2.44.19-.12.31-.34S51.84,29.54,51.69,29.54Zm-.09-2.35c-.12.06-.49.71-.34.9s6.52,2.44,6.67,2.41.12-.28.12-.37A59.43,59.43,0,0,0,51.6,27.19Zm4.54-.06c.19,0,.19-.28.15-.46a20.48,20.48,0,0,0-3.21-1.27c-.25-.06-.48.5-.34.59S56,27.1,56.14,27.13Zm-42.88-1A8.91,8.91,0,0,0,9.36,29a1.92,1.92,0,0,0,0,2.41c.25.19,1.3-.15,1.3-.4s-.8-.71-.34-1.79,3-2.44,3.24-2.53S13.5,26.2,13.26,26.11Zm45.47-.61c-3.75-3.21-10.83-4-10.83-4l0-.58a17.89,17.89,0,0,0-4-7.42c-3.09-3.34-8-3.67-8-3.67s0-2.18,0-2.43-1.48-.21-1.48-.21l.08-1.36a2.53,2.53,0,0,0,1.15-.58A2.35,2.35,0,0,0,34,1.82c-2.47-.62-3.5,1-3.3,2.35s1.73,1.69,1.73,1.69l.08,1.28a5.77,5.77,0,0,0-1.73.41c-.45.29-.25,2.22-.25,2.22s-.82.16-1.19.29a23.59,23.59,0,0,0-7.66,4.28,10.65,10.65,0,0,0-4,7.33s-5.81.78-9.15,2.47-5.56,4.12-5.85,5.93,1.52,5.19,6,9,11.53,5.15,11.53,5.15S17,54.67,16.79,55.53s-.12,2.92,7.42,5.31,13.68,1.4,19,.29,8-3.79,8.2-4.74S47,43.92,47,43.92a30.88,30.88,0,0,0,6.43-2.76,16.88,16.88,0,0,0,7.17-7A6.93,6.93,0,0,0,58.72,25.5Zm-12.9,4c-.56.77-4.73,2.53-12,2.47s-12-2-12.67-2.44a2.53,2.53,0,0,1-1.05-1.08c-.09-.28-.49-3.83-.28-3.92a31.54,31.54,0,0,0,9.45,2.56,36.43,36.43,0,0,0,12.88-.62,25.49,25.49,0,0,0,4-1.33C46.25,25.25,46.38,28.77,45.82,29.54ZM32,4.79a1.5,1.5,0,0,1,.53-2A1.67,1.67,0,0,1,34.73,4.3C34.7,5.6,32.38,5.38,32,4.79Zm-.15,3.43c.31,0,2.87-.15,2.94.15a3.39,3.39,0,0,1,0,1.24c-.09.06-3.15.06-3.15.06S31.61,8.19,31.89,8.22ZM22.34,16.5c2.72-2.94,5.93-4.94,10.07-5.19A14.18,14.18,0,0,1,43,15.54,13.51,13.51,0,0,1,45.85,22c.09.74.19.87,0,1s-2.38,1.05-2.38,1.05-4.39-3-4.51-2.94-.62.65-.49.71,4.33,2.47,4.11,2.6a7.38,7.38,0,0,1-1.61.43c-.12,0-3-2-3.24-2s-.77.37-.62.53,3,1.54,2.63,1.82-7.17.83-12.36-.19-7-1.88-7.6-2.6C19.7,22.35,19.62,19.44,22.34,16.5Zm3.8,43.22c-.49-.1,1.67-5.53,1.85-5.53s.12.15.12.31a50.51,50.51,0,0,1-1.17,5.56C26.76,60.07,26.29,59.76,26.14,59.73ZM49.22,56c0,.4-2.07,2-4.23,2.72a29.84,29.84,0,0,1-4.17,1.08s-.49-3.24-1.05-5.65-.71-3-.93-3.06a.73.73,0,0,0-.49.12s.8,3.46,1.2,5.81a18,18,0,0,1,.37,3,47.48,47.48,0,0,1-6.8.59,24.24,24.24,0,0,1-5.44-.43c.06-.12,1.48-9.08,1.36-9.18s-.8-.22-.83-.06-2.5,8.62-2.63,8.65a34,34,0,0,1-4.36-1.51c-1.58-.68-2.38-1.11-2.44-1.45s3.34-12,3.77-12.14a7.19,7.19,0,0,1,2.81.49c-.06.19-1.85,8.19-1.67,8.28s.43.31.53.19,1.85-8.28,2.1-8.28,1.7.31,3.4.46l3.61.31s.28,4.82.12,7.85-.09,3.86,0,3.89a23,23,0,0,0,.87-6.36c0-3.15-.19-5.25,0-5.35s.87.06,2.29-.19,2.5-.34,2.5-.34,1.36,4,1.88,5.5,1.14,4,1.14,4l.34,0a45,45,0,0,0-1.27-5.53c-.93-3.18-1.33-4-1.24-4.08a26.56,26.56,0,0,0,2.84-.46c1.42-.34,2.26-.49,2.26-.49S49.19,55.65,49.22,56ZM51.51,39.8a39.87,39.87,0,0,1-17,4,51.63,51.63,0,0,1-20-3.28c-4.73-1.88-8.19-5.56-7.82-6,.21-.23,2.6,1.67,7,2.84S21.78,39.67,31.33,40s13.5-.56,17.3-1.3,7.26-2.19,7.45-2S54.38,38.47,51.51,39.8ZM58.18,33a29,29,0,0,1-2.87,1.92,4.4,4.4,0,0,1-1.33.49s-4.26-1.95-4.48-2-.74.49-.49.71S53.11,35.78,52.9,36s-3.86,1.33-10,1.85-14.37.9-22.49-.56S6.92,33.06,6.18,32.35s-2.32-1.7.22-4.17,6.8-4,8.22-4.51a16.21,16.21,0,0,1,2.9-.68s0,4.26.68,5.44S20,31.05,23.45,32.1a39.43,39.43,0,0,0,11.77,1.61A34.87,34.87,0,0,0,44.89,32a6.2,6.2,0,0,0,3.24-2.87,6.35,6.35,0,0,0,.43-2.81,15.87,15.87,0,0,1-.09-2.5,13.3,13.3,0,0,1,6.64,1.54c3.49,1.73,4.51,3.21,4.51,4.42A5.78,5.78,0,0,1,58.18,33Z"/></g></svg>