<svg id="Layer_1" data-name="Layer 1" xmlns="http://www.w3.org/2000/svg" width="64" height="64" viewBox="0 0 64 64"><defs><style>.cls-1{fill:#1d1d1b;}</style></defs><title>asteroid-2</title><g id="asteroid-2"><path class="cls-1" d="M52.73,23.3c-2.87-4.37-3-9.87-5.12-11.87s-6.94-3.06-9.94-2.94-4.56,1.56-8,3.06-4.94.88-6,1a5.81,5.81,0,0,0-1.87.56s-2.25-.75-6.12,1.38-2.61,5.75-4.06,7.06C9.55,23.42,6.67,26.17,6,29.17S8.3,42.49,10.3,46.86s5.75,6.88,7.31,7a25.85,25.85,0,0,0,6.75-1.12,8.75,8.75,0,0,1,4.75.13c1.56.38,5.38,2.25,9.56,2.63s6.75-2.25,7.75-3.12a52.24,52.24,0,0,0,6.5-7.56c3.25-4.37,5.13-7.31,5.19-10.31S55.61,27.67,52.73,23.3ZM23,14.36c.33-.07,1.25,0,4.06-.44s6.31-2.87,6.56-2.44.06,3.13-1.06,4.06-3.87,1.13-5.62.81S22.48,14.49,23,14.36ZM52.3,42.49c-2.81,3.25-6.81,9.31-8.81,10.25a12.54,12.54,0,0,1-7.31.81c-2.37-.5-5.06-3.37-9.25-2.94S20.55,53,17.17,51.92s-6.44-8.75-7.63-13.31S6.8,30.3,8.36,27.8s4.19-4.94,4.88-5.94,1.5-4.56,2.75-5.5,4.38-2.19,4.94-1.75a8.5,8.5,0,0,0,4.81,3c3.5.94,6,1.06,8.38-1.19A5.39,5.39,0,0,0,36,11.8a3,3,0,0,1,.56-1.37c.25-.19,8.25.31,10.06,2.63s2.25,8.75,4.94,12.75,4.19,6.06,4.19,8.63S55.11,39.24,52.3,42.49ZM17,20a10.77,10.77,0,0,0,1.17-2.12c.25-.54,1.71-.62,2-.79s0-.62-.12-.92-1.92.25-2.5.58a5.92,5.92,0,0,0-1.54,3C16.11,19.9,16.73,20.2,17,20Zm-6,6.79a12,12,0,0,0-1.37,2.83,8.58,8.58,0,0,0,.08,2.54c.08.54,1,.21,1.29.08s-.08-1.12-.08-2.42,1.29-2.25,1.46-2.54S11.2,26.6,10.94,26.82ZM44.32,16.49a2.41,2.41,0,0,0-3.5-2.58,2.5,2.5,0,0,0-.83,4C40.94,18.74,43.94,18.78,44.32,16.49Zm-3-1.53a1.21,1.21,0,0,1,1.76,1.3c-.19,1.15-1.7,1.13-2.18.69A1.26,1.26,0,0,1,41.33,15ZM31.82,23c.21-2-1.8-2.29-2.62-2.08-1.67.42-1.67,2.71-.75,3.17S31.61,25.07,31.82,23Zm-2.58.28a.8.8,0,0,1,.32-1.36c.36-.09,1.22,0,1.13.9S29.63,23.51,29.23,23.31ZM27.15,26c-2.54-1.12-6.12-1.51-7.54-.83a13.78,13.78,0,0,0-5.12,5.33,7.2,7.2,0,0,0-.5,6.33c.79,1.79,2.13,1.5,3.42,1.75a4.22,4.22,0,0,1,2.33,1.83c.42.46,2.46.38,3,.29A6.25,6.25,0,0,0,25.4,38.9C26.11,38,27,35.61,28,32.11S29.69,27.15,27.15,26Zm.5,3a58.66,58.66,0,0,1-2.12,6.08c-.87,2.38-.87,2.92-2.17,3.71s-2.25,1.08-2.58.75a6.31,6.31,0,0,0-2.87-2c-1.5-.37-2.62-.67-2.79-1.12a7.75,7.75,0,0,1,.38-5.37c1.17-2.08,3.58-4.58,4.83-5,.81-.3,4.25.5,5.46.88S27.82,28,27.65,29.07Zm16.79,2.38a5.14,5.14,0,0,0,2.13-7.08,5.74,5.74,0,0,0-7.46-2.71c-3.79,2.13-4.42,6-2.67,8.63S42.32,32.36,44.44,31.45Zm-7.5-5c.21,0,1.33,2.38,1.67,2.29s.67-.83.54-1a16.85,16.85,0,0,1-1.58-2.71c.13-.12.54-1.12.75-.87s1.33,3.25,1.58,3.08.67-.92.5-1.21-1.54-2.5-1.33-2.71,1.17-.92,1.33-.75.71,2.17,1,2.21A.61.61,0,0,0,42,24.2c0-.29-.5-1.87-.21-2a4.8,4.8,0,0,1,3.63,2.58c1.08,2.17.67,3.5-.08,4.54a5.67,5.67,0,0,1-5.54,1.79,3.62,3.62,0,0,1-2.87-3C36.82,27.57,36.73,26.49,36.94,26.49ZM16.07,33.4a22.57,22.57,0,0,0,1.67,3c.21.08.46,0,.75-.25s-1.25-3-1.58-3.33S15.94,33.1,16.07,33.4Zm1.54-2.54a29,29,0,0,0,2.29,4.71.71.71,0,0,0,.5-.79,22.49,22.49,0,0,0-2-4.42C18.15,30.2,17.67,30.57,17.61,30.86Zm1.83-2.08a39.21,39.21,0,0,0,1.71,4c.21.17.5-.17.58-.75a12.54,12.54,0,0,0-1.5-3.88C20,28,19.38,28.58,19.44,28.78Zm2.25-1.17a6.47,6.47,0,0,0,.75,2.13c.25.29.5-.08.67-.46a3.83,3.83,0,0,0-.46-1.92C22.52,27.24,21.69,27.37,21.69,27.61Zm12.75,8.13a1.83,1.83,0,0,0-2.54-1.92c-1.58.75-1.75,2.42-.87,3.17S34.44,37.65,34.44,35.74Zm-2.56.4a.79.79,0,0,1,.36-1.29.75.75,0,0,1,1,.78C33.27,36.41,32.24,36.44,31.88,36.13Zm17.5-5.21c-2,.94-2.19,3-1.09,4s4.27.83,4.27-1.56A2.29,2.29,0,0,0,49.38,30.93Zm-.29,3.16a1.36,1.36,0,0,1,.61-2.21,1.28,1.28,0,0,1,1.77,1.34C51.47,34.56,49.7,34.61,49.09,34.09ZM24.23,44a2,2,0,0,0-.75,3.42c.83.71,3.46,1.33,4-.92S25.41,43.45,24.23,44Zm2.37,2.29c-.33,1.38-1.95,1-2.46.56a1.26,1.26,0,0,1,.46-2.1C25.33,44.41,26.94,44.89,26.6,46.28ZM45,41.95c-1.71-.25-3.87.63-5.75,1.17s-2.67-.57-3.54-.25a6.36,6.36,0,0,0-2.83,3.71c-.08,1,1.54,2.38,2.33,2.75a7.24,7.24,0,0,0,3.08.46c1.54,0,2.25.71,3.25.88S43.07,50,44,49.11a34.33,34.33,0,0,0,2.88-2.62,5.46,5.46,0,0,0,.42-2.62A2.38,2.38,0,0,0,45,41.95Zm1.29,3.71c-.17.25-1.79,1.42-2.54,2.33s-1.33,1.58-1.92,1.63-1.71-.71-2.67-.87-2.54,0-3.42-.42a2.22,2.22,0,0,1-1.37-1.58,4.66,4.66,0,0,1,.88-2.21s.08,2.42.33,2.5.67.13.67-.08-.33-3,0-3,.71,0,.75.17-.08,3.13.25,3.17.67.17.67,0,0-3,0-3,.5,0,.58.13,0,3,.33,3.08.67,0,.67-.21A21.27,21.27,0,0,1,39.4,44c.17,0,1-.46,1-.29s0,2.42.21,2.42.83,0,.83-.29-.21-2.21,0-2.33,1.17-.5,1.21-.33-.08,1.63.08,1.63.67,0,.67-.29,0-1.54.17-1.58,2.25,0,2.5.54A4,4,0,0,1,46.27,45.65Zm-10-8.42c.13.08,1.21,3.5,1.21,3.5a2.3,2.3,0,0,0,1-.21c.29-.21-1.08-3.42-1.25-3.58S36.05,37.06,36.32,37.24Zm3.42,1.38a9.84,9.84,0,0,0-.87-3.71c-.29-.21-.89.27-1,.42a25.2,25.2,0,0,0,.92,3.46C38.82,39,39.52,38.86,39.73,38.61Zm.58-4.12a14.26,14.26,0,0,0,.25,3.17c.13.33.75,0,.92-.08a14.84,14.84,0,0,0-.37-3.17C41,34.11,40.44,34.32,40.32,34.49Zm5.46,5c-.08-.08-.58.71-.54.92a30.16,30.16,0,0,0,3,2.29c.67.5.73-.1.73-.54S45.91,39.66,45.77,39.53Zm1-2.37c-.25-.08-.76.31-.71.54a26.5,26.5,0,0,0,3.67,3.79c.21,0,.42-.33.63-.5S47,37.24,46.73,37.15Zm2.08-1c-.33-.21-.75.5-.75.5s2.46,3.17,2.67,3.29.67-.37.75-.67S49.15,36.36,48.82,36.15Z"/></g></svg>