<svg id="Layer_1" data-name="Layer 1" xmlns="http://www.w3.org/2000/svg" width="64" height="64" viewBox="0 0 64 64"><defs><style>.cls-1{fill:#1d1d1b;}</style></defs><title>asteroid</title><g id="asteroid"><path class="cls-1" d="M30.62,11.42c.21-.21-.83-2.67-1-2.83s-.9,0-.83.17.79,2.5,1,2.79S30.41,11.63,30.62,11.42Zm1.46-.58c.25-.17-.33-1.54-.62-1.83s-.8-.29-.75-.12A11.47,11.47,0,0,0,31.46,11C31.66,11.13,31.83,11,32.08,10.84ZM24,15c0-1.83-2-2.06-3.17-1.42a1.75,1.75,0,0,0-.33,2.83C21.25,17.13,24,16.8,24,15Zm-2.46-.71C22.06,14,23,14.34,23,15s-1,.83-1.42.67A.78.78,0,0,1,21.58,14.26Zm6.71,2.63c1.08.08,3-.29,3.33-2S29.25,12.27,28,13C24.66,15.13,27.21,16.8,28.29,16.88Zm.21-3.12c.44-.21,2-.21,2,.88s-1.42,1.5-2.33,1.25S27.29,14.34,28.5,13.76Zm19.92,7.5C46.87,21.88,47,23,48,23.76s2.79,0,2.75-1.08A1.82,1.82,0,0,0,48.41,21.26ZM48.67,23c-.32-.23-.37-.62.14-.82a.6.6,0,0,1,.77.47C49.59,23,49,23.21,48.67,23ZM17.16,28.76a9.55,9.55,0,0,0-1.92,2.42,5.41,5.41,0,0,0-.71,2.63c.13.58.67.13,1,0s.17-.79.54-1.75a15.78,15.78,0,0,1,2-2.67C18.25,29,17.44,28.57,17.16,28.76ZM37.37,30.3c-.17-.71-.79-.92-1.67-1a5.87,5.87,0,0,1-2.42-1.12c-1.08-.67-2.75-1.75-4.67-1.25-5.42,1.42-4,7-2.42,8.29s3,1,4.38.71,1.71-1.12,2.71-2,3.08-.87,3.58-1.08S37.54,31,37.37,30.3Zm-1.29,1.83c-.54.17-2.5.13-3.46.79S31,35.21,28.91,35a3.39,3.39,0,0,1-3-3.21,3.71,3.71,0,0,1,3-3.92,5.49,5.49,0,0,1,3.29.83c1.13.67.88.79,2,1.08s1.88.42,2,.88S36.62,32,36.08,32.13ZM35.58,37a3.13,3.13,0,0,0-1.21,4.67c1.21,1.42,3.92,1.13,4.83-1.42A2.6,2.6,0,0,0,35.58,37Zm2.67,3a1.85,1.85,0,0,1-3.09.9,2,2,0,0,1,.77-3A1.66,1.66,0,0,1,38.25,40ZM36.79,20.76c.42.13,9.5-10.17,9.63-10.5s-.71-1.08-1.12-1.08-9.85,9.77-9.75,10.25A3.41,3.41,0,0,0,36.79,20.76ZM18.54,19.21c2,.63,5.08-.21,6.88-.33s4.75.54,6.13.46,3.21-1.92,3.79-5-.5-7-3.37-8S25.62,6.88,24,7.46,20.68,8,18.21,9.21s-2.42,2.54-2.46,4S16.58,18.59,18.54,19.21Zm7.71-11a2.33,2.33,0,0,1-1.58,2.08,1.93,1.93,0,0,1-2.21-1.08C22.41,9,26.12,7.92,26.25,8.17Zm-7.46,2.33a13.21,13.21,0,0,1,2.38-1,3.59,3.59,0,0,0,3.21,1.75,3.54,3.54,0,0,0,3.08-2.38c.29-.71.17-1.25.29-1.25s2.88-.92,4.29.92a7.19,7.19,0,0,1,1.21,6.25c-.62,1.67-2.12,2.92-3,2.92a37.4,37.4,0,0,0-6.58-.42c-2.79.25-3.25.46-3.79.21a6.45,6.45,0,0,1-2-3.46A4.48,4.48,0,0,1,18.79,10.51ZM36.5,8a10,10,0,0,0,2.38-2.21c.08-.25-.12-.67-.62-.83s-2.79,1.25-2.71,2C35.58,7.38,36.12,8.09,36.5,8ZM13.12,23.3c.33-.58-1.83,0-2.42.25a6.92,6.92,0,0,0-2.92,3.33A8.63,8.63,0,0,0,6.62,31a1.93,1.93,0,0,0,1.79.29c.42-.21.29-1.67.92-3.71S12.79,23.88,13.12,23.3Zm39.42-9.54c.33.08,2.58-2.83,2.71-3.21s-.62-.46-1-.5-3,2.51-2.79,2.75A3.51,3.51,0,0,0,52.54,13.76ZM38.66,26.84c-2.37-1.42-3.92-4-7.08-4.25s-5.29,1.56-8,1.92c-3.83.5-7.17,1-9.83,3.13a11.39,11.39,0,0,0-4,8.12,5.1,5.1,0,0,0,1.67,4.46c.79.75-.12,2.25-.25,3.5a11.39,11.39,0,0,0,3.92,7.88c2.88,2.17,4.46,2,7,2s3.58.54,7.5,1.25,5,.17,7.88-2.46S39,46.84,39.25,46.3s1.54-1.21,2.71-2.54,2-5.67,1.67-8.67S41,28.26,38.66,26.84ZM13.83,40.42a5.85,5.85,0,0,0-.71-1.29c.17-.12,1-1.12,2.08-.71s2,2.83,1.63,3.13a12.94,12.94,0,0,1-3.21,1.13C13.54,42.55,14,41,13.83,40.42Zm27.83-1.29c-.79,3.08-1.12,3.71-2.12,4.46s-2.21,1.88-2.25,2.29,1,3.63-1,5.42-3.5,2.38-4.54,2.29-4.5-1.37-8-1.42S18.12,52,16.54,50.8a11.59,11.59,0,0,1-3.29-5.33c0-.75-.21-1.46.08-1.58s3.21-.62,4.08-1.33.71-2.29,0-3.37S16.16,37.21,15,37s-2.75,1.17-2.75,1.17a3.73,3.73,0,0,1-.54-2.75C12,34,12.75,30.71,15,28.67s5.75-2.42,8.21-2.71c1.45-.17,3.13-1,5.5-1.25a8.3,8.3,0,0,1,6.5,1.67,25,25,0,0,1,5,4.83A9.41,9.41,0,0,1,41.66,39.13Zm9.75-1.67c-.87,0-1.53,1-1.75,1-.42.08-1,0-1.58,0a3.27,3.27,0,0,0-2.62.92c-.92,1-1.37,5.38-.12,6.42s3.25.58,4,.46,1,.21,1.88.25a4.26,4.26,0,0,0,3.63-2c.92-1.58.13-4.33-.33-5.37A3.85,3.85,0,0,0,51.41,37.46Zm-2.17,7.13c-.33,0-.58.08-.62-.12s0-1.5-.21-1.54-.71-.25-.75,0,.13,1.88-.08,1.75-.5.13-.87-.46-.5-3.62-.12-4.08c.14-.17.92-.37.88-.17s-.58,1.13.5,1.58a3.49,3.49,0,0,1,1.42.92S49.58,44.59,49.25,44.59Zm0-3.25c-1-.54-1-1.62,0-1.75,1.38-.17,2,.75,1.88,1.33S50.25,41.88,49.25,41.34Zm4.13,1c-.17,1.5-.37,1.83-.67,1.92s-.25.25-.29.08,0-1.46-.25-1.5-.79,0-.83.13.21,1.79-.12,1.75-.87,0-.92-.25a8,8,0,0,1-.08-2c.13,0,1.54-.08,1.83-1A3.1,3.1,0,0,0,52,39.59c.13-.08.54-.25.75-.08A4,4,0,0,1,53.37,42.34Zm2.92-25.67c-1.79-2.38-5.62-1.08-6.37-.88s-2.8-.19-3.75.54c-3,2.33-2.25,6.46-2.12,7.5a2.52,2.52,0,0,0,2.17,2c.92.08,3.63,1.29,5.08,1.63s4,.21,5-1.37S58.08,19,56.29,16.67ZM55,24.38c-.42-.29-.87-1.67-1.12-1.67s-.79.21-.67.5,1.38,1.71,1.13,2-.71.63-.92.46-.67-2.21-1.08-2.17-1,.25-.83.5.67,1.46.42,1.5-2.12-.58-3-.67-2.17.13-2.62-1.08-.46-4.46,1-5.92c.35-.34,1.54-.42,1.63-.17s.29,2,1.46,2.67a2.67,2.67,0,0,0,2.58.38c.71-.25,1.21-.62,1.13-.79s-.33-.67-.5-.67-1.67,1.08-2.67.25-.62-2-.17-2.17,3.29-.58,4,.38S55.37,24.67,55,24.38Zm-5.37,6.83c.13-.42-.08-.33-.46-.42s-3,2.18-3.33,2.58c-.12.17.75,1.17,1.08,1.17S49.46,31.63,49.58,31.21ZM31,57.46c-.25-.08-1,.21-3.92.17a4.9,4.9,0,0,1-3.54-1.17c-.33,0-1,.63-1.25,1s.63.54,1.13.83a9.22,9.22,0,0,0,4,.71,8.45,8.45,0,0,0,3.83-.54C31.25,58.3,31.25,57.55,31,57.46ZM31.16,46c-1.33-.67-1.62-2.33-2.21-2.87s-3.76-.4-4.21-.21c-1.62.71-2.58,2.75-2.92,3.25a2.86,2.86,0,0,0,.88,2.71,8.47,8.47,0,0,0,3.88.58c1.67,0,3.79,1,4.58.92a2.27,2.27,0,0,0,2-2.08C33.12,47.13,32.5,46.67,31.16,46Zm0,3.46a8.22,8.22,0,0,0-4.12-1c-2.21.08-2.58.38-3.21,0s-1.12-1.25-.92-1.75a8.82,8.82,0,0,1,2.54-2.79c.68-.29,2.63-.29,2.92.21s.67,1.67,1.29,2S32.25,47.3,32.21,48,31.29,49.55,31.16,49.46Zm-8.71-7.08c.29-.21-.67-4.71-.87-5.17a.56.56,0,0,0-1,0,32.09,32.09,0,0,0,1.13,5.33C21.87,42.92,22.16,42.59,22.46,42.38Zm1.83-1.25c.38-.12-.42-3.67-.54-3.92a.55.55,0,0,0-.83,0c-.25.38.33,3.42.5,3.88S23.91,41.26,24.29,41.13Zm2.33,0a19,19,0,0,0-.37-3.37c-.12-.21-.74-.36-.83-.08A26.09,26.09,0,0,0,25.79,41C25.91,41.3,26.54,41.26,26.62,41.09Zm2.46.46c.5,0-.33-3.21-.58-3.46a.46.46,0,0,0-.71,0,9.37,9.37,0,0,0,.29,3C28.33,41.76,28.58,41.59,29.08,41.55Zm1.75-2.29c.29-.12.25-1,.17-1.46s-.66-.26-.83-.08a3.16,3.16,0,0,0-.08,1.58C30.21,39.71,30.54,39.38,30.83,39.26ZM16,45.21c0,.38.13,1.46.42,1.58s.46,0,.67-.08-.17-1.12-.29-1.5S16,44.9,16,45.21Z"/></g></svg>