<svg id="Layer_1" data-name="Layer 1" xmlns="http://www.w3.org/2000/svg" width="64" height="64" viewBox="0 0 64 64"><defs><style>.cls-1{fill:#1d1d1b;}</style></defs><title>astronaut-helmet</title><g id="astronaut-helmet"><path class="cls-1" d="M23.4,38c.21-.08.25-.12.25-.5s-.42-.29-1.17-1.12a7.63,7.63,0,0,1-1.92-4.83c-.21-2.62,2.13-5.42,2.54-6.17s0-1.68-.54-1.67c-6.33.21-7,5.5-7.13,6.79s-.08,4.92,2.29,6.54A7.79,7.79,0,0,0,23.4,38ZM17.53,27.84c.67-1.33,1.63-2.83,3.63-3.12.46-.07.75.29.54.46s-2.71,3-2.58,6S20,35.51,20.48,36s.71.71.58.83a4.74,4.74,0,0,1-3.79-2.21C16,32.64,16.86,29.18,17.53,27.84Zm24.67-3.37c.13,0,.21-.17.21-.42a4.32,4.32,0,0,0-1.87-1.37.47.47,0,0,0-.17.67A12.83,12.83,0,0,0,42.19,24.47Zm-1.37,3.13c.17.08,3.5,1.75,3.63,1.75s.13-.25.13-.5a18.35,18.35,0,0,0-3.71-2.08C40.65,26.8,40.65,27.51,40.82,27.59Zm0,2.83c.21.21,3.83,2.29,4,2.33s.08-.33.08-.58a23.29,23.29,0,0,0-3.83-2.5C40.94,29.68,40.61,30.22,40.82,30.43Zm.08,2.33s-.33.58-.29.79a44.18,44.18,0,0,0,3.88,2.38s.29-.33.25-.54A23,23,0,0,0,40.9,32.76Zm3.17,6.67c.17.08.21-.29.29-.46s-4.5-3.21-4.5-3.21-.46.54-.46.71S43.9,39.34,44.07,39.43Zm-1.58,2.46a2.2,2.2,0,0,0,.46-.37,29.79,29.79,0,0,0-4-3.25c-.25,0-.54.29-.5.5S42.48,41.89,42.48,41.89ZM37.36,40.3a1,1,0,0,0-.46.58,32,32,0,0,0,3.42,2.58,2.2,2.2,0,0,0,.46-.37A18.21,18.21,0,0,0,37.36,40.3Zm-8-15.54c.13.08-.71,1.17-.71,1.17s.33.5.46.5a2.23,2.23,0,0,0,.75-.67c.08-.17.58.71.58.71l.63-.25a10.26,10.26,0,0,1-.46-1.46c0-.25,1.42,0,1.42,0a1,1,0,0,0,.17-.42c0-.17-.42-.42-.42-.42s.21-.58.08-.75-1.29.46-1.29.46-.08-1-.08-1.21-.29-.21-.58-.12-.37,1.5-.37,1.5a3.23,3.23,0,0,0-1-.08.9.9,0,0,0-.21.58C28.32,24.47,29.23,24.68,29.36,24.76Zm5.45,13s.2.3.27.3a1.32,1.32,0,0,0,.44-.39c0-.1.34.42.34.42l.37-.15A6.07,6.07,0,0,1,36,37.1c0-.15.84,0,.84,0a.61.61,0,0,0,.1-.25c0-.1-.25-.25-.25-.25s.12-.34,0-.44-.76.27-.76.27,0-.62,0-.71-.17-.12-.34-.07-.22.89-.22.89a1.91,1.91,0,0,0-.59,0,.53.53,0,0,0-.12.34c0,.1.54.22.62.27S34.81,37.79,34.81,37.79Zm-11.63,2.3s-.12.46-.17.58-.5-.08-.67-.12-.17.25-.17.5.83.42.83.42l-.67.67a7.11,7.11,0,0,0,.71.46c.13,0,.46-.54.46-.54l.58.79.42,0-.12-.92.67,0a1.92,1.92,0,0,0,0-.75c-.08-.21-1-.21-1-.21s-.17-1-.37-1.08S23.35,40,23.18,40.09Zm5.07-6.17s.25.92.5.92h.5l-.12-1s.63-.12,1-.17,0-.37,0-.54-.83-.08-1.12-.08-.21-.67-.21-.79-.71.21-.87.29l0,.58-.37,0s0,.29,0,.42S28.25,33.93,28.25,33.93ZM36,29.39s.25.92.5.92H37l-.12-1s.63-.12,1-.17,0-.37,0-.54-.83-.08-1.12-.08-.21-.67-.21-.79-.71.21-.87.29l0,.58-.37,0s0,.29,0,.42S36,29.39,36,29.39Zm-5.88,9.9c-.08-.21-.58-.17-.75-.08a2,2,0,0,0-.12,1c0,.25-.21.13-.5.33s0,.88,0,.88l.79.33.38-.54a3.73,3.73,0,0,1,.38.5c.08.17.75-.29.75-.29L31.4,41l-.58-1.21S30.23,39.49,30.15,39.28ZM55.28,14.18s1.75-3.79-.71-4.58-3.92.83-3.83,2.58,2.38,2.5,2.38,2.5.58,12.5.58,12.67a9.44,9.44,0,0,1-2.17.08s0-1.08-.08-2S50,24.22,50,24.22s-1.17-6.54-3.17-8.63S41.4,8.76,33.23,8.26s-12,.83-17.58,4.92S9.19,25,9.19,25c-.37,0-1.46.08-1.75.58s.13,6.79.33,7.38,2.75,1.21,2.75,1.21a28.5,28.5,0,0,0,1,2.92c.67,1.67,1.79,4,1.79,4s-2.25,4.71-2,5.33,3.21,4,7.5,6.5,12.17,4.25,19,1.71,12.71-8,12.75-8.37-2.5-6.83-2.5-6.83a5.32,5.32,0,0,0,1-2.21,13.9,13.9,0,0,0,.42-3.46s1.67-.33,2-.87a9.81,9.81,0,0,0,.21-3s3.63.29,4,.21.92-.25,1-.83S55.28,14.18,55.28,14.18ZM32.44,9.89a13.34,13.34,0,0,1,.13,2.25c-.12,0-1.25.13-1.25.13L31,9.89C31.15,9.84,32.44,9.89,32.44,9.89Zm-5.71.21a10.72,10.72,0,0,1,2-.08,33.54,33.54,0,0,1,.13,3.5,5.81,5.81,0,0,1-1.71.13A17.46,17.46,0,0,1,26.73,10.09Zm-3.79,1.08s.33,1.5.13,1.58a7,7,0,0,1-1.21.08l-.25-1.17C21.78,11.59,22.94,11.18,22.94,11.18ZM10.69,32.64a1.48,1.48,0,0,1-1.12-.12c-.12-.17-.71-5.67-.42-5.92,0,0,1.54-.17,1.58.13A46.48,46.48,0,0,1,10.69,32.64Zm1.5-7.46s-1.42.13-1.54,0A17.8,17.8,0,0,1,14.36,17a16.22,16.22,0,0,1,6.25-4.92s.08,1.63.29,1.71a10.07,10.07,0,0,0,3.17-.17c.17-.25-.25-2.92-.12-3a6.35,6.35,0,0,1,1.83-.33,32.38,32.38,0,0,0,.29,4,6.86,6.86,0,0,0,2.25.21A3.22,3.22,0,0,0,30.07,14c0-.12-.54-4-.42-4a3.48,3.48,0,0,1,.42-.08s.21,3.54.46,3.5,3.17-.12,3.13-.46-.46-3.25-.21-3.21a16.38,16.38,0,0,1,8.71,3.63C46,16.64,48,23.59,47.9,23.68a5,5,0,0,1-.71.25s-5.46-5.62-10.67-6.46-9.46-1.37-14.92,1.13A35,35,0,0,0,12.19,25.18Zm.21,9.08c0-.29,0-7.13,0-7.21a39.54,39.54,0,0,1,8.88-6.46c4.17-2,9.58-2.08,13.33-1.46s7.08,3.08,9.42,4.71,2.54,2.21,2.54,2.21a62.38,62.38,0,0,0,.29,6.5,4.29,4.29,0,0,0,.75,1A16.13,16.13,0,0,1,46,38.05a16.07,16.07,0,0,1-3.83,5A25.88,25.88,0,0,1,38.9,45s-2.83-2.75-3-2.79-.83.46-.71.71,3.13,2.42,2.88,2.58a24.82,24.82,0,0,1-8.58,1.83,18.55,18.55,0,0,1-11.87-4.58A24.08,24.08,0,0,1,12.4,34.26ZM15.69,48a10.93,10.93,0,0,1-2.54-2.08,11.44,11.44,0,0,1,1.33-3.21c.22.15,1.33,1.42,2,2a9.1,9.1,0,0,0,1,.79S15.94,48.05,15.69,48Zm1.13,1c-.12,0-.62-.08-.5-.25s1.58-3,1.75-3.17.5.13.42.25S16.94,49.05,16.82,49.05Zm1.13,1c-.17-.08-.46-.17-.46-.29s1.58-3.25,1.58-3.25l.42.25A23.67,23.67,0,0,1,17.94,50.05ZM48.4,45.84a1.83,1.83,0,0,1-.46.42,22,22,0,0,0-1.79-2.92c-.21,0-.67.71-.67.71s1.67,2.46,1.5,2.71a5.24,5.24,0,0,1-1.17.75,15.06,15.06,0,0,0-1.42-2.42c-.25-.08-.92.42-.83.63s1.54,2.46,1.54,2.46-.83.75-1,.67-1.21-2.17-1.37-2.17-.67.58-.67.58,1.54,2,1.38,2.17l-.75.58-1.42-2.12s-.62.25-.62.42,1.46,2.38,1.38,2.5-2.46,2-7.75,2.63-8.62.13-11.54-.83-4-1.87-4.08-2a14.17,14.17,0,0,1,1.46-3.5,17.92,17.92,0,0,0,7.92,2.08c4.83.21,6.54.13,10.79-2a22.05,22.05,0,0,0,6.5-4.5,11.37,11.37,0,0,1,1.46-1.25S48.48,45.68,48.4,45.84Zm1.38-14.12a1.3,1.3,0,0,1-1.08.13c-.08-.12-.08-6.29,0-6.33s1.08.13,1.13.38A45.43,45.43,0,0,1,49.78,31.72ZM53,13.43a1.51,1.51,0,0,1,.21-2.79c.95-.36,1.54.42,1.67,1.46A1.3,1.3,0,0,1,53,13.43Zm2.58,15.29a11.81,11.81,0,0,1-3.62.13c-.17-.12,0-.58,0-.58s2.79,0,2.79-.25-.5-8.42-.25-8.62.29.08.42.33A81.72,81.72,0,0,1,55.57,28.72Z"/></g></svg>