<svg id="Layer_1" data-name="Layer 1" xmlns="http://www.w3.org/2000/svg" width="64" height="64" viewBox="0 0 64 64"><defs><style>.cls-1{fill:#1d1d1b;}</style></defs><title>bb-8</title><g id="bb-8"><path class="cls-1" d="M35.8,18.82a.71.71,0,0,0-.9-.54c-.42.1-.82.85-.18,1.19A.72.72,0,0,0,35.8,18.82ZM24,17.93c.06-.22-.47-2.53-.5-2.78s-.34,0-.53.09A12.62,12.62,0,0,0,23.21,18S24,18.15,24,17.93Zm-3.34,3.34A25,25,0,0,1,23,19.93c.22-.09.75,1.84.75,1.84a5.22,5.22,0,0,0,.91-.31,8.32,8.32,0,0,0-.75-2.62,4.37,4.37,0,0,0-1.94.53,8.82,8.82,0,0,0-2,1.5s.13.78.13.78A3,3,0,0,0,20.67,21.28Zm15.19-7.19c.91.16,2.16.63,2.28.53s0-.41-.06-.56-.47-.44-1.66-.69A13.2,13.2,0,0,0,34,13.06c-.12,0,.19.78.28.88S35,13.93,35.86,14.09Zm4.78,5.09c.13,0-.06-.62-.16-.81a5.35,5.35,0,0,0-1.84-.47s0,.69.16.84A8.29,8.29,0,0,0,40.64,19.18Zm-1.56,1.19a8.29,8.29,0,0,0,1.84.44c.13,0-.06-.62-.16-.81a5.35,5.35,0,0,0-1.84-.47S38.92,20.21,39.08,20.37ZM20.64,43.65A9.19,9.19,0,0,1,21,44.71c0,.16-1.31.72-1.19,1.16a7.85,7.85,0,0,0,4,3.81A3.81,3.81,0,0,0,27.71,49a16.7,16.7,0,0,0-.41-1.84l1.13-.47s.78,1.66.91,1.78,1.72-.22,3.44-2.44a6.7,6.7,0,0,0,1.09-5.31c-.09-.28-2.09,0-2.09,0L31,39.5s1-1.16,1.06-1.25S32,36.5,29.36,35.46a5.11,5.11,0,0,0-4.91.34c-.34.31.19,1.16.22,1.25s-1,.63-1.09.56a7.19,7.19,0,0,1-.47-1.09c-.09-.16-1.66.25-3.34,2.72a4.52,4.52,0,0,0-.66,4.5C19.14,43.9,20.64,43.65,20.64,43.65Zm0-3.62c.53-1,1.25-2.06,1.72-2.22,0,0,.66,1.06.84,1.09a10.33,10.33,0,0,0,2.63-1,6.2,6.2,0,0,0-.19-1.66,3.54,3.54,0,0,1,3.06,0c1.75.78,1.88,1.56,1.88,1.56s-1,1.38-.91,1.5,1.5,2.41,1.5,2.41a11.78,11.78,0,0,1,1.81.13,5.34,5.34,0,0,1-1,3.22,5.87,5.87,0,0,1-2.12,2.09s-.78-1.5-1-1.5-2.59.75-2.59,1.09.28,2.06.28,2.06A3.32,3.32,0,0,1,23,47.93c-1.84-1.69-2.09-1.91-1.84-2s1.19-.75,1.19-1a15.71,15.71,0,0,0-.62-2.12c-.06-.09-1.84,0-1.87-.09A8.62,8.62,0,0,1,20.64,40Zm8.69,2.34a2.65,2.65,0,0,0-4-2.66c-.87.47-1.87,1.09-1.28,3.63S29.24,45,29.33,42.37Zm-3.45-1.66a1.55,1.55,0,0,1,2.32,1.55c-.05,1.53-2.72,2-3.07.57S25.37,41,25.88,40.71Zm24.78-7.12c-1.67-4.42-9-8.58-9-8.58L43,23.42s1.33-1.83-.5-6.79S37,10.3,37,10.3,37,3,36.83,2.76s-4.08.17-4.21.33.5,6,.5,6A9.35,9.35,0,0,0,32,8.92L30.71,8.8A13.41,13.41,0,0,0,30.25,6c-.25-.33-3,.42-3.12.67a10.42,10.42,0,0,0,.42,2.5s-6.71,2.29-9.33,7.54a9.92,9.92,0,0,0,.58,9.75C12.16,31.13,11.08,42.38,12.46,47S18.58,60.46,30,61.26,47,55.67,50,50.38,52.33,38,50.66,33.59Zm-5-3.22c.25.09,1.84,1.66,1.66,1.72s-4.87,1.19-8.28-1-4.41-4.78-4.25-5.87a7.28,7.28,0,0,1,1.41.25,7.2,7.2,0,0,0,4,4.13A11.65,11.65,0,0,0,45.67,30.37ZM33.79,19.71a1.35,1.35,0,0,1,.5-2.08,1.63,1.63,0,0,1,2.17,1.79C36.12,20.51,34.12,20.3,33.79,19.71ZM41.71,27c2.16,1.16,2.59,2.19,2.59,2.19a6,6,0,0,1-4.19-.91,5.37,5.37,0,0,1-2.34-2.66A11.73,11.73,0,0,1,41.71,27ZM34,3.84c.12-.12,1.75-.37,1.75-.09s.19,6.09,0,6-1.41-.28-1.44-.41S33.89,3.9,34,3.84ZM28.3,7.53c.16-.09,1.09-.5,1.16-.28s.34,1.59.19,1.59H28.55S28.14,7.62,28.3,7.53Zm-7.51,8.65c2.67-3.92,6-5.5,10.88-5.42s7.63,2.71,8.63,5.54,1.5,6,1.25,6.21-.87-.17-2.12-.71a25.73,25.73,0,0,0-2.71-1s2-1.71.29-3.5-4.62-.37-5,.88.83,2.58.83,2.58a15,15,0,0,0-7.54,1,32.74,32.74,0,0,0-5.37,2.67A9.52,9.52,0,0,1,20.79,16.17ZM15.3,47a2.46,2.46,0,0,0-.66.63,16.38,16.38,0,0,1-.78-4.09,12.94,12.94,0,0,1,.34-4.06.53.53,0,0,0,.47.47,1.82,1.82,0,0,0,1-.25,10.34,10.34,0,0,0-.44,4A19.5,19.5,0,0,0,16.14,47,1.07,1.07,0,0,0,15.3,47Zm6.13,8c-.16-.09,0-.5.16-.59s.44.28.25.47S21.58,55.09,21.42,55Zm15.94,3.47a4.52,4.52,0,0,1-.72.34S34,55.46,33.83,55.46s-.53.38-.5.47A35.62,35.62,0,0,1,35.86,59c-.19.06-1.59.13-1.59.13a19.65,19.65,0,0,0-2-2c-.19,0-.66.53-.56.69s1.41,1.31,1.22,1.41a12.93,12.93,0,0,1-1.84.06s-.19-.78-.47-.81a3.21,3.21,0,0,0-.75.06s0,.72-.09.72a11.41,11.41,0,0,1-5.09-1.06,9.44,9.44,0,0,1-3.06-2.12s1.56-.75,1.19-1.59-1-1.19-1.56-1.06-1,1.72-1,1.72a12.17,12.17,0,0,1-3-2.94,10.68,10.68,0,0,1-1.69-2.81,1.33,1.33,0,0,0,.75-.41,2.21,2.21,0,0,0,.5-.72A9.48,9.48,0,0,0,22.36,52c4,1.19,7.31.88,10.19-1.16s5.66-7.06,4.63-11.5a10.43,10.43,0,0,0-7.37-7.5,15.16,15.16,0,0,0-9.5,1.84,18.58,18.58,0,0,0-3.84,4.13,9.06,9.06,0,0,1-1.47-.5c-.09-.09.78-5.28,2.91-7.38S25,23.43,32.52,24.9c.18,0,.25,5.53,5.69,7.59a22.11,22.11,0,0,0,10.16,1.19,9,9,0,0,1,.88,2.78c-.09.16-1.5.16-1.56.94s.47,1.53.84,1.5a6,6,0,0,0,1.16-.34l.16,1.22a8.37,8.37,0,0,0-7.62,3.28,31.61,31.61,0,0,0-4.62,9,14.32,14.32,0,0,0-.28,1.47S36.27,51.87,36,52s-.75.19-.59.41l2,2.88a11,11,0,0,0,.22,1.47c.13.41.5,1.31.5,1.31s-3.09-4.66-3.31-4.56-.59.44-.56.59S37.52,58.34,37.36,58.46ZM25.86,33.31c4-.55,8.69.84,9.44,7a9.27,9.27,0,0,1-6.59,10.28c-3,.88-8.59.06-10.53-4.31A9.46,9.46,0,0,1,25.86,33.31ZM49.27,46.71a4.52,4.52,0,0,1-.59,1.53S47,46.31,46.77,46.37s-.59.5-.47.69,2,1.63,1.91,1.84-.41,1.06-.5,1-1.56-1.62-1.78-1.59-.69.41-.56.59,2.13,1.63,1.88,2-.37.53-.37.53a13.33,13.33,0,0,0-1.78-1.72,1.27,1.27,0,0,0-.41.84c.06.16,1.56,1.53,1.47,1.66s-.22.47-.34.44-1.09-1.06-1.22-1-.47.75-.31.91.88.66.88.81A12,12,0,0,1,43.61,55a9.06,9.06,0,0,1,1.06-7.09A14.06,14.06,0,0,1,48,44.12a5.49,5.49,0,0,1,1.72-.62A18.66,18.66,0,0,1,49.27,46.71Zm.56-4.19a6.48,6.48,0,0,0-5.19,3.25A14.67,14.67,0,0,0,42,52.9c0,1,.5,3.06.31,3.19a13,13,0,0,1-2.09.88,10.75,10.75,0,0,1,.63-8.69,14.21,14.21,0,0,1,6.66-6.62,15.8,15.8,0,0,1,2.38-.28ZM29.24,54.71c-.44.59-.94,1.72.47,2.22a1.34,1.34,0,0,0,1.78-1.75A1.38,1.38,0,0,0,29.24,54.71ZM30,56.17c-.56-.2-.36-.64-.19-.88a.55.55,0,0,1,.89.19A.53.53,0,0,1,30,56.17ZM21,29.34c-.44.59-.94,1.72.47,2.22a1.34,1.34,0,0,0,1.78-1.75A1.38,1.38,0,0,0,21,29.34Zm9.4-.6c-.34.46-.73,1.33.36,1.72a1,1,0,0,0,1.38-1.36A1.07,1.07,0,0,0,30.42,28.74Zm8.21,6.88A1,1,0,0,0,40,34.26a1.07,1.07,0,0,0-1.74-.36C37.92,34.36,37.54,35.23,38.63,35.62Zm-2,14.22A1,1,0,0,0,38,48.48a1.07,1.07,0,0,0-1.74-.36C35.92,48.58,35.54,49.45,36.63,49.84Zm2.11-12.31c-.44.59-.94,1.72.47,2.22A1.34,1.34,0,0,0,41,38,1.38,1.38,0,0,0,38.74,37.53Zm1.46.76a.53.53,0,0,1-.71.69c-.56-.2-.36-.64-.19-.88A.55.55,0,0,1,40.2,38.29Zm5,1c.27-1-.53-1.79-1.29-1.45s-1.62,1-.93,2.05S44.91,40.24,45.18,39.29ZM44,38.59c.3-.13.62.2.51.57s-.61.67-.88.24S43.71,38.7,44,38.59Zm2.77-2a1.07,1.07,0,0,0,.33-1.91c-.62-.32-1.77-.65-2.18.56S45.82,37,46.73,36.63Zm-1.08-1.17c.16-.48.62-.35.87-.22a.42.42,0,0,1-.13.76C46,36.15,45.49,35.94,45.65,35.46ZM27.29,17.59a3.38,3.38,0,0,0,5-3c-.17-1.75-2.18-3-4.21-2.54S24.29,16,27.29,17.59Zm1.14-4.53a2.2,2.2,0,0,1,2.77,1.67,2.22,2.22,0,0,1-3.32,2C25.91,15.66,27.15,13.36,28.43,13.06Z"/></g></svg>