<svg id="Layer_1" data-name="Layer 1" xmlns="http://www.w3.org/2000/svg" width="64" height="64" viewBox="0 0 64 64"><title>black-hole</title><g id="black-hole"><path class="cls-1" d="M32.57,24.68c0,.25.75.25.75.25s.21-.54-1-5.83-3.5-8.21-3.67-8.29a9.28,9.28,0,0,0-1.37-.12,41.58,41.58,0,0,1,2.88,4.58C31.57,18.18,32.57,24.43,32.57,24.68ZM35,24.43c.08.17.42.13.58.08a15.09,15.09,0,0,0-.46-5,40.19,40.19,0,0,0-2.25-6.37c-.12-.21-.75-.12-1-.12a33.4,33.4,0,0,1,1.83,4.58A50.39,50.39,0,0,1,35,24.43Zm2.29.5c0,.13.42.21.58.25s.25-.33.13-2.67a15.38,15.38,0,0,0-.62-4.42c-.21-.21-1-.17-1-.17a23.9,23.9,0,0,1,.58,3C37.24,22.68,37.28,24.81,37.32,24.93Zm9,3.42a10.1,10.1,0,0,0,4.08-3.79c0-.21-.08-.42-.33-.37s-1.29,1.33-3.75,3a7.4,7.4,0,0,1-4.37,1.29,1.66,1.66,0,0,0,.13.88C42.16,29.43,43.95,29.43,46.28,28.35ZM45.16,32c3-.54,4.21-2.25,4.29-2.5s.08-.67-.08-.67a22.41,22.41,0,0,1-3.21,1.83c-1.83.75-4.39.39-4.54.54a3.37,3.37,0,0,0-.29,1.12C41.36,32.6,42.2,32.56,45.16,32Zm-1.58,2.42c-1.25,0-1.58-.17-1.71-.25s-.42.79-.29,1,0,0,.75.17a6.48,6.48,0,0,0,2.42-.25c.25-.08.29-.67.33-.79S44.82,34.39,43.57,34.43ZM38.16,37c0,.21.71,2.13,3.5,4s8.63,1.67,9.17,1.63.54-.71.54-.92-.29.08-1.87.08a21.44,21.44,0,0,1-7.25-1.62c-1.92-1-3.33-3.83-3.33-3.83S38.2,36.81,38.16,37Zm1,4.42a17.53,17.53,0,0,1-3.37-4.37,1.61,1.61,0,0,0-.75,0c-.21.13.38,2.21,3.13,4.75a9.16,9.16,0,0,0,6.08,2.71c.46-.08.21-.29.17-.54S41.49,43.47,39.2,41.43Zm-3.17.5a11.21,11.21,0,0,1-2.33-4.54s-.65-.52-.83-.29-.08,1.33,1.25,3.58a9.17,9.17,0,0,0,3.25,3.5c.38.13.5,0,.58-.17S37.78,43.85,36,41.93Zm-4.42-4.46c0-.12-.7-.29-.71-.17a10.05,10.05,0,0,0,.71,4.58c.21.25,1,.29,1.13.08s-.54-.83-.87-1.92A7.4,7.4,0,0,1,31.61,37.47Zm-1.5-.37s-.48-.91-.75-.83-.67,2-.92,3.13a13.39,13.39,0,0,0,.42,7.21c1.13,3.71,5,8.71,5,8.71a.61.61,0,0,0,.38-.42c0-.29-3-4.79-4.58-8.5S30.11,37.1,30.11,37.1Zm-1.71-2.42s-.29-.57-.5-.5c-.37.13-1.75,2.75-2.29,7.63s2.29,10.79,2.5,10.92.71.25.79,0-2.08-4.25-2.5-9.17A15.92,15.92,0,0,1,28.41,34.68ZM24,39.77a11.81,11.81,0,0,1,2.67-6.42s-.09-.56-.29-.5c-.58.17-2.67,3-3.17,5.5a23.82,23.82,0,0,0,.13,7.08c.13.21.67.21.79.13A35,35,0,0,1,24,39.77Zm-1.54-5c-.21.17-1.75,2.54-1.83,2.67s.38.25.63.29,1.58-2.71,1.58-2.71S22.7,34.64,22.49,34.81Zm3.33-3.58c-.17-.12-4.21,1.54-8.17,4.29a21.81,21.81,0,0,0-6.21,7.13s.63.46.88.42,1.64-3.41,4.58-6,8.75-5.08,8.92-5.17S26,31.35,25.82,31.22ZM13.61,36.93a23.69,23.69,0,0,1,5.17-4.83,21.18,21.18,0,0,1,7.38-2.67s.13-.54,0-.67a18.15,18.15,0,0,0-7.46,2.46,25,25,0,0,0-6,5.42s.5.75.5.75A1.42,1.42,0,0,0,13.61,36.93ZM24.82,26.31c-1.42.13-4.17.42-4.33.46s-.29,1-.29,1.08.46-.08,2-.5a16.05,16.05,0,0,1,4.29-.17,1.15,1.15,0,0,0,.21-.5C26.7,26.47,26.24,26.18,24.82,26.31Zm-6-1.25c0-.21-1.33-.71-3.83-.42a34.19,34.19,0,0,0-4.25.75s-.25.71-.21.88,1.38-.25,3.38-.62a15.63,15.63,0,0,1,4.71.17C18.86,25.81,18.91,25.27,18.86,25.06Zm-1.46-2.25A28.51,28.51,0,0,1,24,23c4.17.5,5.33,2.33,5.33,2.33l.88-.37s-1-2-5.42-2.92a19.21,19.21,0,0,0-8.62,0c-.38.17-1,.7-.83.75A17.92,17.92,0,0,0,17.41,22.81ZM31,24.22h.5s.38-.62-1.33-2.29A7.11,7.11,0,0,0,26,20a6.52,6.52,0,0,0-1.67.54s1,.21,3.17.71S31,24.22,31,24.22ZM8.49,15.14c.33.08,1.54-.67,4.08-1.21a8.61,8.61,0,0,1,4.92.58,1.35,1.35,0,0,0,.25-.71c0-.37-2.42-1.5-5.17-1.17S7.88,14,7.95,14.1,8.16,15.06,8.49,15.14ZM11,8.06s0,1.5.25,1.54.83-1.17.83-1.17,1.46,1.21,1.71.92-.5-1.67-.46-1.88.46-.83.21-1.25-.87.08-.87.08-.79-2-1.08-2-.17,1.92-.29,2-2,.42-2,.63S11,8.06,11,8.06ZM54.2,32.81l.5.75a13,13,0,0,0,1.75-1.79,11.81,11.81,0,0,0,2.13-4.12c.08-.17-.76-.54-.92-.46-.42.21-.92,1.67-1.37,3A7.37,7.37,0,0,1,54.2,32.81Zm-4.5-25c.21,0,0,2.17.38,2.29S51,9,51.16,8.85s1,.17,1,.17l.17-1.29s.42-.54.38-.79-1-.29-1.17-.25S50.66,5,50.2,5.06s-.37,1.46-.46,1.63-1.57-.13-1.62.13C48,7.39,49.49,7.85,49.7,7.85Zm-8.29,3c1.67,2.38,1.71,6.54,1.75,6.83s.29.25.63.08.5-2.5-.75-5.92a11.36,11.36,0,0,0-4.58-5.58,2.85,2.85,0,0,0-.87.42A26,26,0,0,1,41.41,10.89Zm-32,44.42c-.42,0-.62,1.33-.71,1.54L7,57.31a1.09,1.09,0,0,0,.17.79c.25.25,1.21.21,1.21.21s0,1.29.29,1.42,1-.71,1.17-.87,1.33.38,1.46.17-.29-.92-.25-1.12.67-.58.63-.75-1.17-.17-1.33-.21S9.86,55.35,9.45,55.31Zm44.17-3c-.12-.25-4,.29-6.5,0s-4.76-1.6-4.92-1.5a1.28,1.28,0,0,0-.5,1.21c.08.58,2.17.83,4.92,1.29a24,24,0,0,0,7,0A1.28,1.28,0,0,0,53.61,52.31Zm-.79,3.17c-2,.67-2.33,2.79-1.12,3.63s3.92.5,4-1.5A2.1,2.1,0,0,0,52.82,55.47Zm2.13,2.46c-.12.75-1.71,1.13-2.46.71s-.71-1.75.79-2.33C54.35,55.89,55.07,57.18,54.95,57.93Zm4.75-6.79a.57.57,0,0,0,.08-.75,1.56,1.56,0,0,0-1-.25c-.21,0-.58-1.42-1-1.46s-.58,1.58-.62,1.83-1.17-.06-1.17.13c0,.54,1.17.88,1.17.88s-.37,1.33-.12,1.63,1-.46,1-.46.58.33.92.17-.37-1.29-.37-1.42S59.49,51.27,59.7,51.14Zm-41.21,3c-2.17-3.5-.33-7.12-.29-7.33s-.52-.45-.67-.29c-1.17,1.29-1.58,4.5-.58,7s4.25,6,4.63,5.92.75-.33.63-.75S20.66,57.6,18.49,54.1Zm19.33-.25a11.35,11.35,0,0,1-5.08-7.58c.17-.17,1.25.83,3.63,1.42a26.94,26.94,0,0,0,13.79-.75c5.5-1.92,9.13-6.54,9.29-7.12s.25-2.17-.29-2.33S55,38.43,52,38.56s-5.25-.42-5.21-.62a15.68,15.68,0,0,0,3.83-3.08c2.5-2.67,3.54-5.46,4-11.37S53.95,13,53.24,12.14s-2.17-.08-2.42.38a24.6,24.6,0,0,1-2.62,7.21,10.69,10.69,0,0,1-6.25,4.46,19.67,19.67,0,0,0-1.79-7.87c-2-4.62-6.83-8.08-13.12-9.13s-9.91.44-10.12.5c-.92.25-.54,1.29-.33,1.71s.5.17,1,.17.75-.33,4,.63,5,7.37,5,7.37a39.86,39.86,0,0,0-5.37.33,27.11,27.11,0,0,0-10.54,3.83c-5.13,3.13-6.5,10.42-6.5,10.79s1.21,1,1.46,1.08.5-.58,2.58-2.75a7.93,7.93,0,0,1,5.42-2.12H14.7a22.17,22.17,0,0,0-3.08,3.33A24.62,24.62,0,0,0,8.24,42.85c-.17,4.46,3.42,8.63,3.67,8.83a1.27,1.27,0,0,0,1.29-.29c.21-.29.08-1.12,0-1.83a9.11,9.11,0,0,1,1.67-5.37,13.21,13.21,0,0,1,4.54-3.08,21,21,0,0,0,1,7.08C21.49,51,24.78,55.47,31.2,58s12,.79,12.63.38a1.53,1.53,0,0,0,.75-1.54C44.45,56.35,41.82,56.14,37.82,53.85Zm2,3.71c-.17.17-6.58.13-10.83-2.54s-7.12-8.17-7.5-9.46S21,40.47,20.86,40s-1.33-.79-2-.46-4.42,1.92-5.92,4.67-1.46,3.21-1.46,3.21a11.46,11.46,0,0,1-1.17-8.37,21,21,0,0,1,6-9.71c1.29-.92,2.33-1.5,2.29-1.67a7.77,7.77,0,0,0-4.75-1,19.61,19.61,0,0,0-5.46,1.71,8.15,8.15,0,0,1-1.62.88s2-3.87,3.92-5.42a24.73,24.73,0,0,1,11-4.46,45.05,45.05,0,0,1,6.79-.54,1,1,0,0,0,.38-.33s-.33-3.67-2.08-5.87A31.7,31.7,0,0,0,23,8.72c.25-.08,8.75,0,12.63,4.42S40,23.52,40.07,24.31s0,1.67.38,1.79,2.42,0,5-1.67a12.07,12.07,0,0,0,4.25-4.29c1.08-1.62,2.25-4.75,2.63-4.83S54,21.47,52,28s-5.58,8.75-6.67,9-1.58.17-1.79.46.33,1.33.58,1.42-.08.92,4.88,1,7.83-.62,7.92-.37-2,3.71-6,5.17-9,2-11.08,1.67a37.55,37.55,0,0,1-6.58-2c-.67-.33-1.33-.71-1.75-.46s-1.37,3.38.79,6.58a28,28,0,0,0,6.54,6.33C39.53,57.31,39.95,57.39,39.78,57.56ZM32.45,26c-3.25.83-3.93,4.53-3.29,6.92,1,3.75,9.38,4.46,9.92-1.29S35.51,25.19,32.45,26Zm5,5.24c-.37,3.88-5.66,3.56-6.53,1.31s-.55-4.32,2.29-5.08C35.26,26.88,37.8,27.33,37.44,31.21Z"/></g></svg>