<svg id="Layer_1" data-name="Layer 1" xmlns="http://www.w3.org/2000/svg" width="64" height="64" viewBox="0 0 64 64"><defs><style>.cls-1{fill:#1d1d1b;}</style></defs><title>cassiopeia</title><g id="cassiopeia"><path class="cls-1" d="M56.24,13.74A2.63,2.63,0,0,0,53,16.18a3.68,3.68,0,0,0,.78,2.56L45.9,37.64l-8.72-6.88a2.41,2.41,0,0,0-.16-2,2.79,2.79,0,0,0-4.25-.31,3.06,3.06,0,0,0-.56,3.25L25.65,44.33a3.57,3.57,0,0,0-1.34-.12,2,2,0,0,0-1.25.53L11.74,36a2.85,2.85,0,0,0,0-2.69c-.72-1.72-3.91-1.72-5-.62s-1.91,3.09,0,4.63a3.25,3.25,0,0,0,3.81.22l11.22,8.88a4,4,0,0,0,.59,2.41,2.85,2.85,0,0,0,4.66.5c1.75-1.91.06-4.31.06-4.31l6.28-12.41a4.51,4.51,0,0,0,1.81.06,3.14,3.14,0,0,0,1.28-.56l8,6.5s-.72,1.94.28,2.75a2.7,2.7,0,0,0,4.09-1.25,2,2,0,0,0-.94-2.62l7.5-17.81a3.79,3.79,0,0,0,2.78-1.81A2.85,2.85,0,0,0,56.24,13.74Zm-48,23.09a1.86,1.86,0,0,1-.06-3.56,2,2,0,0,1,2.78,1.41A2,2,0,0,1,8.21,36.83Zm16,11.86a1.55,1.55,0,0,1-.05-3,1.65,1.65,0,0,1,2.33,1.18A1.71,1.71,0,0,1,24.23,48.69Zm9.94-17.21a1.3,1.3,0,0,1,0-2.49,1.38,1.38,0,0,1,1.94,1A1.43,1.43,0,0,1,34.17,31.48Zm12,9.12a1.1,1.1,0,0,1,0-2.11,1.17,1.17,0,0,1,1.65.83A1.21,1.21,0,0,1,46.15,40.6Zm9.06-22.67a1.44,1.44,0,0,1,0-2.77,1.53,1.53,0,0,1,2.16,1.09A1.59,1.59,0,0,1,55.21,17.93Z"/></g></svg>