<svg id="Layer_1" data-name="Layer 1" xmlns="http://www.w3.org/2000/svg" width="64" height="64" viewBox="0 0 64 64"><defs><style>.cls-1{fill:#1d1d1b;}</style></defs><title>chewbacca</title><g id="chewbacca"><path class="cls-1" d="M20.67,26.38s.33-.42.13-.67a5.46,5.46,0,0,0-3.17.29c-.67.42-3.21,7-3.21,7s2.67-4.25,3.71-5.5A3.09,3.09,0,0,1,20.67,26.38ZM44.5,25.8c.29,0,2.92,5.17,3,5.54s.38.17.67-.08-2-5.62-2.62-6.21-3.12-.5-3.42-.5-.46.54-.33.71A15.86,15.86,0,0,0,44.5,25.8ZM31.09,24.46c.17-.17-.67-1.5-.92-1.71s-.78,0-.71.08.83,1.67,1,1.79S30.92,24.63,31.09,24.46Zm6.75-4.12c.17-.21,0-.21-.21-.25a46.18,46.18,0,0,0-3.5,3.5,2.18,2.18,0,0,0,.63.29C35,23.92,37.67,20.55,37.84,20.34Zm4.46,6.54c-3.21-2.29-7.67-.58-8.79,2s1.21,6.37,1.29,6.62-.12.88-.37,1a14,14,0,0,1-4.08-.25c-.5-.33,1.29-4.29,1.58-6s-1.25-4.62-5.5-4.37a10.76,10.76,0,0,0-9,5.38A33.52,33.52,0,0,0,14,40a2.18,2.18,0,0,0,1.54,0c.38-.25,1.58-5.75,3.25-8a11.71,11.71,0,0,1,4.42-3.38s-.5,2,2.25,2.88,4.46-1.79,4.46-1.79a8.27,8.27,0,0,1,0,1.46c-.08.33-1.12,2.29-1.75,3.75s-.33,3,.54,3.13,7.38.29,8.13-.62-.08-2.29-.87-4.25a4,4,0,0,1-.25-3.08,3.64,3.64,0,0,0,3.46,1.17,2.66,2.66,0,0,0,2.29-2.58,13.58,13.58,0,0,1,2.38,3.37c1,2.08,3,8.79,3.38,8.83s.92-.33,1.13-1.29S45.5,29.17,42.29,26.88Zm1.39,10.29c.25.08.63.08.67,0A10.7,10.7,0,0,0,43.77,34a8.05,8.05,0,0,0-1.83-2.54c-.23-.19-.87.25-.79.5s1.67,2.17,2,3.46S43.43,37.09,43.68,37.17Zm-4.17-4a12.62,12.62,0,0,1,.92,2.21c0,.63-.21.83.13,1a2.69,2.69,0,0,0,.79.13,7.64,7.64,0,0,0-1-3.71C40.31,32.61,39.43,32.84,39.52,33.17Zm-1.17,2c.38.21.54.25.58.13a5.2,5.2,0,0,0-.46-1.75c-.14-.16-.67,0-.54.25S38,34.92,38.35,35.13Zm.11,8.21s3.38-1.87,3.5-2-.75-1.33-1.12-1.5-3.67.75-8.46.92-7.46-1-8.21-.92-1.75,1.67-1.75,1.67c.38,1.08,3.33,1.63,3.33,1.63s.67,2.42,1.63,2.5,1.88-1.87,1.88-1.87.54,0,1.88,0,4,0,4,0,1.25,1.83,2,1.67S38.46,43.34,38.46,43.34Zm-1.37.83c-.37,0-1.12-1.54-1.42-1.62s-1.17.21-3.17.21-3.46-.17-3.62-.12-1.29,1.63-1.46,1.58a6.63,6.63,0,0,1-1-3.12s1.67.58,6.17.46a43.33,43.33,0,0,0,5.75-.37S37.46,44.21,37.09,44.17ZM17.84,41c-.54.21-2.5,5.29-2.5,5.58s.38.25.63.29,2.29-5.5,2.29-5.5S18.08,41,17.84,41Zm0,9.79a1.65,1.65,0,0,0,.58.17c.25,0,1.75-5.37,1.67-5.5a2.2,2.2,0,0,0-.58-.33C19.38,45.3,17.79,50.84,17.79,50.84ZM24,46.71c-.12.25-.71,4.46-.71,4.75s.46.29.71.21.71-4.58.75-4.79S24.12,46.56,24,46.71Zm5.17,5.88c.08.33.63.21.63.21l1-5.75-1-.08S29.13,52.25,29.21,52.59ZM33.5,48.8c.08.13.79,4.92,1,5s.42,0,.63-.21-.62-4.79-.62-4.92S33.43,48.69,33.5,48.8Zm3.75-.37c0,.13,1.67,5.17,1.67,5.17s.54.08.71-.12S38,48.17,38,48.17,37.31,48.26,37.25,48.42Zm4.33-3.21c.21.17,2.71,3.5,2.88,3.67s.33.08.63-.17-2.62-3.83-2.79-4S41.47,45.12,41.59,45.21Zm4-1.92c.17.13,1.46,2.29,1.71,2.54s.38,0,.54-.17-1.37-2.54-1.5-2.71S45.44,43.22,45.54,43.3Zm9,1.42C52.38,38.13,51.34,28,49.09,19S44.84,7.63,40.63,5.42a20.08,20.08,0,0,0-15.83-.87c-5.29,2.08-8,9-9.75,14.83S10.5,36,8.79,41.55A37,37,0,0,0,7.17,52.38a1.72,1.72,0,0,0,1.25.21,21,21,0,0,0,2.17-1.29s-.5,5.92-.25,6.25,1.33.29,3.67-.37A23.12,23.12,0,0,0,19.67,54s.17,5.21.33,5.38.29.21,1.29-.12a14.81,14.81,0,0,0,2.88-1.79s.75,1.92,1,2.33,1.13.42,1.88.17,3.5-3.5,3.5-3.5a6.28,6.28,0,0,1,.88.92c.38.5,2.29,3.33,2.29,3.33s.38.13,1.33-.46a17.58,17.58,0,0,0,2.83-3.33s2.13,1.79,2.5,2.21a7.08,7.08,0,0,0,2.46,1,2.56,2.56,0,0,0,.46-1.42c0-.67,1.08-5.37,1.08-5.37A14.28,14.28,0,0,0,46,55a13.35,13.35,0,0,0,4.42,2.17c.38,0,.71-.58.75-1s-2.08-4-2.08-4l1.29.83a15.62,15.62,0,0,0,3.71.88,4.87,4.87,0,0,0,2.63-1.54C57,51.84,56.63,51.3,54.5,44.71ZM19.34,13.88a2.84,2.84,0,0,1,1.63.33c.92.46,1.63,2.13,1.75,2.29s.58-.33.58-.33a15.68,15.68,0,0,0-1.08-1.79A3.7,3.7,0,0,0,20,12.88l1.42-2.54A3.63,3.63,0,0,1,23,11.46a20.27,20.27,0,0,1,1.29,3.21c.13.17.54,0,.54,0a8.49,8.49,0,0,0-.67-2.92,6.6,6.6,0,0,0-1.87-2.54,3.08,3.08,0,0,1,1-1.21A16.18,16.18,0,0,1,26.09,6.3s.75.58,1.38,3,1,5,1,5.21.67,0,.79,0A12,12,0,0,0,29,10.84,29.63,29.63,0,0,0,27.59,6a15.41,15.41,0,0,1,3.63-.71A8.87,8.87,0,0,1,36.13,6c.13,0-.83,7.67-.79,7.83s.33.21.54.17S37.34,6.3,37.34,6.3a3.56,3.56,0,0,1,1,.42c.71.38,2.25,1.46,2.25,1.46a20.84,20.84,0,0,0-1,2.17,34.54,34.54,0,0,0-1.42,5c0,.25.21.13.46-.29S41.46,8.8,41.46,8.8s.63.29,1,.54a5.84,5.84,0,0,1,1.25,1.33c0,.13-2,2.79-2,3s.67.42.83.46,1.58-2.67,1.75-2.5,1.38,3.92,1.38,3.92l-1.83,2.63s.33.46.67.42,1.75-2,1.75-2l2.13,7.83s-1.75-2.92-2.92-3.29A7.39,7.39,0,0,0,42.92,21c-.25,0,.38-1.58.29-2s-2.54.38-2.54.38a5,5,0,0,1,.33-.92c.25-.54,1.54-2.33,1.54-2.33a.42.42,0,0,0,0-.62c-.33-.29-1.58-.17-4.08.92a8.68,8.68,0,0,0-3.62,2.79,15.32,15.32,0,0,0-1-2,4.53,4.53,0,0,0-2.25-2c-.25,0-.33.63-.42.92A7.63,7.63,0,0,0,31.84,18a1.34,1.34,0,0,1-.5,1.08c-.25.08-.33-.67-.42-.87s-.08-.12-.46-.21-.79,1.67-.92,1.83-.25,0-.87-.33S27.13,16.42,27,16.21s-.21-.29-.54-.29-.5.13-.54.67-.54,3-.54,3a14.38,14.38,0,0,0-2.08-1,10.41,10.41,0,0,0-3.67-1c-.37.13,0,.88.42,1.13a26.69,26.69,0,0,1,2.29,2.67,1.51,1.51,0,0,0-.83-.29c-.62-.08-2.29-.37-2.79.08s1.83,2.5,1.83,2.5a8.46,8.46,0,0,0-2-.25,6,6,0,0,0-2.67.67A70.93,70.93,0,0,1,19.34,13.88ZM54.5,52.3a6,6,0,0,1-4-1.5c-1.79-1.54-2.29-2.5-2.58-2.5s-1.37.29-1.33.58A30.93,30.93,0,0,0,47.29,52c.38,1.29.63,2,.63,2a12,12,0,0,1-2.37-2.54c-.71-1.21-.75-1.58-1-1.62s-1.42.75-1.42.75-.42,2-.87,4.33-.5,2.54-.5,2.54a41.64,41.64,0,0,0-3.87-2.58,1.22,1.22,0,0,0-1,.42c-.17.21-2.12,2.88-2.12,2.88a38.5,38.5,0,0,1-2.62-3.12c-.37-.67-.83-1-1-1s-3.33,3.42-3.71,3.67-1.08-.12-1.21-.37A21.7,21.7,0,0,0,25,55c-.12,0-1.87,1.5-2.71,1.92a7.65,7.65,0,0,1-1,.46,39.27,39.27,0,0,0,0-4.92.62.62,0,0,0-.79-.33,24.67,24.67,0,0,1-4.92,2.71,15.93,15.93,0,0,1-3.5.88s.54-7,.29-7.17a1.75,1.75,0,0,0-1.37,0L8.79,50.25a97.91,97.91,0,0,1,2.42-10.67c1.38-4.46,4.25-13.29,4.63-13.87A3.12,3.12,0,0,1,19,24.38c1.79.21,2.75.54,3,.33s.46-.42.33-.46-2-2.17-1.54-2.25a3.34,3.34,0,0,1,1.79.25c.79.29,1.17.71,1.38.54a1.06,1.06,0,0,0,.29-.5,11.17,11.17,0,0,0-1.58-2.42c-.67-.58-1-.79-1-.79a17.44,17.44,0,0,1,3.17,1.17c.75.5,1.17.54,1.25.33s.63-2.54.63-2.54a6.6,6.6,0,0,0,1.08,2.13,1.3,1.3,0,0,0,1.21.46l1.17-.21.67-.62s.21.67.58.75.83-.5,1.08-1.29a5.88,5.88,0,0,0,.13-2,6,6,0,0,1,1.08,1.79c.42,1.08.29,1.75.63,1.88s.75-.67,2.33-1.87a25.66,25.66,0,0,1,4-2.62c.17,0-1.25,3-1.21,3.63s.17,1,.54,1a10.34,10.34,0,0,0,1.88-.67s-.17,1.29.38,1.58,1.58,0,2.67.46,3.13,2.46,3.88,6.17,3,13.71,3,13.71-1.54-1.37-1.71-1.08-.5.58-.33.79,2.21,1.67,2.33,1.88.63,1.79.63,1.79-2.42-2.5-2.54-2.29-.33.88-.17,1,2.92,2.5,3,2.75.38,1,.38,1S50.13,45.21,50,45.46a2.16,2.16,0,0,0-.08,1c.08.13,3.71,2.92,3.83,3.13a5,5,0,0,1,.29.75,30.63,30.63,0,0,0-3.54-2.12,5.75,5.75,0,0,0-.12,1s3.79,2,3.92,2.21S54.71,52.25,54.5,52.3ZM32.59,13.71c.25-.08,0-3.83-.12-4s-.67-.08-.92,0l.42,4A1.22,1.22,0,0,0,32.59,13.71ZM21.71,31.42A8.05,8.05,0,0,0,19.88,34a10.7,10.7,0,0,0-.58,3.17c0,.13.42.13.67,0s.29-.5.58-1.79,1.88-3.21,2-3.46S21.94,31.23,21.71,31.42Zm1.5,4a12.62,12.62,0,0,1,.92-2.21c.08-.33-.8-.57-.87-.42a7.64,7.64,0,0,0-1,3.71,2.69,2.69,0,0,0,.79-.12C23.42,36.21,23.17,36,23.21,35.38Zm2.08-.25c.38-.21.29-1.12.42-1.37s-.41-.41-.54-.25a5.2,5.2,0,0,0-.46,1.75C24.75,35.38,24.92,35.34,25.29,35.13Z"/></g></svg>