<svg id="Layer_1" data-name="Layer 1" xmlns="http://www.w3.org/2000/svg" width="64" height="64" viewBox="0 0 64 64"><defs><style>.cls-1{fill:#1d1d1b;}</style></defs><title>commet</title><g id="commet"><path class="cls-1" d="M25.13,28.7a33.09,33.09,0,0,1,5.54-4.42s0-.92-.21-1-2.79,1.42-4.83,3.54A57.89,57.89,0,0,0,21,32c0,.08.54.29.75.25S22.76,31.15,25.13,28.7ZM32,27c.21-.12,0-.62-.21-.67s-1.87,1-5.21,4S20.84,36.53,20.72,37a1.54,1.54,0,0,0,1,.17c.42-.17,1.63-1.79,3.29-4.12S31.84,27.15,32,27Zm2.17,2.21c-.29,0-1.37.67-4,3S24.77,36.74,24.67,37c0,.13.71.58,1,.58s1.21-1.37,2.71-2.83,5.79-4.5,6-4.75S34.51,29.2,34.22,29.24Zm7.46-4.5a40.82,40.82,0,0,0-4.17,2.5s.38.54.67.63,3.67-2.37,3.88-2.58S42,24.74,41.67,24.74Zm-.87-9c-.33,0-7,4.65-6.87,4.92s.29.58.46.54,6.75-4.58,6.88-4.75S41.13,15.7,40.8,15.7ZM57.67,22.4c-2.37-1.25-9.5-.75-9.5-.75s1-.58,3.54-2,7-2.87,7.38-3.75-1.5-1-5,0S45.3,18.7,45.3,18.7a67.77,67.77,0,0,1,6.46-3.75c2.58-1.21,6.67-1.79,7-2.25s0-1.33-2.54-1.33-9.46,1-9.46,1a6.85,6.85,0,0,1,1.46-.87c.79-.33,5-3.33,5.33-3.63s.21-.83-.67-1.12S49.63,7.2,45,9.36,31.47,17.45,24.67,23.95,13,36.49,12.42,37.86a3.48,3.48,0,0,0,.17,3A1.49,1.49,0,0,0,14.3,42c1.21,0,3-1,3.67-1s.46,1,1.54,1.33,2.42-.12,2.88,0,0,.71-.21,1.13.67.92,1.29.83,5-3.75,13.46-9.71S58.76,24.24,58.76,24.24,60,23.65,57.67,22.4Zm-1.92,1.25c-.12.21-12.62,5.21-19.79,9.79s-11.79,8.88-12,8.67-.25-.83-1-1-2.62.17-2.75-.17-.21-1.46-1.12-1.5-2.58,1.13-3.63,1.13-1.79-.62-1.62-1.5A63.12,63.12,0,0,1,24.55,26.24,120.24,120.24,0,0,1,40,14c3.58-2.25,8.83-4.79,9.58-5.17S51,8.45,50.8,8.57s-5.87,3.37-6.42,4S44,13.95,45,13.9s5.88-.71,6.46-.75,1.54-.21,1.25,0-8.37,3.79-10.79,6-2.75,3.13-1.71,3.25S44,20.74,47,19.53s7.13-2.58,7.08-2.33-7.62,3.79-8.5,4.63a.92.92,0,0,0,.71,1.63c.67,0,5.08-.46,7.08-.33S55.88,23.45,55.76,23.65ZM20.59,44.4c-.46-.58-5.67.88-6,.92s-6-3.43-6.42-3.12.38,5.08.33,5.29a23.58,23.58,0,0,1-3.33,1.13c-.58.21-.25.67-.17,1.29s4.08,2.17,4.25,2.42.54,4.21.54,4.21,1.25.83,1.58.79,3.79-3.58,4.08-3.83,4.71.63,5.38.33-1.83-3.75-2-4.21S21,45,20.59,44.4ZM17.84,52c-.25.08-3.25-.79-3.71-.42s-2.54,3.17-2.67,2.75-.25-3-.37-3.12-3-1.67-2.83-2S11,48.4,11,48.11s-.87-2.79-.71-3.12,2.88,2.42,3.58,2.38,3.58-1.29,3.79-1-1,2.5-1,2.88S18.09,51.95,17.84,52Z"/></g></svg>