<svg id="Layer_1" data-name="Layer 1" xmlns="http://www.w3.org/2000/svg" width="64" height="64" viewBox="0 0 64 64"><defs><style>.cls-1{fill:#1d1d1b;}</style></defs><title>falling-star</title><g id="falling-star"><path class="cls-1" d="M58,25.72c-.37-.06-4.91,4.22-8.19,8A259.4,259.4,0,0,1,31.28,52.16c-5.16,4.41-8.28,4.5-11.62,3.91s-7.44-3-10.44-7.72S7,38.13,7.75,35.78a28.64,28.64,0,0,1,7.13-11.06c3.91-3.56,17.19-16,17.31-16.34S31.42,6.89,31,7.16C28.18,8.94,11.59,25.34,9.59,28.09A24.41,24.41,0,0,0,5.15,40.72c-.25,5.22,2,9,5.34,12.75S18.78,58,22.68,58.06,31.84,54,35.75,50.19,58.68,27.13,58.84,27,58.4,25.78,58,25.72ZM27.9,23c.06.28.5,1,.88.94S47.06,7.41,47.12,7.16s-.47-1.28-.94-1.22S27.78,22.43,27.9,23Zm8.16,1.69c0,.22.56.94.91,1s18.5-16.75,18.59-17S55,7.5,54.62,7.56,36.1,24.35,36.06,24.66Zm1.13,11.47c.19,0,15.66-14.75,15.88-15.13s-.69-1.28-.91-1.34S36.26,34.52,36.22,34.94,37,36.13,37.18,36.13ZM11.09,34.75c-.28.19-.59,1.56-.84,3.38s.41,6.22,4.41,10.06,12.16,4.19,12.56,4.09.34-1.31.22-1.5a3.59,3.59,0,0,0-1.84-.44c-1-.09-5.5-.5-10.53-4.94A9.17,9.17,0,0,1,12.62,35C12.72,34.63,11.26,34.63,11.09,34.75Zm25.44,9.31c.38-.53-2.91-8.25-3-8.47s3.66-5.84,3-6.53-8-.91-8.41-.94-5.09-5-5.81-4.5-1.91,7-2.06,7.38-5.64,4.67-5.91,5.09c-.66,1,.5,1.22,1.31,1.34s4.78.28,5,.41.81,5.75.94,7.38S22.78,46.63,23,46.5s4.78-3.87,5.09-4.12S36.15,44.59,36.53,44.06Zm-8.87-3.44c-.56.16-3.84,3.53-4.09,3.34s-.75-6.62-1-7a1.64,1.64,0,0,0-1.37-.69c-.66-.06-3.91-.28-4.06-.62s4.88-3.84,4.91-4,.81-5.72,1.28-5.75S27.28,29.91,27.9,30s6.81,0,6.69.38-2.75,4.87-2.84,5.28,2.37,6.38,2.19,6.5S28.22,40.47,27.65,40.63Zm-4-12.31a22.07,22.07,0,0,0-.62,4c.06.28.59.19.88.13s.56-3.69.56-4S23.89,28,23.68,28.31ZM30,35.47c.09,0,.16-.5.13-.78s-1.58-.79-1.78-.69-.16.78-.06.94A7.25,7.25,0,0,0,30,35.47Zm.5,2.28c.25-.09,0-.66-.28-.94a6.1,6.1,0,0,0-2-.59c-.22,0-.22.81-.12.94A8.24,8.24,0,0,0,30.53,37.75Zm-2.44.38c-.19,0-.09,1,.06,1.09a26.05,26.05,0,0,0,3,.88c.28,0,0-.66-.16-.84A12.59,12.59,0,0,0,28.09,38.13Z"/></g></svg>