<svg id="Layer_1" data-name="Layer 1" xmlns="http://www.w3.org/2000/svg" width="64" height="64" viewBox="0 0 64 64"><defs><style>.cls-1{fill:#1d1d1b;}</style></defs><title>falling-space-capsule</title><g id="falling-space-capsule"><path class="cls-1" d="M24.93,25.67c.31.13,2.19-2.94,2.38-3.25s-.19-.62-.56-.69-2.55,2.63-2.62,2.94S24.62,25.55,24.93,25.67ZM38.24,42.48s.81.44,1.56.81,2-.44,3.88-2.69,2.5-3.94,2.25-4.75-9.5-10.44-12.69-13.31-5.82-4.23-7.12-4.44c-2-.31-5.37,5.19-6.12,6.69a2,2,0,0,0,.63,2.5s-3.37,7.06-4.87,11.13-.44,7.19,3.75,10.44,7.69,2.19,10.63,1S38.24,42.48,38.24,42.48ZM26.43,19.61c.62-.62,4.69,3.31,9.25,7.94s8,8.06,8,9.06S41.74,40.42,41,40.8s-.94.75-.75.38,1.38-4.5,1.13-4.69-.31-.44-.56-.31-1.37,4.5-1.56,4.31-1.62-1.25-1.69-1.56,1.5-3.75,1.25-4a2,2,0,0,0-.81-.37s-1.25,3.81-1.44,3.63-1.12-1-1.12-1,1.19-2.75.88-2.94-.5-.56-.75-.44a13,13,0,0,0-1,2.5s-6.87-5.69-9-7.5-3.5-2.12-3.31-3.56S26.24,19.8,26.43,19.61ZM19.37,46.4c-2.29-2.42-2.92-6-1.5-9.79a54.93,54.93,0,0,1,3.88-8.19c.34-.21,7.88,5.75,10.06,7.63S36.93,41,36.62,41.3a11.71,11.71,0,0,1-1.12.88s-.06-1.56-.44-1.62-.25-.25-.37-.06.15,2.17.06,2.38a5.17,5.17,0,0,1-.83.83s-.08-2.67-.33-2.75-.92.38-.83.54.46,2.88.46,2.88l-.71.79s-.29-3-.58-3-.79.29-.67.58A15.94,15.94,0,0,1,31.79,46a13.66,13.66,0,0,1-4.33,2.92A9.54,9.54,0,0,1,19.37,46.4Zm3.63-12c-4.25,2.75-2.83,7.83.42,9.63,4,2.2,8.87-3.29,7.38-6.87A5.66,5.66,0,0,0,23,34.36Zm1.12,8.12a3.81,3.81,0,0,1-.29-6.66,3.92,3.92,0,0,1,5.39,1.9C30.26,40.2,26.88,44,24.12,42.48Zm0-4.58A17.3,17.3,0,0,0,24,40.82c.08.17.71.29.88.08a12.85,12.85,0,0,0-.08-3.08C24.7,37.53,24.16,37.65,24.08,37.9ZM26,37.61a17,17,0,0,0,0,2.5c.13.42.5.08.71-.12a8.39,8.39,0,0,0,.17-2.29C26.87,37.44,26,37.26,26,37.61ZM12.29,39.82c-.46.5-1,4.08.13,6.79s3.46,5,7.25,6.88a10.81,10.81,0,0,0,7.71.63c.17-.12.08-1,0-1.25s-2.62-.08-4.42-.21-4.67-1.17-7.71-4.75a7.74,7.74,0,0,1-1.08-8C14.24,39.65,12.55,39.53,12.29,39.82Zm31-9.46c0,.29,1,1.25,1.21,1.17S56,19.57,56.16,19.07s-1.08-1.54-1.54-1.5S43.33,30.09,43.33,30.36Zm12.46-2c-.33.08-1.5,1.33-4.17,4.83S38,49,33.45,52.94s-7.83,5.75-10.33,5.33-11.33-4.5-13-8.25-.67-7.5.08-9.75,7.5-14.75,10.17-18.92S31.29,5.61,31.29,5.61s-.47-.87-.83-.67c-1.67.92-9.25,12.17-13.75,19.75S6,42.78,6.87,48.11s7.67,9.17,13.58,11.42,10-1.25,16.42-7.08S57,29.69,57.2,29.28,56.12,28.28,55.79,28.36ZM32.16,17.94c.38-.21,8.17-10.67,8.38-11s-1.08-1.12-1.46-1-8.34,10.84-8.25,11C31.08,17.48,31.79,18.15,32.16,17.94Zm8.17,6.83c.17.17,1,1.08,1.21,1s13-14.08,13.17-14.42-1-1.21-1.29-1.25S40,24.48,40.33,24.78ZM37.16,23C37.49,22.82,53,5.36,53,5.15s-1-1.58-1.46-1.33-15.71,17.65-15.71,18C35.87,22.07,36.83,23.15,37.16,23Z"/></g></svg>