<svg id="Layer_1" data-name="Layer 1" xmlns="http://www.w3.org/2000/svg" width="64" height="64" viewBox="0 0 64 64"><defs><style>.cls-1{fill:#1d1d1b;}</style></defs><title>falling-asteroid</title><g id="falling-asteroid"><path class="cls-1" d="M56.12,25c-.42,0-1.25,1.83-2.54,4S44.5,42.52,42.21,45.43s-7.75,8.75-11,11-7.71,2.29-12.54.08-9-5.62-9.92-9.87S9.16,37.56,13.83,30,33,5.31,33.12,5,32,4,31.58,4.14c-1.5.58-15.79,19.92-19.21,25s-6,10-6.17,15.25,4.21,9.08,6.67,11.21,9.25,4.92,13.54,4.46,9.83-4.33,13.83-9.25S57.83,26.18,57.79,25.93A2.83,2.83,0,0,0,56.12,25Zm-10.29.46c.29,0,10-12.08,10.08-12.33s-1.08-.83-1.42-.92S44.44,24,44.58,24.56C44.62,24.73,45.54,25.52,45.83,25.48ZM32.58,18.23C33,18.06,41.71,7,41.87,6.56s-1.29-1.25-1.58-1.17-8.88,11.29-9,12C31.16,17.77,32.16,18.39,32.58,18.23Zm7.67,2.63c.54,0,12.5-15.29,12.54-15.71s-1.08-1.25-1.46-1.25S39.16,19.15,39,19.77C38.87,20,39.71,20.85,40.25,20.85ZM11.87,40.6a7.62,7.62,0,0,0-.21,3.92,5.19,5.19,0,0,0,2.79,3.33c1.79,1,2.5,3.54,4,4.88s3.63,1.42,6.33,1.79a7.79,7.79,0,0,0,4.54-.5c.21-.12-.33-1.08-.46-1.21s-2,.42-3.33.54-2.29-.21-4.25-.87S19.29,51,18.5,50a14.3,14.3,0,0,0-2.71-2.79,7.66,7.66,0,0,1-2.46-3c-.42-1,.25-3.29.21-3.62S12.11,40.26,11.87,40.6Zm20,7.38c.83.08,3.58,1.29,5,.83s2.58-3.87,3.42-5.67,2.33-1.62,3.83-4.87.83-6.21-1-9.71-5-3.37-7.25-4.08-.92-1.21-2.71-2.79-6.12-2.12-11.37.83-5,6.79-5,7.46a.79.79,0,0,0,.79.83c.29,0,1.82,1.33,1.79,1.75,0,.71-2.62,1.67-3.67,2.29s-1,4.67-.08,7.17,3.08,2.21,4.92,2.54,2.83,3.08,4.29,3.79,1.54-.08,3.29-.25A22.07,22.07,0,0,1,31.91,48Zm-2.21-1.79c-1.62.17-2.75,1-4,.25s-2-2.67-3.75-3.21-3.54-.37-4.5-1.92A8.45,8.45,0,0,1,16.87,36c.49-.49,3.75-1.46,4.25-2.79A3,3,0,0,0,20,30.14c-.5-.33-1.08-.62-1-1.21a7.19,7.19,0,0,1,5.13-5.58c4.38-1.5,6-1.79,7.67-.12s1.75,2.67,4.17,3.42,3.92.38,5.21,2.42,2.17,5.25,1.5,7.42S41.21,39.56,40.54,40a6.89,6.89,0,0,0-1.79,1.58,4.12,4.12,0,0,0-.33.75,17.21,17.21,0,0,0-1.5-2.67c-.21,0-.79,0-.62.29s1.63,2.83,1.71,3.17a8.82,8.82,0,0,1-1.29,3.38c-.54.58-2,.54-3.37.13A7.33,7.33,0,0,0,29.71,46.18ZM19.5,36.52a.49.49,0,0,0-.75-.25,4,4,0,0,0-.5,2.38,5,5,0,0,0,1,2.46c.29.29.88,0,1.08-.29s-.46-.79-.79-1.92A6.4,6.4,0,0,1,19.5,36.52Zm12.71-7.79a2.64,2.64,0,0,0-4-2.92c-1.83.92-2.83,2.92-1.5,4.88S31.66,31,32.21,28.73Zm-3.53-1.91a1.82,1.82,0,0,1,2.73,2c-.37,1.58-2.84,2.7-3.76,1.35A2.22,2.22,0,0,1,28.67,26.81Zm.12,12.83c-1.5.67-2.83,3-1.75,4.29a4.2,4.2,0,0,0,3.38,1.5c.71,0,1.83-.54,1.5-.87s-2.87-.54-2.33-2,2-2.12,2.92-1.71c.22.1.42-.54.08-.87A4.46,4.46,0,0,0,28.79,39.64Zm7.79-6.25c-.75,2.08-.83,3,.08,3.79a2.93,2.93,0,0,0,2.67.67c.33-.21.29-.83.08-.92s-1.79-.67-1.29-2a3.82,3.82,0,0,1,1.79-1.87,1.11,1.11,0,0,0,.29-.83C39.91,32.06,37.33,31.31,36.58,33.39Zm1.54,5.46a12.88,12.88,0,0,0,.5,1.54c.17.21.33-.12.58-.42s-.25-1.17-.37-1.33S37.89,38.62,38.12,38.85ZM35.5,40.68c-.17,0-.58.42-.54.71a11.36,11.36,0,0,0,1.67,2.67c.33.21.29-.25.38-.67A7.08,7.08,0,0,0,35.5,40.68Zm-4.71-6.92a15.41,15.41,0,0,0,1.42,3.5c.29.33.29,0,.58-.33s-1.12-3.17-1.37-3.42S31,33.53,30.79,33.77Zm3,2c.25.33.33,0,.63-.29s-1-3.08-1.21-3.21-.7.1-.54.42A32.5,32.5,0,0,0,33.83,35.73Zm2.08-3A8.76,8.76,0,0,0,34.83,30c-.21-.21-.73.21-.83.46a19.34,19.34,0,0,0,1.33,2.79S35.83,33,35.91,32.68Zm1-2.54c.33.13.29-.12.38-.42a2.85,2.85,0,0,0-.87-1.58c-.25-.08-.54.38-.54.38S36.54,30,36.87,30.14Z"/></g></svg>