<svg id="Layer_1" data-name="Layer 1" xmlns="http://www.w3.org/2000/svg" width="64" height="64" viewBox="0 0 64 64"><defs><style>.cls-1{fill:#1d1d1b;}</style></defs><title>international-space-station</title><g id="international-space-station"><path class="cls-1" d="M57.46,34.32a12.92,12.92,0,0,0-2.37-1.25c-.12-.08,0-3.79,0-3.79a7.93,7.93,0,0,0,1.75-.92c.13-.25.17-20.88,0-21.17s-5.67-.12-5.83,0,.21,21,.25,21.21,1.75.79,1.75.79,0,.33.08.54-4.54,0-4.71,0,0-.83,0-.83a6.17,6.17,0,0,0,1.46-.83c.21-.29.21-20.63.17-20.92s-5.75-.08-6.21.25.38,20.42.46,20.75,2.21.71,2.21.71.13.71.13.88-8.42.08-8.54,0,.08-1.75,0-2-3.62-1.17-3.62-1.17,0-1.37,0-1.62,7.25.54,7.88.29.42-5,.29-5.54-5.83-.42-5.83-.42l0-.75,1.38.21c.54.08,1.29-.71,1.46-1.21s-.83-1-.83-1l.29-1.08a1.47,1.47,0,0,0,1-.58.83.83,0,0,0-.42-1.25c-.5-.12-1.75.58-1.75.58a3.28,3.28,0,0,0-.92-1c-.5-.29-1.25-.67-2.25.46s-.17,3-.17,3-.75.38-.87.46.42,1.21.54,1.38.33.13.63.17.79.29.92.29,0,.46,0,.46L27.71,19l.08-.75s2.42.08,2.63,0a22,22,0,0,0,.25-4.5c-.08-.33-7.37-.25-7.58-.17s.21,3.92.21,4.13,1.29.54,1.29.54.08.58.13.71-3.5.08-3.92.29-.12,4.21,0,4.58,8,.58,8,.58l.13,1.83a25.76,25.76,0,0,0-4.12.21c-.62.25-.25,3.29-.25,3.29s-.46.08-.92.13-6.17,0-6.33,0,0-.62,0-.75,1.5-.37,1.67-.71.92-20.92.88-21.29-5.83-.29-6-.08-.42,21.17-.29,21.33a8.29,8.29,0,0,0,1.5.63,3.87,3.87,0,0,1,0,.83c0,.29-4.5-.25-4.67-.25s0-.71.13-.87,1.29-.08,1.5-.37.83-21,.83-21.17-5.54-.33-6,.08-.17,19.83-.12,20.17,1.67,1.25,1.67,1.25.21,3.25.17,3.5-1.75.83-1.87,1,.46,22.21.63,22.63,5.5,0,5.67,0S13,34.28,13,33.78s-2.54-1.54-2.54-1.54v-.79l4.83.29s0,.67-.08.83-1,1-1.12,1.21,0,21.29.17,22,5.46.33,5.75.13-.17-22-.17-22.17a15.8,15.8,0,0,0-2.46-1.08l0-1,7.38-.37a13,13,0,0,0,.17,1.46c.08.25,3.83.33,4,.33s0,.5,0,.67-5.79.29-6,.54,0,6,.25,6.29,16.58.42,16.83.25.17-5.92.13-6.12-5.75-.71-6-.83,0-.37,0-.58,4-.25,4.17-.37,0-1.13,0-1.25,8.33.13,8.33.13,0,1.08,0,1.29-2.33,1.13-2.5,1.42-.25,22-.17,22.17a24.78,24.78,0,0,0,5.83.08c.17-.25.79-21.79.79-22.12s-1.62-1.08-1.83-1.17-.17-1.29-.08-1.42A41.69,41.69,0,0,1,53,32c.17,0,.21,1.13.21,1.33s-1.62,1.17-1.83,1.33,0,2-.12,7.42S51,56.57,51.17,56.9s5,.08,5.25,0S57,55,57,50.44,57.5,34.57,57.46,34.32ZM8.67,8.78c.29,0,2.17-.17,2.21.13a9.55,9.55,0,0,1-.12,2.71,5.31,5.31,0,0,1-2.29,0C8.38,11.4,8.34,8.82,8.67,8.78Zm-.08,3.83a5.67,5.67,0,0,1,2.12.08c0,.17,0,2.08,0,2.08s-2.29.25-2.29,0S8.34,12.78,8.59,12.61Zm-.12,3.17a7.12,7.12,0,0,1,2.21.08c0,.17,0,2.58-.17,2.58l-2.13,0S8.38,15.82,8.46,15.78Zm.08,3.67a7.47,7.47,0,0,1,2,.08,10.51,10.51,0,0,1,0,2.79,9.2,9.2,0,0,1-2.17-.12A9.93,9.93,0,0,1,8.54,19.44Zm-.08,7.25a25.09,25.09,0,0,1,.13-3.58s1.83,0,1.87.17a15.83,15.83,0,0,1-.21,3.5C10,26.82,8.5,26.9,8.46,26.69ZM11.24,54c0,.36-1.91.24-2.2.2S8.67,51,8.75,50.76s2.08-.2,2.29-.05A14.08,14.08,0,0,1,11.24,54ZM8.73,47.34c0-.21,2.29,0,2.29,0s.09,1.92.09,2.08A5.68,5.68,0,0,1,9,49.54C8.74,49.38,8.74,47.55,8.73,47.34ZM9,46.21a21.39,21.39,0,0,1-.14-2.29L11,43.83c.21,0,.22,2.1.22,2.25A8.14,8.14,0,0,1,9,46.21ZM11,43a10,10,0,0,1-2,.11,5.6,5.6,0,0,1-.17-2.05A12.24,12.24,0,0,1,11,40.92,5.91,5.91,0,0,1,11,43Zm0-2.88a10.89,10.89,0,0,1-2.08.16A9.63,9.63,0,0,1,8.74,38a7.84,7.84,0,0,1,2-.1C11,37.88,11.05,40,11,40.13Zm-.42-5.53A7.83,7.83,0,0,1,10.86,37,8.24,8.24,0,0,1,9,37.21,12.35,12.35,0,0,1,8.8,34.7,5.94,5.94,0,0,1,10.59,34.6ZM15.42,8.94c.29,0,2.17-.17,2.21.13a9.55,9.55,0,0,1-.12,2.71,5.31,5.31,0,0,1-2.29,0C15.13,11.57,15.09,9,15.42,8.94Zm-.08,3.83a5.68,5.68,0,0,1,2.13.08c0,.17,0,2.08,0,2.08s-2.29.25-2.29,0S15.09,12.94,15.34,12.78Zm-.12,3.17a7.12,7.12,0,0,1,2.21.08c0,.17,0,2.58-.17,2.58l-2.12,0S15.13,16,15.21,15.94Zm.08,3.67a7.47,7.47,0,0,1,2,.08,10.5,10.5,0,0,1,0,2.79,9.2,9.2,0,0,1-2.17-.12A9.93,9.93,0,0,1,15.29,19.61Zm-.08,7.25a25.09,25.09,0,0,1,.13-3.58s1.83,0,1.88.17a15.83,15.83,0,0,1-.21,3.5C16.79,27,15.25,27.07,15.21,26.86Zm3.16,27.3c0,.36-1.91.24-2.2.2s-.37-3.18-.29-3.44,2.08-.2,2.29-.05A14.08,14.08,0,0,1,18.37,54.16ZM15.86,47.5c0-.21,2.29,0,2.29,0s.09,1.92.09,2.08a5.68,5.68,0,0,1-2.12.13C15.87,49.55,15.86,47.71,15.86,47.5Zm.26-1.13A21.39,21.39,0,0,1,16,44.08L18.11,44c.21,0,.22,2.1.22,2.25A8.14,8.14,0,0,1,16.12,46.37Zm2-3.19a9.94,9.94,0,0,1-2,.11A5.6,5.6,0,0,1,16,41.23a12.24,12.24,0,0,1,2.16-.14A5.91,5.91,0,0,1,18.15,43.18Zm0-2.88a10.88,10.88,0,0,1-2.08.16,9.63,9.63,0,0,1-.19-2.33,7.84,7.84,0,0,1,2-.1C18.08,38.05,18.18,40.16,18.13,40.3Zm-.42-5.53A7.83,7.83,0,0,1,18,37.21a8.25,8.25,0,0,1-1.87.16,12.35,12.35,0,0,1-.18-2.51A6,6,0,0,1,17.72,34.77ZM36.46,13.94c.17,0,.79.33.5.58s-.87.21-.92.46-.54.58.25.63A5.79,5.79,0,0,0,38.38,15s-.62,1.58-.5,1.75.5.25.58.38.17.58,0,.63A2.28,2.28,0,0,1,35.88,17C34.84,15.69,35.17,14.15,36.46,13.94ZM24.29,17.19a9.67,9.67,0,0,1,.13-2.5s5.17-.08,5.21.08a10.15,10.15,0,0,1-.21,2.58C29.25,17.36,24.42,17.32,24.29,17.19Zm11,12.46c.13.17,1.42,1.46,1.21,1.58s-.42.25-.58.17-1.75-2.12-2-2.17a2.15,2.15,0,0,0-.71.13l1.42,2.08a2.19,2.19,0,0,1-.71,0c-.12-.08-1.46-1.75-1.75-1.79a.82.82,0,0,0-.5.08l1.17,2s-.92.17-.92.58-.33,2.79.17,2.88,5.92.63,6,.88a2,2,0,0,1,.08.79s-1.08-.29-1.08,0,1,1.88.75,2.08-.58.38-.67.21-2-2.54-2-2.54-.71,0-.67.17S36.21,38.9,36,39a4,4,0,0,1-1,0A15.94,15.94,0,0,0,33.38,37c-.21,0-.54,0-.58.17a11.14,11.14,0,0,0,1.08,1.88s-4.54-.08-6.54,0-2.67.13-2.67-.08a24.25,24.25,0,0,1-.08-3.46c.17-.12,5.88-.12,5.92-.37s-.17-3-.17-3a33,33,0,0,1-3.83-.46c-.12-.17-.33-3.75-.08-3.83s4.38,0,4.46-.46a26.25,26.25,0,0,0-.17-4.54c-.17-.08-7.67-.17-7.83-.33a3.75,3.75,0,0,1-.12-1.79c.3-.4,5.33,0,10.46.17s7.75.25,7.88.5.13,2.13-.12,2.13-7.83-.67-8-.33a17.82,17.82,0,0,0-.29,4.63c.21.13,3.75.67,3.83,1a4.34,4.34,0,0,1,0,1.13l-1-.75S35.13,29.48,35.25,29.65ZM46,8.84c.29,0,2.16-.22,2.21.07a9.55,9.55,0,0,1-.06,2.71,5.3,5.3,0,0,1-2.29.05C45.73,11.47,45.62,8.89,46,8.84Zm0,3.83a5.68,5.68,0,0,1,2.13,0c0,.17,0,2.08,0,2.08s-2.29.3-2.29.1S45.72,12.85,46,12.68Zm-.05,3.17a7.12,7.12,0,0,1,2.21,0c0,.17.1,2.58-.11,2.59H45.89S45.83,15.89,45.91,15.85Zm.17,3.66a7.47,7.47,0,0,1,2,0,10.51,10.51,0,0,1,.11,2.79A9.19,9.19,0,0,1,46,22.26,9.93,9.93,0,0,1,46.08,19.51Zm.09,7.25a25.09,25.09,0,0,1,0-3.59s1.83-.08,1.88.12A15.83,15.83,0,0,1,48,26.8C47.76,26.85,46.22,27,46.17,26.76ZM46.34,35a5.94,5.94,0,0,1,1.79,0,7.83,7.83,0,0,1,.15,2.46,8.25,8.25,0,0,1-1.88.07A12.35,12.35,0,0,1,46.34,35Zm-.21,3.26a7.85,7.85,0,0,1,2,0c.23,0,.23,2.15.18,2.28a10.88,10.88,0,0,1-2.08.06A9.63,9.63,0,0,1,46.13,38.25Zm1.75,16.13c-.05.35-1.92.15-2.21.1s-.22-3.2-.13-3.45,2.09-.1,2.29.05A14.08,14.08,0,0,1,47.88,54.38ZM48,49.79a5.68,5.68,0,0,1-2.13,0c-.25-.17-.16-2-.16-2.21s2.29.1,2.29.1S48,49.63,48,49.79Zm.24-3.32a8.14,8.14,0,0,1-2.21,0,21.4,21.4,0,0,1,0-2.29h2.13C48.3,44.22,48.21,46.33,48.21,46.48Zm0-3.08a9.94,9.94,0,0,1-2,0,5.6,5.6,0,0,1-.08-2.06,12.25,12.25,0,0,1,2.17,0A5.91,5.91,0,0,1,48.17,43.4Zm7.09-8.17a7.83,7.83,0,0,1,.15,2.46,8.25,8.25,0,0,1-1.88.07,12.35,12.35,0,0,1-.07-2.51A5.94,5.94,0,0,1,55.26,35.23ZM52.92,8.84c.29,0,2.16-.22,2.21.07a9.55,9.55,0,0,1-.06,2.71,5.3,5.3,0,0,1-2.29.05C52.69,11.47,52.58,8.89,52.92,8.84Zm0,3.83a5.68,5.68,0,0,1,2.13,0c0,.17,0,2.08,0,2.08s-2.29.3-2.29.1S52.68,12.85,52.92,12.68Zm-.05,3.17a7.12,7.12,0,0,1,2.21,0c0,.17.1,2.58-.11,2.59H52.85S52.79,15.89,52.87,15.85ZM53,22.26A9.93,9.93,0,0,1,53,19.51a7.47,7.47,0,0,1,2,0,10.51,10.51,0,0,1,.11,2.79A9.19,9.19,0,0,1,53,22.26Zm.15,4.5a25.08,25.08,0,0,1,0-3.59S55,23.09,55,23.3a15.82,15.82,0,0,1-.13,3.5C54.72,26.85,53.18,27,53.13,26.76Zm.12,11.74a7.85,7.85,0,0,1,2,0c.23,0,.23,2.15.18,2.28a10.88,10.88,0,0,1-2.08.06A9.63,9.63,0,0,1,53.25,38.5ZM55,54.63c-.05.35-1.92.15-2.21.1s-.22-3.2-.13-3.45,2.09-.1,2.29.05A14.08,14.08,0,0,1,55,54.63ZM55.09,50a5.68,5.68,0,0,1-2.13,0c-.25-.17-.16-2-.16-2.21s2.29.1,2.29.1S55.09,49.88,55.09,50Zm.24-3.32a8.14,8.14,0,0,1-2.21,0,21.4,21.4,0,0,1,0-2.29h2.13C55.43,44.47,55.33,46.58,55.33,46.73Zm0-3.08a9.94,9.94,0,0,1-2,0,5.6,5.6,0,0,1-.08-2.06,12.25,12.25,0,0,1,2.17,0A5.91,5.91,0,0,1,55.29,43.65Zm-28-15.25a8.55,8.55,0,0,0,.08,2.71c.17.29.79.13.92,0a11.4,11.4,0,0,0,0-2.67C28.21,28.19,27.37,28.3,27.29,28.4Z"/></g></svg>