<svg id="Layer_1" data-name="Layer 1" xmlns="http://www.w3.org/2000/svg" width="64" height="64" viewBox="0 0 64 64"><defs><style>.cls-1{fill:#1d1d1b;}</style></defs><title>jupiter</title><g id="jupiter"><path class="cls-1" d="M35.56,23.83c.14-.41-.08-.73-.46-.69-.6.06-.74.56-.57.75S35.42,24.23,35.56,23.83Zm-7.81,5.75c.14-.41-.08-.73-.46-.69-.6.06-.74.56-.57.75S27.61,30,27.74,29.58Zm2.19-2.87c.14-.41-.08-.73-.46-.69-.6.06-.74.56-.57.75S29.8,27.11,29.93,26.7ZM13.9,27c.14-.41-.08-.73-.46-.69-.6.06-.74.56-.57.75S13.76,27.42,13.9,27Zm18.38-2.66c.14-.41-.08-.73-.46-.69-.6.06-.74.56-.57.75S32.14,24.77,32.28,24.36Zm-.12,3.25c.14-.41-.08-.73-.46-.69-.6.06-.74.56-.57.75S32,28,32.15,27.61ZM20.06,30.33c.14-.41-.08-.73-.46-.69-.6.06-.74.56-.57.75S19.92,30.73,20.06,30.33Zm-6.82.06c.16.19.9.34,1-.06s-.08-.73-.46-.69C13.21,29.7,13.08,30.2,13.24,30.39Zm4.13-4.72c.14-.41-.08-.73-.46-.69-.6.06-.74.56-.57.75S17.23,26.08,17.37,25.67Zm4.16-.37c.14-.41-.08-.73-.46-.69-.6.06-.74.56-.57.75S21.39,25.7,21.53,25.3Zm-4.31,3c.14-.41-.08-.73-.46-.69-.6.06-.74.56-.57.75S17.08,28.73,17.21,28.33Zm7.31,2.09c.14-.41-.08-.73-.46-.69-.6.06-.74.56-.57.75S24.39,30.83,24.53,30.42Zm-3.79-2.28c.16.19.9.34,1-.06s-.08-.73-.46-.69C20.71,27.45,20.58,28,20.74,28.14ZM25.4,28c.14-.41-.08-.73-.46-.69-.6.06-.74.56-.57.75S25.26,28.39,25.4,28Zm9.25-1.66c.16.19.9.34,1-.06s-.08-.73-.46-.69C34.62,25.64,34.48,26.14,34.65,26.33Zm-8.15-.69c.14-.41-.08-.73-.46-.69-.6.06-.74.56-.57.75S26.36,26,26.49,25.64Zm6.06-16c.14-.41-.08-.73-.46-.69-.6.06-.74.56-.57.75S32.42,10,32.56,9.64Zm-.82,4.06c.16.19.9.34,1-.06s-.08-.73-.46-.69C31.71,13,31.58,13.52,31.74,13.7Zm-.87-2.06c.14-.41-.08-.73-.46-.69-.6.06-.74.56-.57.75S30.73,12,30.87,11.64ZM34.93,13c.14-.41-.08-.73-.46-.69-.6.06-.74.56-.57.75S34.8,13.42,34.93,13Zm5.31-1.31c.14-.41-.08-.73-.46-.69-.6.06-.74.56-.57.75S40.11,12.11,40.24,11.7ZM28,11.89c.14-.41-.08-.73-.46-.69-.6.06-.74.56-.57.75S27.83,12.3,28,11.89ZM39.59,24c.14-.41-.08-.73-.46-.69-.6.06-.74.56-.57.75S39.45,24.36,39.59,24ZM35.71,10.61c.14-.41-.08-.73-.46-.69-.6.06-.74.56-.57.75S35.58,11,35.71,10.61Zm1.88,1.72c.14-.41-.08-.73-.46-.69-.6.06-.74.56-.57.75S37.45,12.73,37.59,12.33ZM53.46,25.48c.14-.41-.08-.73-.46-.69-.6.06-.74.56-.57.75S53.33,25.89,53.46,25.48Zm-9.34-1c.14-.41-.08-.73-.46-.69-.6.06-.74.56-.57.75S44,24.86,44.12,24.45ZM28,13.61c.14-.41-.08-.73-.46-.69-.6.06-.74.56-.57.75S27.83,14,28,13.61Zm-9.38,4.31c.78-.22,1.78,0,3.44-.22a15.31,15.31,0,0,0,3.06-.53c.06-.09,0-.12-.25-.34s-1,0-3.44.13-3,0-3.25,0a.79.79,0,0,0-.47,1.13C17.86,18.23,17.8,18.14,18.58,17.92Zm23.1,8.34c.14-.41-.08-.73-.46-.69-.6.06-.74.56-.57.75S41.55,26.67,41.68,26.27Zm-17-15.56c.14-.41-.08-.73-.46-.69-.6.06-.74.56-.57.75S24.55,11.11,24.68,10.7ZM31.36,19c1.16-.16,2.56-.16,2.78-.22s0-.34-.22-.62-.56-.09-2,0-2-.14-2.06,0-.37.78-.22,1S30.21,19.11,31.36,19ZM21,12.3a.48.48,0,0,0-.53-.69c-.69.06-.84.56-.66.75S20.8,12.7,21,12.3Zm9,31.72c-.6.06-.74.56-.57.75s.9.34,1-.06S30.32,44,29.94,44Zm1.34-1.84c-.6.06-.74.56-.57.75s.9.34,1-.06S31.66,42.13,31.28,42.17Zm4.81,2c-.6.06-.74.56-.57.75s.9.34,1-.06S36.48,44.13,36.09,44.17Zm2.06-.69c-.6.06-.74.56-.57.75s.9.34,1-.06S38.54,43.44,38.16,43.48Zm1.31,1.38c-.6.06-.74.56-.57.75s.9.34,1-.06S39.85,44.82,39.47,44.86Zm-4.84-4c-.6.06-.74.56-.57.75s.9.34,1-.06S35,40.82,34.62,40.86Zm-1.69,4.31c-.6.06-.74.56-.57.75s.9.34,1-.06S33.32,45.13,32.94,45.17Zm1.28-1.5c-.6.06-.74.56-.57.75s.9.34,1-.06S34.6,43.63,34.22,43.67ZM40.28,42c-.6.06-.74.56-.57.75s.9.34,1-.06S40.66,41.94,40.28,42Zm-2.22.53c.14-.41-.08-.73-.46-.69-.6.06-.74.56-.57.75S37.92,42.92,38.06,42.52Zm3.63,2.19c-.6.06-.74.56-.57.75s.9.34,1-.06S42.07,44.66,41.69,44.7Zm1.14-12a31,31,0,0,1-3.22-.25,31.49,31.49,0,0,0-5.72.56c-.16.06,0,.84,0,.84s.59,0,2.72-.31a17.31,17.31,0,0,1,3.66,0,23.29,23.29,0,0,0,2.78.09C43.36,33.42,43.11,32.58,42.83,32.67Zm8.56-.31c-.22,0-.47.36-.41.53a37.71,37.71,0,0,0,4.34,3.53c.19,0,.16-.22.16-.53A27.45,27.45,0,0,0,51.39,32.36Zm2.44-2.44c0,.06-.5.47-.53.66A11.08,11.08,0,0,0,56,31.89c.19,0,.13-.28.13-.53S53.83,29.63,53.83,29.92ZM49.55,34a1.64,1.64,0,0,0-.5.75,58.69,58.69,0,0,0,5.22,4.72c.28.09.16-.16.34-.41S49.73,34.16,49.55,34ZM38,35.58c-1.41,0-3.27-.16-3.41-.09s-.19.88.06,1a13.09,13.09,0,0,0,2.88-.06c1.22-.09,2.47.13,2.69,0s.13-.5.16-.72S39.39,35.58,38,35.58Zm6.2,8.5c-.6.06-.74.56-.57.75s.9.34,1-.06S44.57,44,44.19,44.08ZM26.36,36.36c-.22-.22-.59.09-2.53,0a12.64,12.64,0,0,1-3.53-.66s-.25.5,0,.72a12.45,12.45,0,0,0,3.84.72,11.5,11.5,0,0,0,2.53,0C27.18,37,26.58,36.58,26.36,36.36Zm-1.61,5.5c-.6.06-.74.56-.57.75s.9.34,1-.06S25.13,41.82,24.75,41.86Zm-8.5,2.81c-.6.06-.74.56-.57.75s.9.34,1-.06S16.63,44.63,16.25,44.67Zm-1.34-1.41c-.6.06-.74.56-.57.75s.9.34,1-.06S15.29,43.23,14.91,43.27Zm3.34-2.44c.14-.41-.08-.73-.46-.69-.6.06-.74.56-.57.75S18.11,41.23,18.24,40.83Zm-3.09-.28c.14-.41-.08-.73-.46-.69-.6.06-.74.56-.57.75S15,41,15.15,40.55Zm3.44,2.59c-.6.06-.74.56-.57.75s.9.34,1-.06S19,43.1,18.59,43.14Zm-5.41,2.28c-.6.06-.74.56-.57.75s.9.34,1-.06S13.57,45.38,13.19,45.42Zm-2.34-4.56c-.6.06-.74.56-.57.75s.9.34,1-.06S11.23,40.82,10.84,40.86ZM13,43.27c.14-.41-.08-.73-.46-.69-.6.06-.74.56-.57.75S12.83,43.67,13,43.27ZM10.05,27a11,11,0,0,0-.34,4.81c.13.16.84-.12,1.06-.31s-.09-.56-.16-1.87A9.38,9.38,0,0,1,11,27C11,26.86,10.13,26.83,10.05,27ZM26.19,43.42c-.6.06-.74.56-.57.75s.9.34,1-.06S26.57,43.38,26.19,43.42ZM25.84,45c-.6.06-.74.56-.57.75s.9.34,1-.06S26.23,45,25.84,45Zm3.49-2.69c.14-.41-.08-.73-.46-.69-.6.06-.74.56-.57.75S29.2,42.77,29.34,42.36Zm-7.15-1.12c-.6.06-.74.56-.57.75s.9.34,1-.06S22.57,41.19,22.19,41.23Zm6.91,4.06c-.6.06-.74.56-.57.75s.9.34,1-.06S29.48,45.26,29.09,45.3ZM20.28,42.7c-.6.06-.74.56-.57.75s.9.34,1-.06S20.66,42.66,20.28,42.7Zm2.91,2c-.6.06-.74.56-.57.75s.9.34,1-.06S23.57,44.63,23.19,44.67ZM56.27,20.27c-1.5-3.06-3.47-5.72-9.16-9S34.25,5.08,28,6.3c-3.56.69-6.84,1.31-10.91,4.44A36,36,0,0,0,8.49,20.2c-1.75,2.81-4,5.31-3.28,14.22s3.94,12.28,7.22,15.5S22.8,56,30.05,57.45s10.5-.34,14.78-2.19a17.7,17.7,0,0,0,9.34-8.37c2.38-4.25,4.31-7.78,4.69-13.09A28.08,28.08,0,0,0,56.27,20.27ZM16.52,12.7A16.47,16.47,0,0,1,22.43,9.3,20.64,20.64,0,0,1,27,8.17s-.41.59.09.72,1,.22,1.16,0-.09-.81.06-.84a21.39,21.39,0,0,1,7.91.72,54.8,54.8,0,0,1,10.22,3.91c.81.41,1.63,1,1.47,1.09a19.36,19.36,0,0,1-2.66,0c-.62,0-3.53-.81-6.12-.25S35,14.67,32.39,14.77a30.76,30.76,0,0,1-5.56-.53c-1.09-.09-4.81-.72-6.28-.72s-3.87-.12-4.12-.19S16.27,12.92,16.52,12.7ZM13.14,16a18.38,18.38,0,0,1,2.69-1.06,41.34,41.34,0,0,1,7.22.5c4.5.56,5.16,1.13,9.5.63s5.91-1.41,7.94-1.38,4.88.72,6.69.72,2.31-.22,2.66-.12a12,12,0,0,1,3.78,4.09c1.28,2.28.44,1.75.19,1.75H52.36a29,29,0,0,0-2-2.87c-.22-.06-.87.09-.84.19s2.09,2.69,1.91,2.78a9.46,9.46,0,0,1-1.84.13c-.12,0-1.91-3.06-2.12-3.06s-.75.13-.72.28,1.75,2.94,1.59,2.91-.84.13-1,0S45.74,19,45.52,18.89s-.91,0-.84.22a21.56,21.56,0,0,1,1.25,2.28c-.12.09-2.5-.5-5.06-1a10.61,10.61,0,0,0-5.5-.22c-2.56.44-3.16,1.31-9,1.47s-6.34-1.09-11,.31a41.06,41.06,0,0,0-6,2.28c-.53.09-1.06.31-1.09.09A23.74,23.74,0,0,1,13.14,16ZM6.83,33.83a18.12,18.12,0,0,1-.12-4.28,10.82,10.82,0,0,1,1-3.53A11,11,0,0,0,12,24.67a17.13,17.13,0,0,1,8-1.87c3,0,3.84,1.25,9.34,0S37,21,40.18,21.58s4.19,1.66,8.5,1.34,5.91-.81,6.13-.59a14.7,14.7,0,0,1,1.13,3.78c-.19.09-2.56.19-3.09.28s-1.22.25-1.22.25a19.1,19.1,0,0,0-2.06-2.22c-.22,0-.78.41-.69.53s2.13,1.81,1.88,1.94a11.94,11.94,0,0,1-1.34.38,20.8,20.8,0,0,0-2.34-2.37c-.28,0-.59.28-.56.41s2.31,2.19,2.16,2.31a8,8,0,0,1-1.91.53c-.09-.06-1.12-1.81-1.62-1.81s-.72.19-.66.31,1.28,1.81,1.13,1.84a5.48,5.48,0,0,1-2.94-.37,13.89,13.89,0,0,0-5.56-.84c-1.56.19-3.31.75-7.62,2.66s-5.41,2.28-10,2.09-5.28-.59-7.81.19S6.89,34,6.83,33.83ZM36.74,56.14a21.65,21.65,0,0,1-6.53-.37,20.44,20.44,0,0,1-3.37-1.34,18.7,18.7,0,0,1,5.62-.62c3,.19,3.38.59,5.69.66s3.69.13,3.69.13A15.7,15.7,0,0,1,36.74,56.14Zm11.88-5.25a19,19,0,0,0-1.84-1.47c-.16,0-.62.31-.53.44s1.88,1.5,1.75,1.63a8.25,8.25,0,0,1-1.72,1.09c-.09-.09-1.91-2.47-2.09-2.53s-.72.16-.72.25,2.38,2.56,2.19,2.72-.25.19-.37.16-.59-.81-.84-.84a3.8,3.8,0,0,0-.78.06,17.52,17.52,0,0,0-1.87-1.78c-.25-.06-.62,0-.56.22s1.53,1.88,1.34,1.88a8.33,8.33,0,0,1-1.25,0C41.18,52.64,40,51,39.68,51s-.69,0-.69.13.84,1.59.84,1.59a23.06,23.06,0,0,0-5.56-.44c-2.66.19-3.47.44-4.91.44s-2.34-.06-3.12,0a11.32,11.32,0,0,0-1.84.25,10.72,10.72,0,0,1-1.53.28A20.16,20.16,0,0,1,14.8,49s3.59-1.5,5.38-1.5,2.59,1.5,7.5,1.25,9.19-1.16,11.41-.87,1.53,1.06,5,.94,6.66-.91,6.66-.72S48.61,50.89,48.61,50.89Zm4.25-5s-3.41.22-6.22.5-2.72.5-3.91.34a18.87,18.87,0,0,0-6.28-.5,61.19,61.19,0,0,1-8,.53c-4.25.06-6-1.47-9.59-.78a21.15,21.15,0,0,0-5.47,1.88c-.37,0-1.66-1.53-3.06-3.53a10.87,10.87,0,0,1-1.94-4.53,21.43,21.43,0,0,1,8.44-.94c4.84.31,5.75,1.81,11.34,1.53s8-.84,9.72-.72,5.78,3,9.94,3.41,6.22-.09,6.19.25A22.74,22.74,0,0,1,52.86,45.92ZM56.77,34.3c-.56,3.63-1.59,6.31-1.87,6.5a9.85,9.85,0,0,1-1.94.5c-.22,0-.16.28-.44,0s-4.25-4.84-4.5-4.81-.78.28-.59.59,4.25,4.28,4,4.38a9.57,9.57,0,0,1-2.5-.06c-.22-.12-2.47-3-2.72-3s-.62.13-.56.34,2.06,2.44,1.91,2.53a8.56,8.56,0,0,1-4.16-1.16c-1.72-1-3.87-2.53-7-2.47s-4,1.22-7.66,1.16-6.87-1.5-11.62-1.47a34.77,34.77,0,0,0-6.91.47c-.66.13-2,.91-2.19.81a13.46,13.46,0,0,1-.72-3.12,13.14,13.14,0,0,1,7.09-2.34c3.66,0,4.88,1.09,10.47-.12s9.22-3.72,12.56-3.94,5.88,1.41,8.28,1.09,6.59-1.84,7.88-2,2.84-.28,2.94,0A13.35,13.35,0,0,1,56.77,34.3Z"/></g></svg>