<svg id="Layer_1" data-name="Layer 1" xmlns="http://www.w3.org/2000/svg" width="64" height="64" viewBox="0 0 64 64"><defs><style>.cls-1{fill:#1d1d1b;}</style></defs><title>landing-space-capsule</title><g id="landing-space-capsule"><path class="cls-1" d="M51,16.5c.29-.21-1.29-4.29-1.37-4.42s-.79.21-.79.21a29.11,29.11,0,0,0,1.38,4.21C50.3,16.71,50.68,16.71,51,16.5Zm-30.42-8c-.29-.08-1,0-3,1.71a8,8,0,0,0-2.67,4s1.17.21,1.29,0a6.92,6.92,0,0,1,1.58-2.79A8.06,8.06,0,0,1,21,9.25S20.84,8.59,20.55,8.5Zm8.88,29.58c-3.17,2.38-4.33,6.83-1.21,11s11.5,2.5,12.42-4.79S32.47,35.8,29.43,38.09Zm10.15,6.19C38.8,50.48,31.67,51.9,29,48.36S27.34,41,30,39,40.36,38.07,39.58,44.28Zm-9.52,3.11c2,2.72,7.51,1.63,8.11-3.13s-5.34-5.55-7.32-4.06A4.91,4.91,0,0,0,30.06,47.39Zm2.45-6.72c1.14-.32,2.92-.21,3.67,1a7,7,0,0,1,.71,3.63c-.12-.08-1.37-1.12-1.58-1s-.42.25-.33.42,1.5,1.13,1.46,1.29a2.56,2.56,0,0,1-.46.58A12.43,12.43,0,0,0,34.09,45c-.25,0-.5.42-.29.58s1.54,1.42,1.46,1.58-.54.46-.67.38S33.39,46,33.18,46.09s-.67,0-.5.29l1,1.42a2.91,2.91,0,0,1-3.46-1.92A3.7,3.7,0,0,1,32.51,40.67Zm-.83,4.25c.21,0,0-.46.17-1.42s1-1,1.08-1.33-.39-.55-.58-.46a2.66,2.66,0,0,0-1.46,3.17C31,45.09,31.47,45,31.68,44.92ZM13.26,30.42a105.82,105.82,0,0,0,.29,11.33c.25.63.5.17.75,0s-.12-11-.29-11.37S13.51,30.17,13.26,30.42Zm5.38,2.42c0,.25-.08,5.71,0,6.08s.63.08.79-.25a36.79,36.79,0,0,0,0-5.67C19.39,32.71,18.66,32.67,18.64,32.84ZM52.72,29c-.08.17.29,11.13.33,11.38s.33.21.71.08.08-11.08,0-11.42A.62.62,0,0,0,52.72,29Zm-7.12,2.83s.17,4.54.29,4.83.83.13,1,0a37.17,37.17,0,0,0-.08-4.79C46.68,31.63,45.89,31.79,45.59,31.84Zm7.67-9.71c.83-1,1.38-7.12-1-11.79S45.14,4.42,38.8,3.46,25.22,1.88,19.64,4.63a17.56,17.56,0,0,0-9.12,10.54c-1,3.17-.33,6.88.25,7.5a2.49,2.49,0,0,0,1.75.54,42.94,42.94,0,0,0,6,3.88c4.67,2.67,9.25,8.13,9.25,8.13-2,1-3.83,3.79-4.58,6.13S22.55,50,22.55,50s-1.71.21-2,.71a40.34,40.34,0,0,0,0,7.13c.17,1,2.79,3,12.63,3.42s13.5-1.42,14-2.25.42-5.54.21-7.25-1.54-1.67-1.54-1.67a32,32,0,0,0-1.54-9.54,8.77,8.77,0,0,0-6.12-6.17A23.92,23.92,0,0,1,43.51,28a24.71,24.71,0,0,1,6.79-4.42A6.84,6.84,0,0,0,53.26,22.13Zm-32,4.54c-5.5-3.21-7.79-4.92-7.79-4.92a4.63,4.63,0,0,1,4.25-3.25,11,11,0,0,1,6.71,1.58c.17.25.54.63.79.63s2.21,2.54,3.83,5.75,2.33,4.63,2.33,4.63a1.75,1.75,0,0,0-.62,1.67c.21,1,.46,1.21.46,1.21l-1.87.5A23.52,23.52,0,0,0,21.22,26.67Zm13.63,3.42a10.06,10.06,0,0,0-1.17-.25,2.1,2.1,0,0,0-1.17.25s-1.33-3.42-3-6.71A36.35,36.35,0,0,0,27,19.09,8,8,0,0,1,33.43,16a7.45,7.45,0,0,1,6.08,2.79S37.64,23,36.72,25.5,34.84,30.09,34.84,30.09ZM35,33.67a10.41,10.41,0,0,0-1.71-.12,3.69,3.69,0,0,0-1,.17,1.37,1.37,0,0,1,.25-2.33,1.89,1.89,0,0,1,2.63,1.13C35.34,33.5,35,33.67,35,33.67ZM45.39,52.42a48,48,0,0,1,.33,5.25c-.12,0-.87-2.46-1.12-2.5s-.62.13-.58.33a20.2,20.2,0,0,1,1.08,2.88,3.21,3.21,0,0,1-.92.54s-1.42-4.75-1.79-4.79-.87,0-.83.21,1.79,4.75,1.54,4.83-.67.17-.67.17S40.76,55.09,40.59,55s-.83.13-.79.33,1.79,4,1.63,4-.83.13-.83.13a39.4,39.4,0,0,0-1.67-3.92c-.17,0-.83.08-.75.29l1.38,3.58s-1.12.21-1.17.08-1-3.42-1.25-3.37-.75.08-.67.29a19.09,19.09,0,0,1,1,3.17,71.16,71.16,0,0,1-7.54-.5c-4.37-.46-7.21-1.67-7.37-1.92a42.32,42.32,0,0,1-.12-5.12c.07-.37,3,1.79,10.58,1.75S45.3,52.17,45.39,52.42Zm-2-9.33A67.52,67.52,0,0,1,44.14,51c-.12.17-2.12,1.71-10.42,1.42S24.26,51,24.26,51s-.29-6.42.83-9.71,3.46-6.46,10.17-6.25S43.09,41.79,43.39,43.09Zm5.71-20.75a26.1,26.1,0,0,0-8,6.21,64.36,64.36,0,0,0-4,5.33L36,33.63a2.62,2.62,0,0,0-.21-2.83c-.12-.14,3.13-7.29,4-9.5s1.92-3.46,3.54-3.46,3.58.13,4.75,1.42A4.58,4.58,0,0,1,49.09,22.34ZM46.64,12.21c.17.21,2.5,5.58,2.5,5.58a11.82,11.82,0,0,0-1.5-1,4.71,4.71,0,0,0-.83-.29A27.85,27.85,0,0,0,44.72,13c-.25,0-.87.25-.71.46a22.22,22.22,0,0,1,1.79,2.92,9.88,9.88,0,0,1-1,0,2.51,2.51,0,0,0-.62,0A23.18,23.18,0,0,0,42.64,14c-.17,0-.71.08-.54.29s1.17,2.21,1.17,2.21a5,5,0,0,0-1.33,0,3.21,3.21,0,0,0-1.21.71,10.7,10.7,0,0,0-7.83-2.58,11.61,11.61,0,0,0-7.75,4A11.49,11.49,0,0,0,17.26,17c-4.42.79-5.42,3.67-5.42,3.67A12.32,12.32,0,0,1,14,12.34c2.88-4.38,6.58-7.13,13-7.83s14.42.92,17.67,1.92a9.46,9.46,0,0,1,6.67,6.46,17.56,17.56,0,0,1,.5,7.58c-.12.5-.17.75-.37.79s-.58.17-.54,0-.75-3.12-.75-3.12-2.5-6.25-2.79-6.38S46.47,12,46.64,12.21Z"/></g></svg>