<svg id="Layer_1" data-name="Layer 1" xmlns="http://www.w3.org/2000/svg" width="64" height="64" viewBox="0 0 64 64"><defs><style>.cls-1{fill:#1d1d1b;}</style></defs><title>laser-gun</title><g id="laser-gun"><path class="cls-1" d="M56,13.24a2.5,2.5,0,0,0-2.34,2.25l-1.87.13a5.36,5.36,0,0,1-.25-1.09c-.09-.69-.09-1.37-.12-1.72s-3.31-.69-3.56-.59.38,4,.34,4.09a11.77,11.77,0,0,1-1.78.16,25.06,25.06,0,0,0-.84-4.37A1.15,1.15,0,0,0,44,11.8c-.41.22-4.19,3-4.19,3S37,12.05,30.76,12.08s-8.44,2.25-8.44,2.25a11.15,11.15,0,0,0-1.47-.66c-.59-.19-2.81-.47-7.91.94a18.9,18.9,0,0,0-8,4.5c-.28.19-.22.66-.12.84a7.77,7.77,0,0,0,2.63.94,8.85,8.85,0,0,1,3.22,2C7,26.86,6.42,31.08,9.45,33.21a27.18,27.18,0,0,0,7.94,3.25S13.83,47.24,13.51,49s1.75,2.88,3.5,3.09,7.75.5,9.53-.22,1.22-2.25,1-4.47a52,52,0,0,1-.06-5.28s3.13,0,4.34-.78,1.72-5.62,1.72-5.62a15.75,15.75,0,0,0,6.28-1.81c3.69-1.81,4.25-4.31,4.25-4.31s.91.06,2,0,5.44-.06,5.69-.34-.12-.5-1.19-2.37a28.75,28.75,0,0,1-1.81-4l1.34-1.25s.38.75.94,1.75a11.82,11.82,0,0,0,2.09,2.84c.34.13,2.31-3.22,2.38-3.5s-.25-.37-.66-.87S53.64,20,53.64,20l1.59-1.53a2,2,0,0,0,.81.44c.53.16,2.84.38,3.19-1.84S58.17,13,56,13.24ZM9.7,19.93c-1-.19-1.56-.59-1.53-.78S11.48,17,14.42,16s4.94-.78,4.78-.59a37.86,37.86,0,0,0-5.06,3.87c-1.69,1.78-2.22,2.53-2.31,2.41S10.7,20.11,9.7,19.93Zm16,20c-.16,1.53-.28,2.34-.28,2.34A26.51,26.51,0,0,0,23,39.71c-.19,0-.47.72-.41.84s2.75,2.75,2.78,2.91.06,2.19.16,2.81.19,1.5.19,1.5S22.2,44.15,22,44.15s-.44.81-.44.81,4.28,4.16,4.28,4.41.16,1.25-.06,1.25a1.56,1.56,0,0,1-.56,0c-.12-.06-4.31-4.37-4.5-4.41s-.59.5-.53.69,3.88,3.69,3.69,3.75a8.91,8.91,0,0,1-1.25,0,39.54,39.54,0,0,0-3.34-3c-.22,0-.69.69-.62.78s2.53,2.25,2.53,2.25a22.52,22.52,0,0,1-4.37-.47c-1.22-.41-1.31-1.06-1.22-1.47S19.26,37,19.48,36.61a14.09,14.09,0,0,0,3.44.31c2.13,0,3.63-.19,3.63-.19A13.31,13.31,0,0,0,25.7,39.93Zm4.69.34a7,7,0,0,1-2.47.34,6.29,6.29,0,0,1,1-3.87c.05-.08,2.56-.31,2.56-.31S30.55,40.15,30.39,40.27Zm12.25-12a19.61,19.61,0,0,0-1.91-2.59c-.22,0-.56.22-.56.44s2.06,3,1.94,3.28-.59,1.44-.78,1.47S39.17,27.27,39,27.21s-.59,0-.62.19,2.22,4,2.22,4-1,.78-1.09.72-2.25-4-2.44-4-.72.25-.69.38,2.44,3.94,2.31,4.06-1.16.69-1.22.56-2.44-4-2.62-4-.72.41-.69.5,2.44,3.72,2.25,3.84-.94.41-1,.28S33.14,30.61,33,30.61s-.81.38-.78.53,2.16,2.81,2,2.91a4.48,4.48,0,0,1-.94.19,27.54,27.54,0,0,0-2.09-2.84c-.19,0-.69.19-.69.28s1.69,2.56,1.59,2.66a6.16,6.16,0,0,1-1.16.22A20.13,20.13,0,0,0,29.26,32c-.19,0-1,.28-.91.41s1.5,2.22,1.31,2.31a35.8,35.8,0,0,1-8.59.25c-4.5-.37-8.44-2-10-3.31S9,29.08,10.26,26.9a40.24,40.24,0,0,1,7.19-8,22,22,0,0,1,11.13-5c4.66-.56,8.12.09,10.72,2.69s3.63,7.16,3.72,8.72A9.15,9.15,0,0,1,42.64,28.27ZM49,27.93c-.09.09-3.94.13-3.94.13a19.29,19.29,0,0,0-1.22-7.66,15.2,15.2,0,0,0-3-4.75c.16-.16,3.16-2.22,3.16-2a24.6,24.6,0,0,0,2.06,8.22C47.92,26,49.14,27.83,49,27.93Zm-.81-6.13a10.9,10.9,0,0,1-1.53-4.37,3.09,3.09,0,0,1,1.53-.09c.13.13.22.66.75,1.88s.69,1.66.69,1.66Zm6,1.16c0,.19-.91,1.63-1,1.53A18.47,18.47,0,0,1,50,18.71a29.6,29.6,0,0,1-1-5c0-.22,1.41-.09,1.47,0a29.8,29.8,0,0,0,1.22,4.69A30.66,30.66,0,0,0,54.26,23Zm-1.09-4a2.93,2.93,0,0,1-.84-2.47c0-.16,1.25-.12,1.25-.12a2.35,2.35,0,0,0,.38,1l.44.63S53.33,19.05,53.17,18.93Zm5-2.25a1.54,1.54,0,0,1-2.78.59c-1-1.16-.94-3.06,1-2.91A1.76,1.76,0,0,1,58.2,16.68ZM24.76,39.74c.09,0,.25-.25.28-.56s-.91-1-1-1.09-.45.53-.37.59S24.67,39.71,24.76,39.74ZM22.3,43.08a20.39,20.39,0,0,0,2.44,2.25c.19,0,0-1,0-1.19S22.55,41.78,22.55,42,22.17,42.86,22.3,43.08ZM17.42,21.74a28.74,28.74,0,0,0,2.06,3.63c.16.19.53-.16.63-.34a33.2,33.2,0,0,0-1.81-3.66A1.6,1.6,0,0,0,17.42,21.74Zm3.34-2.44c-.19,0-.91.29-.91.41s2.56,4.91,2.69,5a.73.73,0,0,0,.72-.44A29.22,29.22,0,0,0,20.76,19.3Zm3.09-1.81a1.57,1.57,0,0,0-1.12.38c-.12.34,2.19,4.44,2.41,4.66s1-.16,1.06-.37A24.09,24.09,0,0,0,23.86,17.49ZM26,17.8s1.25,3.44,1.44,3.59.78-.22.88-.44a19.62,19.62,0,0,0-1.47-3.44C26.7,17.4,26.17,17.68,26,17.8Zm9.5-2.34a8.48,8.48,0,0,0-3.06-.56c-.22.09-.25.94-.09,1.12s1.28.13,2.41.44a24.18,24.18,0,0,1,2.5,1c.13,0,.38-.75.34-1S36.89,15.9,35.48,15.46Z"/></g></svg>