<svg id="Layer_1" data-name="Layer 1" xmlns="http://www.w3.org/2000/svg" width="64" height="64" viewBox="0 0 64 64"><defs><style>.cls-1{fill:#1d1d1b;}</style></defs><title>mars</title><g id="mars"><path class="cls-1" d="M51.35,13.7C44,7.64,35.37,5.22,27.6,6.26,11.29,8.45,4.29,22.45,5.16,30.51S7.41,42.2,16,51.14s22.88,7.94,30.44,3.63,11.25-10,12.19-19.56S58.72,19.76,51.35,13.7Zm5.38,19.47a31,31,0,0,1-3.44,12.47A21.26,21.26,0,0,1,47.69,52a14.18,14.18,0,0,1-2.56,1.5s-3.34-3.75-3.5-3.78-.69.25-.56.41A49.21,49.21,0,0,1,44.32,54a12,12,0,0,1-1.72.47s-3-3.16-3.09-3.16-.62.19-.56.38,2.84,2.88,2.66,3-8.47,2-14.12.34-9.15-5-13.35-9.1S6.62,34.37,7.2,28s4.67-12.79,9.21-15.58A30.45,30.45,0,0,1,28.88,7.86c5.64-.93,12.69,1.25,17.66,4.41s7.94,7,9.19,10.41S57.13,28.55,56.72,33.17ZM34,16.74c.71.5,4.79,0,6.17-.75s1-2.62-.08-3.58-4.34-.23-5.17.08a5.38,5.38,0,0,0-2.29,2.29C32.33,15.2,33.24,16.24,34,16.74Zm3.63-3.83c1.34,0,2.08.38,2.17.83s-.5,1.13-1.33,1.42a8.2,8.2,0,0,1-3.5.29,3,3,0,0,1-.71-1A5.53,5.53,0,0,1,37.58,12.91Zm.88,9.58c-1.25,1-2.12,2.46-1.67,3.46s1.46,1.25,3.25.71a5.86,5.86,0,0,0,3.08-2.54c.25-.42-.21-1-1-1.46s-.57-1.44-1-1.5C40.2,21,39.7,21.54,38.45,22.49Zm2.63,1.08c.67.42,1,.25.63.71a5,5,0,0,1-2.46,1.42c-.67,0-1.21-.17-.87-.87s1.33-2.12,1.92-2.25C40.64,22.5,40.41,23.16,41.08,23.58Zm1.17,12.54c-.21.5,1.08,1.5,1.79,1.67a8.5,8.5,0,0,1,1.54.46,6.93,6.93,0,0,0,2.5.46c.83,0,.42-.92.63-1.33s.67-.12,1.25-.17,1.92-2,1.92-2-.21-1-.37-1.67.29-2.29.13-2.92-.87-.5-1.87-.67-1.67-.83-2.33-.67-.54,1-1.08,1.42-1.73,0-2.25.33c-1,.54-.54,2.17-.33,2.92S42.45,35.62,42.24,36.12Zm3.33-1.67c0-.75-.21-1.87.08-2,.5-.21,1.33.5,1.83.13s.54-1.38,1.13-1.33,1.29,0,1.13.33-1,1-.67,1.75.83,1.63.63,1.92-1-.33-1.67.38-.54,1.33-1,1.29-2.71-.71-2.5-1S45.54,35.2,45.58,34.45Zm.71,6.29c.42-.29,0-.67-.12-.79s-.92.54-1.79.5-.92-.5-1.46-.92a2.16,2.16,0,0,0-2.12.29c-.08.13-.25,1.17.46,1.21s.83-.42,1.46-.37,1.25.75,1.83.88S45.87,41,46.29,40.74Zm.54,3.88c-2,.83-1.92,3-.08,3.54s3-.37,2.75-2A1.82,1.82,0,0,0,46.83,44.62Zm1.67,2c-.21.75-1.29.42-1.62.25s-.33-1,.5-1.33A.88.88,0,0,1,48.49,46.62Zm.13-6.87a1.17,1.17,0,0,0-.62.88c0,.33,3.5,3,4,3.21s.33-.17.5-.5S49.15,39.57,48.62,39.74Zm2.63-1.92c-.25-.21-.62.21-.71.46a24.64,24.64,0,0,0,2.75,3c.38.25.42-.12.58-.42S51.49,38,51.24,37.83ZM53,35.66c-.29,0-.37.63-.37.63.17.08,1.79,1.79,2.08,1.79s.17-.21.21-.67S53.24,35.7,53,35.66Zm1.08-3c-.12,0-.42.75-.25.75s1.17,1.46,1.46,1.54.08-.08.08-.62S54.16,32.62,54,32.62Zm-2.42-6.33a2,2,0,0,0,2-2.83c-.54-1.33-1.67-1.3-2.75-.87a1.77,1.77,0,0,0-1.33,1.71C49.37,25.2,50.08,26.16,51.62,26.29Zm-.4-2.84c.53-.21,1.1-.23,1.37.43a1,1,0,0,1-1,1.41c-.77-.06-1.12-.54-1.06-1A.88.88,0,0,1,51.22,23.45ZM21.33,12.83c.29,0,.21-.17.75-.42s.5.17,1.75.63a3.1,3.1,0,0,0,2.5-.29,1.41,1.41,0,0,0,.75-.5c.25-.25,0-.25-.29-.42s-.58.29-2.17.33-1.42-.42-2.21-.58-1.28.49-1.54.58S21,12.79,21.33,12.83Zm1,5.79c-.79.83-1.46,3.17,1.42,4.42A7.53,7.53,0,0,0,31.2,22a2.41,2.41,0,0,0-.37-3.58c-.79-.5-.87-1-1.54-1.54s-1.84-.87-3.79-.33A7.61,7.61,0,0,0,22.33,18.62Zm5.42-.08c1,0,.71-.58,1.5.38s1.17,1.38.88,1.92a4.85,4.85,0,0,1-5,1c-2.17-1-2-1.71-1.58-2.37a5.5,5.5,0,0,1,2.08-1.83C26.12,17.41,26.79,18.49,27.74,18.54ZM19.54,25c-.46-.58-2.77,0-3.54.38a2.19,2.19,0,0,0-1.37,2.13c.08.54.42.67,1.67,1s1.88-.62,2.54-1.17S20,25.54,19.54,25Zm-1.12,1.58c-.58.46-1.25,1.33-1.92,1.21s-1.67-1,.17-1.79a3.33,3.33,0,0,1,1.92-.33C19,25.79,19,26.08,18.41,26.54Zm8.13,4.13C23,32.45,23,34,24,35s4.13,0,4.83-2A1.76,1.76,0,0,0,26.54,30.66Zm1.38,2c-.33,1-2.17,2-2.83,1.79s-1.33-1.58,1.38-2.92C26.93,31.3,28.24,31.62,27.91,32.66Zm9.13.42c-2.17.92-1.17,2.42-.08,2.83s2.67-.21,2.71-1.5S37.64,32.82,37,33.08Zm1.5,1.39a.84.84,0,0,1-1.15.64c-.46-.18-.88-.81,0-1.2C37.68,33.8,38.55,33.92,38.54,34.47ZM24.74,47c-.29,0-.29.29-.46.63a1.83,1.83,0,0,1-1.46,1.17c-.92.08-1.74-1.17-2-1-.62.58-.5,1,.38,1.5a2.86,2.86,0,0,0,2.83,0c.71-.46.92-1.62,1-2S25,47,24.74,47Zm13.92-5.12c-.29-.25-.12-.79-.12-1.12s-1.12-.67-1.92-.71a4.1,4.1,0,0,1-1.42-.42,4.9,4.9,0,0,0-1.25.42c-.21.08-.5-1.87-.62-2.29s-1.37-.25-1.92,0-.08,1.33-.08,1.54-.21.29-.46.46-.71-.33-1-.5-1.25.38-1.54.67.25,1.5.38,1.71-2.5-.08-2.75,0-.46.38-.58.67.29.42.88.83a4.78,4.78,0,0,1,1.08,2c0,.17-.37,0-1.17,0s-1.08-.06-1.08.21a1.6,1.6,0,0,0,1,1,13,13,0,0,1,1.83.21c.42.13.5,2,.5,2a2.93,2.93,0,0,0,.63.88c.46.46,2.92-1.33,3.33-1.5s.83.17,2,.46.54,0,1.75-.42.79,0,1.21.38.33.29,1.17.21a6.1,6.1,0,0,1,1.58.13c.67,0,1.13-.46,1.67-1.79a3.54,3.54,0,0,0-.54-3.5C40.49,42.2,39,42.16,38.66,41.91Zm1.17,4.5a2.21,2.21,0,0,1-.62.71S37.37,46,36.87,46.2a14.91,14.91,0,0,1-1.54.58l-1.75-.12a3.26,3.26,0,0,0-1.46.25c-.37.17-1.29,1-1.67.71a1.69,1.69,0,0,1-.75-1.29,27.64,27.64,0,0,0-.87-2.62c0-.34,1-.42,1.08-.67s.29-1,.46-1a10,10,0,0,0,1.5-.75c.29-.25.42-.62.71-.5s.5,1.13,1.13.83A2.33,2.33,0,0,1,35,41.2c.79-.08,2.13.25,2,.42s-.46,1.38-.17,1.58,2.88,1,3.13,1.38A2.77,2.77,0,0,1,39.83,46.41Zm-9.37-2.5c.08.29,1.29,2.42,1.29,2.42a2.33,2.33,0,0,0,1-.29c.38-.25-1.42-2.08-1.54-2.33S30.45,43.91,30.45,43.91Zm2.46-.83c-.25,0-.46.38-.46.38a27.09,27.09,0,0,0,2,2.21,1.9,1.9,0,0,0,1.08-.21C35.79,45.29,33.16,43.08,32.91,43.08Zm4.71,10.08a11.48,11.48,0,0,1-2.37,0c-.46-.08-.33-.21-.79-.42s-.75.29-1.17.5-.67-.17-1.12-.42a2.4,2.4,0,0,0-1.83.42.75.75,0,0,0,.33.88c.46.25.71-.08,1.17-.25s.13.17.92.42,1.29-.67,1.67-.54a8.75,8.75,0,0,0,2.08.42,3.29,3.29,0,0,0,1.29-.21C37.91,53.83,37.91,53.08,37.62,53.16Zm6.92-4.29c-.37-.25-1.19.07-1,.42a15.24,15.24,0,0,0,2.25,2.46c.46.21.46-.17.67-.37S44.91,49.12,44.54,48.87ZM31.62,27c.29,0,.21-.17.29-.37s-.58-.54-1.42-.75-.87.38-2,.5-1.78-.64-2.17-.42-.83.58-.58,1,.42.13.92,0,.79.29,1.75.33.92-.17,1.42-.37S31.33,27,31.62,27Zm15.83-8c.67.33,1.67-.25,1.54-.87a1,1,0,0,0-1.46-.67C47.08,17.62,46.79,18.58,47.45,18.91ZM18.7,18.33c.67.33,1.67-.25,1.54-.87a1,1,0,0,0-1.46-.67C18.33,17,18,18,18.7,18.33Zm.83,19.13c-.46.25-.75,1.21-.08,1.54s1.67-.25,1.54-.87A1,1,0,0,0,19.54,37.45Zm-.92,7.13c-.46.25-.75,1.21-.08,1.54s1.67-.25,1.54-.87A1,1,0,0,0,18.62,44.58Zm-5-13c.25-.12,0-.42-.17-.83s-.46-.12-1,0-2.22-.46-2.29,0c0,.25,0,1.21.54,1.13a6.8,6.8,0,0,1,1.29,0A6,6,0,0,0,13.62,31.62Zm-1.5,4.67a1.78,1.78,0,0,0-.29,1.08c0,.21,1.83.13,2.46.08s.38-.46.17-.92S12.36,36,12.12,36.29Z"/></g></svg>