<svg id="Layer_1" data-name="Layer 1" xmlns="http://www.w3.org/2000/svg" width="64" height="64" viewBox="0 0 64 64"><defs><style>.cls-1{fill:#1d1d1b;}</style></defs><title>mission-control</title><g id="mission-control"><path class="cls-1" d="M50.09,23.24c-4,1-4,6.29-2,8.38s7.21,1.29,7.58-3.37S52,22.79,50.09,23.24Zm4.77,4.94a3.74,3.74,0,0,1-6.13,2.73c-1.62-1.68-1.68-6,1.58-6.77C51.83,23.77,55.16,24.4,54.86,28.18Zm-4.24-2.82c-2.21.52-2.17,3.45-1.07,4.59a2.53,2.53,0,0,0,4.15-1.85A2.46,2.46,0,0,0,50.62,25.35Zm-.49,3.9c-.72-.75-.75-2.68.71-3a1.62,1.62,0,0,1,2,1.81A1.67,1.67,0,0,1,50.13,29.25Zm.94-2.11c-.67.16-.66,1-.32,1.39A.77.77,0,0,0,52,28,.75.75,0,0,0,51.07,27.14ZM15,15.57c.21,0,0-.42,0-.79s-2.21.13-2.46.13c0,0-.08.79.08.92A12.21,12.21,0,0,0,15,15.57Zm-2.29,1.21s-.08.79.08.92a12.21,12.21,0,0,0,2.42-.25c.21,0,0-.42,0-.79S12.92,16.78,12.67,16.78Zm-.92,2.83A20.3,20.3,0,0,0,11.34,15c-.21-.33-3.75.17-4,.29A36.5,36.5,0,0,0,8,20.07,13.71,13.71,0,0,0,11.75,19.61Zm-1.33-3.54c.08.13.29,2.63.29,2.63s-1.87.46-1.92.29-.33-2.75-.33-2.75A8.12,8.12,0,0,1,10.42,16.07Zm5.08,4.46c-.08-.21-7.08.8-7.25.83s-.08.83,0,1,7.08-.92,7.29-1S15.59,20.74,15.5,20.53Zm.29,1.79c-.08-.21-7.08.8-7.25.83s-.08.83,0,1,7.08-.92,7.29-1S15.88,22.53,15.8,22.32Zm.29,2c-.08-.21-7.08.8-7.25.83s-.08.83,0,1,7.08-.92,7.29-1S16.17,24.57,16.09,24.36ZM10.3,30.82a1.74,1.74,0,0,0,2.46-2A1.78,1.78,0,0,0,10,27.95,1.66,1.66,0,0,0,10.3,30.82Zm.26-2.19a.89.89,0,0,1,1.35.46.87.87,0,0,1-1.23,1A.83.83,0,0,1,10.56,28.63Zm3.57-1.1a1.66,1.66,0,0,0,.25,2.88,1.74,1.74,0,0,0,2.46-2A1.78,1.78,0,0,0,14.13,27.53ZM16,28.67a.87.87,0,0,1-1.23,1,.83.83,0,0,1-.12-1.44A.89.89,0,0,1,16,28.67ZM26.71,18A1.22,1.22,0,0,0,25,16.65c-.92.54-1,1.21-.5,1.88A1.33,1.33,0,0,0,26.71,18Zm1.88-3.25c.58-.12.83-.87.29-1.5s-1.62-.1-1.71.13C26.8,14.36,28,14.9,28.59,14.78Zm7.58,3.08a2.42,2.42,0,0,0,1.46,1,9.93,9.93,0,0,0,1.38,1c.33.13,1.58.71,2.38-.12S41,17.28,41,17.28a3.25,3.25,0,0,0,0-2.37c-.5-1.46-2.42-1.37-2.42-1.37-1.87-1.62-3.25-.87-3.54,0s.75,2.67.75,2.67A2.73,2.73,0,0,0,36.17,17.86Zm4.67,1.33c-.33.38-1.37-.37-1.37-.37a1.21,1.21,0,0,0,.54-.25,5,5,0,0,0,.5-.5S41.17,18.82,40.84,19.2Zm-2.12-4.58a1.79,1.79,0,0,1,1.67,1.92,1.68,1.68,0,0,1-2.83,1C36.38,16.36,36.88,14.36,38.71,14.61ZM36,13.53c.5-.5,1.29.38,1.29.38a2,2,0,0,0-.67.5,4,4,0,0,1-.37.46S35.5,14,36,13.53Zm2,8.67c-.46.38-.54,1.92.58,2.08a1.26,1.26,0,0,0,1.54-1.58C39.92,21.74,38.52,21.77,38,22.2Zm.78,1.42c-.48-.07-.45-.74-.25-.9s.83-.2.92.22A.54.54,0,0,1,38.78,23.61Zm16.56-5.87c-.21.13-.42.08-1,0a1,1,0,0,0-.92.38,8.54,8.54,0,0,0-.46-1.62c-.25-.5-.58-.33-1.42-.17a6.05,6.05,0,0,1-2.12-.17s-.08-2.12-.08-2.25-.73-.14-.83,0a65.56,65.56,0,0,0-.33,7.58c.17.21,7.79,1.08,7.79,1.08a4,4,0,0,0,.17-.92c0-.17-2.37-.37-4-.71a10.69,10.69,0,0,0-2.71-.25,5.34,5.34,0,0,1,.88-.62A2,2,0,0,0,51,18.95c.13-.33.63-.25,1-.17s0,0,.38.25.46.63.63.88a2.55,2.55,0,0,0,.63.71,3.5,3.5,0,0,0,1.42.46c.17-.08.13-.29-.25-.67S54,19.9,54,19.7s-.08-.67.08-.87,1.13-.21,1.38-.21a4.59,4.59,0,0,0,1.33-.46c.17-.12-.08-.87-.08-.87A12.92,12.92,0,0,0,55.34,17.74ZM50.88,18A2,2,0,0,0,50,19c-.17.33-.25.58-.54.71s.08-2.33.08-2.33a7,7,0,0,0,1.42,0c.67-.08,1.13-.37,1.33-.17a1.73,1.73,0,0,1,.29.75A3.19,3.19,0,0,0,50.88,18ZM12.13,35.78A10.35,10.35,0,0,0,9.3,36a10,10,0,0,0,.63,3.5,12.52,12.52,0,0,0,2.79-.37A14.35,14.35,0,0,0,12.13,35.78Zm-.18,2.7a6.93,6.93,0,0,1-1.55.21,5.54,5.54,0,0,1-.35-1.94,5.73,5.73,0,0,1,1.57-.14A8,8,0,0,1,11.95,38.48Zm4-3.16a10.36,10.36,0,0,0-2.83.25,10,10,0,0,0,.63,3.5,12.51,12.51,0,0,0,2.79-.37A14.35,14.35,0,0,0,16,35.32ZM15.78,38a6.92,6.92,0,0,1-1.55.21,5.53,5.53,0,0,1-.35-1.94,5.73,5.73,0,0,1,1.57-.14A8,8,0,0,1,15.78,38Zm2.36-.13a1.43,1.43,0,0,0,2-1.61,1.47,1.47,0,0,0-2.23-.75A1.37,1.37,0,0,0,18.14,37.89Zm.22-1.8a.73.73,0,0,1,1.11.38.71.71,0,0,1-1,.8A.68.68,0,0,1,18.36,36.09Zm3.28,1.59a1.43,1.43,0,0,0,2-1.61,1.47,1.47,0,0,0-2.23-.75A1.37,1.37,0,0,0,21.64,37.68Zm.22-1.8a.73.73,0,0,1,1.11.38.71.71,0,0,1-1,.8A.68.68,0,0,1,21.86,35.88ZM10.73,40.56a1.37,1.37,0,0,0,.21,2.36,1.43,1.43,0,0,0,2-1.61A1.47,1.47,0,0,0,10.73,40.56Zm.52,1.75a.68.68,0,0,1-.1-1.18.73.73,0,0,1,1.11.38A.71.71,0,0,1,11.25,42.31Zm3.27-2.16a1.37,1.37,0,0,0,.21,2.36,1.43,1.43,0,0,0,2-1.61A1.47,1.47,0,0,0,14.52,40.15ZM15,41.89a.68.68,0,0,1-.1-1.18.73.73,0,0,1,1.11.38A.71.71,0,0,1,15,41.89Zm27.1-7.37a1.37,1.37,0,0,0,.21,2.36,1.43,1.43,0,0,0,2-1.61A1.47,1.47,0,0,0,42.14,34.52Zm.52,1.75a.68.68,0,0,1-.1-1.18.73.73,0,0,1,1.11.38A.71.71,0,0,1,42.67,36.27Zm3.23-1a1.37,1.37,0,0,0,.21,2.36,1.43,1.43,0,0,0,2-1.61A1.47,1.47,0,0,0,45.89,35.27ZM46.42,37a.68.68,0,0,1-.1-1.18.73.73,0,0,1,1.11.38A.71.71,0,0,1,46.42,37Zm3.36-.68a.68.68,0,0,0,.1,1.18.71.71,0,0,0,1-.8A.73.73,0,0,0,49.77,36.34Zm2.92.67a.68.68,0,0,0,.1,1.18.71.71,0,0,0,1-.8A.73.73,0,0,0,52.69,37Zm7.73-22.6c-.08-3.54-5.75-3.21-9.37-3.17a23,23,0,0,0-5,.42,5.45,5.45,0,0,0-.58-1.75c-.37-.5-3.54-1.08-7.62-1.08s-14.75-.5-17.42,0a5.23,5.23,0,0,0-3.71,2.75,34.55,34.55,0,0,0-5.75.13,42,42,0,0,0-6.38,1.17c-1.12.46-1.12,2-.87,2.63S7.3,33.24,7.3,33.24a7.92,7.92,0,0,0-1.75.83C5.3,34.36,8,45.53,8.25,45.95s5.42-.29,5.42-.29,1.92,8.83,2.08,9.13,1.25.54,7.58.58,24.75.13,25.25-.08S51,46.4,51,46.4s3.38.29,3.88.25,1.42-1.83,2-4.17.17-7.12.17-7.12S60.5,17.95,60.42,14.4ZM18.21,12.49c.08-.25.46-1.83,3.08-2.17s8.33-.12,13.63.08,9.21.75,9.38,1.25.25,9,.17,12.25-.71,7.67-1,7.67H39.8a7.5,7.5,0,0,0-3.42-1.62c-2.12-.42-3.25-.58-3.25-.58s.79-5.12-2.75-7.58a7.71,7.71,0,0,0-8.08-.54,13,13,0,0,0-3.17,2.5S18.13,12.74,18.21,12.49Zm7.21,14c-.5,0-1.87.21-2,1.46s0,1.92.83,2.42a4.15,4.15,0,0,0,1.92.5l-.62,1.08s-5.75.29-5.83.17-.42-6.79-.42-6.79c.17-.12,1.88-2.58,4-3.37a7.43,7.43,0,0,1,3.92-.37A2.25,2.25,0,0,0,26,23.65c.17,1.38,1.75,1.63,2.58,1.38s.88-1,.58-1.17-.92.38-1.29.38-1.12-1-.58-1.54a1.78,1.78,0,0,1,1.54-.5,5,5,0,0,1,2.92,3.58c.54,2.54.17,3.33.17,3.33s-2.79-.17-3.12-.08a9.18,9.18,0,0,0-1,.38s-.33-.87-.46-.79-.54,1.38-1.71,1.13-1.83-2.08-.71-2.33L26,27.15S25.92,26.49,25.42,26.49ZM5.63,13.86A26.34,26.34,0,0,1,11,13c2.54-.21,5-.25,5.08,0S17.84,31.82,17.71,32a54.35,54.35,0,0,1-8.29,1C9.17,32.86,5.3,15.24,5.63,13.86ZM9.8,44.11c-.12-.12-2.33-8.62-2.12-9s4.58-.67,7.67-1.12A95.07,95.07,0,0,1,25,33.57a50.84,50.84,0,0,1-1.25,5c-.21.13-5.83,1.42-6,1.58s.71,3.21.5,3.25S9.92,44.24,9.8,44.11ZM28.55,54c-.12,0-2.25.08-2.25.08a19.63,19.63,0,0,0-1.58-3.29c-.29-.08-.79.13-.71.25S25.13,54,25.13,54l-1.25,0s-1.75-3.67-2-3.71-1,.08-.83.25,2,3.38,1.71,3.42-1.33.08-1.33.08-1.58-3-1.75-3-.71.25-.67.38A18.53,18.53,0,0,1,20,53.95a24.42,24.42,0,0,1-3-.12c-.12-.12-1.62-8-1.5-8s3.33-.5,3.33-.5a10.15,10.15,0,0,0,2.63,2.54,37,37,0,0,0,6.38,3.08l.58.21A21.81,21.81,0,0,1,28.55,54Zm4.21-4.42c-.12.13-.92.5-.83,1a32.21,32.21,0,0,1,.63,3.67,23.56,23.56,0,0,1-2.46,0,36.37,36.37,0,0,0,.5-3.87c-.12-.12-5.12-1.21-8-3.92s-3-4.79-2.75-4.92,5.83-1.58,5.92-1.83,1.21-5.87,1.46-6.5A6.23,6.23,0,0,1,28.75,31c.93-.65,4.46.13,5.54.17a7.12,7.12,0,0,1,3.08,1c.17.25,1.08,7.17,1.29,7.33S44,41.15,44.25,41.7,42.92,44.78,42,45.61a11.09,11.09,0,0,1-1.46,1.21,21.57,21.57,0,0,0-2-3c-.25,0-1,.17-.79.54s2.13,2.75,2,2.92a6.41,6.41,0,0,1-1.25.58,37.79,37.79,0,0,0-2.37-3c-.17,0-.87.21-.79.38a27,27,0,0,1,2,3.17,2.17,2.17,0,0,1-.75.33S34,45.28,33.84,45.32s-.71.33-.58.5,2.5,3,2.33,3.08a12.6,12.6,0,0,1-1.79.38,25.42,25.42,0,0,0-2.42-3c-.25,0-.71.42-.62.58A26.77,26.77,0,0,1,32.75,49.61ZM49,48.24s-.54-1.33-.71-1.29-.83.38-.67.54A12,12,0,0,1,48.71,50c0,.21-.42,1.54-.42,1.54a31.11,31.11,0,0,0-1.67-2.67c-.12,0-.83.25-.71.46s2,3.38,2,3.63-.17,1.5-.17,1.5l-.42-.08s-2.46-4.42-2.62-4.42a3,3,0,0,0-.75.42l2.33,4.08H45A37,37,0,0,0,43,51.07c-.17,0-.75.25-.75.42s1.79,2.92,1.63,3a11.75,11.75,0,0,1-1.29,0s-1.12-2.29-1.37-2.29-.92.13-.83.29l1,2h-1s-.62-1.54-.87-1.58-.92.13-.83.25.54,1.38.38,1.38a34.92,34.92,0,0,1-4.21-.08,15.55,15.55,0,0,1-.37-3,18.9,18.9,0,0,0,5.5-1.92,16.83,16.83,0,0,0,4.67-4,38,38,0,0,1,4.79.46C49.42,46.07,49,48.24,49,48.24Zm2.21-6.71c-.08.17-.42,2.54-.54,2.54a1.69,1.69,0,0,1-.42-.12l.25-2.62a10.82,10.82,0,0,1-2-.37,9.31,9.31,0,0,1,.33-1,33.34,33.34,0,0,1,4.46,1c0,.13-.12.92-.25.88S51.3,41.36,51.21,41.53ZM55.38,40a19.88,19.88,0,0,1-1.46,4.71,7.06,7.06,0,0,1-2.54-.5c-.17-.12.29-1.5.46-1.58a15.35,15.35,0,0,1,1.71.33c.25,0,.67-2.37.67-2.62s-5.71-1.37-6-1.33-.5,2.75-.5,2.75l1.79.67-.08,1.67-3.71-.37a4.75,4.75,0,0,0,.42-1c.13-.46.42-2.25-.5-2.87a38.29,38.29,0,0,0-5.12-2l-.79-4.67a30.41,30.41,0,0,1,5.83.46,75.6,75.6,0,0,1,10,2.75A8.24,8.24,0,0,1,55.38,40Zm1.46-11a16.6,16.6,0,0,1-1.33,5.54,49.27,49.27,0,0,0-6.25-1.79,21.76,21.76,0,0,1-3.79-1s.83-6.67,1-10.54.13-8.25.13-8.25c.33,0,4.54,0,7,0s4.88.29,5,1.21S57.25,25.2,56.84,29ZM29,32.57a17.34,17.34,0,0,0-.58,3.13c0,.29.58.29.79.21a15.07,15.07,0,0,0,.71-3.21C29.92,32.45,29.12,32.45,29,32.57ZM41.17,43.74c.13-.29-.32-.93-.46-.87a2.91,2.91,0,0,0-.62.58l.71.71A.89.89,0,0,0,41.17,43.74Z"/></g></svg>