<svg id="Layer_1" data-name="Layer 1" xmlns="http://www.w3.org/2000/svg" width="64" height="64" viewBox="0 0 64 64"><defs><style>.cls-1{fill:#1d1d1b;}</style></defs><title>moon-waning-cresent</title><g id="moon-waning-cresent"><path class="cls-1" d="M34.33,13.7c.56-.37,0-1-.28-1-.84,0-1,.59-.81.91S33.76,14.07,34.33,13.7Zm-10,12.41c.31-.06.41-1.37,1.22-3.34a21.29,21.29,0,0,1,2.53-4c.09-.25-.35-.4-.56-.34-.56.16-2.06,2.06-2.84,3.78a36.35,36.35,0,0,0-1.41,3.63C23.23,26,24,26.16,24.33,26.1ZM28,33.82a2.3,2.3,0,0,0-2.72-2.62C22,32.1,22.61,35.13,24.17,36A2.46,2.46,0,0,0,28,33.82ZM25.2,32.2A1.22,1.22,0,0,1,27,33.41c.06,1.31-.5,2-2.16,1.38S23.79,32.7,25.2,32.2ZM29.51,40a1.06,1.06,0,0,0-.78.44c-.12.25,2.19,3.16,2.34,3.41s.25-.09.41-.41S29.61,40,29.51,40Zm-2,.88a3,3,0,0,0-.72.44,35.35,35.35,0,0,0,2.72,3.63c.09.06.28-.16.47-.44S27.67,40.85,27.54,40.85ZM25.86,42a1.28,1.28,0,0,0-.72.41,38.38,38.38,0,0,0,3,3.72c.09,0,.38-.16.41-.34A23.76,23.76,0,0,0,25.86,42ZM45.67,55.57c-.37-.5-1.06-.06-1.19-.06a12.61,12.61,0,0,1-1.62-2.41c-.69-1.19-.41-2.09-.5-3.84s-1-1.69-1.66-2.12a5.49,5.49,0,0,1-2.31-2.72c-.78-1.72.06-3,0-4.66s-1.81-2.19-3.06-3.12a3.09,3.09,0,0,1-1-3.22c.13-1,1.16-3.22,1.22-4.5s-1.72-2.09-1-4,2.16-2.28,2.84-3.66-.62-3.22-.31-4.44,1.5-1.19,2.84-2.59.88-3.53.69-5S41.92,7.7,42.36,7.2s-.22-1.12-.87-1.12c-1.59,0-4.31.47-8.5,2.5s-8.87,6.84-11,10.66-4.69,10.69-3.44,16S22,47.35,28.11,52.73,44.54,58,45,57.91,46,56.07,45.67,55.57Zm-8.56-.91a17.21,17.21,0,0,1-4.81-1.78,11.16,11.16,0,0,1-3.47-2.69c.06-.12,1.75-.72,2.25-.34s.81,1.19,2.19,1.53,2.59.63,3.13,1.31S37.33,54.6,37.11,54.66Zm4.67.76a19,19,0,0,1-3.4-.46c-.1-.21,0-2.81-1.77-3.56s-3.06-.9-3.81-1.46-1.17-1.08-2.27-1.06-2.19.35-2.69.31-2-1.62-4.5-6.81a27.86,27.86,0,0,1-3-12.06c.08-2.25,1.85-7.15,3.44-9.85A27.81,27.81,0,0,1,30,13a29.26,29.26,0,0,1,8.76-4.79c.19,0-.21.83,0,1.81A3.44,3.44,0,0,1,38,13.61c-1.29,1.52-3.17,2-3.06,3.88S36,20,35,21.28,32,24,31.92,26s1.38,2.23,1.44,3.4S32,33,32.21,34.7A4.86,4.86,0,0,0,34,38.24c1.08,1,2.42,1.15,2.44,2.25s-1.25,2.94.25,5.25,3.58,3,3.77,3.69-.12,2.6.4,3.6A8.64,8.64,0,0,1,41.77,55.42Z"/></g></svg>