<svg id="Layer_1" data-name="Layer 1" xmlns="http://www.w3.org/2000/svg" width="64" height="64" viewBox="0 0 64 64"><defs><style>.cls-1{fill:#1d1d1b;}</style></defs><title>moon-full-almost</title><g id="moon-full-almost"><path class="cls-1" d="M48.3,19c-.28,0-.44.63-.44.63s2.09,2.19,2.34,2.34.28-.22.31-.44A9.59,9.59,0,0,0,48.3,19Zm-1.06,2.09c-.12.13-.66.5-.56.63s3.16,2.81,3.28,2.84.22-.12.25-.44A13.75,13.75,0,0,0,47.24,21.05ZM46,35.14c-3.31.69-4.28,2.81-4.5,4.66s.59,4.19,3.06,3.84,5-1.91,4.88-4.34S48,34.72,46,35.14Zm.59,7C45,43,43.52,43.11,42.8,42A4.31,4.31,0,0,1,46,36.08c1.2-.26,2.59.66,2.72,2.59S48.11,41.36,46.58,42.18Zm-7.56,7c-3.94.84-3.22,4.25-1.53,4.5a2.86,2.86,0,0,0,3.44-2.34A1.74,1.74,0,0,0,39,49.18Zm1,2.75c-.62,1.06-2.16,1.44-2.69.69s-.37-2.16,1.59-2.66C40,49.68,40.61,50.86,40,51.93ZM54.14,25.46c-.66-1.12.22-2.5.22-3.66s-1.53-4-7.91-8.66S36,5.83,32,6.08a23.74,23.74,0,0,0-9.16,2.25,38,38,0,0,0-10.34,8.38C9.64,20.11,6.42,25,6.61,30.46S8,42,10.3,45.43a36.05,36.05,0,0,0,11,10.31c4,2.13,9.78,2.47,14.25,2s8.34-1.37,11.53-3.84,4.09-4.59,6.28-9.16,4.09-9,4-12.59S54.8,26.58,54.14,25.46ZM25,55a18.33,18.33,0,0,1-3.12-1.34c-1.22-.59-2.22-1.53-2-1.53a5.77,5.77,0,0,1,3.47.5C24.61,53.49,25.33,55,25,55ZM52,31.89c.22.16,3,2.06,3,2.41a7.87,7.87,0,0,1-.28,1.75c-.09.09-3.41-2.16-3.53-2.16s-.62.34-.44.66,3.72,2.19,3.72,2.47a5.08,5.08,0,0,1-.59,1.63c-.09,0-3-2.47-3.22-2.34s-.5.59-.37.75,3.41,2.19,3.34,2.41-.56,1.34-.56,1.34a31.62,31.62,0,0,0-2.66-2.12c-.16,0-.5.66-.37.81a24.4,24.4,0,0,1,2.63,2c0,.25-2.12,4.53-3.12,6.56a13.18,13.18,0,0,1-5.12,5.28c-2.19,1.25-4.25,2-8.56,2.31a37.4,37.4,0,0,1-8.16-.25,8.91,8.91,0,0,1-1.5-.25s-1.37-3.47-3.31-3.75a23.38,23.38,0,0,0-4.34-.09,33.17,33.17,0,0,1-5.5-5.41c-2-2.72-4.12-9.09-4.31-12.25a20.54,20.54,0,0,1,2.75-12.19A29.27,29.27,0,0,1,31.58,7.61c3.64-.67,6.91,2.09,11.25,5s9.41,8.47,9.34,9.13S51.08,24,52,25.52s2.69,3.56,2.94,5.13a14.21,14.21,0,0,1,.19,2.72s-2.69-2.12-2.78-2.09S51.8,31.74,52,31.89ZM19.55,41.83a29.54,29.54,0,0,0,2.81,3.78c.19.13.25-.09.38-.22s-2.41-3.75-2.41-4A3.89,3.89,0,0,0,19.55,41.83Zm-1.28.44c-.22-.06-.62.28-.69.41a24.58,24.58,0,0,0,3.25,3.88c.31,0,.19-.06.28-.28A22.65,22.65,0,0,0,18.27,42.27Zm-1.41,1.38c-.28,0-.75.31-.75.53a19.7,19.7,0,0,0,2.69,3.09.61.61,0,0,0,.53-.25C19.52,46.8,17.13,43.64,16.86,43.64Zm13-3.53a1.91,1.91,0,0,0-1.06,3.34c1.06.91,2.81.94,3.34-.75A2,2,0,0,0,29.89,40.11Zm1.56,2.36a1.24,1.24,0,0,1-2.1.47,1.2,1.2,0,0,1,.67-2.1A1.24,1.24,0,0,1,31.45,42.47ZM18.61,35c-.69-1.28-2.48-1.21-3.22-.94-.94.34-1.66,2.13-1.69,3.16A1.78,1.78,0,0,0,16,38.71C17.24,38.46,19.3,36.24,18.61,35Zm-2.53,3a1.2,1.2,0,0,1-1.56-1c0-.69.5-1.89,1.14-2.12a1.85,1.85,0,0,1,2.17.63C18.3,36.26,16.91,37.75,16.09,37.92ZM26.46,21.08c-1.72.22-5.25,1.06-5.59,4.38s1.19,6.25,5.75,6.66,7-3.12,6.25-7S29.14,20.74,26.46,21.08Zm.25,9.21C23.64,30,22.62,28,22.85,25.82s2.6-2.79,3.76-2.94c1.8-.23,3.82.1,4.3,2.71S29.77,30.56,26.71,30.29ZM13.92,28.18c.22,0,.19-.59.94-3.16a6.77,6.77,0,0,1,2.91-3.69c.13-.19-.66-.67-.78-.62-.87.31-2.31,2.53-2.84,3.88a22.75,22.75,0,0,0-1,3.44C13.17,28.11,13.71,28.21,13.92,28.18ZM39.08,17.11C36.67,17.71,36,20,37,21.24s4.13,1.53,4.53-.78S40.42,16.78,39.08,17.11Zm1.58,3c-.26,1.48-2.24,1.3-2.9.5S37.54,18.4,39.08,18C39.94,17.8,40.92,18.68,40.66,20.16Z"/></g></svg>