<svg id="Layer_1" data-name="Layer 1" xmlns="http://www.w3.org/2000/svg" width="64" height="64" viewBox="0 0 64 64"><defs><style>.cls-1{fill:#1d1d1b;}</style></defs><title>moon-waning-gibbous</title><g id="moon-waning-gibbous"><path class="cls-1" d="M30.59,20.29c-5.12.75-6.66,4.81-5.62,7.5a6.08,6.08,0,0,0,6.63,4A5.29,5.29,0,0,0,36,25.23C35.18,22,33.09,19.93,30.59,20.29Zm1.06,9.63c-1.59.25-3.94,0-4.72-2.41s0-5.34,3.63-5.56c1.44-.09,3.25.72,3.72,3.44S33.25,29.67,31.65,29.92ZM18.06,27c.22-.12.22-1.25,1.22-3.53A9.55,9.55,0,0,1,22,19.86s-.49-.82-.72-.75c-1,.28-1.69,1.78-2.84,3.78a9.43,9.43,0,0,0-1.28,4C17.18,27,17.84,27.08,18.06,27Zm3.25,8.69c.06-1-.54-2.56-2.06-2.09-2.84.88-1.78,3.13-.5,3.69A1.89,1.89,0,0,0,21.31,35.64Zm-1-.12a.91.91,0,0,1-1.34.72c-.62-.28-1-1,.28-1.78C19.81,34.14,20.5,34.79,20.34,35.51Zm31.09,1.88a2.35,2.35,0,0,1-.78-1.69c.09-.59,1.69-4.25,1.09-6.19s-1.56-2-2.94-3-.37-3.91-.37-5.34S46,18,44.18,16.89s-.75-3.25-1-4.75S39.87,8.61,39,8s-2-1.68-2.78-1.53C33.4,7,25.78,9.2,22.18,12.23s-7.69,7.69-9.25,12.41-2,8.94.31,15.78,7,11.38,13.41,14.84a20.25,20.25,0,0,0,13.59,1.81c.72-.16.91-.56,2.88-2.19s5.66-5,6.19-6.06a5.16,5.16,0,0,0,0-3.5c-.28-.62,1.16-1.94,2.44-3.91A3.19,3.19,0,0,0,51.43,37.39ZM42.25,18.2a8.54,8.54,0,0,1,1.47,1A2.9,2.9,0,0,1,43,20.45c-.44.31-1,.66-1.31.22S41.62,18.29,42.25,18.2ZM31,54.83a7.62,7.62,0,0,1-3.87-1.53c-1.81-1.25-2.5-1.81-2.41-2a4.38,4.38,0,0,1,3.94.22C30,52.58,31.37,54.76,31,54.83Zm15.19-5.72a6.59,6.59,0,0,1-1.06,1.47c-.31.28-.47.66-.59.44a2.29,2.29,0,0,1-.06-1.53,1.74,1.74,0,0,1,1.5-.62C46.12,49,46.25,48.89,46.18,49.11Zm1.44-1.5a2.77,2.77,0,0,1-.81,1.09s-.12-.78-1.25-.62a2.86,2.86,0,0,0-2.12,1.41c-.16.44.66,2.16.34,2.56a7.94,7.94,0,0,1-4.06,2.78,26.2,26.2,0,0,1-5.87.19c-.84-.09-1.59-.12-1.59-.12a18.69,18.69,0,0,0-2.66-4.12C28.5,49.83,26.78,50,26,50a23.71,23.71,0,0,1-3.06.19,27.76,27.76,0,0,1-7-9.25,21.48,21.48,0,0,1-1.5-15.25c1.41-5.16,6.09-10,9.5-12.56a39.7,39.7,0,0,1,12.5-5.31c.19,0,3.41,3.28,4.19,3.75s1,.78,1,1.38a12.37,12.37,0,0,0-.19,3,6.47,6.47,0,0,0,.25,1.13,3.34,3.34,0,0,0-.94,2.31c0,1.5.34,2.31,1.38,2.44a2.59,2.59,0,0,0,2.13-.94,3.28,3.28,0,0,0,.69-1.19s1.56,1.13,1.69,1.88-.81,4.44,0,5.13,3.44,2.75,3.5,3.53a9.59,9.59,0,0,1-.37,2.34,2.93,2.93,0,0,0-2.31,1.28,6.69,6.69,0,0,0-1.28,3.66c0,.91-.28,1.81.53,3s1.19,1.28,1.53,1.47.84.41.84.41a15.15,15.15,0,0,0-1.66,2.41C47.31,45.2,47.81,47,47.62,47.61Zm2.53-6.91c-.22.41-.31.81-.56.81a3,3,0,0,1-2.34-1.94c-.47-1.53-.56-4.53,1.81-6.06.21-.14.44.28.31.66s-.94,1.28-.59,2.34,1.34,1.91,1.44,2.75S50.37,40.29,50.15,40.7Zm-25.53.5a15.81,15.81,0,0,0,1.84,3c.16.09.16,0,.34-.22s-1.31-3-1.56-3.19C25.25,40.79,24.71,41,24.62,41.2Zm-1.25.59a1.08,1.08,0,0,0-.72.16,26.62,26.62,0,0,0,2.19,3.88c.09.09.28-.16.44-.31A17.48,17.48,0,0,0,23.37,41.79Zm-2.84.81a23.93,23.93,0,0,0,2.56,3.81c.25.13.28-.12.34-.28a26.69,26.69,0,0,0-1.75-3.72C21.53,42.29,20.53,42.4,20.53,42.61Z"/></g></svg>