<svg id="Layer_1" data-name="Layer 1" xmlns="http://www.w3.org/2000/svg" width="64" height="64" viewBox="0 0 64 64"><defs><style>.cls-1{fill:#1d1d1b;}</style></defs><title>moon-full-moon</title><g id="moon-full-moon"><path class="cls-1" d="M57.92,32.3c-.19-6.22-.87-11.19-8.12-18.25S39,6.68,34,7c-13.91,1-17.53,4.34-21.91,9.41S6,27.18,6.07,30.55,7.82,42.49,12.36,48,21.17,56,30.64,57s16.84-4.22,20.91-8.19A22.65,22.65,0,0,0,57.92,32.3ZM54,23c.18,0,.78,1.78,1.25,3.66a6.66,6.66,0,0,1,.25,2.81,5.66,5.66,0,0,1-1.91-2.84C53.14,24.86,53.76,23,54,23Zm.5,18.28C52.79,44.71,48,50.8,43.7,52.43S31.82,57.49,24,53.86,13.86,46.8,11,41,7.89,29.36,9.29,25.15,15.2,15.4,18.86,12.9s8.53-3.34,11.72-3.66c4.19-.41,8.28-.53,11.88,1.31s8.94,8,9.81,9.06a7.8,7.8,0,0,1,1.28,2.19S51.79,23,52.45,26.05s1.81,4.31,2.31,4.72a4.36,4.36,0,0,0,1.09.63S56.17,37.83,54.48,41.27ZM49,18.58c.31.22.16-.37.22-.59a10.64,10.64,0,0,0-2.78-2.34.8.8,0,0,0-.25.69C46.23,16.49,48.67,18.36,49,18.58Zm-2.66.28s-.31.56-.22.69,3.5,3.06,3.5,3.06a.86.86,0,0,0,.19-.59A25,25,0,0,0,46.32,18.86ZM49,24.71c.09,0,.19-.41.19-.69a24.4,24.4,0,0,0-3.34-2.78c-.19-.09-.44.63-.5.91S48.89,24.74,49,24.71Zm-7.22-4.44A2.47,2.47,0,0,0,38.29,18c-2.62,1-2.41,4.5-.84,5.28A3.27,3.27,0,0,0,41.76,20.27Zm-3.24-1.49a1.71,1.71,0,0,1,2.4,1.6,2.26,2.26,0,0,1-3,2.05C36.86,21.89,36.7,19.49,38.52,18.78ZM13.64,27.52c.31,0,.09-.75.59-2.62a8.79,8.79,0,0,1,2.06-3.47c.09-.09-1-.67-1.09-.62-.34.13-1.28,2-1.81,3.19a11,11,0,0,0-.81,3.34C12.64,27.52,13.32,27.55,13.64,27.52ZM32,26.4c-.63-5-4.86-6.34-7.44-5.69C17,22.61,18.82,29,22.86,31.43S32.64,31.36,32,26.4Zm-8.23,3.43c-2.73-1.67-4-6,1.16-7.26a4.17,4.17,0,0,1,5,3.85C30.4,29.79,26.51,31.5,23.78,29.83ZM17,35.43c-.06-2-1.61-2.3-2.16-2.06-2.94,1.28-2.16,4.53-.66,4.91S17.07,37.46,17,35.43Zm-2.59,2.06c-1-.37-1.22-2.41.63-3,.63-.2,1.34.53,1.25,1.44S15.39,37.86,14.42,37.49ZM30,39.9a2.33,2.33,0,0,0,.72,4.47,2.49,2.49,0,0,0,2.41-3.25C32.82,39.61,31.42,39.16,30,39.9Zm.22,3.5c-1-.5-1.09-1.81.22-2.59a1.21,1.21,0,0,1,1.94,1.06A1.57,1.57,0,0,1,30.26,43.4Zm-8.75.44c-.78-.62-.62-1.19-.75-1.31a3,3,0,0,0-.78.09c-.22.09.25,1.13.75,1.59a4.07,4.07,0,0,0,1.5.94c.22,0,.28-.25.34-.47S22.29,44.46,21.51,43.83ZM20,44.9a6.47,6.47,0,0,1-1.41-2.12s-.69,0-.84.19.47,1.16,1.06,1.84a15,15,0,0,0,2.13,2c.22.09.5-.22.59-.44S21,45.9,20,44.9Zm-1.44,1a19.54,19.54,0,0,1-1.87-2.87,3.82,3.82,0,0,0-.91.34c-.19.16.31,1,1.28,2.09s2.31,2.38,2.63,2.34a.48.48,0,0,0,.47-.37C20.26,47.27,19.7,47.15,18.61,45.93Zm20.5,1.5c-2.62.16-1.78,2.78-.91,3.25s2.25.63,2.63-1S40.55,47.34,39.11,47.43ZM40,49.68a.87.87,0,0,1-1.53,0,1,1,0,0,1,.72-1.47A1,1,0,0,1,40,49.68Zm4.84-14.16c-3.47.81-4.31,3.16-3.25,5.59s2,2.59,3.94,2.19,4.41-2.28,3.72-4.94S47.33,34.93,44.82,35.52Zm2.09,6.25c-1.59,1-2.34,1.25-3.87-.16s-1.87-4.09,1.5-5.16c.82-.26,2.63-.84,3.34,1.13S48.51,40.77,46.92,41.77ZM52.76,32c-.22,0-.5.47-.53.69a17.28,17.28,0,0,0,2.41,2.38c.13.06.28-.31.28-.56A10.64,10.64,0,0,0,52.76,32Zm-2,2.12a38.31,38.31,0,0,0,3.31,3.47c.13.06.19-.31.22-.59s-3-3.3-3-3.5S50.86,34,50.79,34.11Zm.38,2.28c-.12,0-.62.63-.62.72s2.88,2.94,3,3,.31-.47.31-.69A22.32,22.32,0,0,0,51.17,36.4Z"/></g></svg>