<svg id="Layer_1" data-name="Layer 1" xmlns="http://www.w3.org/2000/svg" width="64" height="64" viewBox="0 0 64 64"><defs><style>.cls-1{fill:#1d1d1b;}</style></defs><title>moon-last-quarter</title><g id="moon-last-quarter"><path class="cls-1" d="M34.58,20.36c-2.72.56-6,2.5-4.62,7.06s5,4.47,7.5,3.81a5.45,5.45,0,0,0,3.31-7.66C39.11,19.58,36,20.07,34.58,20.36Zm2.25,9.28c-2.09.66-3.94,0-4.66-2.59s.16-4.53,3.28-5a3.44,3.44,0,0,1,3.94,3.06A3.87,3.87,0,0,1,36.83,29.65ZM23.55,24.21a15.73,15.73,0,0,1,2.53-3.75c.13-.19-.53-.68-.75-.62-.53.13-1.84,2.06-2.66,3.59a19.46,19.46,0,0,0-1.47,4c0,.25.88.19,1.16.06S22.58,26.33,23.55,24.21Zm5.38,11c.13-2.59-1.81-3.3-3.34-3.34a3.22,3.22,0,0,0-3.28,2.72,3.28,3.28,0,0,0,2.5,4C27.08,39.18,28.8,37.8,28.93,35.21ZM23.8,37.11c-1-1.16-.69-3.56,2-3.56a1.89,1.89,0,0,1,1.47,2.75C26.64,37.61,24.8,38.27,23.8,37.11Zm6.88,3.81a2.85,2.85,0,0,0-.81.34,32,32,0,0,0,2.28,4.16c.13.09.22-.09.31-.28S31,40.93,30.68,40.93Zm-2.94,1.13c-.22.19,2.44,4.47,2.56,4.47a.45.45,0,0,0,.31-.12c.13-.09-2.17-4.31-2.28-4.53C28.3,41.8,28,41.86,27.74,42.05Zm-1.94.75a1.92,1.92,0,0,0-.69.5A51.34,51.34,0,0,0,28,48.11s.56-.16.69-.37A24.88,24.88,0,0,0,25.8,42.8Zm19.06,1.72c-.87-2,.81-5.75,1.22-8s-.91-3.25-1.78-5.28.19-3.94.94-7.66-.91-3.94-1.72-6,.34-5.66-.06-7.31-3.36-4.61-4-4.47A32.69,32.69,0,0,0,24.61,14c-3.09,3.16-7.75,9.5-8,15.94s.81,8.16,3.66,14.31,6.88,9,11.19,11.78a16.6,16.6,0,0,0,12.47,1.72c2.44-.78,3-2.34,3.44-5.94S45.74,46.52,44.86,44.52ZM36.8,55.68c-.19.22-1.84-.31-4.16-1.59a27.8,27.8,0,0,1-4-2.56,2.85,2.85,0,0,1,2.88-.59,7.63,7.63,0,0,1,2.78,2.16,4.78,4.78,0,0,0,1.84,1.53C36.52,54.86,37,55.46,36.8,55.68Zm7-.06a21.67,21.67,0,0,1-4.56.5,2.74,2.74,0,0,1-1.5-.31s0-1.62-1.09-2.19A16,16,0,0,1,34,51.36c-1.09-.87-2.09-1.81-3.53-1.66s-2.56,1-2.91.91-3.66-3.75-6.12-8.78a23.71,23.71,0,0,1-2.62-14.12c.44-5.66,5.44-11.16,8.19-13.59s9.72-6.37,11.88-6.59c.44,0,3.28,2,3.19,4.22s-1.72,5.5-.5,7.31S43.68,21.74,43.3,24s-2.09,5.22-.91,8.12,2.19,3.31,1.72,5.34-2.87,5.5-1.34,7.88,2.63,3.44,2.5,5.84S45.05,55.27,43.83,55.61Z"/></g></svg>