<svg id="Layer_1" data-name="Layer 1" xmlns="http://www.w3.org/2000/svg" width="64" height="64" viewBox="0 0 64 64"><defs><style>.cls-1{fill:#1d1d1b;}</style></defs><title>moon-new-moon</title><g id="moon-new-moon"><path class="cls-1" d="M19.58,12.33c.25.06.92-.54,2.41-1.27s3.58-1.21,3.68-1.36a2.88,2.88,0,0,0-.19-1.27,9.15,9.15,0,0,0-3.62.89,10.27,10.27,0,0,0-3.08,1.9C18.54,11.41,19.33,12.27,19.58,12.33ZM32.11,7.92a23.25,23.25,0,0,0-3.33.16c-.25.1-.22,1.21-.1,1.27a15.61,15.61,0,0,0,2.41-.16c.7-.1,2.66.06,2.92,0s.25-.57.25-.86S33.22,8,32.11,7.92Zm8.12,2.73A7.41,7.41,0,0,1,42.67,12c.16.06.51-.57.51-.86s-1.9-1.21-2.51-1.4a12.55,12.55,0,0,0-2.19-.57c-.29.06-.41,1.08-.32,1.17A11.69,11.69,0,0,0,40.23,10.65Zm10.34,6.22c.16,0,.35-.51.35-.7a3.58,3.58,0,0,0-1.62-1.59,32.71,32.71,0,0,0-3-1.52,8.64,8.64,0,0,0-.51,1,18.52,18.52,0,0,0,1.81.73C48.35,15.09,50.41,16.87,50.57,16.87Zm2.32,3.68a5.72,5.72,0,0,1,.82,2.13c.06.16.67.22,1,.13s.06-.79-.19-1.46a8.44,8.44,0,0,0-1.43-2.47A1.31,1.31,0,0,0,52,19.4C51.84,19.66,52.38,20.07,52.89,20.55Zm1.55,4c0-.25-1.28-.33-1.49-.1s.38,2.89.54,3.17.38.7.7.76,1.17.48,1.4.38.13-.35.16-.79-.63-.76-1-1.08S54.47,24.76,54.44,24.51Zm2.16,7.9c-.1-.41-2-.6-2-.13,0,.19-.32,4.66-.32,4.92s1.43.13,1.81.06S56.69,32.82,56.6,32.41ZM53.24,40c-.19.29-.13,1-.41,1.55s-.73,1.24-1,1.55.67.63,1.08.6,1.11-1,1.55-1.87.6-1.84.19-2.16S53.39,39.73,53.24,40Zm-3.87,6.63c-.16.13-.89,1.24-1.46,1.84s-2,1.46-2.28,1.9.32.63.54.7.44-.19,1.4-.79A16.32,16.32,0,0,0,50.06,48c.22-.25.54-.73.38-1.08A1,1,0,0,0,49.37,46.59Zm-7.74,6.34c-.22.13-1.81.7-2.82,1s-2.82.73-3.14.82-.29,1.11-.19,1.3.73.19,2.51-.1a13.68,13.68,0,0,0,4.35-1.62C42.74,54,42,52.74,41.63,52.93ZM25.89,54a7,7,0,0,1-2.57-1.14c-.16-.06-.86,1-.89,1.24s.29.54,2.25,1.21a9.91,9.91,0,0,0,3.55.7c.22-.06.32-1,.29-1.33S27.2,54.2,25.89,54Zm-9-4.79c-1.14-.79-1.57-2.32-2.16-2.32a9.31,9.31,0,0,0-1.43,1c-.19.25.41,1.11,1.62,2s2.41,2,2.85,1.93,1-1,1-1.46S18.06,50,16.92,49.22ZM10,37.2c-.19-.35-1.84.34-1.87.54a7.43,7.43,0,0,0,.22,2.6,8,8,0,0,0,1.4,2.54,1.66,1.66,0,0,0,1.62-.73c.19-.48-.51-.76-1.08-2.09S10.16,37.55,10,37.2ZM9.15,30c.22-.13.1-.57.22-1.9s.92-2.63.82-3.2-1.27-.67-1.49-.6-.44.48-1,2.06a10.15,10.15,0,0,0-.54,3.43A3.57,3.57,0,0,0,9.15,30ZM15,16c.32-.22-.19-.79-.48-1s-1.55.25-2.63,1.36A14.4,14.4,0,0,0,9.81,20.2a3.84,3.84,0,0,0,1.59.29c.25-.13.38-1,1.21-2.32A7.11,7.11,0,0,1,15,16Zm-1,7.8c.13-.06.76.35,1,.13s.19-.82.7-2.28a9.21,9.21,0,0,1,2-2.85c.13-.19-.41-.48-.7-.44a7.79,7.79,0,0,0-1.81,2.38A11,11,0,0,0,14,23.81ZM12.92,34.25A2,2,0,0,1,13.4,33c.1-.19-.37-.53-.63-.35a2,2,0,0,0-.63,2.22c.1.19.79.22,1,.16S13,34.85,12.92,34.25Zm2.79-1.43a1.48,1.48,0,0,0-1-.29c-.29,0-.25.76-.1.86a1.85,1.85,0,0,0,1,.1C15.87,33.42,15.87,33,15.71,32.82Zm.51,3.71c.19-.06.41-.35.67-1a3.87,3.87,0,0,0,.29-1.3c0-.1-.5-.13-.57,0s-.13.7-.29,1-.54.92-.63,1S16,36.6,16.22,36.53Zm-2.63.89a2,2,0,0,0,1.81-.16c.25-.19,0-.22-.06-.35s-.92-.1-1.27-.1-.38-.86-.38-.86-.43,0-.51.16A1.09,1.09,0,0,0,13.59,37.42Zm6.31,8.79a6.17,6.17,0,0,1-1.71-2.79,1.58,1.58,0,0,0-.7.29c-.16.19,0,1.14,1.17,2.54a7.25,7.25,0,0,0,2.89,2.28c.25,0,.35-.22.38-.44S21.55,47.86,19.9,46.21Zm-.22-3a3.25,3.25,0,0,0,.86,1.71,8.15,8.15,0,0,0,2.35,1.87c.29,0,.25-.29.22-.6s-.35-.22-1.43-1.27A7.47,7.47,0,0,1,20.34,43C20.12,42.81,19.71,43.05,19.68,43.16Zm4.25.86c0-.13-.22-.22-.73-.63a4.11,4.11,0,0,1-.79-1.21c-.13-.13-.62.23-.54.35a4.24,4.24,0,0,0,.63,1c.35.35,1.11,1,1.11,1A2.28,2.28,0,0,0,23.93,44Zm4.22-4.41c.19-.29-.44-.61-.7-.57a1.76,1.76,0,0,0-1.17,1.14c-.22.51.29,1.27.41,1.4s.54,0,.7-.22-.06-.32-.06-1S28,39.89,28.15,39.61Zm2.06-.48a.54.54,0,0,0-.48.79c.16.22.57.13,1-.06S30.66,39.13,30.21,39.13Zm-2,5c-.51-.44-.07-.92-.25-1s-.7-.22-.86-.06a2,2,0,0,0,.6,1.81,1.48,1.48,0,0,0,1.52.41c.19,0,.1-.38,0-.7S28.72,44.62,28.21,44.18Zm2.73-2.95c-.1,0-.06,1.3-.16,1.55s-.67.23-.63.38.29.67.51.67.35-.1.7-.7a3.11,3.11,0,0,0,.38-1.81C31.64,41.07,31,41.19,30.94,41.23Zm6.82,8.28A2.43,2.43,0,0,0,39.91,47c0-1.14-1.76-1.15-2.35-.82C35.09,47.54,36.43,49.54,37.76,49.5Zm.38-2.76c.66-.14,1.17,0,.89.92s-1,1.3-1.65.86S37.06,47,38.14,46.75Zm12.78-15c-.13,0-.29.6-.25.76a5.37,5.37,0,0,0,2,1c.41,0,.29-.54.32-.73S51.23,31.79,50.92,31.71Zm2,3.39c0-.35-2.41-1.44-2.54-1.43s-.32.63-.32.82a15.29,15.29,0,0,0,2.66,1.43C52.89,36,52.92,35.45,53,35.1Zm-3.27,2.73a11.38,11.38,0,0,0,2.19,1.3c.32.1.32-.32.32-.54A10.78,10.78,0,0,0,49.94,37C49.81,37,49.68,37.71,49.68,37.83ZM45.4,33.14c-.06-.22-.73-.13-1.74.13s-1.38.65-1.27.76.35.76.57.73.32-.19.92-.6a2.61,2.61,0,0,1,1.46-.25C45.5,33.84,45.47,33.36,45.4,33.14Zm-4.85,3.3a3.74,3.74,0,0,0-.48,1.78,2.91,2.91,0,0,0,.57,1.52c.13.06.67-.06.73-.25S41.12,39,40.93,38s.41-1.17.44-1.36S40.68,36.35,40.55,36.44Zm7.14-.13c-.1.16.32,2.32.29,2.47s.51.13.82.1-.29-2.47-.38-2.6S47.78,36.14,47.69,36.31Zm-.92,5.84A2.83,2.83,0,0,0,48,41c.06-.13-.13-.22-.41-.22s-.32.38-.82.6-1,0-1.3,0-.25.76,0,1S46,42.53,46.77,42.15Zm-4.06-.35c-.54-.22-.39-.83-.57-.92s-.54.22-.73.41,0,1,.41,1.3a2.92,2.92,0,0,0,1.9.19c.25-.1,0-.63-.06-.82S43.24,42,42.71,41.8ZM22.28,20.42c-.35-.16-.76.06-1.74.76s-1.34,1.54-1.27,1.71a1.27,1.27,0,0,0,1.27.35c.51-.16.29-.48.63-1.11s1.49-1,1.62-1.08S22.63,20.58,22.28,20.42Zm-2.09,8.15c.25.06.86-.57.89-1s-.41-.25-.76-.63.13-1.49.1-1.71-1.46-.24-1.62-.13c-.38.29-.22,2,0,2.47A2.76,2.76,0,0,0,20.19,28.57Zm4.35-7.45c0,.32.22.25.67.32s1.27.51,1.46.51.29-.22.29-.7S25.7,20,25.26,20,24.56,20.8,24.53,21.12ZM30,25.18a3.64,3.64,0,0,0,0-1.93c-.1-.25-1.22-.28-1.36,0s.38,1.93.54,2.13A.55.55,0,0,0,30,25.18ZM27.2,29.52c.16,0,.25-.1,1-.48A14.15,14.15,0,0,0,30,27.75c.35-.29-.35-.57-.54-.63l-1.14.76c-.48.32-1.4,1-1.55,1.14S27,29.49,27.2,29.52Zm-2.09.35c0-.19-.51,0-1.21-.06S22.69,29,22.44,29s-1,.76-1,1,.19.48,1.21.76a3.1,3.1,0,0,0,2.06,0C25,30.6,25.1,30.06,25.1,29.87ZM37,18.67c.25-.22-.06-.51.32-1s.92-.25,1.14-.32.1-.67-.22-.82-.82,0-1.59.57a1.77,1.77,0,0,0-.54,1.65A.89.89,0,0,0,37,18.67Zm1.68,3.77c.25-.1.19-.29.19-.57s-.25-.06-.7-.32-.35-.79-.44-.92-.86-.11-1,.16a1.71,1.71,0,0,0,.41,1.3A1.78,1.78,0,0,0,38.71,22.45Zm2.95-5.27c-.19-.54-.77-.69-1-.44s-.25.86.13,1S41.85,17.72,41.66,17.18Zm.48,3.62c.06-.32-.13-.54-.48-.7s-.25.19-.48.38a1.93,1.93,0,0,1-.73.29c-.1,0,0,.67.1.89s.29.06.67-.13S42.07,21.12,42.13,20.8Zm4.38-2.06a10.33,10.33,0,0,0,2.57,1.71c.44.06.44-.16.48-.44S47,18.22,46.89,18.07,46.48,18.58,46.51,18.74Zm1.62,3.58a.67.67,0,0,0,.54-.35c.13-.32-2.29-2.18-2.51-2s-.57.48-.57.6A29.72,29.72,0,0,0,48.13,22.32Z"/></g></svg>