<svg id="Layer_1" data-name="Layer 1" xmlns="http://www.w3.org/2000/svg" width="64" height="64" viewBox="0 0 64 64"><defs><style>.cls-1{fill:#1d1d1b;}</style></defs><title>neptune</title><g id="neptune"><path class="cls-1" d="M18.45,16.26c.25.13,4.72-4.28,5.09-4.53s-.3-.4-.53-.28c-.53.28-5,3.84-5.28,4S18.2,16.14,18.45,16.26ZM10.73,27.86a8.63,8.63,0,0,0-1,3.66,5.72,5.72,0,0,0,.94,3.44,2.68,2.68,0,0,0,.66-.34c.09-.12-.41-.84-.62-2.37s.81-3.47,1-4S11,27.63,10.73,27.86Zm12.87-2.59c-.19-.25-1.53.16-4,1a36.55,36.55,0,0,0-5,2c-.19.13,0,1,.19,1.09s.34-.09,3.06-1.44a18.06,18.06,0,0,1,5.91-1.44C24.08,26.36,23.79,25.51,23.61,25.26ZM18.2,33.95c.31-.22,0-.37-.19-.72s-2.43.38-2.53.63,0,.81.19,1A7.42,7.42,0,0,0,18.2,33.95ZM14,42.17c-.09.16.31,1,.53,1A44.68,44.68,0,0,0,20,40.73a.76.76,0,0,0-.16-.78C19.61,39.67,14.12,41.94,14,42.17Zm39.56-6.59c.59-2.06.31-4.37-4.69-5.94s-14.53-2.3-18.25-1c-9.12,3.19-8.19,6.22-5,9s9.28,2.88,17.19,2.72S53,37.64,53.54,35.57Zm-4.22,2.19c-3.66,1.06-8.56,1-14,.84s-8.13-1.34-9.41-3.06.09-4.22,7.19-6.09c3.81-1,4.72,1,9.81,1.31S50.86,32,51.67,33,53,36.7,49.33,37.76ZM34.08,33.42a2.12,2.12,0,0,0-.78.5c-.25.31,1.84,3,2.09,3.13a.89.89,0,0,0,1-.34C36.58,36.39,34.61,33.1,34.08,33.42Zm2.56-.84c-.19.19,2.63,3.84,2.84,3.91s.44-.12.59-.34-2.28-3.47-2.53-3.72S36.76,32.46,36.64,32.57Zm5.16-.47c-.16-.09-.84,0-.84.19a30.69,30.69,0,0,0,2.47,3.25c.16.09.56-.06.72-.37S42,32.2,41.79,32.11ZM50,42.36a1.71,1.71,0,0,0-.66.59c-.12.19,2.5,2.19,2.72,2.28s.38-.37.44-.66S50,42.36,50,42.36Zm1.75-1.84c-.25,0-.59.5-.56.63a7.14,7.14,0,0,0,2.16,1.41c.25,0,.25-.34.34-.59S52,40.51,51.79,40.51Zm2-1.78c0,.06-.41.56-.31.69a2.87,2.87,0,0,0,1,.34c.16,0,.13-.47.13-.72S53.88,38.62,53.83,38.73Zm.53-21.44c-3.56-4.87-7.59-7.94-14.44-10.38S28.36,5.23,24.45,6.54a24.47,24.47,0,0,0-11.56,7.81c-3.25,4.19-7.78,12.19-7,18.81S7.7,43.32,13.2,48.64,25,57.76,34.26,58.57s13.66-3.19,17.47-7.78a25.7,25.7,0,0,0,6.38-15.91C58.51,28.26,57.92,22.17,54.36,17.29ZM14.73,14.92a24.11,24.11,0,0,1,12-7.13,20.28,20.28,0,0,1,8.69-.22A31.85,31.85,0,0,1,42,10.17S31.76,11.92,31.7,12.23s-.28,1,.13,1,10.81-2.56,11.41-2.41a27.85,27.85,0,0,1,5.06,2.66c2.06,1.34,2.09,1.75,2.09,1.75s-5.91-.91-17.62,1.66-18,4.16-19.66,4.53a22.48,22.48,0,0,0-3,.88A38.75,38.75,0,0,1,14.73,14.92ZM46,53.64a8.52,8.52,0,0,1-2,.88A9.94,9.94,0,0,0,42.67,53c-.22,0-.59,0-.62.22s1.5,1.59,1.28,1.78a14.66,14.66,0,0,1-1.72.78s-1.78-2.69-2.22-2.66-.75.22-.69.38,2.34,2.47,2.09,2.66a3.34,3.34,0,0,1-1.59.34,13.87,13.87,0,0,0-1.72-2.31c-.22,0-1.09.22-1,.38s1.88,2.06,1.53,2.22A18,18,0,0,1,31,56.39a14.75,14.75,0,0,1-5.72-2.44c-.18-.13,4.72-2.06,10-2.72s13.22,0,13.19.28A7.23,7.23,0,0,1,46,53.64Zm8.56-11.56a37.37,37.37,0,0,1-3.22,5.63S47.86,44,47.67,44s-.69.09-.47.44,3.81,3.63,3.66,3.84a8.68,8.68,0,0,1-.78,1.19,1.82,1.82,0,0,1-.78.06,44.51,44.51,0,0,0-3.56-3.81c-.25,0-.69.41-.66.56s3,3,2.72,3.09-9.09-.47-13.47.44S27.45,51.2,25.54,52s-2,1-2.16,1-2.72-1.28-4.31-2.09S17,49.42,17.2,49.2s1.63-1.31,6.31-2.22,5.69-.66,5.75-.87.13-.75-.22-.84a35.14,35.14,0,0,0-8.53,1.38,17.6,17.6,0,0,0-4.31,2.13,30.9,30.9,0,0,1-6.37-7.44c-2.28-4-2.31-10.41-1.91-12.47A14,14,0,0,1,9.79,24c.1-.08,9.34-2.66,15.91-4.22A110.76,110.76,0,0,1,43.45,17c6.28-.53,7.72-.5,8.28-.25a12.07,12.07,0,0,1,2.34,3.66c-.16.09-13.75,2-13.94,2.38s-.28.78,0,.81S54,21.29,54.29,21.64s2.34,3.13,2.25,8.75S55.86,39.23,54.61,42.07Z"/></g></svg>