<svg id="Layer_1" data-name="Layer 1" xmlns="http://www.w3.org/2000/svg" width="64" height="64" viewBox="0 0 64 64"><defs><style>.cls-1{fill:#1d1d1b;}</style></defs><title>pluto</title><g id="pluto"><path class="cls-1" d="M17.8,18.19c.25,0,.33-.37,1.88-2.33a10.12,10.12,0,0,1,4.13-2.75c.33-.25,0-.54-.37-1s-2,.75-3.58,2-3.09,2.86-3,3S17.55,18.15,17.8,18.19ZM46.3,38.11c-1.21-.21-2.5-1.5-3.33-1.75s-3,.79-3.37.79-.46-.83-.25-1.37,1.88-1.54,2.17-2.21A3.39,3.39,0,0,0,41.17,31c-.37-.42-3.75-.29-6.21-.37s-4.62-.46-5.87-.37S26.17,32.48,25,33s-1.83-.29-5-.75a9.92,9.92,0,0,0-6.75,2c-.33.46,0,1.83.08,2.21s.33.42,1.63.92a7.94,7.94,0,0,0,4.29.54,11.38,11.38,0,0,1,4-.25c1,.21,1.63,4.75,2.58,5.79s3.75.92,4.42,1.13,3.08,3.13,3.08,3.13a22.25,22.25,0,0,0,3,.79,9.31,9.31,0,0,0,2.88-.25c1.25-.25,2-1.83,2.21-2.29a4.38,4.38,0,0,1,.75-1.29c.33-.33,3.21-.71,4.29-1.12a3.8,3.8,0,0,0,1.88-2.33c.21-.62.58-2.42.29-2.87S47.51,38.32,46.3,38.11Zm-.46,4c-.54.33-4.71.42-5,.88s-1,3.38-2.08,3.5-3,.25-3.5-.12-2.71-3.42-3.12-3.42-4.67-.17-4.75-.87a30.39,30.39,0,0,0-1.75-5.58,8.68,8.68,0,0,0-4.17-.79,18.9,18.9,0,0,1-3.79.29c-1.79-.08-2.21-.83-2.08-1.25.18-.61,2.13-1.37,4.5-.87s3.33,1.75,5.33,1.17,2.83-2.62,4.25-2.75,5.67.54,6.92.58,2.71-.33,2.79,0S38.3,34,38,34.73s-.67,2.58-.29,3.17a2.21,2.21,0,0,0,1.5,1c.38,0,2.63-.83,3.33-.5a17.07,17.07,0,0,0,2.63,1.29c1.25.42,2,.08,2,.54A3.66,3.66,0,0,1,45.84,42.11ZM15,41.57c-.17.13-.08.92.17,1.13a7.44,7.44,0,0,0,2.71-.08c.29-.12.08-.5,0-.87S15.24,41.39,15,41.57Zm7.13,7.08a5.18,5.18,0,0,1-2-.25c-.83-.17-1.79.42-1.62.58s.17.58.5.83.42-.17.83-.33a4.61,4.61,0,0,1,2,.08,9.76,9.76,0,0,0,2.67-.12c.29-.08,0-.67-.08-.92S23.09,48.57,22.13,48.65Zm10,3.46a1.11,1.11,0,0,0,.46,1.13c.42.25,1.54-.33,1.83-.54s0-.75-.08-.92A4.45,4.45,0,0,0,32.13,52.11ZM55.76,20.23c-3.92-6.71-6.83-9.08-11.62-11.54S35.57,4.84,29,6C14.13,8.73,8.3,17.52,6.76,23.77S4.67,38.52,8,43.73s7.92,10.42,18,13.38S42,57.4,47.34,54.77s7.79-6.17,9.54-12.46S59.67,26.94,55.76,20.23Zm-13.87-9s.54-.79.79-.75A23.76,23.76,0,0,1,48,13.73c2.58,2,3.21,2.71,2.88,2.83a30.54,30.54,0,0,1-4.79.88,5,5,0,0,1-2.29-.25c-.5-.21-3.33-3.62-4.92-3.67a8.81,8.81,0,0,0-3.21.42c-1.08.29-1.21.75-1.71.42s-1.25-1.79-1.08-2.12,1.46.42,2,.17,1.25-1.29,2.21-1,3.25.79,3.88.5A1.86,1.86,0,0,0,41.88,11.19ZM7.51,28.48c.08-.25,1.42-7.21,3.87-9.46.15-.14,2.79,1,2.75,1.38a71.21,71.21,0,0,1-2.12,7C11.76,27.52,7.42,28.73,7.51,28.48ZM47.76,52.15c-.92.54-2.17,1.5-2.17,1.5-.33.08-1.33-.42-1.08-.62s2.29-3.29,2.75-3.33,3.42.33,3.25.63A17,17,0,0,1,47.76,52.15Zm7.17-11.37a69.42,69.42,0,0,0-5.25-4.62c-.25,0-.75.67-.58.92s5.63,4.42,5.58,4.79-1.5,3.92-1.71,3.83S50.13,43,49.76,43.23s-.71.67-.62.79,3.46,2.25,3.38,2.5a8.19,8.19,0,0,1-.79,1.13,33.94,33.94,0,0,0-3.46-2.83c-.21.08-.75.54-.58.75s3.33,3,3.33,3-3.75-.83-4.71-.37S43,53,42.47,53.61s-1.92,2-2.92,2.21-8.42,1.29-14.67-1.33-10.5-4.79-14.38-10.92-2.83-13-2.62-13.12,5.17-1.25,5.5-2,1-3,1.46-4.21,1.5-4.42,1.08-5.08-3.5-1.67-3.58-1.92,4-5.92,12-8.25,11.37-1.37,13.87-.71,3.5,1.42,3.42,1.63-.21.42-.5.38-3.5-1.46-5.33-.75S34,10.82,32.67,10.9s-3.62.08-4.12.38-.71.83-.5,1.08,3.17,0,3.21.38.5,3.29,1.92,3.33,4.33-.92,5.42-.79,3.92,4.29,6,4.21,6.92-1.46,7.63-1.17S55,21.15,55.76,28.65,55,40.9,54.92,40.77Zm-32.21-15c-.79.08-2.06-.51-2.21-.42s-.25.88-.17,1a2.9,2.9,0,0,0,1.42.38,7.07,7.07,0,0,0,2.17-.17c.17-.08.13-.37.08-.79S23.51,25.73,22.72,25.82Zm17.42,2a3.8,3.8,0,0,0,1.83.08c.42-.08.38-.37.33-.67s-1.92-.17-1.92-.33S39.88,27.65,40.13,27.86ZM54,26c.38,0,.21-.37.17-.67S51.32,22.7,51,22.9A1.92,1.92,0,0,0,50.59,24,16.35,16.35,0,0,0,54,26Zm.13,4.71c.25.13.25-.12.33-.5s-4.29-3.79-4.29-3.79a3.25,3.25,0,0,0-.33,1C49.92,27.52,53.92,30.61,54.17,30.73ZM50,30.11a1.49,1.49,0,0,0-.08,1.25,51.45,51.45,0,0,0,4.67,3.33c.21,0,.13-.46.08-.87S50.13,30.11,50,30.11Zm0,3.37a1.74,1.74,0,0,0-.12,1,30.8,30.8,0,0,0,4.5,3.5c.71.29.13-.37.13-.67S50.11,33.26,50,33.48Zm-18.75-12c.33,0,1.71,2.46,2.33,3.29s3.54.42,5.13-.12A7.86,7.86,0,0,1,42,24.57c.46,0,1.54-3.08,1.46-3.58s-2-.92-2.75-1.25-.12-1-.25-1.42-1.71-1-3.79-1.17a24.08,24.08,0,0,0-5.29.21,6.33,6.33,0,0,0-.58,2.29c0,.5-3.44.14-3.5.25A4.57,4.57,0,0,0,28,22.19C28.38,22.48,30.88,21.57,31.22,21.52Zm2.12-2.46c.27-.14,5.17,0,5.29.25A5,5,0,0,0,39.8,21c.42.21,2,.42,2,.75s.08.79-.21.83l-4.79.54c-1.17.13-1.54.58-2,.08s-1.21-2.71-1.62-2.92-.46-.37-.5-.62S33.09,19.19,33.34,19.07Z"/></g></svg>