<svg id="Layer_1" data-name="Layer 1" xmlns="http://www.w3.org/2000/svg" width="64" height="64" viewBox="0 0 64 64"><defs><style>.cls-1{fill:#1d1d1b;}</style></defs><title>princess-leia</title><g id="princess-leia"><path class="cls-1" d="M12.76,23.82c-.25.17-.29,6.08-.25,6.25s.33.21.63,0,.17-5.62.17-5.92S12.9,23.73,12.76,23.82Zm-.17,8.42s0,5.54,0,5.71.38.08.42,0,0-5.5,0-5.67S12.72,32.24,12.59,32.24Zm1.54-2.54c0,.21,0,7.46.13,7.58s.38.17.5.17,0-7.5,0-7.75S14.16,29.58,14.13,29.7Zm6.63-14.25c-1.33,1.62-2,3.11-1.83,3.29a1.4,1.4,0,0,0,1.08.21c.21-.12.5-1.42,1-2.25s2.67-3.33,2.83-3.5-.12-.21-.58-.29S22.09,13.82,20.76,15.45Zm22.75,6.83c-.25.08-.54.63-.42.79s3.13,2.67,3.25,2.75.42-.33.46-.54A16.85,16.85,0,0,0,43.51,22.28Zm1-1.5c-.33,0-.46.5-.46.5.25.25,3.54,3,3.54,3a1.62,1.62,0,0,0,.13-.42A16.17,16.17,0,0,0,44.51,20.78ZM45.34,19c-.21,0-.65.6-.54.67s2.75,2.5,2.88,2.54.21-.33.25-.58A14,14,0,0,0,45.34,19Zm1-.33c.17,0,.17-.29.13-.67s-.62-.75-.79-.75-.29.54-.29.54C45.55,17.87,46.17,18.66,46.34,18.7ZM50.84,26a18.11,18.11,0,0,0-.25,3.75c.08.25.33.29.58,0a14.44,14.44,0,0,0,0-3.54C51.17,25.91,51,25.93,50.84,26Zm6.92-1.92c-.37-.71-3.42-1.08-3.42-1.08a4,4,0,0,0-.62-1.83c-.58-.87-3.71-.87-3.71-.87s-.71-3.08-1.17-4.37S44,7.7,37.47,6.49a20.47,20.47,0,0,0-17.33,4.17A15.69,15.69,0,0,0,14.22,20a17.89,17.89,0,0,0-3.87.29c-1.58.38-1.42,2.58-1.42,2.58a2.87,2.87,0,0,0-2.92,1c-.29.46-.12,10.71.21,11.79s2.58,1,2.58,1a23.33,23.33,0,0,0,.33,3.5A4.66,4.66,0,0,0,12,41.28c1.33.08,4.08-.08,4.08-.08s.21,2.08.29,2.71a13.75,13.75,0,0,0,3.21,5c1.92,2,8.33,8.33,9.29,8.63s5.92,1,8.29-.42,8.25-9.58,9.79-11.75a8.87,8.87,0,0,0,1.38-5s4.33-.17,5.13-.62,1-2,1-2,.63,0,.83,0,2.42-.75,2.71-1.5S58.13,24.78,57.76,24.07ZM8.76,35c-.17,0-.75.21-.92-.08a93.45,93.45,0,0,1,0-10.25c.16-.34,1.08-.21,1.13,0S8.92,34.95,8.76,35Zm37.38,8.08c-.58,1-9.71,12-10.37,12.38s-5.42.21-5.79,0-8.92-8-10-9.46a8.25,8.25,0,0,1-1.54-2.58c0-.21-.17-12.71-.12-13.12,0-.26,5.54-.33,7.75-1.54s6.75-4.29,6.75-4.29a63.94,63.94,0,0,0,5.33,3.71A16.71,16.71,0,0,0,43.3,29c.71,0,3-.17,3-.17S46.72,42,46.13,43.07Zm6.63-10.17-1.62-1s-.25,1.08,0,1.21,1.25.58,1.29.75,0,1.25,0,1.25a11.35,11.35,0,0,0-2.08-1.21c-.12.13-.42.63-.21.83s2.25,1.83,2.29,2.21a4.36,4.36,0,0,1,0,.92,18.74,18.74,0,0,0-2.5-2c-.29,0-.42.46-.33.67s1.58,1.54,1.42,1.67a15.14,15.14,0,0,1-2.29.13s-.37-11.75-.58-11.87a7.63,7.63,0,0,0-2,.13,2,2,0,0,1-.58,0s-3.08-3-3.37-2.83a.67.67,0,0,0-.37.71c.08.17,2.67,2.42,2.67,2.42l-1,.08a27.68,27.68,0,0,0-2.29-1.87.55.55,0,0,0-.42.38c0,.13,1.88,1.5,1.58,1.5a7.21,7.21,0,0,1-4.92-1.67c-2.54-1.92-3-2.17-3.25-2.87s-.54-1-.92-1.12a1.3,1.3,0,0,0-1.46,1c-.33.88-2.37,2.83-6,4.5a22.23,22.23,0,0,1-7.71,1.83,5.88,5.88,0,0,1-1.37-.17s.17-2-.08-2.12-.75.08-.75.21.46,11.71.13,12.42-2.5.79-3.46.83A1.62,1.62,0,0,1,11,38.91c-.08-.21-.62-16.17.21-16.87a2.29,2.29,0,0,1,2-.12,5.21,5.21,0,0,1,2,.79c.33.38,1,.67,1,.54a11.17,11.17,0,0,0-.17-1.92,2.62,2.62,0,0,0-.33-.75S18,14,23.09,11A20.08,20.08,0,0,1,39,9.16c5.08,1.5,8.71,9,9.21,10.67s.38,4.54.58,4.67a5.63,5.63,0,0,0,1.33.13A18.67,18.67,0,0,1,50.42,22c.13,0,2.25.25,2.42,1.67S52.76,32.91,52.76,32.91ZM56.09,35c-.17.25-1.62,1.13-1.62.79s.33-10.58.54-10.88,1,.33,1,.33S56.26,34.78,56.09,35ZM28.38,33.57a2.41,2.41,0,0,0-3-2,2.37,2.37,0,0,0-.71,4.33A2.47,2.47,0,0,0,28.38,33.57ZM25.31,35a1.25,1.25,0,0,1,.37-2.29,1.27,1.27,0,0,1,1.56,1.06A1.31,1.31,0,0,1,25.31,35Zm12.9-3.25A2.37,2.37,0,0,0,37.51,36a2.47,2.47,0,0,0,3.67-2.33A2.41,2.41,0,0,0,38.22,31.7Zm-.11,3.38a1.25,1.25,0,0,1,.37-2.29A1.27,1.27,0,0,1,40,33.84,1.31,1.31,0,0,1,38.1,35.08Zm.19,9.3a18.35,18.35,0,0,1-4.93,1.12C29.07,46,27.23,44,26.8,44s-.84.56-.69.8,1.49,1.81,6,1.87c4.27.06,7-1.34,7-1.53A.94.94,0,0,0,38.29,44.37Z"/></g></svg>