<svg id="Layer_1" data-name="Layer 1" xmlns="http://www.w3.org/2000/svg" width="64" height="64" viewBox="0 0 64 64"><defs><style>.cls-1{fill:#1d1d1b;}</style></defs><title>ring-ship</title><g id="ring-ship"><path class="cls-1" d="M8.61,6.91a20.4,20.4,0,0,0,.71,3.21c.21.25.54,0,.67-.17a17.54,17.54,0,0,0-.75-3C9.15,6.7,8.61,6.7,8.61,6.91ZM26.45,29.16c.25.13.63-.37.71-.67s-5.92-7.08-6-7.17-.81.46-.62.5S26.2,29,26.45,29.16ZM37,46.83c.17.13,1.54,4.88,1.83,5s.5-.21.63-.54-1.71-4.42-1.87-4.67S36.89,46.73,37,46.83Zm17.75-.33s.88-.92,1.67-1.87a3.23,3.23,0,0,0,.42-3.42c-.5-1.29-8.87-6-8.87-6s5.29-4.62,7.5-9.12,5-11.54.92-16.33-9.67-4-16.58-1.29S25.7,16.75,25.7,16.75a21.2,21.2,0,0,0-2.37-2.33c-.5-.25-1.67.54-1.67.54l-4.42-5s.92-1.79,0-2.75S6.7,2.45,5.78,3.45s.92,8.08,1.29,9.71A2.73,2.73,0,0,0,9.2,15.5a6,6,0,0,0,2.42-1c.13-.08,4.58,5.08,4.58,5.08a2.14,2.14,0,0,0-.37,1.83,25.3,25.3,0,0,0,1.92,2.71S12,30.45,9.65,34.37,4.07,46.62,8,50.75s9.83,4,15.92,2a24.8,24.8,0,0,0,9.37-5.37s2.79,8.5,4.75,9.71,4.5-.25,4.5-.25a25.66,25.66,0,0,0,2.58,3.75c.67.5,2.58-.33,6.13-3.33s6.79-6,6.83-6.83S54.78,46.5,54.78,46.5ZM47.65,32.91a34.35,34.35,0,0,0-1.75-4.17c-.25-.08-.83.33-.71.46s1.67,4.25,1.67,4.25l-.71.67a41.31,41.31,0,0,0-2-4.42c-.21,0-1,.38-.92.5a49.63,49.63,0,0,1,2,4.58,12.14,12.14,0,0,1-.79,1A23.09,23.09,0,0,0,40.61,30a12.13,12.13,0,0,0-3.67-2.71,42.44,42.44,0,0,0,2.63-3.54c.88-1.42,1.25-2,1.25-2a8.13,8.13,0,0,1,6.38,3.17c2.67,3.38,2.88,5.21,2.88,5.21ZM36.28,28a28.39,28.39,0,0,1,4.67,4,13.86,13.86,0,0,1,2.71,4.46S41.57,38.62,39.9,40a36.11,36.11,0,0,1-3.5,2.58,14.84,14.84,0,0,1-4.79-3.54A11.37,11.37,0,0,1,29,34.7a29.11,29.11,0,0,0,3.79-3.29C34.86,29.33,36.28,28,36.28,28Zm-2.12-2.54L32.61,23.7a45.52,45.52,0,0,1,2.83-4.92c1.29-1.67,2.92-2.5,3.92-2.42a4.57,4.57,0,0,1,2.13,1.13L37.4,23.66a1.36,1.36,0,0,0-1.33.08A8.46,8.46,0,0,0,34.15,25.45ZM47,8.08a12.42,12.42,0,0,1,2.67-.25c.67.13,4.79.5,6.46,4S56,19.5,56,19.5a15.4,15.4,0,0,0-3.46-5A7.92,7.92,0,0,0,47,12.12a6.62,6.62,0,0,0,.67-2A3.32,3.32,0,0,0,47,8.08Zm5.67,8.33a16.49,16.49,0,0,1,2.67,4.71s-.75,1.92-1,2.63a4.16,4.16,0,0,1-.54,1.17S52.36,21.29,52,21.29s-.67.54-.54.63a18.2,18.2,0,0,1,1.83,3.58,12.37,12.37,0,0,0-.75,1.21s-1.75-3.37-1.87-3.42-.87.17-.62.46,1.92,3.58,1.75,4A16,16,0,0,1,51,29.08a11.86,11.86,0,0,0-4.17-6.29c-3.21-2.25-4.75-2.25-4.75-2.25s2-3,3-4.92,1.29-2.54,1.29-2.54S50.49,13.5,52.65,16.41ZM28,17.2a41.12,41.12,0,0,0,3.42,3.13c.17-.08.33-.5.33-.5s-2.83-3.08-2.67-3.29,1.08-1.12,1.42-1,2.21,3,2.46,3,.58-.46.42-.67A18.8,18.8,0,0,1,31.61,15a8.83,8.83,0,0,1,.83-.54l1.83,2.21s.67-.25.46-.42A9.61,9.61,0,0,1,33.36,14c.13-.08,2-1.37,2.33-1.25s1.29,2,1.42,2,.63-.17.5-.37a13.73,13.73,0,0,1-1.25-2,6.47,6.47,0,0,1,1.83-1c.25,0,2.13,3,2.38,3s.54-.37.46-.5l-1.92-3.08a10.17,10.17,0,0,1,1.5-.62c.13,0,1.71,3,1.88,2.88s.58-.29.46-.54a23.36,23.36,0,0,1-1.5-2.75,13.26,13.26,0,0,1,3.08-1,1.41,1.41,0,0,1,.92,1.83c-.29.88-3.37,6.25-3.37,6.25s-.62-2-2.33-1.83a5.59,5.59,0,0,0-4.62,2.54c-1,1.75-2,3.46-2.37,4.13s-.67,1.33-1,1.29A65.88,65.88,0,0,1,27,18.08Zm-7.46,1.25c.88-1.12,1.46-2.17,1.83-2.12S33.53,27.41,33.49,27.79a14,14,0,0,1-3,3.33c-1.37,1.21-1.92,1.58-2,1.5S18.11,21,17.82,20.62C17.69,20.46,19.7,19.58,20.57,18.45ZM26.4,33.62s-1.5,2.21-1.62,2.25a51.83,51.83,0,0,1-6.12,3.42,18.54,18.54,0,0,1-5.12,1.46s0-.58.38-.79a48.27,48.27,0,0,0,7.21-4.62c3-2.42,3.54-3.37,3.67-3.33S26.4,33.62,26.4,33.62ZM9.07,13.45c-.17-.37-2.33-8.71-2-8.83S15.74,8,15.61,8.45a10,10,0,0,1-3.25,3.29A8.66,8.66,0,0,1,9.07,13.45Zm8.63,5.29c-.17-.17-4.75-5.08-4.87-5.29s.46-.42,1.46-1.25,1.33-1.29,1.46-1.25,4.42,5.17,4.42,5.33a3.92,3.92,0,0,1-1,1.38C18.57,18.25,17.86,18.91,17.7,18.75ZM10.32,39c.17-.54,1-2.92,1.08-3s2.08,1.83,2.21,1.79.29-.33.33-.46-2-2.17-1.92-2.42l.63-1.21,2.88,2.63s.33-.29.33-.42S13.15,33,13.15,33a3,3,0,0,0,.33-.42c.17-.25,1.13-1.5,1.13-1.5s3.58,3.88,3.71,3.88.54-.42.54-.42l-3.71-4.25,1.21-1.42,4.08,4.33s.54-.25.5-.5-4-4.37-4-4.5a6,6,0,0,1,1-1.12c.17-.08,3,3.17,3.21,3.29s.25,0,.33-.42-2.87-3.5-3-3.54.42-.62.71-.71S24,31,24,31a10.41,10.41,0,0,1-2.54,3c-2,1.71-6.21,4-7.67,5s-1.67,1.83-1.67,1.83A16.45,16.45,0,0,1,10,41C9.7,40.87,10.15,39.54,10.32,39ZM11,50.87a7.9,7.9,0,0,1-2.46-8.33c.06-.2,1.63.33,2.54.33s2-.08,2-.08a10.35,10.35,0,0,0,2.25,5.83,31.28,31.28,0,0,0,4.54,3.75C19.7,52.45,13.82,53.45,11,50.87Zm13.33,0a16.83,16.83,0,0,1-3.12,1s-3.87-1.5-5.54-4.5-1.25-4.87-1.25-4.87a11.56,11.56,0,0,0,3.71-1.21c1.88-.92,3.33-1.75,3.33-1.75s-.62,3,2.92,6,4,3.08,4,3.08A39.92,39.92,0,0,1,24.36,50.83ZM32,46.29a14.72,14.72,0,0,1-2.58,1.83s-4-2.62-5.25-4.37a12.07,12.07,0,0,1-1.62-4.58s1.67-.92,3.17-1.92a18.59,18.59,0,0,0,2.25-1.71,14.48,14.48,0,0,0,3.67,5.33,14.15,14.15,0,0,0,3.75,2.46S33.11,45.25,32,46.29Zm7.17,9.21c-.54-.5-4.37-9.29-4.29-9.37a66.67,66.67,0,0,0,5.83-4.46c2.67-2.33,6.08-5.25,6.08-5.25L53.4,41l-5.87-.79s-.42.83-.17.88,7.21,1.21,7.29,1.42a2.41,2.41,0,0,1-.08,1.25c-.12,0-7-1.46-7.17-1.33a.73.73,0,0,0-.12.71c.08.17,6.67,1.38,6.58,1.58a5.57,5.57,0,0,1-.58.79s-5.08-1-5.33-.87-.42.71-.21.83,4.75.88,4.67,1-.71.75-.71.75a41.06,41.06,0,0,0-4.25-.71c-.17.13-.37.75-.25.83s3.88.58,3.67.79l-1,1A22.52,22.52,0,0,0,47,48.54c-.25.08-.42,1-.25,1.08s2.08.5,2.08.5-3.5,3-5.33,4.25S39.7,56,39.15,55.5Zm15.38-3.67s-1.25-1.75-1.42-1.71-.79.33-.62.46a8.16,8.16,0,0,1,1.25,1.88c-.08.13-.71.79-.71.79a16.34,16.34,0,0,0-1.54-1.92c-.12,0-.62.46-.5.58s1.5,1.67,1.38,1.88-2.37,2.13-3.5,3-2.12,1.88-2.42,1.75a14.72,14.72,0,0,1-2-3c.05-.22,2.13-1.25,5.17-4s4-3.67,4.13-3.62,2.38,2.29,2.25,2.54A13,13,0,0,1,54.53,51.83Z"/></g></svg>