<svg id="Layer_1" data-name="Layer 1" xmlns="http://www.w3.org/2000/svg" width="64" height="64" viewBox="0 0 64 64"><defs><style>.cls-1{fill:#1d1d1b;}</style></defs><title>rocket</title><g id="rocket"><path class="cls-1" d="M50.51,41.63c-1.17-5.58-6-4.92-6-4.92s0-.58,0-1.58.33-10.21-2.12-17.42S35.8,4.8,34.39,4.59,31.64,5,29.55,7.92A50.13,50.13,0,0,0,21.72,23,36.05,36.05,0,0,0,20.3,35.76c-2.42-.17-5.54,1.29-6.75,5.17s-.62,8.25,2.29,12.88,5.79,4.21,6,3.92-1.71-3.42-1.46-6.21a11.92,11.92,0,0,1,2.5-5.5s1.92,2.71,2.17,3a4.4,4.4,0,0,0,1.46.42s.33,2,.38,2.21,1.92.38,1.92.38,1.13,6.63,1.13,7.13,3.13.46,3.67,0S34.8,52,34.8,52s3.33,0,3.54,0,.13-2.12.13-2.12a6.63,6.63,0,0,0,1.75-.25,14.25,14.25,0,0,0,1.38-3s.92.25,2.13,3.42-.08,7.88.21,8.33,3.17.17,5-3S51.68,47.21,50.51,41.63ZM34,6.17c1.21.13,4.75,6.62,4.5,6.75a17,17,0,0,0-5.29-.5,23.06,23.06,0,0,0-5,.71C28.39,12.92,32.76,6,34,6.17ZM19.34,48.88a9.31,9.31,0,0,0-.29,5.67s-2.5-1.46-3.83-7.17.88-9.5,4.92-10.08A21.91,21.91,0,0,0,21,42c.71,2.29,1,3,1,3S20.47,45.59,19.34,48.88Zm9.17,2c-.12,0-.87.17-1-.08a6.13,6.13,0,0,1,0-1.25c.21,0,.79-.21.88,0S28.64,51,28.51,50.92Zm3.83,6.71c-.25.17-.83.46-1,.13s-2.17-16.29-2-17.33c.12-.62,4.21-1.29,4.38-.79S32.59,57.46,32.34,57.63Zm5-6.62A13.87,13.87,0,0,1,35,50.92c0-.12.25-1.37.25-1.37a9.15,9.15,0,0,1,2.21.13C37.47,49.84,37.43,51,37.3,51Zm4.75-10.12s-3.71-4.75-3.83-4.71-.54.33-.46.5,4.08,5,4,5.38a5,5,0,0,1-.54,1.63c-.17.08-3.62-4.54-3.79-4.54s-.42.46-.42.46a61,61,0,0,1,3.63,5.08c-.08.25-.46,1-.46,1S37.14,41.92,37,41.88s-.58.5-.42.67a41.35,41.35,0,0,1,3.33,4c-.08.21-.5,1.46-.5,1.46h-.62a20.66,20.66,0,0,0-2-2.58c-.25,0-.54.42-.54.58s1.71,2,1.54,2.08-2.46.08-2.46.08.5-8.62.08-9.29A2.24,2.24,0,0,0,33,37.67a18.47,18.47,0,0,0-4.79,1.54c-1,.54-.75,2.46-.62,3.21A52.38,52.38,0,0,1,28.34,48a9.47,9.47,0,0,1-2.17,0C26,47.88,22.51,44.09,22,37.13a40.37,40.37,0,0,1,2.71-17.21c1.46-3.62,2.17-5.12,2.17-5.12a16.69,16.69,0,0,1,6.71-1.29c3.75.08,5.42.83,5.63,1.08a36.5,36.5,0,0,1,3,8.92,28,28,0,0,1,.42,4.83S41.47,26.88,41.22,27s-.37.67-.37.67a16.6,16.6,0,0,1,1.75,1.71c0,.21.13,2,.13,2s-2.12-2.71-2.37-2.58-.54.46-.42.63,2.71,2.92,2.83,3.21a9.36,9.36,0,0,1,0,1.83S39.51,31,39.34,31s-.62.42-.29.63a46.27,46.27,0,0,1,3.67,4.08c0,.21-.12,2.25-.12,2.25s-3.5-4.12-3.67-4.08-.42.42-.33.58,3.88,4.13,3.88,4.5A16.81,16.81,0,0,1,42.05,40.88Zm7.17,7a13.53,13.53,0,0,0-2.5-1.46c-.12.17-.12.75.13.88A9.77,9.77,0,0,1,49.05,49a10.31,10.31,0,0,1-.12,1.92l-.08.38s-1.75-1.25-2-1.17-.5.42-.25.67,2,1.38,1.88,1.63a7.48,7.48,0,0,1-1.42,2.46,6.7,6.7,0,0,1-1.54,1.08s.88-5.67-.62-8.17-2.37-2.67-2.37-2.67a36.07,36.07,0,0,0,1.25-3.92c.58-2.25.79-2.92.79-2.92a10.25,10.25,0,0,1,3.08,1.29c1,.71,1.54,5.13,1.54,5.13S46.55,43,46.43,43s-.37.79-.12.92a23.79,23.79,0,0,1,2.88,1.71A21.92,21.92,0,0,1,49.22,47.92ZM16.68,41.46a5,5,0,0,0-.37,2.21c.08.17.63.13.83,0s0-1,.42-1.67a3.05,3.05,0,0,1,1.25-.92l-.37-.83A2.19,2.19,0,0,0,16.68,41.46ZM38.39,23.09c-.37-4.87-4.06-6.19-6.33-5.37-5.25,1.88-5.33,7.71-2.12,10.67S38.76,28,38.39,23.09Zm-1.83,1.5a23.91,23.91,0,0,0-2-3.33c-.25,0-.79.33-.67.5a29.87,29.87,0,0,1,2.21,3.88,3,3,0,0,1-3.71,1.75c-2.58-.75-3.62-4.08-3-5.87A3.8,3.8,0,0,1,33.05,19a3.14,3.14,0,0,1,3.21,2.5A14.84,14.84,0,0,1,36.55,24.59ZM32,21.09a.44.44,0,0,0-.58-.42,2,2,0,0,0-1.21.79,3.7,3.7,0,0,0-.37,1.79c0,.25.79.33,1.13.21s.13-.29.13-.87S31.93,21.34,32,21.09Zm.54,1.58a12.6,12.6,0,0,0,1.58,3c.25.17.42-.08.67-.37s-1.17-2.54-1.42-2.83S32.51,22.49,32.51,22.67ZM32.05,24a1.75,1.75,0,0,0-.71.63A4.54,4.54,0,0,0,32.26,26c.21.17.67,0,.79-.17S32.3,23.87,32.05,24Zm.73-8.28a.49.49,0,0,0-.48-.72.54.54,0,0,0-.46.77A.57.57,0,0,0,32.78,15.69Zm2.81.08a.49.49,0,0,0-.48-.72.54.54,0,0,0-.46.77A.57.57,0,0,0,35.6,15.77ZM38,17.46a.49.49,0,0,0-.48-.72.54.54,0,0,0-.46.77A.57.57,0,0,0,38,17.46Zm1.56,2.75a.49.49,0,0,0-.48-.72.54.54,0,0,0-.46.77A.57.57,0,0,0,39.58,20.21Zm-.4,3.11a.57.57,0,0,0,.94,0,.49.49,0,0,0-.48-.72A.54.54,0,0,0,39.18,23.32Zm.38,2.09a.54.54,0,0,0-.46.77.57.57,0,0,0,.94,0A.49.49,0,0,0,39.56,25.41ZM37.89,28.7a.54.54,0,0,0-.46.77.57.57,0,0,0,.94,0A.49.49,0,0,0,37.89,28.7Zm-3.06,1.4a.54.54,0,0,0-.46.77.57.57,0,0,0,.94,0A.49.49,0,0,0,34.83,30.09Zm-4.06.19a.54.54,0,0,0-.46.77.57.57,0,0,0,.94,0A.49.49,0,0,0,30.76,30.28Zm-3.1-2.19a.54.54,0,0,0-.46.77.57.57,0,0,0,.94,0A.49.49,0,0,0,27.66,28.09ZM26,24.84a.54.54,0,0,0-.46.77.57.57,0,0,0,.94,0A.49.49,0,0,0,26,24.84Zm.15-4a.54.54,0,0,0-.46.77.57.57,0,0,0,.94,0A.49.49,0,0,0,26.18,20.82Zm2.23-2.43a.49.49,0,0,0-.48-.72.54.54,0,0,0-.46.77A.57.57,0,0,0,28.41,18.4Zm2.21-1.73a.49.49,0,0,0-.48-.72.54.54,0,0,0-.46.77A.57.57,0,0,0,30.62,16.67Z"/></g></svg>