<svg id="Layer_1" data-name="Layer 1" xmlns="http://www.w3.org/2000/svg" width="64" height="64" viewBox="0 0 64 64"><defs><style>.cls-1{fill:#1d1d1b;}</style></defs><title>rocket-launch</title><g id="rocket-launch"><path class="cls-1" d="M30.24,50.5c.08-.37,0-.46-.12-1a4.74,4.74,0,0,1-1.42,2.08c-1.08.92-2.74.37-3.08.54a.39.39,0,0,0,.08.75,9.88,9.88,0,0,0,2,0,18.1,18.1,0,0,0,1.25,2c.25.21.5,0,.67,0a12.92,12.92,0,0,0-1-2.21.92.92,0,0,1,.46-.21A19.1,19.1,0,0,1,30.53,55c.25.33.25,0,.5-.12s-1.42-2.92-1.42-2.92A10.31,10.31,0,0,0,30.24,50.5Zm.08,1.29A19.87,19.87,0,0,0,32,54.08c.17,0,.13-.08.25-.37s-1.46-2.54-1.46-2.54Zm.67-1.5s1.33,2.08,1.5,2.21.25-.17.29-.54-1.46-2.29-1.46-2.29S31.08,50.12,31,50.29Zm1.29-2c-.17,0-.42.75-.42.75l1.33,1.38a2.46,2.46,0,0,0,.25-.5C33.53,49.62,32.45,48.25,32.28,48.25Zm10.21-2.79s.63,1.92.71,2.13.67,0,.88,0-.92-2.17-1-2.37S42.66,45.33,42.49,45.46ZM44,45.29s.38,1.42.46,1.63a.58.58,0,0,0,.71.17c.17-.12-.46-1.58-.54-1.87S44,45.29,44,45.29Zm7.33,4.5c-.12,0-.37.42-.5.54s2,2.17,2.17,2.17.17-.12.21-.46S51.41,49.83,51.28,49.79ZM31,12.33c.21,0,.71-1.83.79-2.33a.34.34,0,0,0-.58-.33,15.91,15.91,0,0,0-.71,2.46C30.49,12.25,30.74,12.29,31,12.33ZM34.7,31.66s-.21,3.17-.17,3.37.79.5.92.29a18,18,0,0,0,0-4C35.24,31.08,35,31.41,34.7,31.66ZM53.16,46.58c-2.46-2-6.62-1.46-6.62-1.46a2.57,2.57,0,0,0-1.67-2.46,7.79,7.79,0,0,0-2.5-.75s-.25-3.37-3.08-3.5A9.32,9.32,0,0,0,34,40.12s.13-1.71-.29-1.92a2.38,2.38,0,0,0-1.21,0s-.88.08-.88,0,.25-1.37,0-1.58a5.79,5.79,0,0,0-1.71-.25L29.7,40.5A8.46,8.46,0,0,0,23.62,38a6,6,0,0,0-5.12,3.54,14,14,0,0,0-.33,1.67,7.27,7.27,0,0,0-3.21.5,5.18,5.18,0,0,0-2.54,2.63A6.84,6.84,0,0,0,12.24,48s-2.29,1-3,2.63a4.06,4.06,0,0,0,1.58,5.33c2.29,1.25,3.17,1.42,4,1.42a28.53,28.53,0,0,0,3.29-.5,6.48,6.48,0,0,0,3.25.63c1.88-.12,3.42-1.54,5-1.5s2.83,1,4.54,1A15.65,15.65,0,0,0,35.16,56a4.32,4.32,0,0,0,3.29,1.21,6.58,6.58,0,0,0,3-.92c.13,0,2.29,1.17,3.71.83a4.74,4.74,0,0,0,2-.92s6.17.71,7.21-1.92S55.62,48.62,53.16,46.58ZM20.45,40.46c.75-.92,2.58-1.33,4.71-1.25a7.45,7.45,0,0,1,4.08,2s-.17,2-.21,2.25-.75-1.83-1-2.12a.33.33,0,0,0-.5,0s1.17,3.42,1.17,3.83-.67-.29-.83-.37-1-3.17-1.08-3.33-.83,0-1,.08A22.4,22.4,0,0,0,27,44.66c.08.17-1,0-1,0s-.83-2.62-1-2.71a.51.51,0,0,0-.58.08,12.84,12.84,0,0,0,.88,2.71c.08.13-.62.33-.62.33a19.11,19.11,0,0,0-1.08-2.42c-.21-.17-.54.08-.62.25s.92,2.42.88,2.54-.25.21-.37.29-1-2.33-1.21-2.33a.45.45,0,0,0-.5.29c-.17.29,1.13,2.54,1.13,2.54l-.46.46s-.58-.75-1.62-2.17-1.71-1.46-1.71-1.46A10.46,10.46,0,0,1,20.45,40.46ZM17.7,51c-2.29,2-.5,4.83-.5,4.83a14.41,14.41,0,0,1-4.58-.12,3.48,3.48,0,0,1-2.37-4.25,4.92,4.92,0,0,1,4.54-3.12,4,4,0,0,1,2.67,1.08l.88-.33s-.29-1-2.08-1.62a5.14,5.14,0,0,0-3.12-.17,3.11,3.11,0,0,1,1-1.79,6.67,6.67,0,0,1,4.58-1.21c1.67.33,3.33,3,3.33,3-.67.58,0,2,0,2A5.78,5.78,0,0,0,17.7,51Zm25.92,3.75c-.5.21-1.62-.5-2-.37s-.79,1-1,1.17a3.82,3.82,0,0,1-2.58.5C36.87,55.83,34,55,34.41,53s1.25-2.12,1.63-2,.71.29.71.08,0-.62-.17-.71a3.26,3.26,0,0,0-1.71,0c-.5.21-2.08,2.17-1.58,3.42a3.77,3.77,0,0,0,1,1.58,7.22,7.22,0,0,1-3.5.67c-2-.12-3.92-1.17-4.87-1S22.78,56.16,22,56.12s-3.17-.17-3.33-2a3,3,0,0,1,2.67-3.33,3.36,3.36,0,0,1,2.21.58c0,.13-.08.42.46.25s1-.54.92-.79-2.5-1.46-1.29-3.21,3.5-1.54,4-1,1,1.13,1.5.88,1.5-1.5,1.92-3.92.58-3.54.58-3.54.75.21.75.33,0,5.46.92,6.21,1.29.33,1.54.13a5.3,5.3,0,0,1,2.33-.71c1,0,.92,3.13,1.42,3.21s3.38-.25,5,1.33A3.23,3.23,0,0,1,43.62,54.79Zm10.17-1.92a5.92,5.92,0,0,1-.62,1.5A31.86,31.86,0,0,0,50,51.21c-.25,0-.62.42-.46.58s3,3,2.75,3-.5.21-.62.17S49,52,48.87,52.12s-.67.33-.46.5,2.38,2.58,2.38,2.58l-1.12-.08s-1.83-2.21-2-2.25-.79.17-.62.33,1.83,2,1.46,2.17-1.42-.33-1.71-.29-.54.42-.75.54a2.38,2.38,0,0,1-1,.33,2.44,2.44,0,0,1-.58-.08s2.63-2.37,1.5-4.71a7.42,7.42,0,0,0-3.17-3.29s-1.17-2-1.5-2.12-.71,0-.58.08a10.58,10.58,0,0,1,1.13,1.88,5.81,5.81,0,0,0-1.12-.37h-.58s-1-2.17-1.83-2.46l-1-.37S36,41.66,35.87,41.62s-.62.17-.54.33l1.25,2.46L36,44.33s-1-2-1.21-2-.54.42-.42.54a5.56,5.56,0,0,1,.75,1.63c-.12,0-.87.71-.92.42s-.71-2.71,0-3.83a9,9,0,0,1,4-1.67,3.4,3.4,0,0,1,3.13,1.33c.21.42.38,1.13.25,1.21s-.79,0-1.17.13a.71.71,0,0,0-.46.33s-.54-1.71-.79-1.75a.73.73,0,0,0-.5.17,13,13,0,0,1,.79,2c-.08.13-.37.92-.46.71s-1.21-2.54-1.5-2.5-.71.21-.62.42a20.86,20.86,0,0,0,2.42,3.38c.33.08.5-.5.5-.5A2.19,2.19,0,0,1,41.41,43c1.42-.37,3.21,0,3.83,1.33s.21,2.58.42,2.75.71.38.79.25a10.87,10.87,0,0,0,.25-1.37s3.88-.46,5.67,1.38A6.28,6.28,0,0,1,53.78,52.87ZM25.62,14.21a12,12,0,0,0,.17-2.29A9.46,9.46,0,0,1,27,8.66c.17-.33-.25-.29-.46-.25s-.75.88-1.29,2.42S24.5,13.95,24.7,14,25.49,14.33,25.62,14.21Zm2,19.67A13.45,13.45,0,0,0,27.83,37c.13.29.71,0,.92-.17a10.58,10.58,0,0,0,0-3C28.66,33.33,28,33.75,27.66,33.87Zm-1.83-5.17c.13,0,.79-.58,1-.87s.08-.87.08-1.33.79-.5.79-.5l.67,1.5,1.08.13.13,1.17a7.84,7.84,0,0,0-.37,1.38A2.32,2.32,0,0,0,30,32.37c.42.5.79,2.08,1.13,2.17s1.63-1,2.29-2.17.21-3,.33-3,0-1.33,0-1.33a3.92,3.92,0,0,0,.88-.42c.46-.29,1.13-1,1.25-1a8.2,8.2,0,0,1,1,1.83c.08.29.25.21.63.17s2.13-5.54,2.08-6.25-2.17-2.17-2.17-2.17a34.34,34.34,0,0,0,0-4.79c-.21-2.62-1.75-8.58-4.75-8.79S28.08,9.29,27,12.79a20.64,20.64,0,0,0-.62,7.42,25,25,0,0,0-2.87,2c-.21.29-.17.67.38,2.13A35.07,35.07,0,0,0,25.83,28.71Zm10.71-4.58a24.63,24.63,0,0,0,.79-2.75l1.21,1.13a5.66,5.66,0,0,1-.33,1c-.29.75-1.12,2.83-1.25,3s-.87-1.17-.87-1.17S36.12,25.21,36.53,24.12Zm-3.79,6.42a4.77,4.77,0,0,1-1.33,2.29,5.56,5.56,0,0,0-.67-1.46,1.44,1.44,0,0,1-.08-1.87C31.14,29.05,33.08,29.12,32.74,30.54Zm0-1.58c-.12,0-2.29-.17-2.29-.17v-.92a16.13,16.13,0,0,1,2.46,0C32.87,28,32.83,29,32.7,29ZM28.12,17.08c.13-4.62,2-8.58,3.38-8.92,1.06-.25,3.38.79,3.92,4.87s.21,8-.5,9.92S33.28,26.25,33,26.25a18.07,18.07,0,0,1-3-.12A19.69,19.69,0,0,1,28.12,17.08Zm-1.71,4.75a20.51,20.51,0,0,1,.67,3C27,25,25.91,26.25,25.74,26a18.34,18.34,0,0,1-1-3.17C24.84,22.61,26.33,21.62,26.41,21.83Zm4.08-3.5c1.83,1.5,3.71-1,3.54-2.75a2.29,2.29,0,0,0-3-2C28.7,14.5,28.66,16.83,30.49,18.33Zm.78-3.64a1.26,1.26,0,0,1,1.67,1.12c.09,1-.94,2.34-1.95,1.51A1.45,1.45,0,0,1,31.27,14.69Zm-.8,4.91c-.12-.58-.56-.67-.83-.44a.58.58,0,0,0,0,.85C29.81,20.23,30.6,20.19,30.47,19.6Zm2,.31c-.12-.58-.56-.67-.83-.44a.58.58,0,0,0,0,.85C31.83,20.54,32.62,20.5,32.49,19.91Zm.75-1.17a.58.58,0,0,0,0,.85c.21.21,1,.17.88-.42S33.51,18.52,33.24,18.75Zm2-1.19c-.12-.58-.56-.67-.83-.44a.58.58,0,0,0,0,.85C34.62,18.19,35.41,18.14,35.28,17.56Zm-2.79,3.56c-.08,0-.4.44-.33.56a9.59,9.59,0,0,0,1.58.83c.1,0,.13-.37.15-.52A3.61,3.61,0,0,0,32.49,21.12Zm-.92,1.21s-.56.33-.54.48a10,10,0,0,0,2.06,1.42c.21,0,.27-.17.29-.44S31.68,22.37,31.58,22.33Zm-1.08,1.1c-.15.08-.4.23-.42.4a8,8,0,0,0,2,1.65c.21,0,.38-.25.48-.42S30.57,23.39,30.49,23.44Z"/></g></svg>