<svg id="Layer_1" data-name="Layer 1" xmlns="http://www.w3.org/2000/svg" width="64" height="64" viewBox="0 0 64 64"><defs><style>.cls-1{fill:#1d1d1b;}</style></defs><title>saturn</title><g id="saturn"><path class="cls-1" d="M57.63,28.51c-3.59-2.09-10-2.91-10-2.91a13.43,13.43,0,0,0-2.09-5.34c-2-3.31-4.25-5.25-8.09-5.69s-8.56-.5-13.44,2.16-6.22,6.13-6.22,6.13c-3.94.22-10.78,1-12.84,4.22s-.69,5.66,3.16,8.59a20,20,0,0,0,8.78,3.5s2.38,6.31,8.41,9S36.82,49.41,41,47.26a12.7,12.7,0,0,0,5.72-6.56l5.72-1.44c4.38-1.09,6-3.28,6.72-4.69S61.23,30.6,57.63,28.51ZM30.57,16c5-.62,6.88,1.53,8.53,2.41s3.5,1.25,3.53,1.53,0,.41-.41.53-4.06-.56-6.34-.47-3.28,1.13-4.72,1.56a15.5,15.5,0,0,1-5.25.19c-1.56-.16-4.31-.16-4.31-.16-.25,0-.66-.31-.59-.5S25.6,16.63,30.57,16ZM19.51,23.22a7.83,7.83,0,0,1,3.44-.41c2.09.16,4.06.94,6.81.5s4.41-1.87,6.56-1.91,3.38.41,5.09.41,2-.31,2.34-.09a9.75,9.75,0,0,1,1.66,3.19c.47,1.38.47,2.19.31,2.28a2.89,2.89,0,0,1-1.53.22c-.37-.16-.56-1.25-3.84-1a41.18,41.18,0,0,1-4.25.25c-1.19,0-1.56-1.06-5-.62s-3.87,1.34-5.69.66-1.19-2-3.81-1.62-3.16.75-3.41.66S19.26,23.32,19.51,23.22Zm-1.09,3.84c.32-.1,3.16-1,4.19-.44s2.16,2.25,4.38,2.06,3.09-1.56,5.94-1.12,2.91.63,4.19.59,3-.66,4.47,0,1.53.88,2.22.84,1.78-.53,2-.34.72,2.19.5,2.38-.91,1.09-9.12,1.06A96.42,96.42,0,0,1,21.63,31c-2.87-.44-4.25-.72-4.34-1.31S17.6,27.32,18.41,27.07ZM39.35,46.51a5.53,5.53,0,0,1-1.94.47,19.83,19.83,0,0,0-1.81-1.81c-.22-.06-1,.22-.91.34s1.91,1.56,1.69,1.72a2.49,2.49,0,0,1-1.37.22c-.12-.12-2.12-2.56-2.34-2.62S32,44.91,32,45s2.38,2.63,2.25,2.66a7.29,7.29,0,0,1-1.09.19c-.09,0-2.28-2.47-2.37-2.44s-.78.28-.72.44,1.47,1.84,1.28,1.94A13.12,13.12,0,0,1,26,46.41c-2.66-1.25-3-1.66-2.91-2,0,0-.19-.91,1.91-.94s3.59.28,6,.22a8.31,8.31,0,0,1,3.63.41c.63.22.5.78,3.09.75s4.91-.69,4.84-.41A11.7,11.7,0,0,1,39.35,46.51Zm4.56-4a18.83,18.83,0,0,1-5.59,1.09c-2.09,0-.94-.91-6-1A42.93,42.93,0,0,1,26,42a4.19,4.19,0,0,0-2.91.56c-.94.5-1.22.81-1.53.69s-2.84-2.62-2.66-3.69c0-.25,4.09.81,11.44,1s14.53-.28,14.56-.06A4.8,4.8,0,0,1,43.91,42.47Zm12.84-7.56c-1.47,1.34-3.78,3.16-10.41,3.75a158.46,158.46,0,0,1-21.09,0,48.33,48.33,0,0,1-14.62-3.37C7.1,33.94,5.35,31.54,6.1,29.1s5.16-4.59,10.41-4.66c.13,0,0,.5-.09.88s-.56,1.28-.56,1.28-1.84.16-2.37,1.06S13.23,30,16.13,31a46.31,46.31,0,0,0,15.94,2.69c8.28.13,11.38.34,14.59-.84s4.31-2.66,3.91-3.37-1-1-1-1.12.19-.31.69-.34a14.57,14.57,0,0,1,6.44,2.13C58.79,31.72,58.23,33.57,56.76,34.91ZM42.09,25.68a.46.46,0,0,0-.44-.78c-.56.16-.62.72-.37.91S41.75,26,42.09,25.68ZM40.74,24.6a.46.46,0,0,0-.44-.78c-.56.16-.62.72-.37.91S40.39,24.91,40.74,24.6ZM39,24.86c-.56.16-.62.72-.37.91s.47.19.81-.12A.46.46,0,0,0,39,24.86Zm.23-1.72a.46.46,0,0,0-.44-.78c-.56.16-.62.72-.37.91S38.93,23.45,39.28,23.14Zm-6.55-4.73a13.71,13.71,0,0,1,1.75.09c.38-.06.22-.19.28-.47s-.16-.28-1.12-.41a3.83,3.83,0,0,0-1.87,0c-.16.13,0,.75.16.84S32.13,18.54,32.73,18.41Zm9.7,4.75a.46.46,0,0,0-.44-.78c-.56.16-.62.72-.37.91S42.08,23.47,42.42,23.16Zm-16.7-2.75c.19,0,.28-.12.88-.44s1.56-.16,1.81-.28.06-.28,0-.5-.91-.25-1.59-.12a3.73,3.73,0,0,0-1.66.78C25.1,20,25.54,20.38,25.73,20.41ZM43.9,26.29c.25.19.47.19.81-.12a.46.46,0,0,0-.44-.78C43.72,25.54,43.65,26.1,43.9,26.29Zm-7.08-1c.25.19.47.19.81-.12a.46.46,0,0,0-.44-.78C36.63,24.56,36.57,25.12,36.82,25.31Zm6.94-.65a.46.46,0,0,0-.44-.78c-.56.16-.62.72-.37.91S43.41,25,43.76,24.66Zm-11.91.19a.56.56,0,0,0,.78-.34c.09-.37-.05-.71-.66-.44S31.6,24.72,31.85,24.85Zm4.06,11.63c-4.78-.06-8.47-.8-9-.75-.31,0-.28,1,0,1.06s1.19.28,7.59.59,7.41-.22,7.53-.28.09-.47,0-.69S40.7,36.54,35.91,36.47ZM54.6,31.82c-.31,0-2.34,1.69-4.47,2.56s-4.16.6-4.37.88-.06.81.38.88a18.08,18.08,0,0,0,5.13-1.28,10.82,10.82,0,0,0,3.81-2.53C55.13,32.19,54.91,31.85,54.6,31.82ZM38,45.35a1.67,1.67,0,0,0-.69.13c-.16.13.63.81.63.81a2.43,2.43,0,0,0,1-.28C39.16,45.79,38.26,45.38,38,45.35ZM8,30.44c-.09-.81.56-1.41.63-1.62S8.54,28.6,8,28.6a3.18,3.18,0,0,0-.87,2c-.19,1.34,1.28,1.69,1.37,1.75s.5-.12.69-.31-.16-.16-.44-.31A1.43,1.43,0,0,1,8,30.44ZM36.8,23.77a.46.46,0,0,0-.44-.78c-.56.16-.62.72-.37.91S36.46,24.08,36.8,23.77ZM13.95,32.13c.31-.16.16-.19,0-.41s-2-.41-2.72-1.44.69-2.19.78-2.34-.53-.26-.72-.16a2,2,0,0,0-.87,2.88C11.2,32.38,13.63,32.29,13.95,32.13ZM34.7,24.47a.46.46,0,0,0-.44-.78c-.56.16-.62.72-.37.91S34.35,24.79,34.7,24.47ZM16.29,35.38a8.36,8.36,0,0,1-3.72-1.66c-.22,0-.69.66-.69.94s.56.5,2.84,1.22A35,35,0,0,0,20,37.1c.31,0,.38-.81.34-.91A36.86,36.86,0,0,0,16.29,35.38Zm25.53-4.72a21.92,21.92,0,0,0,2.31-.22c.19-.09-.16-.44-.28-.56a8.7,8.7,0,0,0-2.06.09,18.63,18.63,0,0,1-2,0c-.12,0-.44.66-.31.78A8,8,0,0,0,41.82,30.66ZM21,29.1a33.8,33.8,0,0,0,3.41.34c.34-.06.22-.06.19-.28a19.89,19.89,0,0,0-4.22-1,.72.72,0,0,0-.5.69C20,29,20.29,29,21,29.1Zm9.06,1.78a13.36,13.36,0,0,0,3,0c.22-.09,0-.34-.06-.53s-.53,0-1.53-.06A19.64,19.64,0,0,0,28.45,30c-.16.09-.37.59-.12.69S28.57,30.79,30.1,30.88Z"/></g></svg>