<svg id="Layer_1" data-name="Layer 1" xmlns="http://www.w3.org/2000/svg" width="64" height="64" viewBox="0 0 64 64"><defs><style>.cls-1{fill:#1d1d1b;}</style></defs><title>space-invader</title><g id="space-invader"><path class="cls-1" d="M21.62,27.65a43,43,0,0,0,.13,5.67,37.54,37.54,0,0,0,5.71-.12,38.33,38.33,0,0,0-.12-5.75A21.24,21.24,0,0,0,21.62,27.65Zm3.88,3.83a4.57,4.57,0,0,1-2,.08,15,15,0,0,1,0-2.37,3.73,3.73,0,0,1,1.92,0C25.53,29.32,25.78,31.36,25.49,31.49Zm9.79-4.21a43,43,0,0,0,.13,5.67,37.54,37.54,0,0,0,5.71-.12A38.31,38.31,0,0,0,41,27.07,21.24,21.24,0,0,0,35.28,27.28Zm3.88,3.83a4.57,4.57,0,0,1-2,.08,15,15,0,0,1,0-2.37,3.73,3.73,0,0,1,1.92,0C39.2,28.94,39.45,31,39.16,31.11ZM19,25.9c0-.08,0,4,0,4.21s.92.08,1,0S20,26.19,20,25.94,19,26.16,19,25.9ZM56,31.69c-.12-.46-4.12-.54-4.12-.54s0-3.12,0-3.5-3.62-.37-3.79-.37.13-5.17,0-5.54-7.62-.58-7.62-.58l0-1.12s4.75,0,4.92-.08a47.72,47.72,0,0,0,.38-5.21c0-.37-6.21-.33-6.42,0a26.34,26.34,0,0,0-.08,4s-4.71,0-4.92.21a19.74,19.74,0,0,0-.21,3.54c0,.25-6.5,0-6.92,0s-.37-3.08-.5-3.42-4.17,0-4.17,0-.12-4.12-.17-4.58-5.67-.21-6-.08.21,5.21.25,5.54,3.92.17,3.92.17l0,2.5a40.54,40.54,0,0,0-4.58.42c-.37.21-.17,4.33-.17,4.46s-3,0-3.17,0a14.5,14.5,0,0,0-.08,2.71,26.58,26.58,0,0,0-4.33.58c-.38.29,0,13,0,13.71s5.83.13,6,0,0-8,0-8.08a3.68,3.68,0,0,1,1.67,0c.21.13.13,8.17.17,8.46s5.58.88,5.58.88.13,3.88.46,4.08a82.55,82.55,0,0,0,9.08,0,34,34,0,0,0,0-5c0-.12-7.08-.29-7.21-.29a6.18,6.18,0,0,1,0-1.79c0-.25,15.54-.5,15.71-.46s.08,1.67.13,1.88-6.83.25-7.21.42-.29,4.83-.29,5.21,9.83-.12,10.08-.21-.12-3.54-.12-3.54,5,0,5.38-.25.08-9.33.08-9.33,2.38,0,2.54,0,.08,8.33.21,8.58a16.08,16.08,0,0,0,4.75.17C55.66,44.9,56.08,32.15,56,31.69ZM41.08,16a10.45,10.45,0,0,1,2.58.13,9.52,9.52,0,0,1-.08,2.21,12.49,12.49,0,0,1-2.5,0A21,21,0,0,1,41.08,16ZM12.58,43c-.12,0-2.37.33-2.46,0s-.08-10.5,0-10.71A13.56,13.56,0,0,1,12.58,32S12.7,43,12.58,43Zm3.08-8.42c-.12,0-1.08.21-1.12,0s-.08-5.5,0-5.62a1.51,1.51,0,0,1,1.13,0C15.74,29.15,15.78,34.61,15.66,34.61Zm2.58-16.25a6,6,0,0,1,0-2.58c.18-.12,2.25-.12,2.33.13a7.79,7.79,0,0,1,0,2.42A22,22,0,0,1,18.24,18.36ZM29.53,46.07c0,.17,0,2.25,0,2.25l-5.71-.12a10.2,10.2,0,0,1,0-2.25A42.74,42.74,0,0,1,29.53,46.07ZM40,47.86c-.21.08-6,.13-6,.13s-.08-1.79.08-1.83a54.17,54.17,0,0,1,6-.21C40.08,46.11,40.24,47.78,40,47.86Zm3.75-16a14.75,14.75,0,0,1,2,2,11.89,11.89,0,0,1,0,1.67,22.41,22.41,0,0,0-2.46-2c-.08.13-.33.67-.21.79s2.67,2.5,2.67,2.67,0,1.46,0,1.46a30.41,30.41,0,0,0-2.54-1.79c-.12,0-.46.88-.29.92a15.15,15.15,0,0,1,2.79,1.79c0,.25.08,1.46.08,1.46S43.12,39,43,39s-.21.88-.21.88a25.91,25.91,0,0,1,3,2.17,10.21,10.21,0,0,1,0,1.25,18,18,0,0,0-2.58-1.62c-.12.13-.37.67-.17.75s1.88,1.42,1.71,1.46a12.36,12.36,0,0,1-2.75.08c0-.17,0-3.58-.17-3.62s-8.08-.21-9.92-.12-9.62.5-9.75.79.13,2.75,0,2.75a36.5,36.5,0,0,1-4.29-.33c-.12-.17-.5-18.75-.12-18.88s4.54-.25,4.54-.37.08-3.46,0-3.58,2.83-.33,2.83-.12a25.75,25.75,0,0,0,.29,3.71c.17,0,10.38-.08,10.42-.29s.21-3.25.33-3.37a7.14,7.14,0,0,1,2.5,0c0,.17-.12,2.42.08,2.46s7.17.25,7.25.42-.17,9.21-.17,9.21-1.54-1.67-1.67-1.5S43.62,31.78,43.78,31.86Zm6,2.67a11.16,11.16,0,0,1-2.08-.08c0-.12.17-5.71.25-5.79s2-.25,2,.08S50,34.53,49.78,34.53Zm3.75,8.88a5.83,5.83,0,0,1-1.25,0s0-10.5.08-10.54,1.83-.12,1.88.08S53.7,43.32,53.53,43.4Z"/></g></svg>