<svg id="Layer_1" data-name="Layer 1" xmlns="http://www.w3.org/2000/svg" width="64" height="64" viewBox="0 0 64 64"><defs><style>.cls-1{fill:#1d1d1b;}</style></defs><title>space-shuttle</title><g id="space-shuttle"><path class="cls-1" d="M37.63,17.36c.5-.19.38-11.69-4.75-11.56s-5.56,10.32-5.5,10.63c.19,1,1,.63,4.63.31S37.13,17.55,37.63,17.36Zm-8.94-1.87c-.33-.19.63-8.75,4.38-8.37s3.75,8.25,3.19,8.38-2.06-.44-3.94-.37S29.13,15.74,28.69,15.49Zm7.81,4.88c-.37.31-.69.5-.56.81a9,9,0,0,0,2.56,1.31c.31.06.13-.19.19-.75S36.81,20.11,36.51,20.36Zm-.87,3.19c-.19.19-.62.44-.56.81s3.06,1.94,3.5,2,.13-.5.06-.94S35.81,23.37,35.63,23.55Zm3.31,4.81c.13-.44-3.75-2.19-4.06-2.25a.64.64,0,0,0-.44.63c0,.5,3.63,2.13,4.19,2.25S38.82,28.8,38.94,28.36Zm-9.63,5.72a.92.92,0,0,0-.12,1,12.27,12.27,0,0,0,2.84.44,9.15,9.15,0,0,0,2.69-.28c.13-.19,0-.81,0-.81s-1.06.06-2.75,0S29.67,33.82,29.32,34.08ZM32,39.27c-1.69-.06-2.3-.58-2.66-.31a.92.92,0,0,0-.12,1,12.27,12.27,0,0,0,2.84.44,9.15,9.15,0,0,0,2.69-.28c.13-.19,0-.81,0-.81S33.69,39.33,32,39.27ZM31.91,45c-1.69-.06-2.3-.58-2.66-.31a.92.92,0,0,0-.12,1,12.27,12.27,0,0,0,2.84.44,9.15,9.15,0,0,0,2.69-.28c.13-.19,0-.81,0-.81S33.6,45,31.91,45Zm17.91-6.31s-.47.56-.41.75a28.37,28.37,0,0,0,2.47,2c.09.06.22-.06.28-.34S49.94,38.8,49.82,38.65Zm-2.47.69s-.53.31-.56.59,4.25,3.59,4.41,3.59.25-.25.31-.62S47.63,39.33,47.35,39.33Zm1.84,4.72a12.25,12.25,0,0,0-2.91-2.12c-.16.06-.53.56-.47.75a9.25,9.25,0,0,0,3,1.72C49.48,44.43,49.07,44.21,49.19,44.05Zm9.29,1c-1.75-5.17-5.75-7.33-10.25-12.92s-6.83-15.5-7.92-19.92S38.4,2.76,32.9,3s-6.08,4.42-7.33,7.17-3,13.5-6.83,19.58-6.58,6.08-10.5,9.42-3.75,6.17-3.58,8S6.9,48.93,6.9,48.93s-.21,2.5-.21,2.81S7.76,53,11.07,53.3s7.81.06,8-.31a2.68,2.68,0,0,0,.06-1.19h2.19a18,18,0,0,0,.06,4.06c.31.81,3.38,1,3.38,1a31.38,31.38,0,0,0-.31,3.38c.06.63,1.88.69,5.69.75s7.56-.12,7.88-.62-.19-3.31-.19-3.31a6.44,6.44,0,0,0,.81-.06,3.79,3.79,0,0,0,2.25-1.19c.5-.75.06-3.25.06-3.25l1.81-.12s.19,1.38.19,1.75,1.69.56,4.38.63,6.88-.5,7.06-.81a7.36,7.36,0,0,0-.15-2.15s4-.25,4.42-.33S60.24,50.18,58.49,45ZM42.65,25a31.77,31.77,0,0,0,2.73,6.16c1.63,2.62,3.69,3.75,3.25,4S45.32,34.3,44,31.8A14.12,14.12,0,0,1,42.65,25ZM21.32,29.74c1.88-4,2.69-6.06,2.69-6.06.25,0,.31,3.63-1.06,7s-3.5,5.12-4.81,5.5a14.67,14.67,0,0,1-2.94.44S19.44,33.74,21.32,29.74ZM16.13,51.49a17.09,17.09,0,0,1-4.44-.06c-2.19-.25-2.56,0-2.56-.87s-.37-5.37,4.31-5.12a3,3,0,0,1,2.94,3.06C16.38,50.05,16.51,51.36,16.13,51.49Zm20.52,8.19a32.16,32.16,0,0,1-6,.29c-2.71-.08-4.54,0-4.75-.29a5.3,5.3,0,0,1,.17-2.42c.07-.1,2.46.21,5.21.13s5-.37,5.13-.21A8.58,8.58,0,0,1,36.65,59.68Zm15.48-7.19a13,13,0,0,1-4.06.44c-2,.06-3,0-3.12-.94s-.06-4.56,3.75-4.81C51.75,47,52.69,52.18,52.13,52.49Zm5.13-2.37-2.94.25a5.55,5.55,0,0,0-5.56-4.87C43.69,45.36,43,51.36,43,51.36s-2.25.63-2.12.19-.31-14.87-1.06-17.62-2.37-3.56-3.06-3.69-1.12,1.44-1,1.63,1.94,0,2.31,5.81,1.31,16.88.63,17.38-4.81,1.06-9.06.81-5.56-.31-6.06-1.44.94-17.62,1.5-19.87,1.5-2.56,2.25-2.75A.9.9,0,0,0,28,30.61c-.12-.31-1.19-.37-2.19-.12s-2.69,1.69-3.19,7.31-.94,12.5-1.12,12.5-3.31-.25-3.31-.25.56-6-4.56-6.25-5.69,3.5-5.69,3.5-1.31-.12-1.25-.56.75-5.56,4.19-7.06,8.5-1.87,10.81-4.37,3.69-8.75,3.94-11.5,0-9.12,1.19-12.44,2-6.87,6.69-6.87c7.48,0,7.25,27.56,10.63,29.75a17.09,17.09,0,0,0,5.38,2.56,16.44,16.44,0,0,1,6.25,6.88C57.63,48.05,57.26,50.11,57.26,50.11Z"/></g></svg>