<svg id="Layer_1" data-name="Layer 1" xmlns="http://www.w3.org/2000/svg" width="64" height="64" viewBox="0 0 64 64"><defs><style>.cls-1{fill:#1d1d1b;}</style></defs><title>space-satellite-dish</title><g id="space-satellite-dish"><path class="cls-1" d="M29.65,11.14c-.92.25-2.12,1.5-3.25,3.25a6.64,6.64,0,0,0-1.29,3.67c.13.25.75.13.92-.12s.13-.75.92-2.58,3.13-2.75,3.25-3S30,11,29.65,11.14ZM15.11,37c-.17-.54.71-.83.83-1s.45-.58.21-.62c-1-.21-2.42.29-2.17,1.88s1.88,1.29,2.13,1.29.17-.21,0-.62S15.28,37.52,15.11,37ZM50.82,19c-3.21,0-3.29,2.58-3.29,2.58l-4.12.58S37.9,6.67,36.71,5.54s-4.94.06-7.87,1.38-8.25,5.87-10.75,13.37a19.32,19.32,0,0,0,.94,14l-.71.69a2,2,0,0,0-.5-.62,4.1,4.1,0,0,0-3.33-.71,3.2,3.2,0,0,0-1.92,4.29A4.43,4.43,0,0,0,15.9,40.6c.21,0,3.58,8,3.58,8A24.61,24.61,0,0,0,12.23,53c-2.88,2.79-2.54,5.42-2.46,5.71s29.38.21,29.67-.08.33-4-4.12-7.67-11-3.25-11-3.25L18.73,38.1,20.48,37a23.26,23.26,0,0,0,3.79,4.75,25.7,25.7,0,0,0,13.42,6.17c7,.83,11-2,11.71-2.46a5.91,5.91,0,0,0,2.08-2.62c.13-.75-5.83-15.5-5.87-15.67A30.49,30.49,0,0,1,48.78,25l1,.29c.54.17,3.33.08,4.21-1.21S54,19,50.82,19Zm-21,31c5.79,1.33,7.71,7,7.42,7.29a8,8,0,0,1-3.12.08c-.08-.17-2.63-3.42-3-3.5s-.79.08-.62.29a33,33,0,0,1,2.46,3.13c-.17,0-1.21,0-1.21,0a19.79,19.79,0,0,0-2.42-2.58c-.25,0-.75.33-.54.5s2,2,1.83,2-1.08,0-1.08,0a18.88,18.88,0,0,0-1.83-1.79c-.21,0-.58.25-.54.42s1.29,1.25,1,1.38S12.9,57,12.28,56.89s1-3.79,5.54-5.79S24.07,48.64,29.86,50ZM19.94,36.31c-.29.21-2.33,1.5-2.21,1.75s5.83,9.54,5.54,9.67-3,.54-3,.54L16.73,40.1s.71-.42.67-.62,0-.58-.17-.54a3.53,3.53,0,0,1-1.62.5c-.62-.08-2.5-1-2.37-2.67s.71-2.08,1.38-2.33a2.21,2.21,0,0,1,2.25,0c.88.5,1,.83.92.92s-.92.58-.79.75.17.75.46.54,1.79-1.62,2-1.42S20.23,36.1,19.94,36.31Zm26.08-3s-5-3.67-5-3.5-.37.75-.21.83,5.38,3.58,5.54,3.88,2.17,4.79,2,4.75S40.94,34,40.82,34.1s-.42.88-.25,1,8,5,8.21,5.38a13,13,0,0,1,.88,2.25.79.79,0,0,1-.46.5c-.17,0-8.83-5.75-9.08-5.67s-.58.63-.42.75,8.88,5.42,8.67,5.63-2.29,1.25-2.29,1.25S39,40.64,38.78,40.64s-.62.33-.5.46,7.13,4.38,6.92,4.5a10.47,10.47,0,0,1-2,.63,3.36,3.36,0,0,1-1,.08s-4.75-3.67-5-3.67-.79.33-.5.54a49.9,49.9,0,0,1,4.38,3.25A21.67,21.67,0,0,1,31,44.27c-5-2.42-10.33-8.33-11.54-13.71a21.24,21.24,0,0,1,3.71-16.42c3.25-4.08,8.21-7,11.83-7.37.55-.06,7.08,16.67,7.08,16.67s-1.46-.12-1.42,0-.12.67.08.67,1.58.13,1.63.29,1.5,3.75,1.5,3.75A18.79,18.79,0,0,0,41.23,27c-.08.13-.29.54,0,.75S44,29.1,44.11,29.31,46,33.31,46,33.31Zm5.75-9.08c-1.33.33-2.83-.42-3.17-.21a33.48,33.48,0,0,1-3.37,2.13A11.59,11.59,0,0,1,43.9,23c.09-.19,4.33-.62,4.46-.87s.29-3,3.08-2.29S53.11,23.89,51.78,24.23ZM35.32,56.64c.13.13.63-.08.75-.29a18.92,18.92,0,0,0-2.87-3.62c-.29-.12-.9.19-.75.42S35.19,56.52,35.32,56.64ZM16.53,53.39c-.54.67-.89,1.54-.75,1.63a1.21,1.21,0,0,0,1,0c.17-.08.08-.17.25-.71s1-1,1.13-1.29-.29-.42-.62-.46S17.07,52.73,16.53,53.39Zm7.5-.17a2.13,2.13,0,0,0-3.17-1.5A2,2,0,0,0,20.07,55C21.15,56.6,24.44,55.06,24,53.23Zm-2.73-.66a1.15,1.15,0,0,1,1.71.81c.22,1-1.55,1.82-2.14.94A1.09,1.09,0,0,1,21.3,52.57Zm5.6.11c.83-.46,1.33-1.37.92-1.92a2,2,0,0,0-2.37-.21,1.19,1.19,0,0,0-.71,1.54C24.86,52.69,26.07,53.14,26.9,52.69Zm-.54-1.79c.61-.13,1,.17.75.58s-1.08.79-1.42.5S25.4,51.1,26.36,50.89Z"/></g></svg>