<svg id="Layer_1" data-name="Layer 1" xmlns="http://www.w3.org/2000/svg" width="64" height="64" viewBox="0 0 64 64"><defs><style>.cls-1{fill:#1d1d1b;}</style></defs><title>space-observatory</title><g id="space-observatory"><path class="cls-1" d="M8.24,14c0,.22,0,1.82.26,2s1.38-1.07,1.47-1.2.71.34,1.17.16,0-1.44,0-1.44,1.18-.69,1.14-1-1.58-.35-1.68-.38-.5-1.82-.64-2-.29-.11-.53,0S9,12.27,9,12.46s-2.43.3-2.32.59S8.19,13.81,8.24,14ZM20.78,6.79c.37-1.33-1.33-1.94-2.21-1.6-1.44.55-1.67,2.12-.86,2.71A2.18,2.18,0,0,0,20.78,6.79Zm-2-.85c.42-.16,1.23.13,1.05.76a1,1,0,0,1-1.46.52C18,7,18.12,6.2,18.81,5.94ZM29.06,10.2a1.54,1.54,0,0,0-2.17-1.36,1.59,1.59,0,0,0-.63,2.38C26.69,12,29.32,11.5,29.06,10.2Zm-1.83-.67a.73.73,0,0,1,1,.64c.12.62-1.13.86-1.32.49A.75.75,0,0,1,27.23,9.53ZM45,9.17s-.84,2-1,2.12.43.35.65.47,1.4-1.39,1.64-1.5,1.43.36,1.61.35,0-1.09,0-1.22,1.28-.72,1.23-1.07-1.73-.19-1.73-.19a18.43,18.43,0,0,0-.27-2.05c-.11-.21-.45-.13-.69,0s-.7,2.05-.83,2.08-2,0-2.18.12-.1.44,0,.59A6.59,6.59,0,0,0,45,9.17Zm8.86,9.45a1.57,1.57,0,0,0-1.19-2.38,1.75,1.75,0,0,0-1.81,2.51C51.22,19.67,53.38,19.65,53.89,18.62Zm-1.34-1.55a.75.75,0,0,1,.57,1.15c-.25.5-1.29.51-1.44.06A.84.84,0,0,1,52.55,17.07Zm-36.7,9c.28,0,.15-.7.92-2.21a7,7,0,0,1,2.59-2.48c.12-.1-.2-.74-.51-.82s-1.22.6-2.36,2-1.83,2.71-1.69,2.91A2.14,2.14,0,0,0,15.85,26ZM28.91,37.47c.09,0,.18-.1.29-.36s-.8-.83-.8-.83c-.16-.05-.47.59-.46.71S28.82,37.47,28.91,37.47Zm.8,3.31c.19,0,.17-.35.16-.57A12.29,12.29,0,0,0,27.47,38c-.09,0-.5.56-.43.74A14.93,14.93,0,0,0,29.71,40.77Zm-.31,3c.16,0,.17-.32.19-.6a31,31,0,0,0-3.26-3.08,2.6,2.6,0,0,0-.44.62A30,30,0,0,0,29.4,43.76Zm-1.39,1s-2.74-3.3-3-3.35c0,0-.55.31-.67.41A36.58,36.58,0,0,0,27.05,45C27.15,45.1,28,44.77,28,44.77Zm-4-.22c.19.08.83-.23.8-.23a21.85,21.85,0,0,0-1.65-2.13c-.16,0-.59.06-.58.25A10.41,10.41,0,0,0,24,44.55ZM40.48,50.4c1-.3,1.63-1.18.56-1.91a3.17,3.17,0,0,0-2.89-.19,1,1,0,0,0-.41,1.77A2.89,2.89,0,0,0,40.48,50.4Zm-1.57-1.52a1.36,1.36,0,0,1,1.24.08c.46.31.17.69-.24.82a1.24,1.24,0,0,1-1.18-.14A.44.44,0,0,1,38.91,48.88Zm9.69-1.23a2.89,2.89,0,0,0,2.73-.43c.84-.55,1.25-1.58,0-2a3.17,3.17,0,0,0-2.83.6A1,1,0,0,0,48.6,47.65Zm.8-1.47a1.36,1.36,0,0,1,1.22-.26c.53.18.35.62,0,.85a1.24,1.24,0,0,1-1.17.19A.44.44,0,0,1,49.4,46.18ZM29.8,50.78c1-.3,1.63-1.18.56-1.91a3.17,3.17,0,0,0-2.89-.19,1,1,0,0,0-.41,1.77A2.89,2.89,0,0,0,29.8,50.78Zm-1.57-1.52a1.36,1.36,0,0,1,1.24.08c.46.31.17.69-.24.82A1.24,1.24,0,0,1,28.05,50,.44.44,0,0,1,28.23,49.26Zm-7.34-.16c1-.3,1.63-1.18.56-1.91A3.17,3.17,0,0,0,18.55,47a1,1,0,0,0-.41,1.77A2.89,2.89,0,0,0,20.89,49.1Zm-1.57-1.52a1.36,1.36,0,0,1,1.24.08c.46.31.17.69-.24.82a1.24,1.24,0,0,1-1.18-.14A.44.44,0,0,1,19.32,47.57Zm-6.55-1.48c.8,0,1.56-.44.95-1.29a2.55,2.55,0,0,0-2.13-.94.82.82,0,0,0-.8,1.23A2.32,2.32,0,0,0,12.77,46.09ZM12,44.51a1.1,1.1,0,0,1,.92.41c.26.36-.06.57-.41.55a1,1,0,0,1-.85-.43A.35.35,0,0,1,12,44.51Zm-1.46,4.2c-.28.08-.21,2.61-.17,2.79a1.8,1.8,0,0,0,1.1.69c.41,0,.17-2.76,0-3.07S10.63,48.68,10.54,48.7ZM37.8,26.57c3.63,2.65,6.9,1,7-2.21s-3.35-5.16-5.17-4.88C36.18,20,34.17,23.92,37.8,26.57Zm2-6.1a3.89,3.89,0,0,1,4,3.73c-.06,2.44-2.56,3.72-5.33,1.69S37.15,20.87,39.78,20.47Zm-1,4.08a11.82,11.82,0,0,0,1.35-2.89c0-.34-.56-.35-.73-.21a19.17,19.17,0,0,0-1.17,2.75C38.23,24.3,38.68,24.53,38.8,24.55Zm1.5,1.2a16.19,16.19,0,0,0,1.58-3.87c-.1-.18-.45-.35-.61-.25a38.57,38.57,0,0,0-1.71,3.85C39.55,25.58,40.12,25.7,40.31,25.75Zm1.84-.07a10.94,10.94,0,0,0,.95-2.24c.05-.19-.44-.44-.52-.38a12.89,12.89,0,0,0-1,2.37C41.58,25.59,42,25.73,42.15,25.69ZM57.86,42.94c-.38-.7-3.05-.9-3.05-.9s.13-11.21-2.36-16.15-6.42-6-6.42-6-.21-.93-2.3-2.07a13.32,13.32,0,0,0-5.07-1.23s-3.12-1.58-5-1.36a12,12,0,0,0-7.25,3.7l-1-.88A10.2,10.2,0,0,0,19,16.87c-3,.6-5.6,3.61-8.55,10.56a29.59,29.59,0,0,0-2,13.5,3.7,3.7,0,0,0-2,1.74c-.33.89.24,7.4.44,8.27s1,2.64,7.55,5.39,13.33,3.55,23,2.73,20-6.57,20.19-7S58.25,43.64,57.86,42.94Zm-11-15.16a6,6,0,0,0,.83-3.33,18.12,18.12,0,0,0-.28-1.8,10.15,10.15,0,0,1,4.38,6.43,86.33,86.33,0,0,1,1.32,9.54s-3.12-3.9-3.24-3.8-.54.4-.5.56,3.7,4.19,3.71,4.53a3.46,3.46,0,0,1-.08.79l-.65.19s-3.41-3.51-3.5-3.48-.48.43-.4.65,3.21,3.33,3.06,3.47a7.87,7.87,0,0,1-1.07.49A29.31,29.31,0,0,0,48,39.55c-.15,0-.7.38-.53.59a28.28,28.28,0,0,1,2.1,2.39,3.92,3.92,0,0,1-.64.35,17.84,17.84,0,0,0-2.33-2c-.18.07-.51.46-.4.65s2,1.74,1.79,1.94a18.8,18.8,0,0,1-2.49.91,9.45,9.45,0,0,1-1.3.26,22.41,22.41,0,0,0,.69-8.33,29.75,29.75,0,0,0-.77-5A22,22,0,0,0,46.89,27.78Zm-7.48-9.46C41.73,18,46.1,20.47,46,24.55s-4.27,6.2-8.89,2.82S35,19,39.41,18.32ZM33,30.84c-1.11-.85-1.13-.69-1.11-.85s-.15-1-.32-2.46-.31-1.64-.28-1.74S33,23,33.08,22.88a5.86,5.86,0,0,0,3,6,16.87,16.87,0,0,0,6,1.78,27.47,27.47,0,0,1-3.51,2.88A36.81,36.81,0,0,1,33,30.84Zm2.83,3.29c-.17.29-2.73,3.43-2.76,3.34s-.47-5.26-.25-5.37a13.81,13.81,0,0,1,2.07,1.24C35.28,33.59,36,33.84,35.8,34.13Zm5.39-.44s1.2-1,1.36-.95a21.43,21.43,0,0,1,.91,5.4A27.66,27.66,0,0,1,42.86,45a6.79,6.79,0,0,1-2.39.38c-.26-.11.74-2.54,1.17-6.29S41.2,33.69,41.2,33.69ZM32.95,16.82A5.74,5.74,0,0,1,37.3,18l-1.47.61s-1.3-.84-3.63,0a7.79,7.79,0,0,0-3.44,2.44l-.94-1.3S30.4,17.2,32.95,16.82ZM11.32,30.39c1.44-4.68,4.05-9.73,6.48-11.17S23,17.88,26.28,21,30.87,32,31.15,34.78s.42,10.81.29,10.87-2.72.68-8.72-.92-10.66-2.13-12.43-4.22A29.63,29.63,0,0,1,11.32,30.39ZM8.24,44.82c.06-.13-.18-1.68,0-1.91a9.18,9.18,0,0,1,1.55-.8A56.88,56.88,0,0,0,21.4,46.35a48.89,48.89,0,0,0,17.87,1.12,41.66,41.66,0,0,0,11.87-3.41c1.1-.43,1.67-.93,2.2-.93s2.81.41,2.79.67S54.88,46.23,50.44,48a46.67,46.67,0,0,1-22.24,3.71c-10.37-.83-15-4.4-17.25-5.5S8.18,44.95,8.24,44.82ZM56.3,50.69a1.65,1.65,0,0,1-.61.22,10.52,10.52,0,0,0-.12-2.22c-.16-.05-.92.3-.91.49a9.72,9.72,0,0,1,.14,2.12c-.15.13-1.11.84-1.12.62s0-2.19-.15-2.18-.68.19-.73.35.14,2,.05,2.16-.61.25-.61.25a15.31,15.31,0,0,0-.17-2.06c-.1,0-.93.24-.89.42s.17,2,.17,2l-.83.23a8.83,8.83,0,0,0-.11-2c-.15,0-.93.21-.92.33a17,17,0,0,1-.12,2.48,37.19,37.19,0,0,1-11.58,3c-6.5.69-14.23.82-20.52-1.1S9,51.48,8.7,50.65a13.32,13.32,0,0,1-.31-4.11,52.73,52.73,0,0,0,11.63,5c7.12,2,11.92,2.84,19.45,1.57a59.26,59.26,0,0,0,14.62-4.56c.91-.46,2-1.48,2.09-1.27S56.54,50.53,56.3,50.69ZM52,34.77c.22-.07.07-.54,0-.94s-1.73-2-1.73-2a3.46,3.46,0,0,0-.12,1.29A5.1,5.1,0,0,0,52,34.77Z"/></g></svg>