<svg id="Layer_1" data-name="Layer 1" xmlns="http://www.w3.org/2000/svg" width="64" height="64" viewBox="0 0 64 64"><defs><style>.cls-1{fill:#1d1d1b;}</style></defs><title>space-ship_3</title><g id="enterprise"><path class="cls-1" d="M34.35,30.83c2-1.42,3.21-8.83,3.63-11.92s-1.67-4.29-4.29-4-7,1.34-8.5,2.62c-1.21,1-.79,2.75-.46,4.13s3.17,8.63,3.79,9.33S32.35,32.24,34.35,30.83ZM28.89,27.7a40.47,40.47,0,0,1-2.5-7.83c0-.87-.08-1.25.79-1.75.59-.34,7.5-2,8.29-1.37s0,3.54,0,3.54-.83-.46-1-.33-.62.5-.33.67,1.08.29,1.08.5a7.08,7.08,0,0,1-.21,1s-2.17-1.17-2.33-.83-.25.38-.08.54,2.33.75,2.29,1.08-.12.79-.12.79a22.68,22.68,0,0,0-3-1.08c-.08.13-.33.67-.21.79s2.92,1,2.88,1.29-.21.92-.21.92a19.43,19.43,0,0,0-3-1.25c-.08.17-.33.54-.08.71s3.08,1.25,3,1.46-.17.79-.33.75S30.94,25.87,30.69,26s-.37.63-.17.75,3.25,1.25,3.21,1.46,0,.63-.17.67-2.79-1-2.92-.92-.33.5,0,.71,2.71.71,2.5.92a4.05,4.05,0,0,1-1.92.54C30.39,30.2,30,30.33,28.89,27.7ZM30.64,12a24,24,0,0,0-.79-4.42c-.12-.25-.9-.16-1,0A42.32,42.32,0,0,0,30,12.2C30.1,12.37,30.48,12.16,30.64,12Zm4-.25a13.26,13.26,0,0,0,.42-4.38.73.73,0,0,0-1-.21,32.45,32.45,0,0,0-.08,4.5C34.06,11.79,34.44,11.79,34.69,11.7Zm7.54,0c.33-.21-.26-1.17-.58-1-.12.08-2.71,3-2.87,3.13s.21.25.42.29S41.89,11.91,42.23,11.7ZM39.94,20a46.54,46.54,0,0,0,5.29-.87c.42-.12,0-.62-.17-.92s-5.16.83-5.12,1S39.77,19.83,39.94,20Zm.17,3.33c-.33.17-.17.58,0,.75a57.12,57.12,0,0,0,6.13.46c.38,0,.13-.33.13-.62S40.26,23.21,40.1,23.29ZM40,28.08c-.25.08-.67.46-.42.71a33.85,33.85,0,0,0,4.5,1.54c.21,0,.29-.25.42-.58S40.14,28,40,28.08Zm-3.46,4.46c-.17.21,4,4.58,4.25,4.67s.58-.29.75-.5S37.38,32,37.23,32.08A2.87,2.87,0,0,0,36.52,32.54Zm-2,5c.67-3.12-2.65-4.22-4.33-3.21A3.13,3.13,0,0,0,29.44,39C30.52,40.29,33.89,40.66,34.56,37.54Zm-1.06-.21a1.9,1.9,0,0,1-3.25,1,2,2,0,0,1,.5-3A1.86,1.86,0,0,1,33.5,37.32Zm-9.28-5.46c-.46.08-3.25,3.29-3.37,3.58s.38.42.63.46a21,21,0,0,0,3.29-3.58C24.85,32,24.49,31.82,24.23,31.87ZM22,26.7c-.21-.21-4.81,1.45-4.87,1.83s.17.88.33.92,4.5-1.79,4.75-1.92S22.23,26.91,22,26.7Zm-.58-3.58c.25-.08.13-.37,0-.54a48.23,48.23,0,0,0-5.58-1c-.21.13-.25.88-.25.88S21.19,23.2,21.44,23.12Zm.25-4.67c.17,0,.42-.46.42-.71S17.72,16,17.56,16s-.46.75-.29.88S21.52,18.41,21.69,18.45ZM26.6,14c.21-.29-2.83-3.83-3-4s-.95.44-.92.58,3.13,3.71,3.25,3.83S26.39,14.29,26.6,14Zm-16,26.21a19.56,19.56,0,0,0-.08,3.5c0,.25.79.25,1.08,0s.13-3.29.08-3.5S10.87,39.9,10.56,40.2Zm18.25,8.67c-.25.13,0,2.92.13,3.25s.42,0,.71-.08,0-2.75,0-3.08S29,48.76,28.81,48.87ZM56,39.79c0-.46-1.58-1.54-3.29-1.54s-3.37.17-3.67.54,0,3.79,0,4S37.19,49.2,37.19,49.2a11.8,11.8,0,0,0-.25-2.67c-.25-.54-2.29-.67-2.29-.67l0-1.92a23.94,23.94,0,0,0,8.75-3.29c4.54-2.79,6.29-7.75,7.42-10.58s2.46-13.92-3.71-20.46S35.31,2.49,28.06,3.74,15,10.7,13.39,15.45s-2.52,11.28,1.17,18C20.06,43.49,28,43.87,28,43.87l.13,2a5,5,0,0,0-2.12.33c-.83.42-.75,2.79-.75,2.79L16,44.66s-.08-5-.17-5.5S14.77,37.49,12,37.45s-4.17.88-4.42,1.13S8,54.45,8,54.66s1.08.63,1.08.63,1.67,4.33,3.5,4.21,2.79-4.75,2.79-4.75.88,0,1-.37a28,28,0,0,0,0-3.75s1,.38,3,1.38,6.92,3.88,6.92,3.88a14.61,14.61,0,0,0,.33,2.92c.29.92,10.38.08,10.75-.12s.13-3,.13-3L48.39,50s.29,5.71.38,6.13,1.25.25,1.25.25,1.63,4.42,2.79,4.46,1.88-4.92,1.88-4.92a4.52,4.52,0,0,0,1.71-.46C56.77,55.08,56,40.24,56,39.79ZM12.69,58.37c-.62.13-2.25-2.75-2.25-3.42,0-.43,1.25-.71,2.29-.67s1.58.25,1.58.5S13.31,58.24,12.69,58.37Zm1.88-5.75a14.6,14.6,0,0,0-3,.25c-1,.33-1.71.63-1.71.63s-.79-13.67-.54-14,1.79-.62,3-.58,2,.58,2.13.92S14.94,52.54,14.56,52.62Zm11.25,1.25c-.17.08-.71-.25-.71-.25A11.76,11.76,0,0,0,24.94,51c-.21-.08-1-.08-1,.08s.38,2.33.17,2.25-1.21-.54-1.21-.71.21-1.42,0-1.5-.92-.46-.87-.25,0,1.29,0,1.29-5.67-2.25-5.67-2.5a22.8,22.8,0,0,1,0-3.37c.24-.18,9.29,4.08,9.29,4.29A22.68,22.68,0,0,1,25.81,53.87ZM20.06,37.66c-4-4.67-6.83-11.29-6-16.79s5.13-14.21,17-15.33c6-.57,11.79,1.08,15.58,6.08s3.88,15.29,1.63,20S42.94,40.87,37.6,42,24.06,42.33,20.06,37.66ZM33.64,46c-.12,0-1.79-.17-2.75-.12s-1.54.21-1.58,0-.33-1.67-.08-1.83,1,.17,2.38.29,1.87-.29,2,0A3.8,3.8,0,0,1,33.64,46ZM36,57a2.24,2.24,0,0,1-.92,0c-.12-.08-2-2.92-2.17-2.92s-.58.25-.54.38A18.68,18.68,0,0,1,33.85,57,2.69,2.69,0,0,1,32.56,57c-.12-.12-1.17-2-1.37-2s-.92.29-.79.5.79,1.42.63,1.46-2.58.33-2.87,0-.83-8.92-.67-9.17,7.83-.42,7.92,0a20.3,20.3,0,0,1,.13,3.42c-.12-.08-1-1-1.12-.83s-.42.58-.29.71,1.54,1.08,1.58,1.42.08,1.38.08,1.38S34.23,52,34,52.08s-.54.58-.37.75,2.17,2.38,2.29,2.67S36.23,57,36,57Zm12.75-8.42a66.43,66.43,0,0,1-7.54,4c0-.21.17-2.29,0-2.37s-.67-.17-.67,0,.21,2.71,0,2.75-1,.75-1,.5a19.57,19.57,0,0,0-.17-2.83c-.12,0-1,.29-1,.54s.38,2.63.13,2.79a10.75,10.75,0,0,1-1,.5s-.12-4.17.17-4.25,10.92-6.12,11-5.87A36.21,36.21,0,0,1,48.73,48.58Zm4,10.58c-.42,0-1.5-2.75-1.54-3.21s1.54-.21,1.92-.25a1.15,1.15,0,0,1,.75.29S53.14,59.12,52.73,59.16Zm1.54-4.62c-.33-.12-1.92-1.58-2.29-1.46a.66.66,0,0,0-.37.88,6.28,6.28,0,0,0,.83.67s-1.54.54-1.71.21-.46-14.75-.25-15.08,1.63-.08,2.63.13a4.63,4.63,0,0,1,1.33.42s.17,10.71,0,10.54-1-1.17-1.25-1.17-.5.71-.42.88,1.58,1.13,1.63,1.38a4.23,4.23,0,0,1,0,.75,11.27,11.27,0,0,0-1.92-1.37c-.17.08-.42.71-.21.88a17.83,17.83,0,0,1,2.25,2C54.56,54.37,54.6,54.66,54.27,54.54Z"/></g></svg>