<svg id="Layer_1" data-name="Layer 1" xmlns="http://www.w3.org/2000/svg" width="64" height="64" viewBox="0 0 64 64"><defs><style>.cls-1{fill:#1d1d1b;}</style></defs><title>space-ship_2</title><g id="space-ship-2"><path class="cls-1" d="M53.19,18.47c0-.37-1.62,0-1.62,0s0-2.54-.08-3-3.37-.17-3.67-.08-.08.71-.12,1S42.1,6.22,41.94,6.05s-.83,0-.83,0a15.8,15.8,0,0,0-.21-2.08c-.12-.33-3.17-.21-3.58-.17s.13,2.42.13,2.42a3.75,3.75,0,0,0-.71,0c-.25,0,0,6.92-.08,7s-.46,0-.62-.08,0-.29-.17-.5-7.33,0-7.54,0-.33.83-.33.83a2.22,2.22,0,0,1-.75-.21c-.29-.17.21-6.83.13-7.17s-.62,0-.62,0,0-1.92-.08-2.37-4.29-.33-4.71-.25-.21,2.67-.21,2.67a3.16,3.16,0,0,0-1,.29C20.4,6.6,16,18.6,16,18.6a6,6,0,0,1-.75,0c-.21,0,0-2.29,0-2.63s-3,0-3.29,0,0,2.58,0,2.58a2.79,2.79,0,0,0-1.17,0c-.46.17-.71,20.13-.37,24.75s2.46,8.42,6.13,11.88,9.83,4.08,9.83,4.08a2.54,2.54,0,0,0,1,1.25,52,52,0,0,0,9.5-.08A2.88,2.88,0,0,0,38.48,59s2.71-.17,8-3.12,6.75-9.83,7.17-12.42S53.23,18.85,53.19,18.47Zm-4.37-2.25c0-.13,1.83-.17,1.88.13s.08,1.79-.08,1.83-1.83,0-1.83,0S48.85,16.43,48.81,16.22ZM38.4,4.8a5.11,5.11,0,0,1,1.63,0c0,.13.17,1.21,0,1.21s-1.75-.21-1.75-.21S38.19,4.85,38.4,4.8Zm.21,9.08c0-.42-.08-6.21-.08-6.21l2.33,0,5.67,10.83a23.28,23.28,0,0,0-2.21-1.62c-.12,0-.5.42-.29.54a13.54,13.54,0,0,1,2,1.75c0,.17,0,1.38-.25,1.54s-2.5-2.25-2.62-2.21-.33.54-.33.54a25,25,0,0,1,2.67,2.54A8,8,0,0,1,45,22.89a32.22,32.22,0,0,0-3.08-2.67c-.17.08-.46.46-.37.63s3,2.58,2.88,2.88a3.2,3.2,0,0,1-.67.75,35.23,35.23,0,0,0-3-3.08c-.21,0-.75.58-.46.71a18.78,18.78,0,0,1,3,3l-.62.46s-2.79-3-3-3-.5.67-.33.75S41,25.05,41,25.05a9,9,0,0,0-1.71-.62c-.46,0-.75,0-.75,0L36.6,14.85S38.56,14.3,38.6,13.89Zm6.63,17.38a22.5,22.5,0,0,1,.83,7.58,14,14,0,0,0-3-1.75,26,26,0,0,1-2.46-1L39.06,26.3C39.27,26.26,44.06,27.39,45.23,31.26ZM29.44,14.14c.24-.35,4.92-.21,5.13,0s1.08,5.37,1.08,5.37-1-1-1.12-.87-.29.58-.17.67A9.06,9.06,0,0,1,35.9,20.6l.21,1.08a9.29,9.29,0,0,0-1.37-1.08c-.12,0-.29.75-.12.92a19.93,19.93,0,0,1,1.63,1.63c.08.21.58,2.13.58,2.13s-2-2.46-2.25-2.37-.37.83-.25,1,2.58,2.5,2.63,2.67.33,1.67.33,1.67S34.35,24.85,34.15,25a.92.92,0,0,0-.21.92c.08.38,3.46,3.71,3.63,4.08s.58,2.83.58,2.83S34,27.43,33.77,27.64a1.41,1.41,0,0,0-.17,1.13c.08.13,4.58,5.42,4.67,5.67a5.26,5.26,0,0,1,.13.88L37.27,35s-4.37-5.25-4.54-5.17a1,1,0,0,0-.21.83c.08.17,3.58,4.08,3.33,4.08a4.79,4.79,0,0,1-.87-.08c-.12,0-2.58-2.54-2.71-2.54s-.42.58-.29.83a19.38,19.38,0,0,0,1.5,1.58,20.11,20.11,0,0,0-3.83,0,25.76,25.76,0,0,0-3.62.46S29.1,14.64,29.44,14.14ZM22.77,4.3c.29,0,3-.21,2.92.08s.29,1.42,0,1.5-2.75,0-3,0S22.48,4.35,22.77,4.3ZM16.44,20.93S21.85,7.64,22.1,7.55a23.86,23.86,0,0,1,3.42-.12c-.08.17-.17,7.17.13,7.29s1.92.5,1.92.5L26.27,22.3s-1-1.46-1.17-1.42-.54.29-.42.38S26,23.05,26,23.05l0,1.13-1.08.33a25.45,25.45,0,0,0-2.12-2.87c-.21,0-.79.25-.62.46S24,24.76,24,24.76l-1,.58a19.44,19.44,0,0,0-2.33-2.67c-.25,0-.58.25-.46.46s2.21,2.38,2,2.5-.58.54-.58.54a23.82,23.82,0,0,0-2.46-2.58c-.17.08-.37.83-.37.83l2.25,2.25-.54.46a5.22,5.22,0,0,1-3.54-3.58C16.31,20.68,16.44,20.93,16.44,20.93Zm8,14.17a20.61,20.61,0,0,0-3.12.75c-1.46.5-3,1-3,1s.17-4.29,1.79-6.5,4.42-3.21,5.13-3.54C25.49,26.66,24.44,35.1,24.44,35.1ZM12.77,16.89c.29,0,1.46-.29,1.5,0s.13,1.54-.08,1.58a11.35,11.35,0,0,1-1.29,0S12.48,16.85,12.77,16.89ZM12.31,20A14.09,14.09,0,0,1,15,19.93s.13,4.21.92,5.5a24.64,24.64,0,0,0,3,3.38,12.4,12.4,0,0,0-2,4.62,15.61,15.61,0,0,0-.08,3.75s-1.5.67-3,1.46a22.49,22.49,0,0,0-2.21,1.25S12,20.3,12.31,20Zm13,37a15.34,15.34,0,0,1-6.83-3,16.28,16.28,0,0,1-4-4.79,42.38,42.38,0,0,1,4-2.92,37.19,37.19,0,0,0,3.29,3.54,10.67,10.67,0,0,0,3.88,2S25.6,57,25.35,57.05ZM36.9,58.35c-.29.08-8.71.33-9.08-.12s-.12-13.42,0-13.58c.43-.43,8.83-.08,9.12.25S37.19,58.26,36.9,58.35ZM35.52,42.93c-1.42,0-7.29,0-8,.13s-1.5,1-1.58,3a25.12,25.12,0,0,1-.25,4,10.2,10.2,0,0,1-5.46-4.92s5.25-5.79,12.42-5.5,12.13,5.67,12.13,5.67-1.46,1.42-2.83,2.79a10.74,10.74,0,0,1-2.71,2s.13-4.21-.37-5.58S36.94,42.93,35.52,42.93ZM45,54.85a22.65,22.65,0,0,1-5.67,2.54,33.73,33.73,0,0,1-.29-5.79,14.66,14.66,0,0,0,4-2.42c2.13-1.75,2.92-2.67,3-2.71s3.54,2.79,3.58,3.21S47.69,53.26,45,54.85Zm5.63-6.92S42.1,41,38.35,39.18a15.78,15.78,0,0,0-13.54.54C20.94,42,13.52,47.51,13.52,47.51A12.1,12.1,0,0,1,12,41.22c0-.13,10.71-5.54,20.71-4.92S51.6,43.93,51.6,43.93Zm1.29-6a13.4,13.4,0,0,0-2.58-1.58,10.93,10.93,0,0,1-1.5-.67s.46-4.75-.46-7.79-1.29-3.5-2.21-4.37a8.57,8.57,0,0,0-1.21-1,10.64,10.64,0,0,0,2.71-3.21,15.17,15.17,0,0,0,1-3.12,27.14,27.14,0,0,1,3.75.21c.08.21.58,16.63.67,18.67A12.15,12.15,0,0,1,51.94,41.93ZM20.52,34.26c.08.13.5,0,.71,0s0-.71.29-1.79,1.08-1.37,1.21-1.71-.31-.78-.54-.67a4.22,4.22,0,0,0-1.67,4.13Zm-5.75,6.38a2.51,2.51,0,0,0-.92,3,1.94,1.94,0,0,0,3.54-.54A1.92,1.92,0,0,0,14.77,40.64Zm1.77,2.18a1,1,0,0,1-1.87.29,1.33,1.33,0,0,1,.48-1.59A1,1,0,0,1,16.54,42.82Zm31,2.28a1.51,1.51,0,0,0,2.32-1.62,2,2,0,0,0-2.16-1.19A1.53,1.53,0,0,0,47.55,45.1ZM48,43a1,1,0,0,1,1.14.63A.83.83,0,1,1,48,43ZM23.56,46.55c-.5-.62-.91-1.8-1-1.83a1.52,1.52,0,0,0-1,.5c-.17.29.46,1.17,1,1.83a4.66,4.66,0,0,0,2.21,1.29.79.79,0,0,0,.13-.75C24.73,47.39,24.06,47.18,23.56,46.55Zm-5,2.5a7.37,7.37,0,0,0-1.71,1.71c-.12.29.33.5.54.46a6.2,6.2,0,0,0,1.54-1.58C19,49.39,18.75,49.05,18.56,49.05ZM20,50.93a18.87,18.87,0,0,0-1.42,2c-.12.21.38.33.5.42a9.13,9.13,0,0,0,1.58-1.87C20.77,51.26,20.17,50.85,20,50.93Zm1.5,4A10.29,10.29,0,0,0,22.73,53c.17-.33-.56-.68-.71-.46s-1,1.92-1,2.13S21.4,54.85,21.52,54.89Zm9.08-8.42a2.83,2.83,0,0,0,1.13,5c2.08.38,4.21-1.21,3.33-3.67A2.91,2.91,0,0,0,30.6,46.47ZM32,50.32a1.65,1.65,0,0,1-.66-2.92,1.7,1.7,0,0,1,2.6.78A1.61,1.61,0,0,1,32,50.32Zm-.89,3.58a2,2,0,0,0,.8,3.57,2,2,0,0,0,2.38-2.62A2.07,2.07,0,0,0,31.11,53.91Zm1,2.75a1.18,1.18,0,0,1-.47-2.08,1.21,1.21,0,0,1,1.85.55A1.15,1.15,0,0,1,32.11,56.66Zm8.66-4.35a.5.5,0,0,0-.62.29,13.19,13.19,0,0,0,1,2.5,1.25,1.25,0,0,0,1-.42C42.4,54.35,41,52.43,40.77,52.3Zm2.29-1.12c-.17,0-.53.16-.5.33s1.13,2,1.13,2a4.67,4.67,0,0,0,.75-.54C44.69,52.76,43.23,51.18,43.06,51.18Zm2.33-2c-.12-.08-.58.21-.58.42s1.33,2.46,1.63,2.38a.83.83,0,0,0,.58-.54C47.19,51.05,45.52,49.22,45.4,49.14ZM21.94,12.75A23.35,23.35,0,0,0,23.28,9.6c0-.16-.49-.34-.62-.25A27.24,27.24,0,0,0,21,12.63C21,12.75,21.78,12.85,21.94,12.75Z"/></g></svg>