<svg id="Layer_1" data-name="Layer 1" xmlns="http://www.w3.org/2000/svg" width="64" height="64" viewBox="0 0 64 64"><defs><style>.cls-1{fill:#1d1d1b;}</style></defs><title>space-ship_1</title><g id="space-ship-3"><path class="cls-1" d="M18.51,11.07a3.16,3.16,0,0,1,2.08-.17c.21,0,.21-.67.21-.83s-.92-.21-2,0a2.91,2.91,0,0,0-1.83.83,1.52,1.52,0,0,0,.13,1C17.18,12.12,17.72,11.57,18.51,11.07Zm-1.46,7.29c.17-1.92-.55-3.09-2.29-2.79-1.92.33-3.42,2.58-2.21,4.08S16.88,20.28,17.05,18.37Zm-2.34-2c1.2-.21,1.69.6,1.58,1.92a1.87,1.87,0,0,1-3.1.89C12.36,18.1,13.39,16.55,14.71,16.32Zm.34,15c.08-5-4.39-5-5.5-3.58a5.13,5.13,0,0,0-1.08,5.5C9.38,35.49,15,36.41,15.05,31.37ZM9.39,32.61a3.59,3.59,0,0,1,.76-3.86c.78-1,3.92-1,3.86,2.51S10,34.15,9.39,32.61Zm8.66,11c-.25-4.83-4.92-5.15-6.42-3.37-1.12,1.33-1.92,2.92-.5,5.88S18.3,48.41,18.05,43.57Zm-6.14,1.86c-1.06-2.21-.47-3.4.37-4.4,1.12-1.33,4.62-1.09,4.8,2.53S13,47.65,11.91,45.44ZM19,52.62c-.29-.08-1,.79-2.42.25a4.81,4.81,0,0,1-2.25-2s-.71.29-.79.58.54.88,2.33,2.13a2.7,2.7,0,0,0,3.42-.08C19.51,53.37,19.3,52.7,19,52.62ZM30.47,32c-2.67.38-4.33,3.08-4.79,6.5s-.08,9.46.88,9.54,1-1.62,4.25-1.79,4.58,2.13,5.5,1.92,2.5-8.33,1.08-12.46S32.66,31.68,30.47,32Zm6.08,8s-.83-1.54-1.08-1.46-.5.29-.33.5,1.42,1.54,1.42,2a6.76,6.76,0,0,1-.12,1,17.56,17.56,0,0,0-2-2.42.75.75,0,0,0-.42.79c.08.33,2.38,2.88,2.38,3.21s-.12,1.17-.12,1.17-2.42-3.21-2.71-3.08-.58.54-.42.79a35.94,35.94,0,0,1,2.63,3.75.65.65,0,0,1-.21.42l-.5-.25s-2.25-3.5-2.54-3.5-.71.21-.62.5a24.67,24.67,0,0,0,1.33,2.13L32,45.24c-.21,0-.46-1-.67-1.08s-.87.13-.75.33a2.1,2.1,0,0,1,.17.67,3.77,3.77,0,0,0-2.12.29c-1,.5-1.54,1-1.71.75a40,40,0,0,1,0-8.46c.42-2.54,2.08-4.83,5-4.79,2.71,0,3.67,1.54,4.17,3.54A13,13,0,0,1,36.55,40Zm-5.12-6a2.91,2.91,0,0,0-2.79,1.42,12.14,12.14,0,0,0-.33,4.25c.13.21.92,0,1.17,0s0-2.12.38-3.54,2.17-1.21,2.21-1.46A.67.67,0,0,0,31.43,33.95ZM58.26,18.62C55.55,13.2,49,7.74,43.82,6.87s-6,.5-6.11,1.08S38.8,10.57,41,14.62s3,9.49,2.77,14.83-2.94,6.63-2.94,6.63-1-7.28-8.37-7.19-9.63,7.66-9.63,7.66a18.09,18.09,0,0,1-2.34-3.06c-1-1.66-1.91-4.44-1.25-9.22s4.25-9.47,5.38-12.78-.77-5.65-3.28-5.34c-5.62.69-9,5.44-11,8.23s-5.83,9.54-6.5,15.58A32.25,32.25,0,0,0,6.3,46.57c2.17,4.92,6.42,10.25,11.75,10.88s8.33-4,8.33-4a9.79,9.79,0,0,0,4.83,1.25A14.3,14.3,0,0,0,37,53.87a19,19,0,0,0,4.33,3.54c1.83.83,6,.92,9.67-2.46s7.67-10.62,8.63-16.37S61,24,58.26,18.62Zm-40.08,37c-3.83-.12-8-4-10.54-10.92S4.88,31.57,6.22,26.49a40.28,40.28,0,0,1,8-14.5C17,9.07,19.63,7.91,21.63,8.07s1.63,2.71.29,5.17-3.87,5.92-4.58,10.87a15.49,15.49,0,0,0,2,10.83,14.32,14.32,0,0,0,3,3.54,28.23,28.23,0,0,0-.21,7.33,18.45,18.45,0,0,0,2.42,6.58S22,55.7,18.18,55.57Zm13-2.87c-3.71-.08-5.46-1.46-6.5-4.37s-.71-11,.54-13.62,3.79-3.87,6.71-4c2.71-.15,5.88.79,6.83,4.5s.67,10.17-.58,13.46S34.93,52.78,31.22,52.7Zm24-7.33c-3,5.33-5.17,8-6.37,9S47,55.62,47,55.41s-1-4.12-1.33-4.25-.83,0-.75.13S46.26,55.62,46,55.7s-.83.46-1,.21-1.25-4.46-1.46-4.5-1,0-.83.33,1.5,4.08,1.25,4.13a4.29,4.29,0,0,1-1.12-.29s-1.08-3.5-1.33-3.5-.79,0-.71.33a15.66,15.66,0,0,1,.63,2.67,25.48,25.48,0,0,1-2.12-1.46c-.62-.46-1.42-1-1.25-1.25a13.11,13.11,0,0,0,3-7.87c.38-5.12.38-6.29.38-6.29s3.21-1.37,3.67-6.37.83-9.87-.75-14.21S39.63,8.87,39.8,8.49s5.46-1,11,3.5a19.88,19.88,0,0,1,7.71,15.67C58.51,33,58.22,40,55.22,45.37Zm-8-33.75c-.08-.46-3.45-1.74-4.12-1.63-.25,0,.33,1,1.13,1.17s2.42,1.08,2.79,1.13S47.34,12.07,47.26,11.62Zm1.42,6a3.24,3.24,0,0,0-.58,4.58c1.42,1.83,4.79,1.46,4.67-1.62S49.82,16.85,48.68,17.62Zm.07,4a2.18,2.18,0,0,1,.39-3.08,2,2,0,0,1,2.75,2A1.71,1.71,0,0,1,48.74,21.58ZM48.43,29a3.05,3.05,0,0,0,0,4.75c2,1.92,5.42,1.67,5.67-1.79S49.86,27.72,48.43,29ZM53,31.9c-.17,2.35-2.52,2.52-3.84,1.22a2.07,2.07,0,0,1,0-3.22C50.12,29,53.13,29.55,53,31.9Zm-7.28,9c-3.12,1.17-3.29,4.42-1.75,6.46a3.74,3.74,0,0,0,6.54-2.08C50.93,41.45,47.69,40.2,45.68,40.95Zm3.76,4.2a2.71,2.71,0,0,1-4.73,1.51A2.92,2.92,0,0,1,46,42C47.43,41.45,49.77,42.35,49.44,45.15ZM51,37.78a24.7,24.7,0,0,0,1,3.83c.17.17.88,0,1-.29s-1.08-3.37-1.21-3.62S51,37.48,51,37.78Zm2.29-.54a13.3,13.3,0,0,0,.92,3.46c.17.17.54.13.88-.33s-.71-3.29-.83-3.42S53.43,37.07,53.26,37.24Zm3,.46c.17-.12-.21-1.37-.37-1.54s-.6,0-.71.25a8.88,8.88,0,0,0,.29,1.54C55.59,38.2,56.13,37.82,56.3,37.7Zm-9.71,13a16.3,16.3,0,0,0,1.08,3.42c.13.17.46-.12.71-.33s-.83-3.12-.87-3.25S46.71,50.42,46.59,50.66Zm2-.5a9,9,0,0,0,.5,2.29c.13.21.58-.25.67-.37a7.42,7.42,0,0,0-.42-2C49.22,49.87,48.64,50,48.59,50.16Z"/></g></svg>