<svg id="Layer_1" data-name="Layer 1" xmlns="http://www.w3.org/2000/svg" width="64" height="64" viewBox="0 0 64 64"><defs><style>.cls-1{fill:#1d1d1b;}</style></defs><title>sputnick-2</title><g id="sputnick-2"><path class="cls-1" d="M24.84,26.09A1.48,1.48,0,0,0,24,28.65a1.61,1.61,0,0,0,2.56-.5C27,27.19,26,26.07,24.84,26.09Zm.88,1.75a.71.71,0,0,1-1.13.22A.65.65,0,0,1,25,26.93C25.48,26.92,25.94,27.41,25.72,27.84Zm-7.91-3.28a1.48,1.48,0,0,0-.87,2.56,1.61,1.61,0,0,0,2.56-.5C20,25.65,18.94,24.53,17.81,24.56Zm.88,1.75a.71.71,0,0,1-1.13.22.65.65,0,0,1,.39-1.13C18.44,25.39,18.91,25.88,18.69,26.31Zm15.39.78a1.48,1.48,0,0,0-2.69.34A1.61,1.61,0,0,0,33,29.51C34.06,29.54,34.6,28.09,34.08,27.09Zm-1.19,1.56a.71.71,0,0,1-.69-.92.65.65,0,0,1,1.19-.15C33.61,28,33.37,28.66,32.89,28.65Zm7,.18c1.07-.2,1.3-1.73.59-2.6a1.48,1.48,0,0,0-2.56.89A1.61,1.61,0,0,0,39.94,28.83Zm0-2c.31.38.21,1.06-.26,1.15a.71.71,0,0,1-.87-.76A.65.65,0,0,1,39.95,26.85ZM46.8,27a1.61,1.61,0,0,0,0-2.61c-.86-.67-2.16.17-2.34,1.28A1.48,1.48,0,0,0,46.8,27Zm-1.51-1.31c.08-.49.65-.86,1-.56a.71.71,0,0,1,0,1.15A.65.65,0,0,1,45.29,25.73Zm2.52,15c.13-.44-2.5-8-2.5-8A7.42,7.42,0,0,0,46.62,31a6.9,6.9,0,0,0,.75-1.75A17.29,17.29,0,0,0,50,28.34c.44-.31,1.25-1.69,1.25-4.12A5.53,5.53,0,0,0,50,20.28c-.31-.31-1.5.31-1.5.31a14.7,14.7,0,0,0-4.69-9.81C38.93,6.06,32.87,4.4,24.75,8.15s-9.5,12.44-9.5,12.44-1.81-.06-2.25.47-.16,4.94,0,6.09S15.78,29,15.78,29s-.16.19,1.06,2.41a10.3,10.3,0,0,0,3.84,3.56s-.56,5.22-.66,5.84,1,1.31,1,1.31-4.78,13.69-4.72,14,3.13,1.13,3.47.94,5.09-13.56,5.09-13.56a2.12,2.12,0,0,0,1.5-.59c.44-.59,2.38-5.22,2.38-5.22a9.16,9.16,0,0,1,1.16.16c.09.06.09,3.41.09,3.53s.78.44.88.56.22,13.63.59,13.72a12,12,0,0,0,3-.06c.13-.16-.44-13.59-.44-13.59a1.67,1.67,0,0,0,.56-.12c.13-.09-.12-4.09-.12-4.09l1.91-.34a11.46,11.46,0,0,0,1.91-.47l2,4.72a1.12,1.12,0,0,0,1.5.75s5.38,15.13,5.69,15.44,3.13-.56,3.38-1.12-5-14.94-5-14.94S47.69,41.22,47.81,40.78ZM22.41,11.59a15.54,15.54,0,0,1,12.28-3.5,15,15,0,0,1,9.47,6.13c1.66,2.59,2.5,7.09,2.25,7.28a1.62,1.62,0,0,1-.59.25s-3.19-6.19-3.41-6.16-.87.38-.66.66a65.37,65.37,0,0,1,3.38,5.81,9,9,0,0,1-1.09.31s-2.53-4.25-2.75-4.31-.56.25-.5.41,2.63,4.16,2.41,4.22-1.34.25-1.34.25S39.94,20,39.81,20s-.75.41-.69.59,2.25,2.44,2,2.56a16.59,16.59,0,0,1-1.78.41,17.65,17.65,0,0,0-1.09-1.94c-.12,0-.87.38-.81.47a10.75,10.75,0,0,1,1,1.72c-.09.06-2.56.72-9,.41s-9.22-1-11-1.78-1.94-1.87-1.94-1.87S18.81,14.44,22.41,11.59Zm-7.84,15c0-.22-.28-3.91,0-4.09S16.78,24,20,24.65a37.49,37.49,0,0,0,11.59,1.16A52,52,0,0,0,44.5,24c1.91-.66,4.19-1.94,4.47-1.5a5.57,5.57,0,0,1,.22,2.81,4.52,4.52,0,0,1-1.09,2.31c-.12.16-9.09,2.75-14.87,2.78s-12.41-.66-15.53-2.12S14.59,26.78,14.56,26.56Zm4.09,29.31a8.15,8.15,0,0,1-.81-.19s4.53-12.84,4.72-12.81.94.25.91.34S18.78,55.87,18.66,55.87Zm13-14.81c0-.16,0-3.25,0-3.34s1.34-.12,1.44.09,0,3.28,0,3.28S31.69,41.22,31.66,41.06Zm1.59,11.19c-.12.13-.56.06-.56.06s-.25-9.75-.25-9.84l.31,0S33.37,52.12,33.25,52.25Zm8.5-11.59s-3-7.16-3.25-7.28-1.53.34-1.47.5.56,1.19.56,1.31a14,14,0,0,1-4.34.94c-2,.13-4.12.22-4.12.22s.47-1,.34-1.12-1.5-.66-1.62-.47-2.06,6.63-2.47,6.69A6.71,6.71,0,0,1,23.06,41a3.41,3.41,0,0,1-1.25-.66c0-.09,1.5-7.56,1.38-7.75s-1.59-.81-1.72-.56S21,33.25,21,33.25a8.16,8.16,0,0,1-2.91-3.38c0-.08,2.56,1.91,8.66,2s8.41.16,12.69-.62a40.66,40.66,0,0,0,6.13-1.47L43.5,32.9c-.19.28,1.09,2.78,1,2.78s-1.44-.75-1.56-.53-.34.66-.19.75,1.81.69,1.94.75a2.89,2.89,0,0,1,.41.72s-2.22-.72-2.31-.69-.19.81,0,.88a19,19,0,0,1,2.47.75c.09.16.34.53.22.56a19.46,19.46,0,0,0-2.53-.56c-.09.16-.16.53,0,.66s2.47.59,2.41.78A27.1,27.1,0,0,1,41.75,40.65Zm7.16,13.94a1.39,1.39,0,0,1-.81.22C48,54.75,43.34,42,43.41,42s.72-.47.84-.34S49,54.47,48.91,54.59ZM20.62,17.25a9.25,9.25,0,0,1,2.78-3.19c.13,0-.53-.87-.72-.91A14.22,14.22,0,0,0,20,16.37a12.09,12.09,0,0,0-1.72,3.78,2.1,2.1,0,0,0,.84.41C19.28,20.53,19.62,19.15,20.62,17.25Z"/></g></svg>