<svg id="Layer_1" data-name="Layer 1" xmlns="http://www.w3.org/2000/svg" width="64" height="64" viewBox="0 0 64 64"><defs><style>.cls-1{fill:#1d1d1b;}</style></defs><title>sputnick-1</title><g id="sputnick-1"><path class="cls-1" d="M35.25,21.65a1.34,1.34,0,0,0-.87,2.25c.59.69,2.09.94,2.31-.56S35.88,21.58,35.25,21.65ZM35,23.53c-.37-.19-.19-.94.25-1a.54.54,0,0,1,.59.59A.58.58,0,0,1,35,23.53ZM39.85,13a9,9,0,0,0-2.62.63c-.09.09.16.88.34.91s.59-.31,2-.66a5.82,5.82,0,0,1,2.78.09,4.73,4.73,0,0,0,0-.91C42.22,12.9,41.35,12.87,39.85,13Zm4.63,17.53a1,1,0,0,0-1,1.44,1.17,1.17,0,0,0,1.84.16C45.85,31.56,45.34,30.58,44.47,30.53ZM39.1,26.28c-1.31.31-1,1.72-.25,2.34a1,1,0,0,0,1.69-1A1.39,1.39,0,0,0,39.1,26.28Zm.66,1.56c-.16.19-.44.13-.62-.06s-.22-.72.19-.66C39.51,27.15,39.91,27.65,39.75,27.84ZM29.6,22c-.09-.16-.87,0-.94.13a4,4,0,0,0,0,1.72,8.34,8.34,0,0,0,1,2.09c.09.13.88-.28,1-.53S30.44,25,30,24.06A5.11,5.11,0,0,1,29.6,22Zm2.59-6.19c-1,.28-1.78,1.84-1,2.59a1.5,1.5,0,0,0,2.59-.78C34,16.15,33.12,15.57,32.19,15.84Zm.58,1.6a.46.46,0,0,1-.79.24c-.23-.23,0-.71.32-.79S32.85,17,32.77,17.44Zm20.8,4.87c0-4.69-1.31-7.19-6.34-10.75s-12.41-1-12.41-1A1.55,1.55,0,0,0,34,10a8.63,8.63,0,0,0-3.66,1.5,9.68,9.68,0,0,0-2.81,3.28,4.66,4.66,0,0,0,.13,1.91,10.56,10.56,0,0,0-1.44,3.69,15.43,15.43,0,0,0-.09,4.91s-1.66,1.59-2.84,2.81-6.44,6.44-6.56,6.72.41,1,.41,1-6.59,7.28-6.72,7.44.56.59.84.63,7.38-6.78,7.38-6.78.34.25.5.22,9-8.56,9-8.56a7.15,7.15,0,0,0,.59.91,16.9,16.9,0,0,0,1.41,1.53A29.77,29.77,0,0,1,27.75,34c-1.56,1.66-5.5,6.66-5.59,6.84s.59,1,.63,1.09-8.31,10.72-8.37,10.88.44.69.66.72S25,43.44,25,43.44a.69.69,0,0,0,.47.16c.25,0,8.88-9.47,8.88-9.47a9,9,0,0,0,2.22,1.22,16.71,16.71,0,0,0,3.56.56s-5,9.25-5.16,9.75a1,1,0,0,0,.16,1c.06.09-3.94,6.91-4,7.16s.16.53.56.56,5.19-6.41,5.47-6.62,5.78-11.59,5.94-11.94,1-.06,1-.06.88.31,1,.38.56.19,1.56-.19a9.06,9.06,0,0,0,3.25-2.47,6.08,6.08,0,0,0,.41-2.53S53.56,27,53.56,22.31ZM27.47,27.87c-.12.06-8.31,8.41-8.5,8.34s-1.31-1-1.19-1.22,8.59-8.5,8.84-8.56A3.13,3.13,0,0,1,27.47,27.87ZM19.13,48.4c-.12,0,4.16-5.66,4.22-5.72l.47.44S19.25,48.44,19.13,48.4Zm16.94-.81c-.09.06-1.44,1.78-1.53,1.78a21.5,21.5,0,0,1,1.16-2C35.91,47.44,36.16,47.53,36.06,47.59Zm.72-1.19c-.19,0-.78-.22-.78-.34s5.22-10,5.25-10.09.69,0,.69,0S37,46.4,36.78,46.4Zm1.47-12.22a6.53,6.53,0,0,1-3.06-.87s1.16-1.09,1.06-1.19-.91-.78-.91-.78-10.09,11.09-10.25,11-1.84-1.28-1.75-1.44S33.41,29,33.31,28.81s-.56-.72-.66-.62-1.25,1.53-1.25,1.53a14.61,14.61,0,0,1-3-4.53c-.91-2.44-.28-6.56.25-6.75a26.46,26.46,0,0,0,6.75,9.66c5.06,4.72,6.66,6,6.56,6.09A13.27,13.27,0,0,1,38.25,34.19Zm9-.87a3.76,3.76,0,0,1-2.31.88A57.69,57.69,0,0,1,37,27.72c-4.12-4-6.81-8.84-7.69-12.59a6,6,0,0,1,2-2.06,9,9,0,0,1,2-1,16.09,16.09,0,0,0,3.16,8.81c3.19,4.31,6.78,8,8.63,8.69s4.19,1,4.09,1.16A9.28,9.28,0,0,1,47.22,33.31Zm2.22-4.87c-.09,0-2.66-4.12-2.84-4.19s-.72.25-.66.44,3,3.94,2.81,4.09A1.7,1.7,0,0,1,48,29s-2.66-4-2.84-4-.94.56-.75.72,2.56,3,2.28,3a24.54,24.54,0,0,1-6.66-5.94c-2.53-3.31-5-8.56-4.66-10.69a12.35,12.35,0,0,1,10,.47c5.19,2.5,6.28,8.81,6.28,8.81s-1.22-1.5-1.44-1.44-.44.41-.34.5a18.63,18.63,0,0,1,1.75,2c.06.25,0,1,.06,1.41a3.77,3.77,0,0,1-.06.88,32.18,32.18,0,0,0-2.62-3c-.22,0-.59.47-.44.59a29.81,29.81,0,0,1,2.84,3.16A5.37,5.37,0,0,1,50.72,27c-.12,0-2.69-3.81-2.84-3.87s-.72.38-.66.5,3,3.84,3,4.13S49.53,28.4,49.44,28.44Z"/></g></svg>