<svg id="Layer_1" data-name="Layer 1" xmlns="http://www.w3.org/2000/svg" width="64" height="64" viewBox="0 0 64 64"><defs><style>.cls-1{fill:#1d1d1b;}</style></defs><title>sun</title><g id="sun"><path class="cls-1" d="M61.5,33.39C61,32,58.38,31,58.19,29.86s2.22-1.31,2.16-3.75-1.37-2.69-2-2.91-1.81-.16-2.53-.72S55.66,21.18,56,20s1-2.5.25-3.75-5-1.19-5.37-1.59,1.34-3.06-.19-5-5.5-.12-6.53-.59-.59-1.22-.91-3-1.87-1.91-3.37-1.78-4,2-4.44,1.91-2-2.75-3.69-2.91-3.34,2-3.75,2.16-.44-.19-.84-.5a2.85,2.85,0,0,0-3-.72c-1.72.59-2,2.84-2.81,3.28s-2.91-1.19-4-.31-.06,3.5-.44,3.91-.84-.22-1.34-.47a3.65,3.65,0,0,0-3,.16c-1,.63.06,3.53-.56,4.06s-2.72-.31-3.75-.06-1.78,2-1.75,3,1.66,2.91,1.5,3.47-2.31.22-3.37.72-1.12,2.66-.81,3.66,2,2.41,2.34,3.13S4.09,30.61,3.09,31s-.87,1.28-.59,2.09,2,1.72,2.75,2,.31,1.19.13,2S3.56,39.3,4.06,41.21s3.13,3,3.59,3.56S7.25,46,6.56,47.08a3,3,0,0,0,.34,3.47c.81.88,3.06.47,3.88.47s1,.72,1,1.25a3,3,0,0,0,1.44,2.66c1.5,1.22,3.5-.31,4.53,0S18.09,56.68,19,58a4.11,4.11,0,0,0,3.59,1.94c1.34-.09,2.47-2.06,3.41-1.94s.75,1,1.28,1.63a2.68,2.68,0,0,0,3,1c1.66-.34,2.63-1.94,3.56-2.25s.84.34,1.78.78a4.32,4.32,0,0,0,3.66.28c1.56-.59,1.81-3.34,2.5-3.56s1.34.91,2.72,1.06a3,3,0,0,0,3.13-1.22c1.09-1.19,1-3.69,1.53-3.91s.94.25,2.13.44a2.37,2.37,0,0,0,2.63-1.28c.5-1-.62-3.75-.34-4.19s1.16-.22,1.88-.16,1.81.31,2.31-.59.56-1.44.16-3.12a17.52,17.52,0,0,1-.19-4.41c0-.53.78-.53,2.34-1.41A2.83,2.83,0,0,0,61.5,33.39Zm-5.84,4.44c-.31,1.31.88,6.81.22,7.13s-2.94-.19-3.81.59,0,4-.62,4.53-2.69-.44-4,.56-1,4.34-1.94,4.47-2.69-1.78-4.66-.87-1.66,3.13-2.78,3.31S36,55.93,33.78,56.39,31,58.86,29.72,58.71s-1.62-2.66-3-2.78S23,58.3,21.66,57.77s-.28-3.47-2.25-4.37-4.09.25-5,.06-.37-2.59-.87-3a4.1,4.1,0,0,0-2.84-1.19c-1.59,0-2.5-.12-2.13-1s2.34-2.78,1.59-3.59S6,42,6.16,40.55s1.91-3.44,1.47-4.84a3.75,3.75,0,0,0-1.81-2.28c-.53-.31-1.69-1-1.06-1.41S8.53,30.11,8.38,29,6.31,26.74,6,25.52s-.28-2.12.28-2.31,3.66-.34,4-1.44-1.44-3-1.53-3.84.19-1.53,1-1.44,3.34.75,4.06-.78.16-3.37.59-3.41,1.72,1.13,3.25.53,1.22-2.44,1.28-2.78-.25-1.22.44-1.25S22.69,10,23.5,8.64s.59-2.84,1.16-2.91,1.5,1.84,2.94,1.78A4.24,4.24,0,0,0,30.28,6c.5-.41,1.47-1.06,1.69-1s1.62,2.88,3,3.28,2.34-1.16,3.41-1.69,1.75-1.12,2.47-.66.06,3.56,1.81,4.56,4.72-.66,6.13,0-.34,4.59.34,5.38,4.72.28,5.38,1.47-1.5,3.31-1.22,4.91,1.5,1.72,2.84,2.31,2.09.22,2.16,1.41-2.94,3-2.19,4.88,3.25,2.16,3.16,3.56S56,36.52,55.66,37.83Zm-9.19-6.16c.13-4.75.06-6.06-4.06-10.87s-7.89-5.59-12-5c-5.41.81-9.34,2.63-11.16,5.66s-3.91,9.06-2,14.09,5.38,8.16,10.63,10.16,11.59-.16,14-2.31S46.34,36.43,46.47,31.68ZM40.28,42A12.85,12.85,0,0,1,28.5,44.08c-4.16-1.5-7.47-4-9-8.56s-.09-9.59,1.22-12.28,5.5-5.31,10.09-5.84a12.11,12.11,0,0,1,10.84,5.09c2.78,4,3.63,5.34,3,10.12S42.91,39.77,40.28,42ZM25.34,22.24a6.33,6.33,0,0,0-4.12,3.31,10,10,0,0,0-.5,5.19c.19.25,1.16.06,1.34-.22s-.19-2.66.81-4.41S25.69,23.8,26,23.49,25.68,22.24,25.34,22.24ZM23.44,16c.44.34.25-.06.44-.28S21.6,11.85,21.34,12c-.09.06-.59.25-.69.5A18.61,18.61,0,0,0,23.44,16Zm4.44-2.44a14.47,14.47,0,0,0-1.66-3.44c-.22-.16-.62,0-.62.19s1.66,3.44,1.81,3.53S27.75,13.8,27.88,13.58Zm3.72-.5a27.11,27.11,0,0,0,0-4.5c-.06-.19-1-.32-1.09-.06a28.16,28.16,0,0,0,.66,4.56C31.28,13.27,31.41,13.18,31.59,13.08Zm5.69,1.47a47.92,47.92,0,0,0,1.53-5.34c.06-.37-.25-.26-.41-.16a52.8,52.8,0,0,0-1.84,5.28C36.56,14.52,37.09,14.58,37.28,14.55ZM43,17.49c.19.06,3-3.69,3.09-3.78s-.12-.22-.34-.31a17.51,17.51,0,0,0-3.41,3.38A2.06,2.06,0,0,0,43,17.49Zm3.66,4.88c.16.06,3.63-2.72,3.75-2.81s0-.34-.22-.44a27.16,27.16,0,0,0-3.84,2.53S46.5,22.3,46.66,22.36Zm2.28,4.56a.82.82,0,0,0,.22,1c.34.28,3.06-.31,3.22-.37s.09-.25-.06-.44S49.15,26.61,48.94,26.93Zm4.91,7.31c.09-.25-4.61-1.77-4.87-1.5a1.27,1.27,0,0,0-.12.94,40.67,40.67,0,0,0,4.81,1.13C54.09,34.8,53.75,34.49,53.84,34.24Zm-5.12,2.91a1.79,1.79,0,0,0-.37.81,22.92,22.92,0,0,0,4.25,1.13c.16,0,.09-.06.16-.41S48.82,37.07,48.72,37.14Zm-3,5.28c0,.09-.44.47-.47.66a21,21,0,0,0,3.53,2.59c.19,0,0,0,.13-.22A16.31,16.31,0,0,0,45.69,42.43Zm-3.12,3.22c-.09,0-.41.25-.53.41a20.9,20.9,0,0,0,2.66,3.47c.19.06.38-.12.5-.37S42.75,45.71,42.56,45.64Zm-4.69,2.44a2.5,2.5,0,0,0-.81.16,38,38,0,0,0,2.22,4.34c.09.06.53-.12.69-.28A16.62,16.62,0,0,0,37.88,48.08Zm-5,1.28c-.12.13-.34,5.13-.31,5.28s.47.13.47.13.63-5.22.63-5.34S33,49.25,32.88,49.36Zm-4.38-.5c-.06.09-.81,3.81-.78,4s.28,0,.47-.12a23.07,23.07,0,0,0,.91-3.78C29.09,48.68,28.59,48.73,28.5,48.86ZM23,47.46a19.35,19.35,0,0,0-1.28,3.59c0,.09.41.19.59.16a19.19,19.19,0,0,0,1.41-3.34C23.78,47.61,23.17,47.33,23,47.46Zm-4.37-3.19c-.22.19-2.94,3.72-3,3.88s.5.25.62.28A46.21,46.21,0,0,0,19,44.55.23.23,0,0,0,18.66,44.27Zm-3.72-3.5c-.34.09-2.94,2-3.09,2.06s.31.47.5.53a14.7,14.7,0,0,0,3-2C15.34,41.14,15.09,40.73,14.94,40.77ZM14,36.33a25.75,25.75,0,0,0-4.06.47s0,1,.13,1.06a34.74,34.74,0,0,0,4-.87C14.34,36.86,14.13,36.49,14,36.33Zm-.84-5.69a18.68,18.68,0,0,0-3.56,0c-.19.06-.19.63-.09.69a30.9,30.9,0,0,0,3.75-.22C13.41,31,13.28,30.83,13.16,30.64Zm1.44-4.19c.19,0,.13-.06.19-.37s-4.12-1.74-4.25-1.66-.5.69-.28.78S14.41,26.49,14.59,26.46Zm1.66-4.09c.25.13.22-.12.28-.37s-3-1.72-3.22-1.72-.56.47-.44.63S16,22.24,16.25,22.36ZM19.56,18c.13.09.5-.12.69-.25S17.66,15,17.44,14.86s-.34.22-.5.44S19.44,17.89,19.56,18Z"/></g></svg>