<svg id="Layer_1" data-name="Layer 1" xmlns="http://www.w3.org/2000/svg" width="64" height="64" viewBox="0 0 64 64"><defs><style>.cls-1{fill:#1d1d1b;}</style></defs><title>uranus</title><g id="uranus"><path class="cls-1" d="M20.65,21c.44-.06.25-.53,1.22-1.62a8.15,8.15,0,0,1,2.38-1.75c.16-.09-.06-.47-.22-.47a9,9,0,0,0-2.44,1.41,6.37,6.37,0,0,0-2.06,2.09C19.37,20.77,20.21,21,20.65,21Zm26.84,1.16a7.54,7.54,0,0,0-2.72-1.41,1.12,1.12,0,0,0-.34.69,10.6,10.6,0,0,0,2.72,1.16C47.56,22.55,47.4,22.3,47.49,22.11Zm.41,3.19c.34,0,.16-.16.16-.44s-4.25-2.22-4.25-2.22-.47.5-.41.72A28.26,28.26,0,0,0,47.9,25.3Zm-.81,2.13c.31,0,.16-.22.19-.47s-5.34-2.87-5.5-2.87-.37.69-.41.88A46.25,46.25,0,0,0,47.09,27.42ZM44.46,28a29.32,29.32,0,0,0-4.22-2.12,2.19,2.19,0,0,0-.41.81,33.88,33.88,0,0,0,4.34,1.66C44.4,28.39,44.37,28.24,44.46,28Zm-2.81,8.41c-.12.06-.53.31-.59.56s4.38,3,4.63,3,.19-.16.22-.41A20.5,20.5,0,0,0,41.65,36.46Zm2.16-1.34c-.28-.06-.7.29-.75.38a28.89,28.89,0,0,0,4.25,2.94c.31.06.25-.22.25-.5A21.37,21.37,0,0,0,43.81,35.11Zm2-1.66c-.37-.06-.68.34-.53.44s2.5,1.75,2.69,1.75.28-.34.34-.62S46.15,33.52,45.77,33.46Zm10.84-5a20.49,20.49,0,0,0-4.84-2.94s-1.19-3.34-2.41-5.84a16,16,0,0,0-11-7.47c-5.31-.69-9.75-.94-16.13,2.16a22.14,22.14,0,0,0-9.34,9.16,21,21,0,0,0-6.19,3.13A5.67,5.67,0,0,0,7.27,36,42.32,42.32,0,0,0,13,38.91a23.72,23.72,0,0,0,4.5,7.39c2.94,2.94,5.28,5.25,11.63,5.75s8,0,11.31-1.81a34,34,0,0,0,7.19-5.47,29.7,29.7,0,0,0,3.11-3.16c4.31-1.19,6.93-2.83,8.11-5.53C60.12,33.14,59.56,30.71,56.62,28.46Zm-44,8c-.09,0-4.94-2-5.75-4.75s3.37-5.53,5.41-6.41a14.65,14.65,0,0,0-.44,6.22C12.34,34.83,12.68,36.52,12.59,36.49Zm3.87-14.88a18,18,0,0,1,9-6.75,22.13,22.13,0,0,1,14.28-.28c2.28.69,5.41,2.34,5.25,2.59a1.28,1.28,0,0,1-1.06.56c-.62.06-2.84-.37-4.78.44s-2.5,1.47-3.87,1.5a23.08,23.08,0,0,0-6.47.53c-2.91.75-3.47,1.66-5.69,1.94a43.81,43.81,0,0,1-6.25.31C16.47,22.37,16,22.14,16.46,21.61ZM15,24.33a7.5,7.5,0,0,1,2.87-.41c1.75,0,2.91.66,6.22-.37s4.06-1.81,5.75-1.84,3.34.5,5.91-.25,3.69-1.56,5.06-1.84,3.84-.22,4.34-.31,1.69-.41,1.88-.22a27.33,27.33,0,0,1,2.59,5.53c.94,2.75,1.06,3.66.88,4A10.69,10.69,0,0,1,45,30.14c-2.78.09-4.47-1.75-9-1.59s-8.94.91-11.06.66-3.5-1.34-6.06-1.22a13.58,13.58,0,0,0-3.91.44c-.87.28-1,.72-1.12.22S14.18,25.11,15,24.33ZM39.74,49.08a27.18,27.18,0,0,1-15.22.22c-3.75-1.25-6.62-5.56-7-6.12a19.11,19.11,0,0,1-1.56-3.09c0-.28,7.59,2.56,12.59,2.94A81,81,0,0,0,42,43.24c4.66-.37,5.88-.66,5.88-.53A19.11,19.11,0,0,1,39.74,49.08ZM50.65,36.14c-.56,2.88-.91,3.78-1.06,3.94a30.86,30.86,0,0,1-5.84.94c-.41-.19-4.25-3.12-4.47-3.12s-.72.22-.59.44S43,41,42.74,41.17a37.62,37.62,0,0,1-12,.19A84.25,84.25,0,0,1,17.09,38.3,4.9,4.9,0,0,1,15,37.46a19.42,19.42,0,0,1-1.25-4.78c-.19-1.75.25-2.09.5-2.34s.94-1.16,3.69-.72,4.25,1.78,7.31,1.22,9.63-.91,12.34-.34,2.06,1.56,6.53,1.38,6.5-1.5,6.72-1.19A12.5,12.5,0,0,1,50.65,36.14Zm4.25,1.44c-1.91,1.66-3.47,2.06-3.41,1.91a18.51,18.51,0,0,0,1.41-6.06A38.49,38.49,0,0,0,52.46,28s3.44,1.22,4.47,3.84S56.81,35.92,54.9,37.58ZM28.24,44.17c-.28-.16-1.91.5-2.5.56s-.87-.28-1.25-.59-1.34-.12-2-.06-1.46-.88-1.75-.59.16,1.28.94,1.41a5.17,5.17,0,0,0,1.81-.12c.44-.06,1.28.78,2.38.81a5.2,5.2,0,0,0,2.72-1.09C28.74,44.3,28.52,44.33,28.24,44.17ZM34,48a4.14,4.14,0,0,1-1.84.22,20,20,0,0,1-3.66-.84c-.41.09-.22,1,.22,1.28s.59.19,1.47.16,2.91.06,3.63,0a2.65,2.65,0,0,0,1.5-.56c.16-.19,0-.25-.12-.41S34.27,47.86,34,48Zm4.78-2.37c-.22-.19-1.33.23-1.53.34s0,.69.28.72A4.22,4.22,0,0,0,39,46.11C39.4,45.89,39,45.77,38.81,45.58Z"/></g></svg>