<svg id="Layer_1" data-name="Layer 1" xmlns="http://www.w3.org/2000/svg" width="64" height="64" viewBox="0 0 64 64"><defs><style>.cls-1{fill:#1d1d1b;}</style></defs><title>venus</title><g id="venus"><path class="cls-1" d="M42.42,11c.47-.09,0-.34-.19-.56a9.63,9.63,0,0,0-3.72-.5c-.31.16-.22.81.06.94A22,22,0,0,0,42.42,11ZM41,14.66c-.84.19-2.23.54-2.34.56s0,.78.16.91a21.29,21.29,0,0,0,3.41-.84c.63-.19.28-.34.25-.53S41.79,14.47,41,14.66Zm-13.09.88c.47,1.44,2.19,1.75,3.81,1.81a4.88,4.88,0,0,0,4-3.06c.19-1.16-2.44-2.53-3.47-2.44C28.45,12.19,27.39,14.1,27.86,15.53Zm4.25-2.91c1.13,0,2.75,1,2.47,1.75a4.57,4.57,0,0,1-2.91,2.09c-.91,0-3-.09-2.87-1.44S30,12.63,32.11,12.63ZM35.17,20a7.67,7.67,0,0,0,2.75.09c.5-.09.19-.34.16-.72s-2.09-.55-2.53-.41A1.93,1.93,0,0,0,35.17,20Zm-10-8.16c.31-.06.28-.19.88-.59a5.75,5.75,0,0,1,1.59-.5c.22-.12.06-.34,0-.5s-.47-.12-1.47.09-1.75.63-1.69.72S24.89,11.88,25.2,11.81Zm-5.59,6.44c1.59.72,4,0,4.53-.06a1.68,1.68,0,0,0,1.38-1.34,3,3,0,0,0-1.31-3.19,6.12,6.12,0,0,0-4.72.66C17.26,16,18,17.53,19.61,18.25Zm.63-3.5c.45-.29,2.78-.94,3.44-.53s1.34,1.63,1.06,2.25-1.28,1.06-2.66,1.09-2.66,0-2.78-.78A2,2,0,0,1,20.23,14.75ZM23.42,27a2.34,2.34,0,0,0,1.31-3.31c-.81-1.75-3.34-1.93-4.28-1.62-3.12,1-3.59,2.31-2.16,4.22S22.39,27.47,23.42,27Zm-3.06-4.16a3.68,3.68,0,0,1,3.31.88c1,1,.34,2.09-.75,2.59s-2.94.81-3.78-.62S18.7,23.25,20.36,22.81Zm6.56-2.5c-.31.06-.81.47-.47.91a.8.8,0,0,0,1.31-.28C27.89,20.44,27.21,20.26,26.92,20.31Zm.91,3.5c-.09,0,0,.72.22.84a3.56,3.56,0,0,0,1.59-.12c.28-.12.09-.31.16-.53S28.3,23.66,27.83,23.81ZM25.7,29.88c-.19.06-.06.72.06.84s1.09-.16,1.31-.34.09-.37,0-.62S26,29.77,25.7,29.88Zm-8.44.5c.41.09.53-.12,1.19-.25a2.35,2.35,0,0,1,1.38.25c.31.09.22-.09.38-.28s-.22-.44-.94-.69a5.54,5.54,0,0,0-2.09-.22C16.86,29.28,16.86,30.28,17.26,30.38Zm-7.16-.47c.41,0,1.22-.91,1.53-1s1.56.59,2.09.56.38-.47.53-.75-.37-.19-.78-.25A8.62,8.62,0,0,1,11.89,28c-.53-.22-2.23.87-2.31,1.06S9.7,29.91,10.11,29.91Zm2.06-6a5.91,5.91,0,0,0,2.13-.72c.19-.22.06-.44-.19-.69s-2.13.5-2.31.78C11.73,23.35,12,23.78,12.17,23.88Zm14,29.22-1.75-.22c-.09.16-.22.75.13.91a12.37,12.37,0,0,0,3.34.19c.19-.16-.09-.66-.19-.75A13.25,13.25,0,0,0,26.2,53.1ZM32,52c-.69,0-.78-.5-1.87-.94A2.26,2.26,0,0,0,28,51.5s.25.75.41.81.66-.16,1.34-.22,1.78.69,2,.78a3.28,3.28,0,0,0,1.25.19c.31-.06-.06-.56-.19-.81S32.67,52,32,52Zm2.12-4.59a7.48,7.48,0,0,0-2.53.69c0,.09-.19.63,0,.81a6,6,0,0,0,2.62-1.09C34.39,47.56,34.23,47.63,34.11,47.44ZM35,43.13c-.28.06-2.53.19-2.53.19l-.06.5s.91.22,1.22.25a5.13,5.13,0,0,0,1.59-.31C35.29,43.66,35.29,43.06,35,43.13Zm7.53,5.69s-.47.34-.47.72,3.06,3.16,3.06,3.16a1.13,1.13,0,0,0,.56-.34C46,52.06,42.64,48.91,42.54,48.81Zm.88-19.22c-.78-.22-.81.34-1.47.53S40.89,29,40.39,28.75a1.48,1.48,0,0,0-1.16,0,.55.55,0,0,0,.59.38c.31-.06.41.44.59.81a1.74,1.74,0,0,0,1.59.75c.84,0,.69-.19.91-.34s1.91.47,2.16.44.22-.22.28-.34A5.5,5.5,0,0,0,43.42,29.6Zm3.41.5c0,.06-.16.5.13.78s.63.09.94,0,.38-.31.28-.66S46.83,29.72,46.83,30.1Zm2.63-4.59c-.28,0-1.28,1.83-1.25,2s.34.38.66.38S50,26.47,50.14,26.1,49.73,25.53,49.45,25.5ZM60.2,23.38c-1.44-3.44-4-10-11.81-14.16a31.21,31.21,0,0,0-17.16-4,41.91,41.91,0,0,0-15.69,5C12.36,12.1,5.79,17.78,4.48,23.53S2,35.6,5.79,42.53,13.17,52.88,18.39,56,33.2,59.85,41.7,57.1s9.5-6.66,14.19-12.81S61.64,26.81,60.2,23.38ZM5.29,34.1c-.28-.25-.72-5.66,1.09-10.31s6.91-10.34,10.47-12.34A33.09,33.09,0,0,1,31.73,7.22c6.13-.37,10.06.94,14.34,2.62s6.56,4.81,8.69,7.25,2.16,3.63,2.16,3.63-2.06-.78-3.19.13-2.22,2-2.22,1.88A24.84,24.84,0,0,1,51,19.1,8.9,8.9,0,0,0,50.51,16a9.71,9.71,0,0,0-.91-1.47c-.34-.53-.34-.84-.75-1s-1.12.16-1,.44,1.19,1.88,1.06,2.41-1.37,1.91-1.47,2.44a2,2,0,0,0,0,1.22,9.14,9.14,0,0,1,.59,3.06c-.09.94.13,1-.12,1s-.56.22-.78,0-.31-2.41-1.12-3.53-3.31-2.09-4-2.22a1.55,1.55,0,0,0-1.37.22,1.66,1.66,0,0,0-.28.78s.56.59.91.41a1.09,1.09,0,0,1,1.06-.16c.56.16,1.66.69,1.59,1s-.06.44-.22.44-1.94-.69-2.25-.5-.53,1.16-.09,1.25,3.44.72,3.63,1.22a1.87,1.87,0,0,1-.53,2.19c-.84.53-1,.91-3.56-.41S38,23.13,36.29,23.19a16.06,16.06,0,0,1-2.47.09c-.47-.09-3.34-3-3.75-2.78s-.78.66-.62.91S32,23.91,32,24.25s-.84,3.16.19,3.84,3.41,1.41,3.66,2.16a1.2,1.2,0,0,1-.16,1.19,16.88,16.88,0,0,1-3.66.88c-.91-.06-2.94-1.44-5.81-.53a24.71,24.71,0,0,1-7.41,1.5c-2.28,0-4.62-1.22-6.84-1.22a9.09,9.09,0,0,0-4.16.69C6.92,33.16,5.58,34.35,5.29,34.1ZM15.36,51.35a55,55,0,0,1-5-5.28C7.79,43,7.51,41.13,7.58,41c.16-.4,2.84-1.62,3.25-1.91s1.47-1.53,2.16-1.12a8.86,8.86,0,0,0,5.22,1.53c2.44-.22,5.91-1.37,6-1.12a16.66,16.66,0,0,1-2.59,4.81c-.66.44-3.69.47-4.72,1.63a7.55,7.55,0,0,0-1.53,4.28C15.36,50.19,15.36,51.35,15.36,51.35Zm21.28,5.31c-.12.25-4.44,1.09-7.91.44S23,55.78,23,55.78s-2.25-4-2.06-4.5a3,3,0,0,1,3.31-1.47c2,.41,4.22.91,5.41-.66s.94-3.44,1-4.06-.06-2.78.44-2.81,3.41-.12,4-.69a14.22,14.22,0,0,0,1.91-3c.13-.37.41-1.75.66-1.78a10,10,0,0,1,2.38,0c0,.16,1.06.81-.12,2.28s-2.06,2.19-2.41,3,.38,3.69.5,4.75.56,1.53-.12,2.13-2.5,1.66-2.34,3.69S36.76,56.41,36.64,56.66ZM54.58,43.41C52.64,45.78,50,50.1,48,51.78a23,23,0,0,1-4.37,2.78A35.6,35.6,0,0,0,41,51.31c-.25-.06-1.12.19-1,.34s2.81,3.16,2.63,3.31a3.12,3.12,0,0,1-1.25.47,32.37,32.37,0,0,0-2-2.87c-.22-.09-1,0-.84.25s2,2.78,1.84,2.94a12.42,12.42,0,0,1-1.91.56,11.53,11.53,0,0,1-1-2.62c-.22-1.16-.37-2.12.56-2.87s2.59-1.75,2.06-3.66-1.19-3-.91-3.81S41,40.81,41.33,41s.19,1.53.75,2.19a8.72,8.72,0,0,0,1.69,1.34s.5,2.81,1.09,3.53,1,.69,1.34,1.28.41,1.09.81,1,.5-.25.44-.44-.53-1.16-.34-1.22.81.63,1.06.47.75-.62.66-.72-.81-.84-1.12-.91l-.94-.19s-.91-2-1.34-2.87A10.46,10.46,0,0,0,44,42.66c-.41-.56-1.06-2.5-.72-2.56s1.34.94,2.5,1a4.86,4.86,0,0,1,3.31,1.22,6.35,6.35,0,0,0,3.5,1.47,6.42,6.42,0,0,0,1.69-1.41,1.19,1.19,0,0,0,.41-1.22c-.16-.34-1.94-3.94-1.91-4.09a23.73,23.73,0,0,1,3.84-.22c.44,0,.72.13.69.22A17.37,17.37,0,0,1,54.58,43.41Zm3.22-8.12a9.28,9.28,0,0,0-3.25-.37c-1.59.16-.94.53-2.22.06s-2.78-1.75-3.41-1.78a1.85,1.85,0,0,0-1.47.63,9.72,9.72,0,0,0,1.22,2.59c.38.59.56.84,1.25.94s1,0,1.31.47A24.11,24.11,0,0,1,53.14,42c-.09.25.09.41-.31.28S50.11,40.19,48,39.75a17.21,17.21,0,0,1-3.47-.84c-.25-.19-.56-.37-.53-.53s.22-1.69,0-1.87a2.68,2.68,0,0,0-.87-.31s-.28,1.63-.47,1.5-.41,0-.41-.28-.34-1.31-.19-1.59.41-.22.28-.53-.87-.84-.87-.84a11.59,11.59,0,0,1-3.06.75c-1.34.06-2.53.13-2.56.47A8.35,8.35,0,0,1,34.7,39.1c-.87,1.38-.31,1.47-1.16,1.56s-4.12-.41-4.37,0A10.62,10.62,0,0,0,29,43.47c0,.5.22,3.56-.31,4.13s-.41.72-1,.78-4-.41-5.31,0-2.87,1.09-3.12,1.72.09,1.72.56,2.94A10.42,10.42,0,0,0,21,55.13s-2.81-1.56-3.47-2-1-.72-1-1-.5-4.37.91-6,4.09-.25,5.53-2.12,2.72-5.34,3.25-5.22.34.38.69.22.91-.47.81-.59-.44-.91-.59-1.22a8.27,8.27,0,0,0-.41-1,1.73,1.73,0,0,0-1.22-.09,16.62,16.62,0,0,1-4.5,1.5c-2.59.5-3.62.34-4.37.06s-2.09-1.44-3.69-1.37-1.75,1-3.19,1.84S7,39.85,6.76,39.63a7.23,7.23,0,0,1-1.06-4c0-.18,2.72-2.75,5.41-2.31s5.13,2,8.31,1.38,6.78-2.12,9-1.72,2.94,1.09,4,.81.84-.53,1.66-.59a6.76,6.76,0,0,0,2.19-.28,2.34,2.34,0,0,0,1.19-1.78,6.74,6.74,0,0,0-1.09-2.28c-.31-.16-1.5-1-1.84-1.16s-1.34-.31-1.37-.75-.31-1.69.25-1.91,3.69-.53,4.69.19,2.31,2,4.06,2a6.74,6.74,0,0,0,3.66-.81c.59-.41.81-1.31,1.09-1.31s1.91-.06,2.09-.31a7.81,7.81,0,0,0-.06-3.28c-.28-.59-.69-1.56-.37-2.09s.78-1.87,1.13-1.81.59.59.56,1.22a39.84,39.84,0,0,0,.25,4.59c.16.81,0,.88.34,1s1-.44,1-.44,1-1.16,1.63-1.28a4.29,4.29,0,0,1,1.5.09s-1,1.16-.87,1.69.72,1.28.19,1.75S52,28.28,52.17,29a21,21,0,0,0,1.09,3.34c.25.47.22.63,1.06.53s1.09-.62,1.5-.5a1.89,1.89,0,0,0,1.25.06c.47-.16,1.53,0,1.53.19S57.79,35.28,57.79,35.28Zm.75-4c-.25,0-1.62,0-2.44.06s-1.31.31-1.66,0a7.79,7.79,0,0,1-.94-2.56c0-.25,2-1.69,1.94-2.37s-.41-1.81-.09-1.94,1.31-.34,1.34-.78.22-.72-.09-.87-1-.28-1-.44-.06-.37.19-.37,1.31-.37,1.72-.09,1.19,1.69,1.25,4.31A38.67,38.67,0,0,1,58.54,31.31ZM13.48,40.94A4,4,0,0,1,12,40.28c-.25-.09-1.58.94-1.47,1.28,0,.09.13.56.53.53s.75-.72,1-.75,1.31.28,2.06.28a3.81,3.81,0,0,0,1.31-.09c.16-.09.13-.34,0-.59S14.17,41,13.48,40.94Zm6.13.47c.59-.09.5-.25.66-.37s0-.47-.19-.66-.44.09-.87.25a3.55,3.55,0,0,1-1.41.16c-.09,0-.5.63-.41.75A8.43,8.43,0,0,0,19.61,41.41Zm-6.91,2a1.79,1.79,0,0,0,.25.91,10.58,10.58,0,0,0,2.19-.5c.38-.16,0-.41-.09-.59S12.77,43.13,12.7,43.41Zm1.91,1.72a5.67,5.67,0,0,0-1.53.44,1.8,1.8,0,0,0,.41.81,4.06,4.06,0,0,0,1.38-.75C15.14,45.38,14.7,45.22,14.61,45.13Z"/></g></svg>