<svg xmlns="http://www.w3.org/2000/svg" viewBox="0 0 195.27 192.8"><defs><style>.cls-1,.cls-2{fill:#fff;}.cls-1,.cls-2,.cls-3{stroke:#000;stroke-miterlimit:10;}.cls-1{stroke-width:2px;}.cls-2,.cls-3{stroke-width:1.1px;}.cls-3{fill:none;}</style></defs><title>Asset 5</title><g id="Layer_2" data-name="Layer 2"><g id="Layer_2-2" data-name="Layer 2"><path class="cls-1" d="M157.38,90c-1.84-1.84-2.09-12.56-6-13.7-3.85,6.62.92,99.34-.55,103.11-1.1,8.82-53.75,19.76-103.38,5.69-2.18-.77-6.17-1.66-7.29-3.66,2.15-8,5.09-82.25,1.06-101.61-1.88,2.77-3.3,6.09-5.62,8.6,0,0-20.4,1.66-34.46-13.23,0,0,9.37-24.53,12.68-31.43A60,60,0,0,1,20.37,29.5c5-8,11.85-11.2,20.76-13.39C65.67,9.83,68.57,4.31,75.87,1.28,78.35,4.86,87.71,7.33,93.79,7.9,107.85,9.27,120,.82,120.25,1a63.88,63.88,0,0,0,8.55,5.52c10.41,5,22.42,5.4,32.63,10.94,0,0,13.68,3.39,21.68,31.79l11,28.12S182.1,92.9,157.38,90Z"/><path class="cls-2" d="M30.66,19.47S42.45,57.13,41.24,79.79"/><path class="cls-2" d="M164.09,18.65S151.13,57,151.4,76.26"/><path class="cls-3" d="M68.7,5.41c1.1,5,6.89,15.72,23.43,16.82,23.16.55,31.7-14.22,32.81-17.92"/><path class="cls-3" d="M72.28,2.93c1.11,5,5.79,14.61,23.16,15.17,19.3-1.38,25.36-12,26.47-15.72"/><path class="cls-2" d="M156.09,85.64s21.78,2.75,36.39-13.51"/><path class="cls-2" d="M3.36,68.82S7.77,82.33,38.1,84.53"/><path class="cls-2" d="M40.58,176.06s62,25.36,111.1-.83"/></g></g></svg>